<svg xmlns="http://www.w3.org/2000/svg" xmlns:xlink="http://www.w3.org/1999/xlink" width="202.496" height="213.32" viewBox="0 0 202.496 213.32">
  <defs>
    <filter id="Trazado_150554" x="10.521" y="10.52" width="191.975" height="191.975" filterUnits="userSpaceOnUse">
      <feOffset dx="6" dy="6" input="SourceAlpha"/>
      <feGaussianBlur stdDeviation="12.5" result="blur"/>
      <feFlood flood-opacity="0.039"/>
      <feComposite operator="in" in2="blur"/>
      <feComposite in="SourceGraphic"/>
    </filter>
  </defs>
  <g id="Grupo_151117" data-name="Grupo 151117" transform="translate(-370 -4464.001)">
    <g id="Grupo_145235" data-name="Grupo 145235" transform="translate(-339.625 2441)">
      <path id="Trazado_150553" data-name="Trazado 150553" d="M510.59,100.508H410.082A100.507,100.507,0,0,1,510.59,0Z" transform="translate(299.543 2023)" fill="#fed981"/>
      <path id="Trazado_156681" data-name="Trazado 156681" d="M148.749,253.813H101.213l47.535,80.482,47.535-80.482Z" transform="translate(658.666 1902.026)" fill="#ffde96"/>
      <ellipse id="Elipse_4893" data-name="Elipse 4893" cx="80" cy="80.5" rx="80" ry="80.5" transform="translate(730 2043)" fill="#ffebc1"/>
      <g transform="matrix(1, 0, 0, 1, 709.62, 2023)" filter="url(#Trazado_150554)">
        <path id="Trazado_150554-2" data-name="Trazado 150554" d="M607.345,138.775a58.487,58.487,0,1,1-58.487-58.487,58.488,58.488,0,0,1,58.487,58.487" transform="translate(-448.35 -38.27)" fill="#fff"/>
      </g>
    </g>
    <g id="Grupo_145233" data-name="Grupo 145233" transform="translate(-337.625 2429)">
      <path id="Trazado_160133" data-name="Trazado 160133" d="M14.5,10.836H12.633V15H10.289V3.625h4.227a4.778,4.778,0,0,1,3.109.9,3.1,3.1,0,0,1,1.094,2.539A3.5,3.5,0,0,1,18.215,9a3.437,3.437,0,0,1-1.527,1.238l2.461,4.648V15H16.633Zm-1.867-1.9h1.891a1.936,1.936,0,0,0,1.367-.449,1.606,1.606,0,0,0,.484-1.238,1.719,1.719,0,0,0-.457-1.266,1.9,1.9,0,0,0-1.4-.461H12.633Zm11.609,6.219a4.15,4.15,0,0,1-3.027-1.141,4.054,4.054,0,0,1-1.168-3.039v-.219a5.106,5.106,0,0,1,.492-2.277,3.612,3.612,0,0,1,1.395-1.547,3.914,3.914,0,0,1,2.059-.543,3.508,3.508,0,0,1,2.73,1.094,4.444,4.444,0,0,1,1,3.1v.922H22.336A2.1,2.1,0,0,0,23,12.836a2,2,0,0,0,1.395.5,2.437,2.437,0,0,0,2.039-.945l1.109,1.242a3.389,3.389,0,0,1-1.375,1.121A4.511,4.511,0,0,1,24.242,15.156Zm-.258-6.945a1.411,1.411,0,0,0-1.09.455,2.357,2.357,0,0,0-.535,1.3H25.5V9.788a1.681,1.681,0,0,0-.406-1.165A1.456,1.456,0,0,0,23.984,8.211Zm8.531,5.125a1.481,1.481,0,0,0,1.016-.344,1.2,1.2,0,0,0,.406-.914h2.117a2.9,2.9,0,0,1-.469,1.574,3.093,3.093,0,0,1-1.262,1.109,3.949,3.949,0,0,1-1.77.395A3.67,3.67,0,0,1,29.7,14a4.56,4.56,0,0,1-1.047-3.184v-.148a4.508,4.508,0,0,1,1.039-3.117,3.627,3.627,0,0,1,2.852-1.164,3.555,3.555,0,0,1,2.543.9,3.2,3.2,0,0,1,.973,2.4H33.938a1.551,1.551,0,0,0-.406-1.072,1.51,1.51,0,0,0-2.223.163,3.333,3.333,0,0,0-.4,1.866v.235a3.375,3.375,0,0,0,.4,1.878A1.377,1.377,0,0,0,32.516,13.336ZM36.992,10.7a5.013,5.013,0,0,1,.484-2.242A3.546,3.546,0,0,1,38.871,6.93a4.069,4.069,0,0,1,2.113-.539,3.849,3.849,0,0,1,2.793,1.047,4.2,4.2,0,0,1,1.207,2.844l.016.578a4.418,4.418,0,0,1-1.086,3.121,4.209,4.209,0,0,1-5.832,0,4.5,4.5,0,0,1-1.09-3.187Zm2.258.16A3.16,3.16,0,0,0,39.7,12.7a1.628,1.628,0,0,0,2.578.008,3.457,3.457,0,0,0,.461-2.015,3.128,3.128,0,0,0-.461-1.831,1.5,1.5,0,0,0-1.3-.649,1.474,1.474,0,0,0-1.281.646A3.516,3.516,0,0,0,39.25,10.856ZM51.141,8.664a6.134,6.134,0,0,0-.812-.062,1.654,1.654,0,0,0-1.68.867V15H46.391V6.547h2.133l.063,1.008a2.092,2.092,0,0,1,1.883-1.164,2.366,2.366,0,0,1,.7.1Zm5.836,0a6.134,6.134,0,0,0-.812-.062,1.654,1.654,0,0,0-1.68.867V15H52.227V6.547h2.133l.063,1.008A2.092,2.092,0,0,1,56.3,6.391a2.366,2.366,0,0,1,.7.1ZM60.445,15H58.18V6.547h2.266Zm-2.4-10.641a1.112,1.112,0,0,1,.34-.836,1.465,1.465,0,0,1,1.848,0,1.105,1.105,0,0,1,.344.836,1.108,1.108,0,0,1-.348.844,1.448,1.448,0,0,1-1.836,0A1.108,1.108,0,0,1,58.047,4.359Zm3.906,6.352a5.094,5.094,0,0,1,.887-3.148,2.877,2.877,0,0,1,2.426-1.172,2.589,2.589,0,0,1,2.039.922V3H69.57V15H67.531l-.109-.9a2.657,2.657,0,0,1-2.172,1.055,2.869,2.869,0,0,1-2.395-1.176A5.258,5.258,0,0,1,61.953,10.711Zm2.258.161a3.355,3.355,0,0,0,.414,1.829,1.348,1.348,0,0,0,1.2.636,1.51,1.51,0,0,0,1.477-.887V9.1a1.489,1.489,0,0,0-1.461-.887Q64.211,8.211,64.211,10.872Zm6.758-.176a5.013,5.013,0,0,1,.484-2.242A3.546,3.546,0,0,1,72.848,6.93a4.069,4.069,0,0,1,2.113-.539,3.849,3.849,0,0,1,2.793,1.047,4.2,4.2,0,0,1,1.207,2.844l.016.578a4.418,4.418,0,0,1-1.086,3.121,4.209,4.209,0,0,1-5.832,0,4.5,4.5,0,0,1-1.09-3.187Zm2.258.16A3.16,3.16,0,0,0,73.68,12.7a1.628,1.628,0,0,0,2.578.008,3.457,3.457,0,0,0,.461-2.015,3.128,3.128,0,0,0-.461-1.831,1.5,1.5,0,0,0-1.3-.649,1.474,1.474,0,0,0-1.281.646A3.516,3.516,0,0,0,73.227,10.856Zm11.719,1.808a.727.727,0,0,0-.41-.652,4.659,4.659,0,0,0-1.316-.426Q80.2,10.953,80.2,9.023a2.323,2.323,0,0,1,.934-1.879,3.766,3.766,0,0,1,2.441-.754,4.053,4.053,0,0,1,2.574.758,2.388,2.388,0,0,1,.965,1.969H84.859a1.092,1.092,0,0,0-.312-.8A1.322,1.322,0,0,0,83.57,8a1.351,1.351,0,0,0-.883.258.814.814,0,0,0-.312.656.7.7,0,0,0,.355.605,3.657,3.657,0,0,0,1.2.4,9.8,9.8,0,0,1,1.422.379,2.336,2.336,0,0,1,1.789,2.273,2.2,2.2,0,0,1-.992,1.871,4.28,4.28,0,0,1-2.562.715,4.47,4.47,0,0,1-1.887-.379,3.166,3.166,0,0,1-1.293-1.039,2.414,2.414,0,0,1-.469-1.426h2.141a1.179,1.179,0,0,0,.445.922,1.766,1.766,0,0,0,1.109.32,1.635,1.635,0,0,0,.98-.246A.766.766,0,0,0,84.945,12.664Z" transform="translate(760 2118)" fill="#12263f"/>
      <g id="Grupo_145230" data-name="Grupo 145230" transform="translate(181 932)">
        <circle id="Elipse_4886" data-name="Elipse 4886" cx="2.5" cy="2.5" r="2.5" transform="translate(615 1213)" fill="#12263f"/>
        <circle id="Elipse_4887" data-name="Elipse 4887" cx="2.5" cy="2.5" r="2.5" transform="translate(625 1213)" fill="#12263f"/>
        <circle id="Elipse_4888" data-name="Elipse 4888" cx="2.5" cy="2.5" r="2.5" transform="translate(635 1213)" fill="#12263f"/>
      </g>
    </g>
  </g>
</svg>
