<svg xmlns="http://www.w3.org/2000/svg" xmlns:xlink="http://www.w3.org/1999/xlink" width="202.495" height="213.32" viewBox="0 0 202.495 213.32">
  <defs>
    <filter id="Trazado_150557" x="10.52" y="10.52" width="191.975" height="191.975" filterUnits="userSpaceOnUse">
      <feOffset dx="6" dy="6" input="SourceAlpha"/>
      <feGaussianBlur stdDeviation="12.5" result="blur"/>
      <feFlood flood-opacity="0.039"/>
      <feComposite operator="in" in2="blur"/>
      <feComposite in="SourceGraphic"/>
    </filter>
  </defs>
  <g id="Grupo_151115" data-name="Grupo 151115" transform="translate(-584.626 -4464.001)">
    <g id="Grupo_145236" data-name="Grupo 145236" transform="translate(-339.625 2441)">
      <path id="Trazado_150556" data-name="Trazado 150556" d="M920.672,100.508H820.164A100.507,100.507,0,0,1,920.672,0Z" transform="translate(104.087 2023)" fill="#ff8578"/>
      <path id="Trazado_156682" data-name="Trazado 156682" d="M148.749,253.813H101.213l47.535,80.482,47.535-80.482Z" transform="translate(876.01 1902.026)" fill="#ffb6ae"/>
      <ellipse id="Elipse_4892" data-name="Elipse 4892" cx="80" cy="80.5" rx="80" ry="80.5" transform="translate(945 2043)" fill="#ffa298"/>
      <g transform="matrix(1, 0, 0, 1, 924.25, 2023)" filter="url(#Trazado_150557)">
        <path id="Trazado_150557-2" data-name="Trazado 150557" d="M1017.426,138.775a58.488,58.488,0,1,1-58.487-58.487,58.488,58.488,0,0,1,58.487,58.487" transform="translate(-858.43 -38.27)" fill="#fff"/>
      </g>
    </g>
    <g id="Grupo_145234" data-name="Grupo 145234" transform="translate(-337.625 2442)">
      <path id="Trazado_160134" data-name="Trazado 160134" d="M25.027,10.055h-4.5v3.063h5.281V15H18.184V3.625h7.609v1.9H20.527V8.234h4.5Zm5.227-.984,1.422-2.523H34.09l-2.406,4.141L34.191,15H31.77l-1.508-2.656L28.762,15h-2.43l2.508-4.312-2.4-4.141h2.422Zm7.625-4.6V6.547h1.445V8.2H37.879v4.219a1.007,1.007,0,0,0,.18.672.9.9,0,0,0,.688.2,3.6,3.6,0,0,0,.664-.055v1.711a4.648,4.648,0,0,1-1.367.2,2.156,2.156,0,0,1-2.422-2.4V8.2H34.387V6.547h1.234V4.469Zm7.453,4.2A6.134,6.134,0,0,0,44.52,8.6a1.654,1.654,0,0,0-1.68.867V15H40.582V6.547h2.133l.063,1.008A2.092,2.092,0,0,1,44.66,6.391a2.366,2.366,0,0,1,.7.1ZM51.082,15a2.507,2.507,0,0,1-.227-.758,2.732,2.732,0,0,1-2.133.914,3,3,0,0,1-2.059-.719,2.312,2.312,0,0,1-.816-1.812,2.389,2.389,0,0,1,1-2.062,4.915,4.915,0,0,1,2.879-.727h1.039V9.352a1.393,1.393,0,0,0-.3-.937,1.183,1.183,0,0,0-.949-.352,1.345,1.345,0,0,0-.895.273.929.929,0,0,0-.324.75H46.035a2.268,2.268,0,0,1,.453-1.359,3,3,0,0,1,1.281-.98,4.669,4.669,0,0,1,1.859-.355,3.689,3.689,0,0,1,2.48.785,2.747,2.747,0,0,1,.918,2.207v3.664a4.041,4.041,0,0,0,.336,1.82V15Zm-1.867-1.57a1.945,1.945,0,0,0,.922-.223,1.462,1.462,0,0,0,.625-.6V11.156h-.844q-1.7,0-1.8,1.172l-.008.133a.9.9,0,0,0,.3.7A1.153,1.153,0,0,0,49.215,13.43Zm9.063-.094a1.481,1.481,0,0,0,1.016-.344,1.2,1.2,0,0,0,.406-.914h2.117a2.9,2.9,0,0,1-.469,1.574,3.093,3.093,0,0,1-1.262,1.109,3.949,3.949,0,0,1-1.77.395A3.67,3.67,0,0,1,55.457,14,4.56,4.56,0,0,1,54.41,10.82v-.148a4.508,4.508,0,0,1,1.039-3.117A3.627,3.627,0,0,1,58.3,6.391a3.555,3.555,0,0,1,2.543.9,3.2,3.2,0,0,1,.973,2.4H59.7a1.551,1.551,0,0,0-.406-1.072,1.51,1.51,0,0,0-2.223.163,3.333,3.333,0,0,0-.4,1.866v.235a3.375,3.375,0,0,0,.4,1.878A1.377,1.377,0,0,0,58.277,13.336Zm8.344,0a1.481,1.481,0,0,0,1.016-.344,1.2,1.2,0,0,0,.406-.914H70.16a2.9,2.9,0,0,1-.469,1.574,3.093,3.093,0,0,1-1.262,1.109,3.949,3.949,0,0,1-1.77.395A3.67,3.67,0,0,1,63.8,14a4.56,4.56,0,0,1-1.047-3.184v-.148a4.508,4.508,0,0,1,1.039-3.117,3.627,3.627,0,0,1,2.852-1.164,3.555,3.555,0,0,1,2.543.9,3.2,3.2,0,0,1,.973,2.4H68.043a1.551,1.551,0,0,0-.406-1.072,1.51,1.51,0,0,0-2.223.163,3.333,3.333,0,0,0-.4,1.866v.235a3.375,3.375,0,0,0,.4,1.878A1.377,1.377,0,0,0,66.621,13.336ZM73.832,15H71.566V6.547h2.266Zm-2.4-10.641a1.112,1.112,0,0,1,.34-.836,1.465,1.465,0,0,1,1.848,0,1.105,1.105,0,0,1,.344.836,1.108,1.108,0,0,1-.348.844,1.448,1.448,0,0,1-1.836,0A1.108,1.108,0,0,1,71.434,4.359ZM75.34,10.7a5.013,5.013,0,0,1,.484-2.242A3.546,3.546,0,0,1,77.219,6.93a4.069,4.069,0,0,1,2.113-.539,3.849,3.849,0,0,1,2.793,1.047,4.2,4.2,0,0,1,1.207,2.844l.016.578a4.418,4.418,0,0,1-1.086,3.121,4.209,4.209,0,0,1-5.832,0A4.5,4.5,0,0,1,75.34,10.8Zm2.258.16a3.16,3.16,0,0,0,.453,1.843,1.628,1.628,0,0,0,2.578.008,3.457,3.457,0,0,0,.461-2.015,3.128,3.128,0,0,0-.461-1.831,1.5,1.5,0,0,0-1.3-.649,1.474,1.474,0,0,0-1.281.646A3.516,3.516,0,0,0,77.6,10.856ZM79.777,3h2.461L80.074,5.422H78.238Zm7.039,3.547.07.977a2.951,2.951,0,0,1,2.43-1.133,2.453,2.453,0,0,1,2,.789,3.682,3.682,0,0,1,.672,2.359V15H89.73V9.581a1.47,1.47,0,0,0-.312-1.045,1.4,1.4,0,0,0-1.039-.325,1.553,1.553,0,0,0-1.43.814V15H84.691V6.547Z" transform="translate(968 2105)" fill="#12263f"/>
      <g id="Grupo_145231" data-name="Grupo 145231" transform="translate(396 919)">
        <circle id="Elipse_4886" data-name="Elipse 4886" cx="2.5" cy="2.5" r="2.5" transform="translate(615 1213)" fill="#12263f"/>
        <circle id="Elipse_4887" data-name="Elipse 4887" cx="2.5" cy="2.5" r="2.5" transform="translate(625 1213)" fill="#12263f"/>
        <circle id="Elipse_4888" data-name="Elipse 4888" cx="2.5" cy="2.5" r="2.5" transform="translate(635 1213)" fill="#12263f"/>
      </g>
    </g>
  </g>
</svg>
