<svg xmlns="http://www.w3.org/2000/svg" xmlns:xlink="http://www.w3.org/1999/xlink" width="202.495" height="213.32" viewBox="0 0 202.495 213.32">
  <defs>
    <filter id="Trazado_150551" x="10.52" y="10.52" width="191.975" height="191.975" filterUnits="userSpaceOnUse">
      <feOffset dx="6" dy="6" input="SourceAlpha"/>
      <feGaussianBlur stdDeviation="12.5" result="blur"/>
      <feFlood flood-opacity="0.039"/>
      <feComposite operator="in" in2="blur"/>
      <feComposite in="SourceGraphic"/>
    </filter>
  </defs>
  <g id="Grupo_151114" data-name="Grupo 151114" transform="translate(-395 -3937.001)">
    <g id="Grupo_145237" data-name="Grupo 145237" transform="translate(-100 1914)">
      <path id="Trazado_150550" data-name="Trazado 150550" d="M100.508,100.508H0A100.505,100.505,0,0,1,100.508,0Z" transform="translate(494.999 2023)" fill="#43a99b"/>
      <path id="Trazado_156683" data-name="Trazado 156683" d="M148.749,253.813H101.213l47.535,80.482,47.535-80.482Z" transform="translate(445.759 1902.026)" fill="#89d0c7"/>
      <circle id="Elipse_4894" data-name="Elipse 4894" cx="80.5" cy="80.5" r="80.5" transform="translate(515 2043)" fill="#b1e0d9"/>
      <g transform="matrix(1, 0, 0, 1, 495, 2023)" filter="url(#Trazado_150551)">
        <path id="Trazado_150551-2" data-name="Trazado 150551" d="M197.263,138.775a58.487,58.487,0,1,1-58.487-58.487,58.488,58.488,0,0,1,58.487,58.487" transform="translate(-38.27 -38.27)" fill="#fff"/>
      </g>
    </g>
    <g id="Grupo_145232" data-name="Grupo 145232" transform="translate(-101 1915)">
      <path id="Trazado_160135" data-name="Trazado 160135" d="M7.672,12.18,10.25,3.625h2.609L8.9,15H6.453L2.508,3.625h2.6Zm9.656,2.977A4.15,4.15,0,0,1,14.3,14.016a4.054,4.054,0,0,1-1.168-3.039v-.219a5.106,5.106,0,0,1,.492-2.277A3.612,3.612,0,0,1,15.02,6.934a3.914,3.914,0,0,1,2.059-.543,3.508,3.508,0,0,1,2.73,1.094,4.444,4.444,0,0,1,1,3.1v.922H15.422a2.1,2.1,0,0,0,.66,1.328,2,2,0,0,0,1.395.5,2.437,2.437,0,0,0,2.039-.945l1.109,1.242a3.389,3.389,0,0,1-1.375,1.121A4.511,4.511,0,0,1,17.328,15.156ZM17.07,8.211a1.411,1.411,0,0,0-1.09.455,2.357,2.357,0,0,0-.535,1.3h3.141V9.788a1.681,1.681,0,0,0-.406-1.165A1.456,1.456,0,0,0,17.07,8.211Zm9.766.453a6.134,6.134,0,0,0-.812-.062,1.654,1.654,0,0,0-1.68.867V15H22.086V6.547h2.133l.063,1.008a2.092,2.092,0,0,1,1.883-1.164,2.366,2.366,0,0,1,.7.1ZM30.3,15H28.039V6.547H30.3Zm-2.4-10.641a1.112,1.112,0,0,1,.34-.836,1.465,1.465,0,0,1,1.848,0,1.105,1.105,0,0,1,.344.836,1.108,1.108,0,0,1-.348.844,1.448,1.448,0,0,1-1.836,0A1.108,1.108,0,0,1,27.906,4.359ZM32.711,15V8.2H31.453V6.547h1.258V6.156a3.17,3.17,0,0,1,.98-2.457,3.945,3.945,0,0,1,2.723-.863,9.031,9.031,0,0,1,2.563.461l-.328,1.867a10,10,0,0,0-1.187-.293,5.835,5.835,0,0,0-.906-.066q-1.578,0-1.578,1.4v.344h1.664V8.2H34.977V15Zm7.32,0H37.766V6.547h2.266Zm5.383-1.664a1.481,1.481,0,0,0,1.016-.344,1.2,1.2,0,0,0,.406-.914h2.117a2.9,2.9,0,0,1-.469,1.574,3.093,3.093,0,0,1-1.262,1.109,3.949,3.949,0,0,1-1.77.395A3.67,3.67,0,0,1,42.594,14a4.56,4.56,0,0,1-1.047-3.184v-.148a4.508,4.508,0,0,1,1.039-3.117,3.627,3.627,0,0,1,2.852-1.164,3.555,3.555,0,0,1,2.543.9,3.2,3.2,0,0,1,.973,2.4H46.836a1.551,1.551,0,0,0-.406-1.072,1.51,1.51,0,0,0-2.223.163,3.333,3.333,0,0,0-.4,1.866v.235a3.375,3.375,0,0,0,.4,1.878A1.377,1.377,0,0,0,45.414,13.336ZM55.141,15a2.507,2.507,0,0,1-.227-.758,2.732,2.732,0,0,1-2.133.914,3,3,0,0,1-2.059-.719,2.312,2.312,0,0,1-.816-1.812,2.389,2.389,0,0,1,1-2.062,4.915,4.915,0,0,1,2.879-.727H54.82V9.352a1.393,1.393,0,0,0-.3-.937,1.183,1.183,0,0,0-.949-.352,1.345,1.345,0,0,0-.895.273.929.929,0,0,0-.324.75H50.094a2.268,2.268,0,0,1,.453-1.359,3,3,0,0,1,1.281-.98,4.669,4.669,0,0,1,1.859-.355,3.689,3.689,0,0,1,2.48.785,2.747,2.747,0,0,1,.918,2.207v3.664a4.041,4.041,0,0,0,.336,1.82V15Zm-1.867-1.57a1.945,1.945,0,0,0,.922-.223,1.462,1.462,0,0,0,.625-.6V11.156h-.844q-1.7,0-1.8,1.172l-.008.133a.9.9,0,0,0,.3.7A1.153,1.153,0,0,0,53.273,13.43Zm9.063-.094a1.481,1.481,0,0,0,1.016-.344,1.2,1.2,0,0,0,.406-.914h2.117a2.9,2.9,0,0,1-.469,1.574,3.093,3.093,0,0,1-1.262,1.109,3.949,3.949,0,0,1-1.77.395A3.67,3.67,0,0,1,59.516,14a4.56,4.56,0,0,1-1.047-3.184v-.148a4.508,4.508,0,0,1,1.039-3.117,3.627,3.627,0,0,1,2.852-1.164,3.555,3.555,0,0,1,2.543.9,3.2,3.2,0,0,1,.973,2.4H63.758a1.551,1.551,0,0,0-.406-1.072,1.51,1.51,0,0,0-2.223.163,3.333,3.333,0,0,0-.4,1.866v.235a3.375,3.375,0,0,0,.4,1.878A1.377,1.377,0,0,0,62.336,13.336ZM69.547,15H67.281V6.547h2.266Zm-2.4-10.641a1.112,1.112,0,0,1,.34-.836,1.465,1.465,0,0,1,1.848,0,1.105,1.105,0,0,1,.344.836,1.108,1.108,0,0,1-.348.844,1.448,1.448,0,0,1-1.836,0A1.108,1.108,0,0,1,67.148,4.359ZM71.055,10.7a5.013,5.013,0,0,1,.484-2.242A3.546,3.546,0,0,1,72.934,6.93a4.069,4.069,0,0,1,2.113-.539A3.849,3.849,0,0,1,77.84,7.438a4.2,4.2,0,0,1,1.207,2.844l.016.578a4.418,4.418,0,0,1-1.086,3.121,4.209,4.209,0,0,1-5.832,0,4.5,4.5,0,0,1-1.09-3.187Zm2.258.16a3.16,3.16,0,0,0,.453,1.843,1.628,1.628,0,0,0,2.578.008,3.457,3.457,0,0,0,.461-2.015,3.128,3.128,0,0,0-.461-1.831,1.5,1.5,0,0,0-1.3-.649,1.474,1.474,0,0,0-1.281.646A3.516,3.516,0,0,0,73.313,10.856ZM75.492,3h2.461L75.789,5.422H73.953Zm7.039,3.547.07.977a2.951,2.951,0,0,1,2.43-1.133,2.453,2.453,0,0,1,2,.789A3.682,3.682,0,0,1,87.7,9.539V15H85.445V9.581a1.47,1.47,0,0,0-.312-1.045,1.4,1.4,0,0,0-1.039-.325,1.553,1.553,0,0,0-1.43.814V15H80.406V6.547Z" transform="translate(551 2105)" fill="#12263f"/>
      <g id="Grupo_144909" data-name="Grupo 144909" transform="translate(-31 921)">
        <circle id="Elipse_4886" data-name="Elipse 4886" cx="2.5" cy="2.5" r="2.5" transform="translate(615 1213)" fill="#12263f"/>
        <circle id="Elipse_4887" data-name="Elipse 4887" cx="2.5" cy="2.5" r="2.5" transform="translate(625 1213)" fill="#12263f"/>
        <circle id="Elipse_4888" data-name="Elipse 4888" cx="2.5" cy="2.5" r="2.5" transform="translate(635 1213)" fill="#12263f"/>
      </g>
    </g>
  </g>
</svg>
