<svg xmlns="http://www.w3.org/2000/svg" width="785" height="383" viewBox="0 0 785 383">
  <g id="Grupo_152921" data-name="Grupo 152921" transform="translate(-408 -12850)">
    <path id="Trazado_160055" data-name="Trazado 160055" d="M-2784.6,1176H-3226v80.667" transform="translate(3748 11700)" fill="none" stroke="#5263e2" stroke-width="3"/>
    <path id="Trazado_160056" data-name="Trazado 160056" d="M-2665.5,1210v74l-446.5.25" transform="translate(3748 11700)" fill="none" stroke="#5263e2" stroke-width="3"/>
    <path id="Trazado_160057" data-name="Trazado 160057" d="M-2737.75,1207.25-2738,1400h-490v-85.667" transform="translate(3748 11700)" fill="none" stroke="#5263e2" stroke-width="3"/>
    <path id="Trazado_160058" data-name="Trazado 160058" d="M-3308.333,1315l2.333,195h534" transform="translate(3748 11700)" fill="none" stroke="#5263e2" stroke-width="3"/>
    <path id="Trazado_160059" data-name="Trazado 160059" d="M-2597,1202v279" transform="translate(3748 11700)" fill="none" stroke="#5263e2" stroke-width="3"/>
    <rect id="Rectángulo_38990" data-name="Rectángulo 38990" width="221" height="52" rx="10" transform="translate(972 12850)" fill="#fed981"/>
    <rect id="Rectángulo_38995" data-name="Rectángulo 38995" width="221" height="52" rx="10" transform="translate(972 13181)" fill="#fed981"/>
    <rect id="Rectángulo_38991" data-name="Rectángulo 38991" width="221" height="52" rx="10" transform="translate(690 12850)" fill="#fed981"/>
    <rect id="Rectángulo_38992" data-name="Rectángulo 38992" width="221" height="52" rx="10" transform="translate(408 12955)" fill="#fed981"/>
    <rect id="Rectángulo_38993" data-name="Rectángulo 38993" width="221" height="52" rx="10" transform="translate(690 12955)" fill="#fed981"/>
    <rect id="Rectángulo_38994" data-name="Rectángulo 38994" width="221" height="52" rx="10" transform="translate(690 13068)" fill="#fed981"/>
    <circle id="Elipse_4955" data-name="Elipse 4955" cx="5.5" cy="5.5" r="5.5" transform="translate(1004 12902)" fill="#5263e2"/>
    <circle id="Elipse_4958" data-name="Elipse 4958" cx="5.5" cy="5.5" r="5.5" transform="translate(1146 12902)" fill="#5263e2"/>
    <circle id="Elipse_4957" data-name="Elipse 4957" cx="5.5" cy="5.5" r="5.5" transform="translate(517 12944)" fill="#5263e2"/>
    <circle id="Elipse_4956" data-name="Elipse 4956" cx="5.5" cy="5.5" r="5.5" transform="translate(630 12979)" fill="#5263e2"/>
    <path id="Polígono_9" data-name="Polígono 9" d="M6,0l6,11H0Z" transform="translate(434 13007)" fill="#5263e2"/>
    <path id="Polígono_12" data-name="Polígono 12" d="M6,0l6,11H0Z" transform="translate(514 13007)" fill="#5263e2"/>
    <path id="Polígono_10" data-name="Polígono 10" d="M6,0l6,11H0Z" transform="translate(1077 12902)" fill="#5263e2"/>
    <path id="Polígono_11" data-name="Polígono 11" d="M6,0l6,11H0Z" transform="translate(972 12870) rotate(90)" fill="#5263e2"/>
    <path id="Trazado_160139" data-name="Trazado 160139" d="M11.32-4.333a4.673,4.673,0,0,1-.721,2.36A4.35,4.35,0,0,1,8.75-.387a6.3,6.3,0,0,1-2.72.563A5.025,5.025,0,0,1,2.057-1.468,6.786,6.786,0,0,1,.606-6.108v-.633a7.746,7.746,0,0,1,.655-3.292,4.961,4.961,0,0,1,1.885-2.18,5.26,5.26,0,0,1,2.848-.769,5.516,5.516,0,0,1,3.744,1.226,4.844,4.844,0,0,1,1.608,3.379H8.271a2.292,2.292,0,0,0-.589-1.679,2.422,2.422,0,0,0-1.687-.51A1.843,1.843,0,0,0,4.307-9.7a5.536,5.536,0,0,0-.562,2.751v.905A6.125,6.125,0,0,0,4.258-3.12a1.882,1.882,0,0,0,1.771.879,2.369,2.369,0,0,0,1.626-.5,2.126,2.126,0,0,0,.6-1.591ZM15.768,0H12.8V-13.5h2.971Zm4.948,0H17.745V-9.51h2.971ZM17.569-11.971a1.334,1.334,0,0,1,.457-1.043,1.718,1.718,0,0,1,1.187-.407,1.718,1.718,0,0,1,1.187.407,1.334,1.334,0,0,1,.457,1.043,1.334,1.334,0,0,1-.457,1.043,1.718,1.718,0,0,1-1.187.407,1.718,1.718,0,0,1-1.187-.407A1.334,1.334,0,0,1,17.569-11.971ZM27.141.176A4.889,4.889,0,0,1,23.6-1.129a4.507,4.507,0,0,1-1.354-3.4v-.246a5.84,5.84,0,0,1,.541-2.575,3.955,3.955,0,0,1,1.578-1.727,4.763,4.763,0,0,1,2.461-.611,4.117,4.117,0,0,1,3.164,1.244,4.887,4.887,0,0,1,1.16,3.467v1.151H25.26a2.135,2.135,0,0,0,.694,1.257,2.066,2.066,0,0,0,1.389.457,2.662,2.662,0,0,0,2.2-.984l1.354,1.6A3.784,3.784,0,0,1,29.325-.277,5.3,5.3,0,0,1,27.141.176ZM26.807-7.4q-1.3,0-1.547,1.723h2.988v-.229a1.467,1.467,0,0,0-.36-1.1A1.434,1.434,0,0,0,26.807-7.4ZM35.06-9.51l.1,1.116a3.225,3.225,0,0,1,2.716-1.292,2.713,2.713,0,0,1,2.219.888,4.226,4.226,0,0,1,.76,2.672V0H37.881V-6a1.6,1.6,0,0,0-.29-1.059A1.342,1.342,0,0,0,36.536-7.4a1.413,1.413,0,0,0-1.292.686V0H32.282V-9.51ZM45.94-11.874V-9.51H47.5v2.057H45.94V-3.1a1.111,1.111,0,0,0,.193.747,1.037,1.037,0,0,0,.765.211,4.345,4.345,0,0,0,.738-.053V-.079a5.466,5.466,0,0,1-1.67.255,3.1,3.1,0,0,1-2.259-.721,2.954,2.954,0,0,1-.729-2.188v-4.72H41.766V-9.51h1.213v-2.364ZM53.271.176a4.889,4.889,0,0,1-3.542-1.305,4.507,4.507,0,0,1-1.354-3.4v-.246a5.84,5.84,0,0,1,.541-2.575,3.955,3.955,0,0,1,1.578-1.727,4.763,4.763,0,0,1,2.461-.611,4.117,4.117,0,0,1,3.164,1.244,4.887,4.887,0,0,1,1.16,3.467v1.151H51.39a2.135,2.135,0,0,0,.694,1.257,2.066,2.066,0,0,0,1.389.457,2.662,2.662,0,0,0,2.2-.984l1.354,1.6A3.784,3.784,0,0,1,55.455-.277,5.3,5.3,0,0,1,53.271.176ZM52.937-7.4q-1.3,0-1.547,1.723h2.988v-.229a1.467,1.467,0,0,0-.36-1.1A1.434,1.434,0,0,0,52.937-7.4Z" transform="translate(492 12988)" fill="#12263f"/>
    <path id="Trazado_160137" data-name="Trazado 160137" d="M-37.964-4.342V0h-3.085V-12.8h5.106a5.948,5.948,0,0,1,2.6.541A4.074,4.074,0,0,1-31.6-10.718a4.2,4.2,0,0,1,.62,2.263,3.7,3.7,0,0,1-1.34,2.993A5.561,5.561,0,0,1-36-4.342Zm0-2.382h2.021a1.906,1.906,0,0,0,1.367-.448,1.665,1.665,0,0,0,.47-1.266,2.059,2.059,0,0,0-.483-1.433,1.712,1.712,0,0,0-1.318-.545h-2.057Zm14.247-.105-.976-.07a1.752,1.752,0,0,0-1.793.879V0h-2.962V-9.51h2.777l.1,1.222a2.294,2.294,0,0,1,2.083-1.4,2.888,2.888,0,0,1,.826.105Zm.378,1.986a5.613,5.613,0,0,1,.554-2.536,3.96,3.96,0,0,1,1.591-1.709,4.791,4.791,0,0,1,2.435-.6,4.373,4.373,0,0,1,3.366,1.323,5.076,5.076,0,0,1,1.23,3.6v.105A4.925,4.925,0,0,1-15.4-1.129,4.384,4.384,0,0,1-18.743.176,4.434,4.434,0,0,1-22-1.042a4.761,4.761,0,0,1-1.327-3.3Zm2.962.185a3.538,3.538,0,0,0,.413,1.934,1.376,1.376,0,0,0,1.222.615q1.582,0,1.617-2.435v-.3q0-2.558-1.635-2.558-1.485,0-1.608,2.206ZM-9.2-3.524l1.5-5.985h3.12L-7.677,0H-10.7l-3.1-9.51h3.129ZM.8.176A4.889,4.889,0,0,1-2.747-1.129,4.507,4.507,0,0,1-4.1-4.526v-.246A5.84,5.84,0,0,1-3.56-7.348,3.955,3.955,0,0,1-1.982-9.075,4.763,4.763,0,0,1,.479-9.686,4.117,4.117,0,0,1,3.643-8.442,4.887,4.887,0,0,1,4.8-4.975v1.151H-1.085A2.135,2.135,0,0,0-.391-2.566,2.066,2.066,0,0,0,1-2.109a2.662,2.662,0,0,0,2.2-.984l1.354,1.6A3.784,3.784,0,0,1,2.979-.277,5.3,5.3,0,0,1,.8.176ZM.461-7.4q-1.3,0-1.547,1.723H1.9v-.229a1.467,1.467,0,0,0-.36-1.1A1.434,1.434,0,0,0,.461-7.4ZM10.6.176A4.889,4.889,0,0,1,7.053-1.129,4.507,4.507,0,0,1,5.7-4.526v-.246A5.84,5.84,0,0,1,6.24-7.348,3.955,3.955,0,0,1,7.818-9.075a4.763,4.763,0,0,1,2.461-.611,4.117,4.117,0,0,1,3.164,1.244A4.887,4.887,0,0,1,14.6-4.975v1.151H8.714a2.135,2.135,0,0,0,.694,1.257,2.066,2.066,0,0,0,1.389.457,2.662,2.662,0,0,0,2.2-.984l1.354,1.6A3.784,3.784,0,0,1,12.779-.277,5.3,5.3,0,0,1,10.6.176ZM10.261-7.4q-1.3,0-1.547,1.723H11.7v-.229a1.467,1.467,0,0,0-.36-1.1A1.434,1.434,0,0,0,10.261-7.4ZM15.42-4.825a5.809,5.809,0,0,1,.976-3.56,3.211,3.211,0,0,1,2.725-1.3,2.731,2.731,0,0,1,2.145,1V-13.5h2.971V0H21.573l-.149-1.02A2.8,2.8,0,0,1,19.1.176a3.205,3.205,0,0,1-2.689-1.3A5.993,5.993,0,0,1,15.42-4.825Zm2.962.185q0,2.531,1.477,2.531a1.458,1.458,0,0,0,1.406-.826V-6.557A1.419,1.419,0,0,0,19.876-7.4q-1.371,0-1.485,2.215Zm7.163-.2A5.613,5.613,0,0,1,26.1-7.378,3.96,3.96,0,0,1,27.69-9.088a4.791,4.791,0,0,1,2.435-.6,4.373,4.373,0,0,1,3.366,1.323,5.076,5.076,0,0,1,1.23,3.6v.105a4.925,4.925,0,0,1-1.235,3.529A4.384,4.384,0,0,1,30.142.176a4.434,4.434,0,0,1-3.261-1.217,4.761,4.761,0,0,1-1.327-3.3Zm2.962.185a3.538,3.538,0,0,0,.413,1.934,1.376,1.376,0,0,0,1.222.615q1.582,0,1.617-2.435v-.3q0-2.558-1.635-2.558-1.485,0-1.608,2.206ZM41.779-6.829,40.8-6.9a1.752,1.752,0,0,0-1.793.879V0H36.048V-9.51h2.777l.1,1.222a2.294,2.294,0,0,1,2.083-1.4,2.888,2.888,0,0,1,.826.105Z" transform="translate(1083 12882)" fill="#12263f"/>
    <path id="Trazado_160136" data-name="Trazado 160136" d="M-31.1,0h-1.635V-10.837l-3.278,1.2v-1.477l4.658-1.749h.255Zm4.966-.853a1.018,1.018,0,0,1,.25-.7.954.954,0,0,1,.751-.281.983.983,0,0,1,.76.281,1,1,0,0,1,.259.7.944.944,0,0,1-.259.677,1,1,0,0,1-.76.272.971.971,0,0,1-.751-.272A.962.962,0,0,1-26.134-.853Zm11.1-4.157V0h-1.687V-12.8H-12A4.742,4.742,0,0,1-8.71-11.725,3.635,3.635,0,0,1-7.519-8.886a3.587,3.587,0,0,1-1.165,2.87A4.954,4.954,0,0,1-12.019-5.01Zm0-1.38H-12a3.032,3.032,0,0,0,2.074-.638,2.334,2.334,0,0,0,.721-1.845A2.411,2.411,0,0,0-9.927-10.7a2.84,2.84,0,0,0-1.978-.713h-3.129ZM-1.789.176a4.155,4.155,0,0,1-3.146-1.27,4.714,4.714,0,0,1-1.213-3.4v-.3a5.707,5.707,0,0,1,.541-2.527A4.217,4.217,0,0,1-4.1-9.057a3.8,3.8,0,0,1,2.1-.628A3.562,3.562,0,0,1,.892-8.464a5.289,5.289,0,0,1,1.028,3.5v.677H-4.522A3.38,3.38,0,0,0-3.7-2.017a2.583,2.583,0,0,0,2,.866A2.832,2.832,0,0,0-.242-1.5,3.666,3.666,0,0,0,.8-2.435l.993.773A3.993,3.993,0,0,1-1.789.176Zm-.2-8.525a2.169,2.169,0,0,0-1.652.716,3.482,3.482,0,0,0-.826,2.008H.294v-.123a3.1,3.1,0,0,0-.668-1.92A2.042,2.042,0,0,0-1.991-8.35Zm5.4,3.516a5.571,5.571,0,0,1,1.037-3.52A3.28,3.28,0,0,1,7.159-9.686,3.3,3.3,0,0,1,9.8-8.543V-13.5H11.43V0H9.936L9.857-1.02A3.311,3.311,0,0,1,7.141.176,3.248,3.248,0,0,1,4.447-1.178,5.634,5.634,0,0,1,3.406-4.711Zm1.626.185A4.218,4.218,0,0,0,5.7-2.118,2.159,2.159,0,0,0,7.545-1.2,2.372,2.372,0,0,0,9.8-2.593V-6.961A2.39,2.39,0,0,0,7.563-8.306,2.17,2.17,0,0,0,5.7-7.383,4.644,4.644,0,0,0,5.032-4.649ZM15.719,0H14.093V-9.51h1.626ZM13.961-12.032A.971.971,0,0,1,14.2-12.7a.907.907,0,0,1,.716-.272.922.922,0,0,1,.721.272.96.96,0,0,1,.246.668.929.929,0,0,1-.246.659.938.938,0,0,1-.721.264.924.924,0,0,1-.716-.264A.938.938,0,0,1,13.961-12.032Zm3.964,7.2a5.571,5.571,0,0,1,1.037-3.52,3.28,3.28,0,0,1,2.716-1.332,3.3,3.3,0,0,1,2.646,1.143V-13.5H25.95V0H24.456l-.079-1.02a3.311,3.311,0,0,1-2.716,1.2,3.248,3.248,0,0,1-2.694-1.354,5.634,5.634,0,0,1-1.042-3.533Zm1.626.185a4.218,4.218,0,0,0,.668,2.531,2.159,2.159,0,0,0,1.846.914,2.372,2.372,0,0,0,2.259-1.389V-6.961a2.39,2.39,0,0,0-2.241-1.345,2.17,2.17,0,0,0-1.863.923A4.644,4.644,0,0,0,19.551-4.649Zm8.49-.193a5.617,5.617,0,0,1,.549-2.514A4.1,4.1,0,0,1,30.12-9.079a4.163,4.163,0,0,1,2.237-.606A4.01,4.01,0,0,1,35.5-8.341a5.174,5.174,0,0,1,1.2,3.577v.114a5.666,5.666,0,0,1-.532,2.492A4.038,4.038,0,0,1,34.646-.439a4.211,4.211,0,0,1-2.272.615,4,4,0,0,1-3.133-1.345,5.147,5.147,0,0,1-1.2-3.56Zm1.635.193a4.068,4.068,0,0,0,.734,2.54,2.349,2.349,0,0,0,1.964.958,2.335,2.335,0,0,0,1.969-.971,4.449,4.449,0,0,0,.729-2.72,4.061,4.061,0,0,0-.743-2.536,2.361,2.361,0,0,0-1.973-.971,2.335,2.335,0,0,0-1.942.958A4.416,4.416,0,0,0,29.676-4.649Z" transform="translate(800 12882)" fill="#12263f"/>
    <path id="Trazado_160138" data-name="Trazado 160138" d="M-73.986-7.189h1.222A2.685,2.685,0,0,0-70.954-7.8a2.026,2.026,0,0,0,.659-1.591,1.985,1.985,0,0,0-2.241-2.25,2.331,2.331,0,0,0-1.683.6,2.107,2.107,0,0,0-.628,1.6h-1.626a3.264,3.264,0,0,1,1.112-2.527,4.05,4.05,0,0,1,2.826-1.006,4,4,0,0,1,2.839.958,3.461,3.461,0,0,1,1.028,2.663,2.809,2.809,0,0,1-.541,1.617,3.264,3.264,0,0,1-1.472,1.169,3.145,3.145,0,0,1,1.63,1.107,3.076,3.076,0,0,1,.576,1.89A3.491,3.491,0,0,1-69.6-.835,4.213,4.213,0,0,1-72.527.176,4.324,4.324,0,0,1-75.458-.8a3.236,3.236,0,0,1-1.129-2.575h1.635a2.092,2.092,0,0,0,.659,1.617,2.507,2.507,0,0,0,1.767.606,2.46,2.46,0,0,0,1.8-.615A2.371,2.371,0,0,0-70.1-3.533a2.151,2.151,0,0,0-.686-1.714,2.987,2.987,0,0,0-1.978-.615h-1.222Zm7.945,6.337a1.018,1.018,0,0,1,.25-.7.954.954,0,0,1,.751-.281.983.983,0,0,1,.76.281,1,1,0,0,1,.259.7.944.944,0,0,1-.259.677,1,1,0,0,1-.76.272.971.971,0,0,1-.751-.272A.962.962,0,0,1-66.041-.853Zm16.479-2.5h-5.361L-56.127,0h-1.74l4.887-12.8H-51.5l4.9,12.8H-48.34Zm-4.852-1.38h4.351l-2.18-5.985ZM-43.374,0H-45V-13.5h1.626Zm10.652-4.649a5.654,5.654,0,0,1-1,3.5A3.2,3.2,0,0,1-36.413.176,3.315,3.315,0,0,1-39.2-1.1L-39.278,0h-1.494V-13.5h1.626v5.036a3.3,3.3,0,0,1,2.716-1.222,3.221,3.221,0,0,1,2.72,1.31,5.824,5.824,0,0,1,.989,3.586Zm-1.626-.185A4.394,4.394,0,0,0-34.989-7.4a2.124,2.124,0,0,0-1.846-.905,2.387,2.387,0,0,0-2.312,1.494V-2.7A2.454,2.454,0,0,0-36.817-1.2,2.112,2.112,0,0,0-35-2.109,4.672,4.672,0,0,0-34.348-4.834ZM-24.8,0a3.416,3.416,0,0,1-.229-1A3.628,3.628,0,0,1-27.738.176a3.357,3.357,0,0,1-2.307-.8,2.573,2.573,0,0,1-.9-2.017,2.688,2.688,0,0,1,1.129-2.307,5.325,5.325,0,0,1,3.177-.822h1.582v-.747a1.826,1.826,0,0,0-.51-1.358,2.049,2.049,0,0,0-1.5-.505,2.371,2.371,0,0,0-1.459.439,1.3,1.3,0,0,0-.589,1.063h-1.635a2.244,2.244,0,0,1,.505-1.375A3.449,3.449,0,0,1-28.876-9.3a4.613,4.613,0,0,1,1.9-.387,3.759,3.759,0,0,1,2.575.822A2.964,2.964,0,0,1-23.432-6.6v4.377A5.351,5.351,0,0,0-23.1-.141V0Zm-2.7-1.239a2.858,2.858,0,0,0,1.45-.4,2.392,2.392,0,0,0,.993-1.028V-4.614h-1.274q-2.988,0-2.988,1.749a1.48,1.48,0,0,0,.51,1.2A1.959,1.959,0,0,0-27.5-1.239Zm11.215-6.812a4.873,4.873,0,0,0-.8-.062A2.143,2.143,0,0,0-19.257-6.75V0h-1.626V-9.51H-19.3l.026,1.1a2.532,2.532,0,0,1,2.268-1.274,1.661,1.661,0,0,1,.721.123ZM-9.272,0A3.416,3.416,0,0,1-9.5-1,3.628,3.628,0,0,1-12.208.176a3.357,3.357,0,0,1-2.307-.8,2.573,2.573,0,0,1-.9-2.017,2.688,2.688,0,0,1,1.129-2.307,5.325,5.325,0,0,1,3.177-.822h1.582v-.747a1.826,1.826,0,0,0-.51-1.358,2.049,2.049,0,0,0-1.5-.505A2.371,2.371,0,0,0-13-7.937a1.3,1.3,0,0,0-.589,1.063h-1.635a2.244,2.244,0,0,1,.505-1.375A3.449,3.449,0,0,1-13.346-9.3a4.613,4.613,0,0,1,1.9-.387,3.759,3.759,0,0,1,2.575.822A2.964,2.964,0,0,1-7.9-6.6v4.377A5.351,5.351,0,0,0-7.567-.141V0Zm-2.7-1.239a2.858,2.858,0,0,0,1.45-.4,2.392,2.392,0,0,0,.993-1.028V-4.614H-10.8q-2.988,0-2.988,1.749a1.48,1.48,0,0,0,.51,1.2A1.959,1.959,0,0,0-11.971-1.239Zm1.5-12.243H-8.5L-10.854-10.9l-1.31,0ZM-3.814-9.51l.053,1.2A3.465,3.465,0,0,1-.914-9.686q3.015,0,3.041,3.4V0H.5V-6.293a2.189,2.189,0,0,0-.47-1.521,1.884,1.884,0,0,0-1.437-.492,2.347,2.347,0,0,0-1.389.422,2.865,2.865,0,0,0-.932,1.107V0H-5.353V-9.51ZM12.85-1.151a2.342,2.342,0,0,0,1.521-.527A1.855,1.855,0,0,0,15.091-3h1.538a2.949,2.949,0,0,1-.562,1.556A3.7,3.7,0,0,1,14.682-.264,3.994,3.994,0,0,1,12.85.176a3.918,3.918,0,0,1-3.089-1.3A5.163,5.163,0,0,1,8.613-4.667v-.272a5.725,5.725,0,0,1,.51-2.47,3.883,3.883,0,0,1,1.463-1.679,4.157,4.157,0,0,1,2.254-.6,3.814,3.814,0,0,1,2.659.958A3.424,3.424,0,0,1,16.629-6.24H15.091a2.241,2.241,0,0,0-.7-1.516,2.174,2.174,0,0,0-1.551-.593,2.276,2.276,0,0,0-1.92.892,4.19,4.19,0,0,0-.681,2.58v.308a4.106,4.106,0,0,0,.677,2.531A2.287,2.287,0,0,0,12.85-1.151Zm5.177-3.691a5.617,5.617,0,0,1,.549-2.514A4.1,4.1,0,0,1,20.1-9.079a4.163,4.163,0,0,1,2.237-.606,4.01,4.01,0,0,1,3.142,1.345,5.174,5.174,0,0,1,1.2,3.577v.114a5.666,5.666,0,0,1-.532,2.492A4.038,4.038,0,0,1,24.631-.439a4.211,4.211,0,0,1-2.272.615,4,4,0,0,1-3.133-1.345,5.147,5.147,0,0,1-1.2-3.56Zm1.635.193a4.068,4.068,0,0,0,.734,2.54,2.349,2.349,0,0,0,1.964.958,2.335,2.335,0,0,0,1.969-.971,4.449,4.449,0,0,0,.729-2.72,4.061,4.061,0,0,0-.743-2.536,2.361,2.361,0,0,0-1.973-.971,2.335,2.335,0,0,0-1.942.958A4.416,4.416,0,0,0,19.661-4.649Zm11.268-7.163v2.3H32.7v1.257H30.929v5.9a1.32,1.32,0,0,0,.237.858,1,1,0,0,0,.809.286,3.937,3.937,0,0,0,.773-.105V0A4.742,4.742,0,0,1,31.5.176a2.025,2.025,0,0,1-1.644-.659A2.832,2.832,0,0,1,29.3-2.355v-5.9H27.571V-9.51H29.3v-2.3ZM38.549.176A4.155,4.155,0,0,1,35.4-1.094a4.714,4.714,0,0,1-1.213-3.4v-.3a5.707,5.707,0,0,1,.541-2.527,4.217,4.217,0,0,1,1.512-1.74,3.8,3.8,0,0,1,2.1-.628,3.562,3.562,0,0,1,2.883,1.222,5.289,5.289,0,0,1,1.028,3.5v.677H35.815a3.38,3.38,0,0,0,.822,2.272,2.583,2.583,0,0,0,2,.866A2.832,2.832,0,0,0,40.1-1.5a3.666,3.666,0,0,0,1.046-.932l.993.773A3.993,3.993,0,0,1,38.549.176Zm-.2-8.525a2.169,2.169,0,0,0-1.652.716,3.482,3.482,0,0,0-.826,2.008h4.764v-.123a3.1,3.1,0,0,0-.668-1.92A2.042,2.042,0,0,0,38.347-8.35Zm7.471-1.16V1.1q0,2.742-2.487,2.742a3.034,3.034,0,0,1-.993-.157V2.391a3.144,3.144,0,0,0,.738.07,1.1,1.1,0,0,0,.831-.295,1.457,1.457,0,0,0,.286-1.025V-9.51Zm-1.793-2.522a.975.975,0,0,1,.242-.664.889.889,0,0,1,.708-.277.922.922,0,0,1,.721.272.96.96,0,0,1,.246.668.929.929,0,0,1-.246.659.938.938,0,0,1-.721.264.909.909,0,0,1-.712-.264A.949.949,0,0,1,44.024-12.032ZM54.308,0a3.416,3.416,0,0,1-.229-1A3.628,3.628,0,0,1,51.372.176a3.357,3.357,0,0,1-2.307-.8,2.573,2.573,0,0,1-.9-2.017,2.688,2.688,0,0,1,1.129-2.307,5.325,5.325,0,0,1,3.177-.822h1.582v-.747a1.826,1.826,0,0,0-.51-1.358,2.049,2.049,0,0,0-1.5-.505,2.371,2.371,0,0,0-1.459.439,1.3,1.3,0,0,0-.589,1.063H48.357a2.244,2.244,0,0,1,.505-1.375A3.449,3.449,0,0,1,50.234-9.3a4.613,4.613,0,0,1,1.9-.387,3.759,3.759,0,0,1,2.575.822A2.964,2.964,0,0,1,55.679-6.6v4.377a5.351,5.351,0,0,0,.334,2.083V0Zm-2.7-1.239a2.858,2.858,0,0,0,1.45-.4,2.392,2.392,0,0,0,.993-1.028V-4.614H52.778q-2.988,0-2.988,1.749a1.48,1.48,0,0,0,.51,1.2A1.959,1.959,0,0,0,51.609-1.239Zm6.223-3.595a5.571,5.571,0,0,1,1.037-3.52,3.28,3.28,0,0,1,2.716-1.332A3.3,3.3,0,0,1,64.23-8.543V-13.5h1.626V0H64.362l-.079-1.02a3.311,3.311,0,0,1-2.716,1.2,3.248,3.248,0,0,1-2.694-1.354,5.634,5.634,0,0,1-1.042-3.533Zm1.626.185a4.218,4.218,0,0,0,.668,2.531,2.159,2.159,0,0,0,1.846.914A2.372,2.372,0,0,0,64.23-2.593V-6.961a2.39,2.39,0,0,0-2.241-1.345,2.17,2.17,0,0,0-1.863.923A4.644,4.644,0,0,0,59.458-4.649Zm8.49-.193A5.617,5.617,0,0,1,68.5-7.356a4.1,4.1,0,0,1,1.529-1.723,4.163,4.163,0,0,1,2.237-.606,4.01,4.01,0,0,1,3.142,1.345,5.174,5.174,0,0,1,1.2,3.577v.114a5.666,5.666,0,0,1-.532,2.492A4.038,4.038,0,0,1,74.553-.439a4.211,4.211,0,0,1-2.272.615,4,4,0,0,1-3.133-1.345,5.147,5.147,0,0,1-1.2-3.56Zm1.635.193a4.068,4.068,0,0,0,.734,2.54,2.349,2.349,0,0,0,1.964.958,2.335,2.335,0,0,0,1.969-.971,4.449,4.449,0,0,0,.729-2.72,4.061,4.061,0,0,0-.743-2.536,2.361,2.361,0,0,0-1.973-.971,2.335,2.335,0,0,0-1.942.958A4.416,4.416,0,0,0,69.583-4.649Z" transform="translate(800 12988)" fill="#12263f"/>
    <path id="Trazado_160140" data-name="Trazado 160140" d="M-82.481,0h-8.385V-1.169l4.43-4.922a10.524,10.524,0,0,0,1.358-1.815A3.029,3.029,0,0,0-84.7-9.352,2.3,2.3,0,0,0-85.311-11a2.12,2.12,0,0,0-1.617-.642,2.511,2.511,0,0,0-1.885.69,2.635,2.635,0,0,0-.672,1.92h-1.626a3.774,3.774,0,0,1,1.138-2.856,4.219,4.219,0,0,1,3.045-1.09,4.054,4.054,0,0,1,2.821.936A3.193,3.193,0,0,1-83.07-9.545q0,1.89-2.408,4.5l-3.428,3.718h6.425Zm1.925-.853a1.018,1.018,0,0,1,.25-.7.954.954,0,0,1,.751-.281.983.983,0,0,1,.76.281,1,1,0,0,1,.259.7.944.944,0,0,1-.259.677,1,1,0,0,1-.76.272.971.971,0,0,1-.751-.272A.962.962,0,0,1-80.556-.853Zm16.479-2.5h-5.361L-70.642,0h-1.74L-67.5-12.8h1.477l4.9,12.8h-1.731Zm-4.852-1.38h4.351l-2.18-5.985ZM-57.889,0h-1.626V-13.5h1.626Zm10.652-4.649a5.654,5.654,0,0,1-1,3.5A3.2,3.2,0,0,1-50.928.176,3.315,3.315,0,0,1-53.714-1.1L-53.793,0h-1.494V-13.5h1.626v5.036a3.3,3.3,0,0,1,2.716-1.222,3.221,3.221,0,0,1,2.72,1.31,5.824,5.824,0,0,1,.989,3.586Zm-1.626-.185A4.394,4.394,0,0,0-49.5-7.4a2.124,2.124,0,0,0-1.846-.905,2.387,2.387,0,0,0-2.312,1.494V-2.7A2.454,2.454,0,0,0-51.333-1.2a2.112,2.112,0,0,0,1.819-.905A4.672,4.672,0,0,0-48.863-4.834ZM-39.318,0a3.416,3.416,0,0,1-.229-1A3.628,3.628,0,0,1-42.253.176a3.357,3.357,0,0,1-2.307-.8,2.573,2.573,0,0,1-.9-2.017,2.688,2.688,0,0,1,1.129-2.307,5.325,5.325,0,0,1,3.177-.822h1.582v-.747a1.826,1.826,0,0,0-.51-1.358,2.049,2.049,0,0,0-1.5-.505,2.371,2.371,0,0,0-1.459.439,1.3,1.3,0,0,0-.589,1.063h-1.635a2.244,2.244,0,0,1,.505-1.375A3.449,3.449,0,0,1-43.392-9.3a4.613,4.613,0,0,1,1.9-.387,3.759,3.759,0,0,1,2.575.822A2.964,2.964,0,0,1-37.947-6.6v4.377a5.351,5.351,0,0,0,.334,2.083V0Zm-2.7-1.239a2.858,2.858,0,0,0,1.45-.4,2.392,2.392,0,0,0,.993-1.028V-4.614h-1.274q-2.988,0-2.988,1.749a1.48,1.48,0,0,0,.51,1.2A1.959,1.959,0,0,0-42.016-1.239ZM-30.8-8.051a4.873,4.873,0,0,0-.8-.062A2.143,2.143,0,0,0-33.772-6.75V0H-35.4V-9.51h1.582l.026,1.1a2.532,2.532,0,0,1,2.268-1.274,1.661,1.661,0,0,1,.721.123ZM-23.788,0a3.416,3.416,0,0,1-.229-1A3.628,3.628,0,0,1-26.723.176a3.357,3.357,0,0,1-2.307-.8,2.573,2.573,0,0,1-.9-2.017A2.688,2.688,0,0,1-28.8-4.944a5.325,5.325,0,0,1,3.177-.822h1.582v-.747a1.826,1.826,0,0,0-.51-1.358,2.049,2.049,0,0,0-1.5-.505,2.371,2.371,0,0,0-1.459.439A1.3,1.3,0,0,0-28.1-6.873h-1.635a2.244,2.244,0,0,1,.505-1.375A3.449,3.449,0,0,1-27.861-9.3a4.613,4.613,0,0,1,1.9-.387,3.759,3.759,0,0,1,2.575.822A2.964,2.964,0,0,1-22.417-6.6v4.377a5.351,5.351,0,0,0,.334,2.083V0Zm-2.7-1.239a2.858,2.858,0,0,0,1.45-.4,2.392,2.392,0,0,0,.993-1.028V-4.614h-1.274q-2.988,0-2.988,1.749a1.48,1.48,0,0,0,.51,1.2A1.959,1.959,0,0,0-26.486-1.239Zm1.5-12.243h1.969L-25.37-10.9l-1.31,0ZM-18.33-9.51l.053,1.2a3.465,3.465,0,0,1,2.848-1.371q3.015,0,3.041,3.4V0h-1.626V-6.293a2.189,2.189,0,0,0-.47-1.521,1.884,1.884,0,0,0-1.437-.492,2.347,2.347,0,0,0-1.389.422,2.865,2.865,0,0,0-.932,1.107V0h-1.626V-9.51ZM-.822-6.864H2.747v1.538H-.822v4.043H-2.457V-5.326H-6.025V-6.864h3.568V-10.6H-.822ZM11.615-12.8,15.8-2.355,19.982-12.8H22.17V0H20.483V-4.983l.158-5.379L16.44,0H15.148L10.956-10.336l.167,5.353V0H9.435V-12.8ZM28.841.176a4.155,4.155,0,0,1-3.146-1.27,4.714,4.714,0,0,1-1.213-3.4v-.3a5.707,5.707,0,0,1,.541-2.527,4.217,4.217,0,0,1,1.512-1.74,3.8,3.8,0,0,1,2.1-.628,3.562,3.562,0,0,1,2.883,1.222,5.289,5.289,0,0,1,1.028,3.5v.677H26.108a3.38,3.38,0,0,0,.822,2.272,2.583,2.583,0,0,0,2,.866A2.832,2.832,0,0,0,30.388-1.5a3.666,3.666,0,0,0,1.046-.932l.993.773A3.993,3.993,0,0,1,28.841.176Zm-.2-8.525a2.169,2.169,0,0,0-1.652.716,3.482,3.482,0,0,0-.826,2.008h4.764v-.123a3.1,3.1,0,0,0-.668-1.92A2.042,2.042,0,0,0,28.639-8.35Zm10.389.3a4.873,4.873,0,0,0-.8-.062A2.143,2.143,0,0,0,36.057-6.75V0H34.431V-9.51h1.582l.026,1.1a2.532,2.532,0,0,1,2.268-1.274,1.661,1.661,0,0,1,.721.123Zm5.142,6.9a2.342,2.342,0,0,0,1.521-.527A1.855,1.855,0,0,0,46.411-3h1.538a2.949,2.949,0,0,1-.562,1.556A3.7,3.7,0,0,1,46-.264a3.994,3.994,0,0,1-1.833.439,3.918,3.918,0,0,1-3.089-1.3,5.163,5.163,0,0,1-1.147-3.546v-.272a5.725,5.725,0,0,1,.51-2.47,3.883,3.883,0,0,1,1.463-1.679,4.157,4.157,0,0,1,2.254-.6,3.814,3.814,0,0,1,2.659.958A3.424,3.424,0,0,1,47.949-6.24H46.411a2.241,2.241,0,0,0-.7-1.516,2.174,2.174,0,0,0-1.551-.593,2.276,2.276,0,0,0-1.92.892,4.19,4.19,0,0,0-.681,2.58v.308a4.106,4.106,0,0,0,.677,2.531A2.287,2.287,0,0,0,44.169-1.151ZM55.648,0a3.416,3.416,0,0,1-.229-1A3.628,3.628,0,0,1,52.712.176a3.357,3.357,0,0,1-2.307-.8,2.573,2.573,0,0,1-.9-2.017,2.688,2.688,0,0,1,1.129-2.307,5.325,5.325,0,0,1,3.177-.822h1.582v-.747a1.826,1.826,0,0,0-.51-1.358,2.049,2.049,0,0,0-1.5-.505,2.371,2.371,0,0,0-1.459.439,1.3,1.3,0,0,0-.589,1.063H49.7A2.244,2.244,0,0,1,50.2-8.249,3.449,3.449,0,0,1,51.574-9.3a4.613,4.613,0,0,1,1.9-.387,3.759,3.759,0,0,1,2.575.822A2.964,2.964,0,0,1,57.019-6.6v4.377a5.351,5.351,0,0,0,.334,2.083V0Zm-2.7-1.239a2.858,2.858,0,0,0,1.45-.4,2.392,2.392,0,0,0,.993-1.028V-4.614H54.119q-2.988,0-2.988,1.749a1.48,1.48,0,0,0,.51,1.2A1.959,1.959,0,0,0,52.95-1.239ZM61.106-9.51l.053,1.2a3.465,3.465,0,0,1,2.848-1.371q3.015,0,3.041,3.4V0H65.421V-6.293a2.189,2.189,0,0,0-.47-1.521,1.884,1.884,0,0,0-1.437-.492,2.347,2.347,0,0,0-1.389.422,2.865,2.865,0,0,0-.932,1.107V0H59.568V-9.51ZM73.314-1.151a2.342,2.342,0,0,0,1.521-.527A1.855,1.855,0,0,0,75.555-3h1.538a2.949,2.949,0,0,1-.562,1.556A3.7,3.7,0,0,1,75.146-.264a3.994,3.994,0,0,1-1.833.439,3.918,3.918,0,0,1-3.089-1.3,5.163,5.163,0,0,1-1.147-3.546v-.272a5.725,5.725,0,0,1,.51-2.47,3.883,3.883,0,0,1,1.463-1.679,4.157,4.157,0,0,1,2.254-.6,3.814,3.814,0,0,1,2.659.958A3.424,3.424,0,0,1,77.093-6.24H75.555a2.241,2.241,0,0,0-.7-1.516,2.174,2.174,0,0,0-1.551-.593,2.276,2.276,0,0,0-1.92.892,4.19,4.19,0,0,0-.681,2.58v.308a4.106,4.106,0,0,0,.677,2.531A2.287,2.287,0,0,0,73.314-1.151ZM80.688,0H79.053V-9.51h1.635Zm.018-13.474h1.969L80.319-10.89l-1.31,0ZM89.24,0a3.416,3.416,0,0,1-.229-1A3.628,3.628,0,0,1,86.3.176,3.357,3.357,0,0,1,84-.62a2.573,2.573,0,0,1-.9-2.017,2.688,2.688,0,0,1,1.129-2.307A5.325,5.325,0,0,1,87.4-5.766h1.582v-.747a1.826,1.826,0,0,0-.51-1.358,2.049,2.049,0,0,0-1.5-.505,2.371,2.371,0,0,0-1.459.439,1.3,1.3,0,0,0-.589,1.063H83.29a2.244,2.244,0,0,1,.505-1.375A3.449,3.449,0,0,1,85.166-9.3a4.613,4.613,0,0,1,1.9-.387,3.759,3.759,0,0,1,2.575.822A2.964,2.964,0,0,1,90.611-6.6v4.377a5.351,5.351,0,0,0,.334,2.083V0Zm-2.7-1.239a2.858,2.858,0,0,0,1.45-.4,2.392,2.392,0,0,0,.993-1.028V-4.614H87.71q-2.988,0-2.988,1.749a1.48,1.48,0,0,0,.51,1.2A1.959,1.959,0,0,0,86.542-1.239Z" transform="translate(800 13103)" fill="#12263f"/>
    <path id="Trazado_160141" data-name="Trazado 160141" d="M-31.821-4.3h1.775v1.327h-1.775V0h-1.635V-2.971h-5.827v-.958l5.73-8.868h1.731Zm-5.616,0h3.981v-6.275l-.193.352Zm9.062,3.445a1.018,1.018,0,0,1,.25-.7.954.954,0,0,1,.751-.281.983.983,0,0,1,.76.281,1,1,0,0,1,.259.7.944.944,0,0,1-.259.677,1,1,0,0,1-.76.272.971.971,0,0,1-.751-.272A.962.962,0,0,1-28.375-.853Zm16.471-4.8h-5.37V0h-1.687V-12.8h7.928v1.38h-6.24v4.386h5.37ZM-3.7,0a3.416,3.416,0,0,1-.229-1A3.628,3.628,0,0,1-6.631.176a3.357,3.357,0,0,1-2.307-.8,2.573,2.573,0,0,1-.9-2.017A2.688,2.688,0,0,1-8.71-4.944a5.325,5.325,0,0,1,3.177-.822h1.582v-.747a1.826,1.826,0,0,0-.51-1.358,2.049,2.049,0,0,0-1.5-.505,2.371,2.371,0,0,0-1.459.439,1.3,1.3,0,0,0-.589,1.063H-9.646a2.244,2.244,0,0,1,.505-1.375A3.449,3.449,0,0,1-7.77-9.3a4.613,4.613,0,0,1,1.9-.387,3.759,3.759,0,0,1,2.575.822A2.964,2.964,0,0,1-2.325-6.6v4.377A5.351,5.351,0,0,0-1.991-.141V0Zm-2.7-1.239a2.858,2.858,0,0,0,1.45-.4,2.392,2.392,0,0,0,.993-1.028V-4.614H-5.225q-2.988,0-2.988,1.749a1.48,1.48,0,0,0,.51,1.2A1.959,1.959,0,0,0-6.394-1.239Zm10.433.088a2.342,2.342,0,0,0,1.521-.527A1.855,1.855,0,0,0,6.28-3H7.818a2.949,2.949,0,0,1-.562,1.556A3.7,3.7,0,0,1,5.871-.264,3.994,3.994,0,0,1,4.039.176a3.918,3.918,0,0,1-3.089-1.3A5.163,5.163,0,0,1-.2-4.667v-.272a5.725,5.725,0,0,1,.51-2.47A3.883,3.883,0,0,1,1.775-9.088a4.157,4.157,0,0,1,2.254-.6,3.814,3.814,0,0,1,2.659.958A3.424,3.424,0,0,1,7.818-6.24H6.28a2.241,2.241,0,0,0-.7-1.516A2.174,2.174,0,0,0,4.03-8.35a2.276,2.276,0,0,0-1.92.892,4.19,4.19,0,0,0-.681,2.58v.308A4.106,4.106,0,0,0,2.1-2.039,2.287,2.287,0,0,0,4.039-1.151Zm7.813-10.661v2.3h1.775v1.257H11.852v5.9a1.32,1.32,0,0,0,.237.858A1,1,0,0,0,12.9-1.2a3.937,3.937,0,0,0,.773-.105V0a4.742,4.742,0,0,1-1.248.175A2.025,2.025,0,0,1,10.78-.483a2.832,2.832,0,0,1-.554-1.872v-5.9H8.495V-9.51h1.731v-2.3ZM21.4-.94A3.454,3.454,0,0,1,18.611.176a2.956,2.956,0,0,1-2.316-.883,3.823,3.823,0,0,1-.8-2.615V-9.51h1.626v6.144q0,2.162,1.758,2.162a2.434,2.434,0,0,0,2.479-1.389V-9.51h1.626V0H21.432Zm8.648-7.11a4.873,4.873,0,0,0-.8-.062A2.143,2.143,0,0,0,27.075-6.75V0H25.449V-9.51h1.582l.026,1.1a2.532,2.532,0,0,1,2.268-1.274,1.661,1.661,0,0,1,.721.123ZM37.059,0a3.416,3.416,0,0,1-.229-1A3.628,3.628,0,0,1,34.124.176a3.357,3.357,0,0,1-2.307-.8,2.573,2.573,0,0,1-.9-2.017,2.688,2.688,0,0,1,1.129-2.307,5.325,5.325,0,0,1,3.177-.822H36.8v-.747a1.826,1.826,0,0,0-.51-1.358,2.049,2.049,0,0,0-1.5-.505,2.371,2.371,0,0,0-1.459.439,1.3,1.3,0,0,0-.589,1.063H31.109a2.244,2.244,0,0,1,.505-1.375A3.449,3.449,0,0,1,32.985-9.3a4.613,4.613,0,0,1,1.9-.387,3.759,3.759,0,0,1,2.575.822A2.964,2.964,0,0,1,38.43-6.6v4.377a5.351,5.351,0,0,0,.334,2.083V0Zm-2.7-1.239a2.858,2.858,0,0,0,1.45-.4A2.392,2.392,0,0,0,36.8-2.663V-4.614H35.53q-2.988,0-2.988,1.749a1.48,1.48,0,0,0,.51,1.2A1.959,1.959,0,0,0,34.361-1.239Z" transform="translate(1083 13216)" fill="#12263f"/>
  </g>
</svg>
