<svg xmlns="http://www.w3.org/2000/svg" xmlns:xlink="http://www.w3.org/1999/xlink" width="415.453" height="315.07" viewBox="0 0 415.453 315.07"><defs><linearGradient id="a" x1="0.5" x2="0.5" y2="1" gradientUnits="objectBoundingBox"><stop offset="0" stop-color="#fed981"/><stop offset="0.522" stop-color="#ff8578"/><stop offset="1" stop-color="#5263e2"/></linearGradient><clipPath id="b"><path d="M132.57,22.351a15.2,15.2,0,0,0-15.2,15.2V46.53H66.2A19.39,19.39,0,0,0,46.813,65.921v47.735H41.377A29.243,29.243,0,0,0,12.134,142.9v13.6H9.216A9.216,9.216,0,0,0,0,165.715V248.38H377.859V200.206a9.88,9.88,0,0,0-9.881-9.879h-6.021V137.944A29.243,29.243,0,0,0,332.714,108.7H308.443V65.921A19.378,19.378,0,0,0,291.685,46.73V37.548a15.2,15.2,0,0,0-15.2-15.2Z" fill="none"/></clipPath><linearGradient id="c" y1="1.195" x2="0.003" y2="1.195" gradientUnits="objectBoundingBox"><stop offset="0" stop-color="#f9fbfc"/><stop offset="0.513" stop-color="#bee1f4"/><stop offset="1" stop-color="#f9fbfc"/></linearGradient><clipPath id="d"><path d="M169.491,22.351a15.2,15.2,0,0,0-15.2,15.2V46.53H92.65A19.391,19.391,0,0,0,73.26,65.921v47.735H67.825A29.243,29.243,0,0,0,38.581,142.9v13.6H35.664a9.216,9.216,0,0,0-9.216,9.217V248.38H414.779V200.206a9.88,9.88,0,0,0-9.88-9.879h-6.022V137.944A29.243,29.243,0,0,0,369.634,108.7H345.363V65.921A19.378,19.378,0,0,0,328.605,46.73V37.548a15.2,15.2,0,0,0-15.2-15.2Z" fill="none"/></clipPath><linearGradient id="e" x1="-0.068" y1="1.195" x2="-0.066" y2="1.195" gradientUnits="objectBoundingBox"><stop offset="0" stop-color="#bee1f4"/><stop offset="0.61" stop-color="#e4f2f9"/><stop offset="1" stop-color="#f9fbfc"/></linearGradient><clipPath id="f"><path d="M117.525,16.006A15.624,15.624,0,0,0,101.9,31.63v9.439A19.923,19.923,0,0,0,84.674,60.8v43.98H59.721a30.064,30.064,0,0,0-30.063,30.065V188.7H23.467a10.158,10.158,0,0,0-10.158,10.158v49.526H401.774V163.394a9.474,9.474,0,0,0-9.474-9.475h-3v-13.98a30.065,30.065,0,0,0-30.064-30.065h-5.587V60.8a19.935,19.935,0,0,0-19.935-19.934H292.107V31.63a15.624,15.624,0,0,0-15.623-15.624Z" fill="url(#a)"/></clipPath><clipPath id="h"><rect width="388.465" height="44.328" transform="translate(13.31 204.052)" fill="#d6d9ff"/></clipPath><clipPath id="i"><path d="M401.775,248.38v-27.1l-33.3-14.843a27.545,27.545,0,0,0-16.6-1.853L205.725,233.746l-56.761-22.7a67.193,67.193,0,0,0-46.269-1.334L37.107,231.652l-23.8-7.445V248.38H401.775Z" fill="#d6d9ff"/></clipPath><clipPath id="j"><rect width="80.108" height="32.922" fill="none"/></clipPath><clipPath id="k"><rect width="45.527" height="18.826" transform="translate(68.921 48.037)" fill="none"/></clipPath><clipPath id="l"><rect width="75.211" height="30.91" transform="translate(102.901 83.497)" fill="none"/></clipPath><clipPath id="m"><path d="M277.47,219.609,172.4,239.2a37.125,37.125,0,0,1-17.746-1.02l-12.7-3.916a134.394,134.394,0,0,0-74.3-1.412L4.524,249.722h397.25L330.658,223.96a101.548,101.548,0,0,0-53.188-4.351" fill="none"/></clipPath><linearGradient id="n" x1="-0.011" y1="2.343" x2="-0.009" y2="2.343" gradientUnits="objectBoundingBox"><stop offset="0" stop-color="#878cf0"/><stop offset="0.565" stop-color="#c9cbff"/><stop offset="1" stop-color="#f9fbfc"/></linearGradient><clipPath id="o"><rect width="2.674" height="2.674" transform="translate(158.422 64.077)" fill="none"/></clipPath><clipPath id="p"><rect width="2.674" height="2.674" transform="translate(240.147 157.899)" fill="none"/></clipPath><clipPath id="q"><rect width="2.674" height="2.674" transform="translate(324.448 44.146)" fill="none"/></clipPath><clipPath id="r"><rect width="5.348" height="5.348" transform="translate(253.031 24.5)" fill="none"/></clipPath><clipPath id="s"><rect width="5.348" height="5.348" transform="translate(212.956 146.882)" fill="none"/></clipPath><clipPath id="t"><rect width="5.347" height="5.348" transform="translate(340.307 48.032)" fill="none"/></clipPath><clipPath id="u"><rect width="5.348" height="5.348" transform="translate(140.506 33.908)" fill="none"/></clipPath><clipPath id="v"><rect width="415.453" height="315.07" fill="none"/></clipPath><clipPath id="w"><rect width="170.98" height="17.572" fill="none"/></clipPath><clipPath id="x"><rect width="129.305" height="16.373" fill="none"/></clipPath><clipPath id="y"><rect width="127.985" height="17.572" fill="none"/></clipPath><clipPath id="z"><rect width="108.631" height="115.393" fill="none"/></clipPath><clipPath id="ab"><rect width="17.94" height="14.057" fill="none"/></clipPath><clipPath id="ac"><rect width="6.933" height="51.199" fill="none"/></clipPath><clipPath id="ad"><rect width="9.005" height="9.005" fill="none"/></clipPath><clipPath id="ae"><rect width="163.846" height="236.98" fill="none"/></clipPath></defs><g transform="translate(-874 -178.776)"><g transform="translate(11533.674 12401.624)"><g transform="translate(-10659 -12213.03)"><g clip-path="url(#b)"><rect width="377.859" height="226.029" transform="translate(0 22.351)" fill="url(#c)"/></g></g><g transform="translate(-10659 -12213.03)"><g clip-path="url(#d)"><rect width="388.331" height="226.029" transform="translate(26.448 22.351)" fill="url(#e)"/></g></g><g transform="translate(-10659 -12213.03)"><g clip-path="url(#f)"><rect width="388.465" height="232.375" transform="translate(13.309 16.006)" fill="url(#a)"/></g></g><g transform="translate(-10659 -12213.03)" style="mix-blend-mode:multiply;isolation:isolate"><g clip-path="url(#h)"><g clip-path="url(#i)"><rect width="388.465" height="44.912" transform="translate(13.31 203.468)" fill="#d6d9ff"/></g></g></g><g transform="translate(-10722.662 -12198.359)" style="mix-blend-mode:screen;isolation:isolate"><g transform="translate(297.81 48.821)"><g clip-path="url(#j)"><path d="M369.78,65.466h-6.567a6.3,6.3,0,0,0-6.249-5.8h-9.843a8.445,8.445,0,0,0,.318-2.27,8.6,8.6,0,0,0-8.572-8.572H323.773a8.54,8.54,0,0,0-8.256,10.843h-1.343a6.3,6.3,0,0,0-6.251,5.8H305.95a8.139,8.139,0,1,0,0,16.278h63.83a8.139,8.139,0,0,0,0-16.278" transform="translate(-297.81 -48.82)" fill="#1d262d"/></g></g></g><g transform="translate(-10659 -12213.03)" style="mix-blend-mode:screen;isolation:isolate"><g clip-path="url(#k)"><path d="M109.794,57.388l-3.732.023a3.581,3.581,0,0,0-3.572-3.275l-5.593.035a4.854,4.854,0,0,0-4.73-6.134l-8.578.053a4.853,4.853,0,0,0-4.654,6.192l-.763,0A3.582,3.582,0,0,0,74.64,57.6l-1.122.007a4.626,4.626,0,0,0,.057,9.251l36.276-.224a4.626,4.626,0,1,0-.057-9.251" fill="#1d262d"/></g></g><g transform="translate(-10665 -12256.945)" style="mix-blend-mode:screen;isolation:isolate"><g transform="translate(24 -7)"><g clip-path="url(#l)"><path d="M170.471,99.124h-6.165a5.915,5.915,0,0,0-5.868-5.446H149.2A8.019,8.019,0,0,0,141.447,83.5H127.276a8.019,8.019,0,0,0-7.751,10.181h-1.26a5.915,5.915,0,0,0-5.869,5.446h-1.853a7.641,7.641,0,1,0,0,15.282h59.928a7.641,7.641,0,1,0,0-15.282" fill="#1d262d"/></g></g></g><g transform="translate(-10659 -12213.03)"><g clip-path="url(#m)"><rect width="397.25" height="31.833" transform="translate(4.524 217.889)" fill="url(#n)"/></g></g><g transform="translate(-10655.589 -12157.03)" style="mix-blend-mode:screen;isolation:isolate"><g clip-path="url(#o)"><path d="M159.759,64.077l.373.964.964.373-.964.372-.373.965-.373-.965-.964-.372.964-.373Z" fill="#a5b7c6"/></g></g><g transform="translate(-10659 -12213.03)" style="mix-blend-mode:screen;isolation:isolate"><g clip-path="url(#p)"><path d="M241.484,157.9l.373.964.964.373-.964.372-.373.965-.373-.965-.964-.372.964-.373Z" fill="#a5b7c6"/></g></g><g transform="translate(-10659 -12183.03)" style="mix-blend-mode:screen;isolation:isolate"><g clip-path="url(#q)"><path d="M325.785,44.146l.373.964.964.373-.964.372-.373.965-.372-.965-.965-.372.965-.373Z" fill="#a5b7c6"/></g></g><g transform="translate(-10659 -12213.03)" style="mix-blend-mode:screen;isolation:isolate"><g clip-path="url(#r)"><path d="M255.705,24.5l.745,1.929,1.929.745-1.929.745-.745,1.929-.745-1.929-1.929-.745,1.929-.745Z" fill="#a5b7c6"/></g></g><g transform="translate(-10659 -12213.03)" style="mix-blend-mode:screen;isolation:isolate"><g clip-path="url(#s)"><path d="M215.63,146.882l.745,1.929,1.929.745-1.929.745-.745,1.929-.745-1.929-1.929-.745,1.929-.745Z" fill="#a5b7c6"/></g></g><g transform="translate(-10667 -12175.03)" style="mix-blend-mode:screen;isolation:isolate"><g clip-path="url(#t)"><path d="M342.981,48.032l.745,1.929,1.929.745-1.929.745-.745,1.929-.745-1.929-1.929-.745,1.929-.745Z" fill="#a5b7c6"/></g></g><g transform="translate(-10619.25 -12174.13)" style="mix-blend-mode:screen;isolation:isolate"><g clip-path="url(#u)"><path d="M143.18,33.908l.745,1.929,1.929.745-1.929.745-.745,1.929-.745-1.929-1.929-.745,1.929-.745Z" fill="#a5b7c6"/></g></g></g><g transform="translate(874 178.776)"><g clip-path="url(#v)"><path d="M32.977,85.132H6.046a6.046,6.046,0,1,1,0-12.091H32.977a6.046,6.046,0,0,1,0,12.091" transform="translate(13.31 102.079)" fill="#fed981"/><path d="M265.083,309.268a5.8,5.8,0,1,1-5.8-5.8,5.8,5.8,0,0,1,5.8,5.8" transform="translate(88.718 -11.33)" fill="#a797fc"/><path d="M50.381,17.56A17.56,17.56,0,1,1,32.821,0a17.56,17.56,0,0,1,17.56,17.56" fill="#43a99b"/><path d="M409.606,79.086h-47.6a5.847,5.847,0,1,1,0-11.693h47.6a5.847,5.847,0,0,1,0,11.693" transform="translate(-26 -0.198)" fill="#fff3cd"/></g></g><g transform="translate(894.539 464.07)"><g transform="translate(0 0)" clip-path="url(#w)"><path d="M170.98,8.786c0,4.852-38.275,8.786-85.49,8.786S0,13.638,0,8.786,38.275,0,85.49,0s85.49,3.933,85.49,8.786" transform="translate(0 0.002)" fill="#f4c551"/></g></g><g transform="translate(990.326 444.557)"><g transform="translate(0 0)" clip-path="url(#x)"><path d="M129.3,8.187c0,4.521-28.946,8.187-64.652,8.187S0,12.708,0,8.187,28.946,0,64.652,0,129.3,3.665,129.3,8.187" transform="translate(0 0.002)" fill="#f4c551"/></g></g><g transform="translate(1109.314 452.145)"><g transform="translate(0 0)" clip-path="url(#y)"><path d="M127.985,8.786c0,4.852-28.65,8.786-63.993,8.786S0,13.638,0,8.786,28.65,0,63.993,0s63.993,3.933,63.993,8.786" transform="translate(0 0.002)" fill="#f4c551"/></g></g><g transform="translate(1000.663 337.35)"><g clip-path="url(#z)"><rect width="39.986" height="65.826" transform="translate(65.826 49.566)" fill="#dbce91"/><rect width="28.827" height="47.456" transform="translate(71.406 58.752)" fill="#fff5bd"/><rect width="28.827" height="3" transform="translate(71.406 66.076)" fill="#c3b473"/><rect width="28.827" height="3" transform="translate(71.406 76.012)" fill="#c3b473"/><rect width="28.827" height="3" transform="translate(71.406 85.947)" fill="#c3b473"/><rect width="28.827" height="3" transform="translate(71.406 95.883)" fill="#c3b473"/><path d="M103.022,82.558l-4.313-9.185H97.443v1.9Z" transform="translate(-31.617 -23.807)" fill="#fff8c5"/><path d="M148.375,82.558l4.313-9.185h1.266v1.9Z" transform="translate(-48.142 -23.807)" fill="#fff8c5"/><path d="M97.443,164.506v1.9H98.71l4.313-9.185Z" transform="translate(-31.617 -51.012)" fill="#fff8c5"/><path d="M152.688,166.4h1.267v-1.9l-5.58-7.286Z" transform="translate(-48.142 -51.012)" fill="#fff8c5"/><path d="M133.421,88.628H105.7V86.971h28.827v47.456h-1.108Z" transform="translate(-34.296 -28.219)" fill="#c3b473"/><rect width="65.826" height="65.826" transform="translate(0 49.566)" fill="#fff8c5"/><rect width="47.456" height="47.456" transform="translate(9.185 58.752)" fill="#fff5bd"/><rect width="47.456" height="3" transform="translate(9.185 66.076)" fill="#dbce91"/><rect width="47.456" height="3" transform="translate(9.185 76.012)" fill="#dbce91"/><rect width="47.456" height="3" transform="translate(9.185 85.947)" fill="#dbce91"/><rect width="47.456" height="3" transform="translate(9.185 95.883)" fill="#dbce91"/><path d="M83.846,82.558l7.1-9.185h2.085v1.9Z" transform="translate(-27.205 -23.807)" fill="#dbce91"/><path d="M0,73.373v1.9l9.185,7.286-7.1-9.185Z" transform="translate(0 -23.807)" fill="#e8a35f"/><path d="M90.946,166.4h2.085v-1.9l-9.185-7.286Z" transform="translate(-27.205 -51.012)" fill="#dbce91"/><path d="M0,164.506v1.9H2.085l7.1-9.185Z" transform="translate(0 -51.012)" fill="#dbce91"/><path d="M15.421,88.628H61.053V86.971H13.6v47.456h1.824Z" transform="translate(-4.412 -28.219)" fill="#dbce91"/><rect width="9.831" height="25.444" transform="translate(36.018 62.721) rotate(-54.638)" fill="#fff"/><g clip-path="url(#z)"><path d="M64.92,114H53.583a3.68,3.68,0,0,1-3.68-3.68V101.3H68.6v9.016A3.68,3.68,0,0,1,64.92,114" transform="translate(-16.192 -32.868)" fill="#c3b473"/><rect width="14.939" height="0.771" transform="translate(35.591 70.547)" fill="#fff"/><rect width="14.939" height="0.771" transform="translate(35.591 72.668)" fill="#fff"/><rect width="45.552" height="51.199" transform="translate(4.65 -0.001)" fill="#fff5bd"/><rect width="25.6" height="51.199" transform="translate(50.203 -0.001)" fill="#dbce91"/><g transform="translate(55.856 3.936)" style="mix-blend-mode:screen;isolation:isolate"><g clip-path="url(#ab)"><path d="M100.623,19.884,82.683,15.2V5.827l17.94,4.686Z" transform="translate(-82.683 -5.827)" fill="#8a5420"/></g></g><path d="M6.885,0S20.567,23.711,27.621,24.927,52.437,0,52.437,0,38.883,26.229,28.544,26.958,7.188,3.046,6.885,0" transform="translate(-2.234 0)" fill="#dbce91"/><path d="M9.675,60.976S23.1,36.414,24.878,36.164s1.825.979,4.136,1.159a11.951,11.951,0,0,0,5.108-1.192S49.763,56.6,50.882,59.76c0,0-17-20.6-17.855-21.063s-6.689-.709-6.689-.709Z" transform="translate(-3.139 -11.723)" fill="#dbce91"/><g transform="translate(22.804)" style="mix-blend-mode:screen;isolation:isolate"><g clip-path="url(#ac)"><rect width="6.932" height="51.199" transform="translate(0.001 -0.001)" fill="#8a5420"/></g></g><g transform="translate(61.376 18.471)" style="mix-blend-mode:screen;isolation:isolate"><g clip-path="url(#ad)"><path d="M99.859,31.845a4.5,4.5,0,1,1-4.5-4.5,4.5,4.5,0,0,1,4.5,4.5" transform="translate(-90.854 -27.343)" fill="#8a5420"/></g></g><path d="M0,0H75.1V25.742H0Z" transform="translate(33.527 24.336)" fill="#ff8578"/><rect width="23.711" height="25.742" transform="translate(84.921 24.336)" fill="#ea5949"/><rect width="2.528" height="6.659" transform="translate(33.527 29.28)" fill="#ea5949"/><rect width="2.528" height="6.659" transform="translate(82.393 38.106)" fill="#ea5949"/><rect width="9.514" height="2.528" transform="translate(66.494 24.336)" fill="#ea5949"/><rect width="9.514" height="2.528" transform="translate(54.813 24.336)" fill="#ea5949"/><rect width="2.528" height="6.659" transform="translate(82.393 29.28)" fill="#ea5949"/><rect width="9.515" height="2.528" transform="translate(43.132 24.336)" fill="#ea5949"/><path d="M115.722,36.024v2.528h4.218v.25h2.528V36.024Z" transform="translate(-37.548 -11.688)" fill="#ea5949"/><path d="M52.158,38.551h4.91V36.023H49.63V38.8h2.528Z" transform="translate(-16.103 -11.688)" fill="#ea5949"/><rect width="2.528" height="6.659" transform="translate(33.527 38.106)" fill="#ea5949"/><rect width="9.515" height="2.528" transform="translate(43.132 47.55)" fill="#ea5949"/><path d="M52.158,70.092v-.618H49.63V72.62h7.438V70.092Z" transform="translate(-16.103 -22.542)" fill="#ea5949"/><rect width="9.515" height="2.528" transform="translate(66.494 47.55)" fill="#ea5949"/><rect width="9.514" height="2.528" transform="translate(54.813 47.55)" fill="#ea5949"/><path d="M119.941,70.092h-4.218V72.62h6.746V69.474h-2.528Z" transform="translate(-37.548 -22.542)" fill="#ea5949"/><rect width="1.166" height="6.659" transform="translate(84.921 29.28)" fill="#ff8578"/><rect width="1.166" height="6.659" transform="translate(107.465 38.106)" fill="#ff6161"/><rect width="4.39" height="2.528" transform="translate(100.13 24.336)" fill="#ff8578"/><rect width="4.39" height="2.528" transform="translate(94.741 24.336)" fill="#ff8578"/><rect width="1.166" height="6.659" transform="translate(107.465 29.28)" fill="#ff6161"/><rect width="4.39" height="2.528" transform="translate(89.352 24.336)" fill="#ff8578"/><path d="M156.2,36.024v2.528h1.946v.25h1.166V36.024Z" transform="translate(-50.681 -11.688)" fill="#ff8578"/><path d="M126.874,38.551h2.266V36.023h-3.432V38.8h1.166Z" transform="translate(-40.788 -11.688)" fill="#ff8578"/><rect width="1.166" height="6.659" transform="translate(84.921 38.106)" fill="#ff8578"/><rect width="4.39" height="2.528" transform="translate(89.352 47.55)" fill="#ff8578"/><path d="M126.874,70.092v-.618h-1.166V72.62h3.432V70.092Z" transform="translate(-40.788 -22.542)" fill="#ff8578"/><rect width="4.39" height="2.528" transform="translate(100.13 47.55)" fill="#ff8578"/><rect width="4.39" height="2.528" transform="translate(94.741 47.55)" fill="#ff8578"/><path d="M158.146,70.092H156.2V72.62h3.112V69.474h-1.166Z" transform="translate(-50.681 -22.542)" fill="#ff8578"/><rect width="16.609" height="5.065" transform="translate(62.775 29.28)" fill="#ea5949"/><rect width="14.623" height="0.451" transform="translate(63.768 30.383)" fill="#fff5bd"/><rect width="14.623" height="0.451" transform="translate(63.768 31.587)" fill="#fff5bd"/><rect width="14.623" height="0.451" transform="translate(63.768 32.791)" fill="#fff5bd"/></g></g></g><g transform="translate(901.674 233.934)"><g clip-path="url(#ae)"><path d="M83.636,146.041S73.41,193.146,68.988,201.085c-7.27,13.052-37.122,47.141-53.478,45.819-7.592-.613-11.7-9.769-9.433-14.751C8.693,226.4,16.883,221.809,20.083,218.1c3.3-3.818,24.078-23.112,25.862-31.538.995-4.7,3.382-40.024,8.008-46.126s29.682,5.6,29.682,5.6" transform="translate(-1.612 -40.998)" fill="#5263e2"/><path d="M130.975,144.879s13.828,45.8,12.476,61.328-8.638,62.927-15.4,63.351-14.037-3.172-15.084-7.927c-1.817-8.261,7.657-58.067,6.5-61.371s-17.678-46.458-14.374-55.38,25.885,0,25.885,0" transform="translate(-30.94 -41.66)" fill="#5263e2"/><path d="M68.99,203.691c4.421-7.939,14.648-55.044,14.648-55.044s-1-.464-2.613-1.154C75.471,154.864,65.266,169.055,64.4,174.9c-1.2,8.061-6.346,24.527-16.638,35.333-9.209,9.669-31.594,19.337-42.1,25.81-1.155,5.124,2.876,12.9,9.855,13.467,16.357,1.322,46.209-32.767,53.478-45.819" transform="translate(-1.614 -43.605)" fill="#251f60"/><path d="M117.351,140.932c3.206,13.507,7.486,28.872,11.207,33.227,7.034,8.233,10.866,11.435,11.237,29.045s-9.92,42.537-18.153,52.142c-1.95,2.274-3.728,4.178-5.317,5.777.026.183.055.357.089.512,1.047,4.754,8.318,8.351,15.084,7.928s14.052-47.82,15.4-63.351-12.476-61.328-12.476-61.328-9.5-3.749-17.074-3.952" transform="translate(-34.391 -41.666)" fill="#251f60"/><path d="M78.974,35.967c2.422-2.647,3.315-8.039,1.454-9.891-3.011-2.995-6.715-1.889-8.346,1.134a19.618,19.618,0,0,0-.825,3.269s-1.242.038-1.862,2.181c-.863,2.983.9,8.254,3.252,8.349,1.364.056,4.192-2.71,6.327-5.043" transform="translate(-20.45 -7.187)" fill="#311e69"/><path d="M115.9,119.157c1.165-6.913-3.772-16.458-7.015-27.45-5.4-18.32-11.742-38.4-18.645-40.449C70.98,45.542,44.1,57.8,43.331,72.3c-.676,12.762,6.156,19.02,9.581,35.228,2.951,13.963-3.65,31.354,7.907,40.591,5.656,4.521,50.641-2.591,55.084-28.958" transform="translate(-12.797 -14.73)" fill="#ff8578"/><path d="M127.542,119.157c1.165-6.913-3.772-16.458-7.015-27.45-5.4-18.32-11.742-38.4-18.645-40.449a41.237,41.237,0,0,0-19.231-.578c1.051,1.931,2.241,4.4,3.588,7.557,7.609,17.863,23.846,44.551,24.075,54.17.125,5.231-4.342,23.327-.3,28.488,8.7-4.87,15.889-11.986,17.532-21.739" transform="translate(-24.435 -14.73)" fill="#ea5949"/><path d="M73.373,52.922s-1.468,1.352-1.27,2.144c.311,1.243,3.631,4.125,8.951,2.691,4.008-1.08,3.318-3.388,2.594-4.664-1.378-2.433-5.972-2.272-10.275-.171" transform="translate(-21.311 -15.169)" fill="#ffb5b3"/><path d="M73.125,42.185l.12,10.039c.3.878,4.261,3.129,8.431,1.681A2.927,2.927,0,0,0,83.361,50.9a6.779,6.779,0,0,0-1.116-1.6l-5.948-6.2Z" transform="translate(-21.619 -12.472)" fill="#f5a489"/><path d="M77.808,45.245c-1.527.247-3.62.556-3.62.556a6.583,6.583,0,0,0,3.528,3.272,6.311,6.311,0,0,0,3.975.221Z" transform="translate(-21.933 -13.376)" fill="#311e69"/><rect width="64.166" height="55.018" transform="translate(63.901 18.347) rotate(-11.672)" fill="#fff5bd"/><rect width="26.524" height="55.018" transform="matrix(0.979, -0.202, 0.202, 0.979, 126.74, 5.366)" fill="#dbce91"/><rect width="6.826" height="17.102" transform="translate(136.385 3.374) rotate(-11.674)" fill="#fff5bd"/><rect width="20.548" height="9.989" transform="translate(104.593 16.439) rotate(-11.672)" fill="#e2d69c"/><path d="M103.554,82.647S108.675,70.082,116,69.516s10.284,10.465,15.97,9.155.207-4.24,10.4-4.044,25.226.88,25.226.88l.885,4.285L105.646,92.774Z" transform="translate(-30.615 -20.546)" fill="#dbce91"/><path d="M127.953,62.04a1.656,1.656,0,0,0-.1,3.163,5.887,5.887,0,0,1,2.843,2.071c2.312,3.008,4.313,5.024,5.471,3.729s-.6-7.006-2.629-8.383a7.642,7.642,0,0,0-5.586-.579" transform="translate(-37.469 -18.262)" fill="#dbce91"/><path d="M74.2,35.036l-.261,5.748a3.51,3.51,0,0,0,3.527,3.4,9.693,9.693,0,0,0,4.181-.985c1.455-.6,1.826-2.261,1.278-4.235a19.145,19.145,0,0,0-2.9-5.828C78.186,30.6,74.64,31.3,74.2,35.036" transform="translate(-21.858 -9.351)" fill="#f5a489"/><path d="M81.644,44.657c1.455-.6,1.826-2.261,1.277-4.235a16.335,16.335,0,0,0-.991-2.617,49.072,49.072,0,0,0-5.38,1.133c-1.015.166-1.929-1.452-2.357-2.357l-.256,5.665a3.509,3.509,0,0,0,3.527,3.4,9.7,9.7,0,0,0,4.181-.985" transform="translate(-21.859 -10.815)" fill="#311e69"/><path d="M74.452,39.272a5.044,5.044,0,0,1-.378-1c-.182-.652-.6-1.581-1.44-.834-1.215,1.086-.055,4.511,1.633,4.325,1.253-.137.6-1.7.185-2.5" transform="translate(-21.325 -10.987)" fill="#f5a489"/><path d="M80.688,40.239a9.459,9.459,0,0,0,3.031-.745s.366,1.134-.218,1.725-2.017.273-2.812-.98" transform="translate(-23.855 -11.676)" fill="#fff"/><path d="M81.567,44.894c-1.779.13-2.349,3.039-6.017,1.453a4.485,4.485,0,0,1-1.609-1.9l-.006.126a3.509,3.509,0,0,0,3.527,3.394,9.694,9.694,0,0,0,4.181-.984,2.444,2.444,0,0,0,1.488-2.114,8.427,8.427,0,0,1-1.564.025" transform="translate(-21.858 -13.14)" fill="#1e1240"/><path d="M56.96,71.432c18.319.311,34.062,14.989,46.235,16.645,10.468,1.424,38.663-10.239,41.782-6.324,5.669,7.116-14.29,18.986-23.505,22.786-28.225,11.64-51.408-6.233-62.564-13.367C44.2,81.768,43,71.195,56.96,71.432" transform="translate(-13.94 -21.117)" fill="#f5a489"/><path d="M142.7,92.105c-5.205,5.635-15.38,11.3-21.229,13.71-28.225,11.64-51.407-6.233-62.563-13.367C49.2,86.239,45.382,79.523,47.922,75.743L77.773,92.215s9.5,6.823,16.736,8.533,7.463,1.574,15.74-.544c6.757-1.729,23.385-7.13,32.454-8.1" transform="translate(-13.942 -22.393)" fill="#cc765e"/><path d="M86.55,77.959c3.6,1.559,7.058,3.337,10.363,5.047-2.149,4.635-6.925,13.979-10.641,14.31-3.975.354-1.034-13.777.279-19.358" transform="translate(-24.913 -23.048)" fill="#311e69"/><path d="M183.025,89.477s5.092-.484,7.4-4.3c2.045-3.387,2.19-6.911-.006-8.216-1.829-1.088-3.753,4.431-5.688,5.031s-5.233.759-4.959,3.274,1.129,5.013,3.254,4.212" transform="translate(-53.143 -22.711)" fill="#f5a489"/><path d="M181.028,82.916s1.59-3.727,2.961-5.019,1.026-3.918,2.091-3.2.942,3.027.24,3.881,1.236,3.191.032,4.426-6.086,1.821-5.324-.089" transform="translate(-53.496 -22.048)" fill="#f5a489"/><path d="M57.112,91.748C40.857,79.92,42.5,71.195,56.457,71.432c7.586.129,16.817,3.005,25.03,6.332-1,4.8-3.554,15.551-10.567,22.4a141.734,141.734,0,0,1-13.808-8.416" transform="translate(-13.437 -21.117)" fill="#ff8578"/><path d="M57.116,93.224C47.241,86.039,43.982,80,46.065,76.422c3.594,4.09,10.8,11.382,17.044,12.031,4.072.423,9.5,2.18,14.163,3.963a31.894,31.894,0,0,1-6.347,9.225,141.734,141.734,0,0,1-13.808-8.416" transform="translate(-13.441 -22.594)" fill="#ea5949"/><path d="M124.14,323.465a6.667,6.667,0,0,0,.847-2.088,6.618,6.618,0,0,1,4.421-4.764c1.392-.526,4.823-2.541,5.783-1.4.858,1.015-1.447,3.366-.057,5.316.606.85,12.021,6.079,12.243,7.278.369,2-20.459,3.155-24.034,1.407-1.869-.914-.732-3.179.8-5.746" transform="translate(-36.178 -93.088)" fill="#12263f"/><path d="M4.521,286.576a6.7,6.7,0,0,0,2-1.029,6.618,6.618,0,0,1,6.458-.723c1.4.51,5.313,1.223,5.3,2.711-.013,1.329-3.294,1.605-3.514,3.99-.1,1.04,5.139,12.452,4.524,13.505C18.267,306.785,1.733,294.066.165,290.409c-.819-1.913,1.521-2.886,4.355-3.833" transform="translate(0 -84.055)" fill="#12263f"/></g></g><g transform="translate(15.325 -0.001)"><g transform="translate(1088.294 256.672)"><path d="M174.942,72.153l16.647,13.589,3.543-6.285s-12.943-8.55-20.19-7.3" transform="translate(-64.451 -26.536)" fill="#b1a9ff"/><path d="M83.544,5.2S84.959-.072,88.962.5c5.671.8,6.018,9.056,4.54,11.028-2.065,2.758-4.283.626-5.963-.923a32.964,32.964,0,0,1-4-5.4" transform="translate(-30.779 -0.167)" fill="#614cd4"/><path d="M91.749,1.793A3.924,3.924,0,0,0,89.407.03c-1.5-.292-3.544,1.662-2.449,2.519s4.381,0,4.792-.756" transform="translate(-31.922 0)" fill="#d8e7eb"/><path d="M88.836,8.725S85.778,2.559,83.2,1.281c-3.531-1.747-5.507,1.266-5.137,2.96s3.522,5.412,4.569,5.7,6.209-1.215,6.209-1.215" transform="translate(-28.741 -0.278)" fill="#1e1240"/><path d="M265.8,90.154l-19.3.295,7.767-11.374,19.3-.294Z" transform="translate(-90.813 -29.024)" fill="#ffde96"/><path d="M258.8,79.076l4.579,7.282L278.1,78.781l-15.586,8.837Z" transform="translate(-95.344 -29.024)" fill="#e8a35f"/><path d="M74.34,228.228c-10.054,0-25.289-55.676-14.876-85.949,14.252-41.434,22.464-56.9,28.138-60,8.382-4.576,25.538,6.128,25.531,25.47-.006,15.782-35.886,34.864-34.986,49.452,1.191,19.31,10.442,52.027,7.462,64.936-.766,3.32-9.881,6.089-11.268,6.089" transform="translate(-20.62 -29.926)" fill="#251f60"/><path d="M125.074,110.29c6.191,1.916,8.175,8.091,11.422,17,2.558,6.964,4.651,38.687,11.9,38.069,13.464-1.148,39.468-1.42,40.264-.7,6.649,6.014,2.148,14.392-1.947,15.856-65.569,23.442-67.833-9.068-74.392-32.443-3.045-10.853-9.428-28.353-9.428-28.353s16.277-11.257,22.178-9.431" transform="translate(-37.908 -40.558)" fill="#251f60"/><path d="M87.866,10.089a8.081,8.081,0,0,0-2.812-3.216c-2.262-1.693-2.684-.713-5.506-1.311A1.832,1.832,0,0,0,78.071,8.9c.423.275.7.854,1.5.92,3.612.3,7.8,1.142,8.3.271" transform="translate(-28.426 -2.025)" fill="#311e69"/><path d="M49.573,37.755c-8.259.367-16.223,31.363-19.354,31.363-6.239,0-17.749-31.478-26.875-26.667s8.009,43.563,26.3,44.67c14.09.853,21.9-17.958,24.064-23.511s2.047-26.131-4.136-25.856" transform="translate(-0.3 -13.908)" fill="#5263e2"/><path d="M235,202.406a2.809,2.809,0,0,0,1.139,2.129c1.047-.3,4.172-1.182,5.612-.251,3.155,1.782,7.127,3.933,8.123,3.442,1.66-.817-8.832-16.649-12.053-18.307-1.52-.781-5.212,2.951-4.78,5.274.208,1.121,1.687,5.106,1.959,7.714" transform="translate(-85.842 -69.745)" fill="#12263f"/><path d="M1.375,48.985C3.06,52.271,5.635,57.259,6.9,59.01c1.881,2.609,3.547,6.054,6.981,13.359s7.107,7.932,10.865,9.915,6.68,2.4,12.942-1.252,3.862-6.366,5.957-13.464c1.268-4.3,7-8.36,11.336-10.9.061,4.557-.431,8.939-1.264,11.082C51.552,73.3,43.738,92.114,29.648,91.26c-16.464-1-31.986-32.48-28.272-42.275" transform="translate(-0.256 -17.787)" fill="#251f60"/><path d="M120.629,85.456c.949-14.4.561-38.2-12.2-50.146-11.9-11.138-23.69-7.848-31.2-3.866C63.34,38.8,68.61,53.357,76.587,70.27c1.864,3.954-2.026,14.412-.962,21.123.126,4.067,6.151,9.249,9.749,9.615.927.095,2.883-7.645,3.836-7.587,1.747.105,8.794,7.285,10.477,6.682,13.99-5.018,19.084-9.475,20.942-14.647" transform="translate(-25.28 -10.207)" fill="#5263e2"/><path d="M120.526,35.311c-6.63-6.207-13.227-7.931-19.07-7.554.3,4.22,4.62,12.683,7.093,17.034,3.248,5.72,8.773,39,11.451,51.967,7.917-3.733,11.291-7.3,12.727-11.3.95-14.4.561-38.2-12.2-50.146" transform="translate(-37.377 -10.208)" fill="#251f60"/><path d="M85.885,33.953S83,35.992,83.508,40.577s7.585,18.686,10.7,23.866c0,0,2.443-5.717,2.8-15.458.365-9.937-.764-23.527-11.126-15.033" transform="translate(-30.743 -11.524)" fill="#d8e7eb"/><path d="M89.006,10.273s3.172.437,3.536,3.267c.5,3.862-5.792,8.065-6.382,1.73a6.133,6.133,0,0,1,.557-3.538Z" transform="translate(-31.729 -3.785)" fill="#311e69"/><path d="M88.422,19.326,93.2,28.113c.1,2.163-3.743,5.448-6.713,3.534-.659-.424-1.45-9.6-1.45-9.6Z" transform="translate(-31.329 -7.12)" fill="#ff6161"/><path d="M85.435,27.3c.092.877.2,1.878.327,2.844,1.364-.451,3.222-1.322,3.406-2.756.2-1.523-2.143-.766-3.733-.088" transform="translate(-31.475 -9.762)" fill="#311e69"/><path d="M84.713,11.821l.046,2.284,1.74,2.567.227.735a3.621,3.621,0,0,1-2.438,4.424,10,10,0,0,1-4.422.308c-1.618-.147-2.491-1.67-2.554-3.783a19.743,19.743,0,0,1,1.077-6.632c1.033-3.06,4.744-3.448,6.324.1" transform="translate(-28.48 -3.424)" fill="#ff6161"/><path d="M78.015,21.781s.953,1.108,3.363.526c0,0-1.528-2.166-3.363-.526" transform="translate(-28.742 -7.798)" fill="#fff"/><path d="M85.94,24.382a6.232,6.232,0,0,0,1.049-2.243,3.623,3.623,0,0,1-2.439,4.425,10,10,0,0,1-4.422.308,2.522,2.522,0,0,1-2.113-1.628c.323.042,4.794,1.823,7.925-.861" transform="translate(-28.742 -8.156)" fill="#ad263d"/><path d="M89.161,16.96c.191-.673.948-2.061,1.807-1.287,1.249,1.126.464,3.9-1.276,3.7-1.292-.148-.632-2.061-.531-2.415" transform="translate(-32.753 -5.69)" fill="#ff6161"/><path d="M108.5,39.747s33.245,39.538,37.152,41.917L141.5,89.138s-25.982-16.226-33-49.391" transform="translate(-39.972 -14.643)" fill="#a4a3ff"/><path d="M162.629,49.435h0c.032-1.017-.549-2.232-1.893-3.673-11.826-12.68-48.083-16.226-48.083-16.226-9.783,2.3-.748,17.3,6.042,20.705,2.519,1.262,10.579,2.716,19.121,3.4-10.457,6.01-26.908,16.711-22.863,22.509,7.928,11.365,49.355-13.028,47.676-26.715" transform="translate(-39.918 -10.881)" fill="#5263e2"/><path d="M6.493,41.153s.786-3.622.589-4.261c-.448-1.456-1.358-1.563-1.358-1.563s-.417-3.511-2.538-2.436C-.19,34.6-.292,36.1.241,39.265s1.552,7.184,6.251,1.888" transform="translate(0 -12.043)" fill="#ff6161"/><path d="M70.71,306.046a2.809,2.809,0,0,0-2.4-.27c-.35,1.031-1.395,4.105-2.979,4.763-3.258,1.586-7.283,3.635-7.445,4.734-.268,1.831,18.72,2.179,21.914.468,1.506-.807.529-5.965-1.629-6.929-1.041-.465-5.161-1.509-7.462-2.766" transform="translate(-21.325 -112.593)" fill="#12263f"/><path d="M97.373,89.331c.247,1.1-.11,2.114-.8,2.268s-1.443-.611-1.689-1.71.109-2.114.8-2.268,1.443.611,1.69,1.71" transform="translate(-34.929 -32.273)" fill="#ffbf80"/><path d="M99.453,100.26c.053,1.125-.473,2.063-1.176,2.1s-1.316-.851-1.369-1.976.473-2.063,1.176-2.1,1.316.851,1.369,1.976" transform="translate(-35.701 -36.209)" fill="#ffbf80"/><path d="M100.46,113.953c-.076,1.124-.706,2-1.408,1.95s-1.21-1-1.134-2.12.7-2,1.407-1.949,1.21,1,1.136,2.119" transform="translate(-36.071 -41.2)" fill="#ffbf80"/><path d="M123.36,53.2s-19.138,2.646-26.025-2.215c-2.449-1.729-5.446-5.865-6.965-8.1.032-.021.063-.04.094-.066a3.025,3.025,0,0,0,.961-3.073l-3.624.3a7.253,7.253,0,0,0,1.42,2.7c-.236,2.657-.305,8.645,3.223,12.475,8.984,9.75,30.237,8.493,30.237,8.493l7.814-2.775Z" transform="translate(-32.347 -14.643)" fill="#1e1240"/><path d="M166.119,49.642h0c.033-1.017-.546-2.233-1.891-3.674C154.465,35.5,128.063,31.26,119.139,30.1a29.234,29.234,0,0,0,10.242,4.835c9,2.408,9,1.218,15.8,5.465a51.792,51.792,0,0,1,10.37,8.538,6.757,6.757,0,0,1,.878,7.875c-1.488,2.642-2.993,5.113-9.777,7.115-9.923,2.929-14.135,2.161-16.471,5.66-1.7,2.54-7.585,4.05-12.257,3.886a3.562,3.562,0,0,0,.52,2.885c7.928,11.365,49.355-13.028,47.676-26.715" transform="translate(-43.408 -11.088)" fill="#251f60"/><path d="M114.841,98.283s-3.7.126-4.276.474c-1.3.791-1.183,1.7-1.183,1.7s-3.3,1.266-1.739,3.058c2.487,2.854,3.958,2.588,6.9,1.294s6.584-3.267.3-6.524" transform="translate(-39.502 -36.209)" fill="#ff6161"/><path d="M94.084,30.9a2.334,2.334,0,0,0-1.733-.658c-.162,1.467-4.425,4.746-4.425,4.746l-1.9-1.841c-1.224,1.358.212,5.225.212,5.225.178-.552,2.073-1.869,2.073-1.869l2.641,1.869,4.028-5.648a8.533,8.533,0,0,0-.894-1.824" transform="translate(-31.51 -11.14)" fill="#fff"/><path d="M173.217,117.345c6.937,3.907,8.155-2.995,15.2-6.516s8.389-3.935,10.985-9.352c.928-1.936,1.12-4.847.987-7.788-3.918-5.707-9.93-13.925-13.907-16.29-3.731-2.219-18.1,12.053-18.1,12.053s-4.486,3.257-7.634,5.909c1.261,3.825,6.45,18.591,12.475,21.984" transform="translate(-59.219 -28.428)" fill="#a4a3ff"/><path d="M197.463,111.116c-2.6,5.417-3.942,5.831-10.985,9.352s-8.261,10.423-15.2,6.516c-6.025-3.394-11.214-18.159-12.475-21.984a25.008,25.008,0,0,0-2.54,2.367c-4.073,4.708,8.95,23.984,12.5,27.34s19.36-1.244,27.538-9.4,7.94-13.327,5.333-17.245c-.679-1.021-1.8-2.722-3.182-4.732.134,2.941-.059,5.852-.987,7.788" transform="translate(-57.282 -38.067)" fill="#5263e2"/><path d="M161.862,100.671c.625,1.762,1.521,4.134,2.623,6.648a12.978,12.978,0,0,0,7.789,3.04c7.361,0,18.471-7.922,22.649-11.891a26.65,26.65,0,0,1,4.545-3.447c-2.074-2.952-4.525-6.273-6.9-9.043Z" transform="translate(-59.632 -31.675)" fill="#5263e2"/><rect width="13.884" height="23.315" transform="translate(126.672 71.481) rotate(-73.214)" fill="#ffde96"/><path d="M206.909,92.129l8.542,12.049,13.78-5.316-14.224,6.789Z" transform="translate(-76.227 -33.941)" fill="#e8a35f"/><path d="M180.192,77.966s2.34-2.544,7.1-1.864,18.119,1.925,17.439,4.813-24.688,22.706-30.916,22.932-17.921-5.633-17.921-5.633-.256-3.726,24.3-20.248" transform="translate(-57.431 -27.994)" fill="#a4a3ff"/></g></g></g></svg>