<svg xmlns="http://www.w3.org/2000/svg" xmlns:xlink="http://www.w3.org/1999/xlink" width="48" height="39" viewBox="0 0 48 39"><defs><clipPath id="a"><rect width="48" height="39" fill="#ffb2aa"/></clipPath></defs><g clip-path="url(#a)"><path d="M26.59,39H21.41A4.373,4.373,0,0,1,18.3,37.71a2.382,2.382,0,0,0-1.7-.71H2a2,2,0,0,1-2-2V6H2V35H16.593a4.372,4.372,0,0,1,3.114,1.29,2.384,2.384,0,0,0,1.7.71h5.18a2.416,2.416,0,0,0,1.7-.705A4.433,4.433,0,0,1,31.406,35H46V25h2V35a2,2,0,0,1-2,2H31.406a2.418,2.418,0,0,0-1.7.705A4.432,4.432,0,0,1,26.59,39" fill="#ffb2aa"/><path d="M25,35H22.5l-.3-.4A3.927,3.927,0,0,0,19,33H4V2H9V4H6V31H19a5.819,5.819,0,0,1,4,1.522V9c0-2.417-1.313-5-5-5H15V2h3a6.627,6.627,0,0,1,7,7Z" fill="#ffb2aa"/><path d="M25.61,35H23V9a6.627,6.627,0,0,1,7-7H44V6H42V4H30c-3.687,0-5,2.583-5,5V32.325A5.542,5.542,0,0,1,29,31H42V28h2v5H29c-2.076,0-2.722.7-3.111,1.457Z" fill="#ffb2aa"/><path d="M16,14.868,12,12.2,8,14.868V0h8ZM12,9.8l2,1.334V2H10v9.132Z" fill="#ffb2aa"/><path d="M38,27A10,10,0,1,1,48,17,10.011,10.011,0,0,1,38,27M38,9a8,8,0,1,0,8,8,8.009,8.009,0,0,0-8-8" fill="#ffb2aa"/><path d="M41,22H37V16H36V14h3v6h2Z" fill="#ffb2aa"/><rect width="3" height="2" transform="translate(35 20)" fill="#ffb2aa"/><rect width="2" height="2" transform="translate(37 11)" fill="#ffb2aa"/></g></svg>