<svg xmlns="http://www.w3.org/2000/svg" xmlns:xlink="http://www.w3.org/1999/xlink" width="48" height="43" viewBox="0 0 48 43"><defs><clipPath id="a"><rect width="48" height="43" fill="#ff8578"/></clipPath></defs><g transform="translate(0)"><path d="M46,11V39H29.58l-1.994,2H20.415l-2-2H2V11H0V41H17.588l2,2h8.831l1.994-2H48V11Z" fill="#ff8578"/><g clip-path="url(#a)"><path d="M25,39H21.5l-.3-.4A3.924,3.924,0,0,0,18,37H4V7H9V9H6V35H18a5.85,5.85,0,0,1,4.473,2H23V14c0-2.417-1.313-5-5-5H15V7h3a6.627,6.627,0,0,1,7,7Z" fill="#ff8578"/><path d="M26.61,39H23V14a6.581,6.581,0,0,1,4.728-6.7l.541,1.925A4.643,4.643,0,0,0,25,14V37h.433A5.148,5.148,0,0,1,30,35H42V9H40V7h4V37H30c-2.076,0-2.722.7-3.111,1.458Z" fill="#ff8578"/><path d="M16,19.868,12,17.2,8,19.868V5h8ZM12,14.8l2,1.333V7H10v9.131Z" fill="#ff8578"/><path d="M34,30a4,4,0,1,1,4-4,4,4,0,0,1-4,4m0-6a2,2,0,1,0,2,2,2,2,0,0,0-2-2" fill="#ff8578"/><path d="M34,20c-1.631,0-2.616-1.473-2.964-2.734A125.975,125.975,0,0,1,30,4.111a4,4,0,1,1,8,0,125.975,125.975,0,0,1-1.036,13.155C36.616,18.527,35.631,20,34,20M34,2a1.99,1.99,0,0,0-2,2.111c0,3.231.764,11.858.964,12.624C33.1,17.243,33.5,18,34,18s.9-.757,1.036-1.266c.2-.765.964-9.392.964-12.623A1.99,1.99,0,0,0,34,2" fill="#ff8578"/></g></g></svg>