<svg xmlns="http://www.w3.org/2000/svg" xmlns:xlink="http://www.w3.org/1999/xlink" width="46.033" height="44.255" viewBox="0 0 46.033 44.255"><defs><clipPath id="a"><rect width="46.033" height="44.255" transform="translate(0 0)" fill="#ffb2aa"/></clipPath></defs><g clip-path="url(#a)"><path d="M9.206,16.27c-.154,0-.307-.009-.459-.021-.1-.007-.209-.016-.315-.016H5v-2H8.432c.157,0,.312.011.467.022.532.044.828.063,1.559-.8.825-.97,3.033-3.224,5.707-3.224H17v2h-.835c-1.276,0-2.841.941-4.184,2.52A3.421,3.421,0,0,1,9.206,16.27" fill="#ffb2aa"/><path d="M24.251,31.233H14.812c-1.717,0-3.211-1.162-4.411-2.1a6.664,6.664,0,0,0-1.338-.907L5,28.233v-2H9.1a4.6,4.6,0,0,1,2.528,1.325c.959.746,2.152,1.675,3.183,1.675h9.439c.41-.289,1.435-3.055,1.686-11.292a1.656,1.656,0,0,0-.492-1.188,1.637,1.637,0,0,0-1.175-.52H16v-2h8.27a3.619,3.619,0,0,1,2.611,1.127A3.674,3.674,0,0,1,27.937,18c-.405,13.231-2.7,13.231-3.686,13.231" fill="#ffb2aa"/><path d="M6,31.233H0v-2H4v-15H0v-2H6Z" fill="#ffb2aa"/><rect width="2" height="3" transform="translate(1 15.234)" fill="#ffb2aa"/><path d="M33.468,30.392l-1.414-1.414a9.384,9.384,0,0,0,0-13.272l1.414-1.414a11.383,11.383,0,0,1,0,16.1" fill="#ffb2aa"/><path d="M36.731,33.655l-1.414-1.414a14.017,14.017,0,0,0,0-19.8l1.414-1.414a16.018,16.018,0,0,1,0,22.627" fill="#ffb2aa"/><path d="M39.995,36.918,38.581,35.5a18.615,18.615,0,0,0,0-26.325l1.414-1.414a20.614,20.614,0,0,1,0,29.153" fill="#ffb2aa"/><path d="M25.428,44.255l-.443-.3c-2.716-1.858-6.5-5.282-8.036-13.534l1.967-.365c1.314,7.07,4.38,10.209,6.754,11.936a14.644,14.644,0,0,0,4.4-2.963,13.167,13.167,0,0,0-2.6-6.261,12.786,12.786,0,0,0-2.562.551l-.834.308-.4-.792a17.784,17.784,0,0,1-.922-2.284l1.9-.639c.154.457.313.884.467,1.257a20.634,20.634,0,0,1,2.5-.436l.631-.081.349.369A14.771,14.771,0,0,1,32.12,39.24l.063.474-.329.347a16.658,16.658,0,0,1-5.928,3.991Z" fill="#ffb2aa"/><path d="M24.277,15.514l-1.92-.561a21.561,21.561,0,0,1,1.314-3.529l.4-.793.834.31a12.92,12.92,0,0,0,2.561.552,13.173,13.173,0,0,0,2.6-6.262,14.612,14.612,0,0,0-4.4-2.964C23.142,4.107,19.9,7.5,18.718,15.381l-1.978-.295C18.1,5.96,22.1,2.28,24.984.3l.443-.3.5.2A16.687,16.687,0,0,1,31.853,4.2l.329.345-.062.475a14.8,14.8,0,0,1-3.528,8.225l-.35.37-.652-.085a20.7,20.7,0,0,1-2.482-.434,25.3,25.3,0,0,0-.831,2.423" fill="#ffb2aa"/></g></svg>