<svg xmlns="http://www.w3.org/2000/svg" xmlns:xlink="http://www.w3.org/1999/xlink" width="255" height="255" viewBox="0 0 255 255"><defs><clipPath id="a"><rect width="128.592" height="208.102" fill="none"/></clipPath><clipPath id="b"><rect width="125.325" height="213.848" fill="none"/></clipPath></defs><g transform="translate(-253 -4828)"><g transform="translate(253 4828)"><rect width="255" height="255" fill="none"/><g transform="translate(43.083 18.448)"><g transform="translate(0 0)" clip-path="url(#a)"><path d="M104.9,55.365c6.521,23.091,21.118,42.89,23.165,67.251,1.323,15.74-1.856,31.99-9.962,45.546-8.547,14.294-22.233,25.105-37.439,31.9-14.863,6.642-31.544,9.65-47.636,7.185-9.014-1.381-17.922-4.548-24.994-10.305C3.207,193.009-.9,187.1.172,180.963c.708-4.06,3.54-7.4,6.461-10.3,10.7-10.647,24.693-19.439,29.253-33.826,3.324-10.488.789-22.039-3.856-32.012S20.741,85.953,15.277,76.4,5.444,56.18,6.053,45.194c.707-12.758,8.16-24.4,17.784-32.809C32.56,4.767,43.809-.777,55.359.089,64.891.8,73.733,5.853,80.466,12.637,92.2,24.458,97.8,40.67,104.9,55.365M29.083,25.856c.006-.038.019-.031.05.019l-.05-.019" transform="translate(0 0)" fill="#ffefcc"/><path d="M327.21,162.922c.322-6.168.908-14.957-4.5-19.322-5.749-4.643-11.695,1.57-14.555,6.359-15.286,25.594-5.02,56.789-9.806,84.685a35.83,35.83,0,0,0,9.894,1.238c3.6-.223,5.026-3.024,5.755-6.18,1.614-7,2.5-14.146,4.209-21.15,3.66-15.037,8.187-30.085,9-45.63" transform="translate(-228.763 -65.736)" fill="#fed981"/><path d="M54.7,99.159c-.376,4.222-1.01,8.412-1.706,12.59-.339,2.026-.6,4.234-1.029,6.373a.731.731,0,0,0-1.016.609c-.383,2.7-.552,6.166-2.039,8.525-2.289,3.645-7.534-.69-9.842-2.522a121.617,121.617,0,0,1-17.445-17.3C16.541,101.38,11.893,94.975,8.888,87.7c3.664-7.86,6.072-16.21,5.784-24.992C14.3,51.045,8.217,41.391.056,33.669c-.534-.505,2.947-1.006,3.088-1,11.766.39,18.633,11.459,23.434,20.718C28.159,56.434,33.1,68,33.854,68.792c.6.621.125-2.007-.069-2.892-2.07-9.435-10.018-32.614-11.6-42.167C21.145,17.466,19.176,8.941,21.936,2.9,23.372-.243,27.8-.425,30.693.459A12.88,12.88,0,0,1,37.06,5.434c14.535,19.792,15.965,47.889,17.558,71.35A142.531,142.531,0,0,1,54.7,99.159" transform="matrix(0.999, 0.035, -0.035, 0.999, 23.031, 60.349)" fill="#ffde96"/></g><g transform="translate(43.306 4.053)"><g clip-path="url(#b)"><path d="M112.072,453.254c6.26.027,12.521.135,18.781,0,5.113-.113,10.234-.409,15.332-.86.295-2.55.435-4.183.63-6.742.554-7.251-.462-6.54-.437-13.81.014-4.223-.123-9.286-.183-13.508a84.76,84.76,0,0,0-.458-11.509c-.689-4.531-4.539-13.577-10.6-11.885a.873.873,0,0,0-.491,1.33c-4.491,13.476-8.508,18.548-14.151,31.586-2.806,6.484-5.66,12.947-8.469,19.43q-1.295,2.988-2.572,5.985c.872-.005,1.743-.016,2.617-.012" transform="translate(-66.516 -239.876)" fill="#632828"/><path d="M98.186,31.487a17.144,17.144,0,0,0-6.479-13.154c-7.862-6.341-19.866-4.712-26.729,1.819-3.744,3.563-5.746,8.077-7.48,12.816-1.36,3.721-1.664,9.622-5.213,11.926-5.442,3.534-10.108,5.042-13.634,10.669-3.356,5.355-3.435,16.242,3.066,19.184,2.639,1.194,5.487.072,8.354.331,4.682.423,10.427.758,14.86-1.14,4.519-1.935,4.8-7.226,8.2-10.335.092-.084.19-.159.284-.24a22.023,22.023,0,0,1,8.569-3.42l.31-.054c.51-.074,1.014-.157,1.513-.26a15.645,15.645,0,0,0,6.716-2.374c2.218-1.616,3.2-4.074,3.958-6.607,1.9-6.322,3.987-12.514,3.7-19.16" transform="translate(-22.121 -8.708)" fill="#b35439"/><path d="M195.323,93.156a69.706,69.706,0,0,0-5.69-7.216,2.642,2.642,0,0,1-.588-.892c-.856-2.312-1.689-5.058-3.252-6.938a6.4,6.4,0,0,0-5.815-1.925,4.414,4.414,0,0,0-3.771,4.061c-.065,2.726-1.422,4.407-1.919,4.123a5.009,5.009,0,0,1-.934-1.294,6.968,6.968,0,0,0-2.491-1.959c-1.082-.583-2.471.04-1.683,1.3,1.175,1.878,2.534,3.632,3.887,5.386a8.359,8.359,0,0,0,4.2,3.337c1.913.6,3.864.49,5.183,2.183a59.264,59.264,0,0,1,3.992,5.233c.4.637,2.325.268,2.677-.106,1.54-1.631,6.464-4.934,6.207-5.292" transform="translate(-102.67 -46.23)" fill="#ffad85"/><path d="M198.986,105.127a4.316,4.316,0,0,1,2.754.28c.228.1.428-.235.2-.339a4.759,4.759,0,0,0-3.056-.32c-.246.055-.142.433.1.378" transform="translate(-120.775 -63.583)" fill="#bf604d"/><path d="M191.538,54.292a3.19,3.19,0,0,0-.52-.8c-.377-.426-.967-.731-1.432-.265-1.121,1.124-1.346,4.908,1.025,4.435.1.108.718.411.785.233a4.751,4.751,0,0,0,.142-3.607" transform="translate(-114.717 -32.206)" fill="#ffad85"/><path d="M185.127,51.421c-.353-.761-1-1.35-1.583-1.041a.905.905,0,0,0-.366.407,2.023,2.023,0,0,0-.221,1.119,1.339,1.339,0,0,1,.01.433.714.714,0,0,0-.043.208.459.459,0,0,0,.149.257c.367.39,1.155,1.1,1.827.716.639-.369.586-1.323.227-2.1" transform="translate(-111.163 -30.565)" fill="#ffad85"/><path d="M172.587,54.094c-.21-.226-.512-.409-.67-.28-2.816,2.315-6.465,5.225-9.283,7.661-.273.236.041.935.279,1.209,3.845,4.433,7.391,8.371,11.252,12.836a1.051,1.051,0,0,0,1.4.117c2.885-2.3,5.816-4.831,8.73-7.292a.582.582,0,0,0,.2-.642.62.62,0,0,0-.148-.421c-3.828-4.595-7.669-8.79-11.763-13.189" transform="translate(-98.769 -32.677)" fill="#43a99b"/><path d="M54.37,392.133c4.892.021,9.785.084,14.677.047a1.354,1.354,0,0,0,1.279-.937c5.331-16.652,6.814-23.731,7.656-23.836a.174.174,0,0,1,.208.16.2.2,0,0,1,.091.173c-.005,7.782-.306,15.557-.605,23.333a.851.851,0,0,0,.914.878c5.471-.411,21.3-.627,23.939-.5a1.568,1.568,0,0,0,1.658-1.434c.892-11.827,1.586-31.515.887-42.061-1.087-16.395-6.045-30.449-12.721-45.937-.625-1.451-1.29-2.885-2.013-4.29-.234-.456-.825-.176-1.3.233a1.618,1.618,0,0,1-1.656.278c-5.138-2.053-11.243-1.115-16.638-1.241a159.251,159.251,0,0,1-20.347-1.8,1.606,1.606,0,0,1-1.329-1.494c-.025-.291-.189-.348-.535.1-11.222,14.543-16.6,29.559-21.989,57.784-1.217,6.376-7.992,19.2-12,37.6a1.556,1.556,0,0,0,1.377,1.881c8.877.847,32.538,1.049,38.452,1.074" transform="translate(-8.815 -178.343)" fill="#f7e0d0"/><path d="M225.255,155.69c-5.4-2.287-24.389-10.385-28.015-11.909-3.714-1.561-9.5-4.211-13.413-5.139-.58-.138.961,2.026,1.075,2.458-.316,2.131.567,4.142,1.208,6.176l2.772,8.8,2.64,8.377c.38,1.206.715,2.451,1.092,3.681a.675.675,0,0,0-.7,1.1,19.631,19.631,0,0,0,1.553,1.353c.158.4.324.79.507,1.174.25.522.8.373,1.124.029,1.437,1.469,4.594,2.068,6.537,2.61a44.289,44.289,0,0,0,7.722,1.426c4.882.461,10.309,1.07,14.994-.746,4.291-1.663,6.109-5.981,6.627-10.233.534-4.386-1.705-7.451-5.719-9.151" transform="translate(-111.632 -84.249)" fill="#f7e0d0"/><path d="M120.632,79.707c.729.211,1.486.362,2.192.584,1.547.487,3.045,1.118,4.6,1.583a11.493,11.493,0,0,0,5.422.459,19.979,19.979,0,0,0,3.9-1.174c.288-2.916.923-5.879,1.351-8.713a.533.533,0,0,0,.159-.482c-.012-.1-.033-.2-.047-.295a.691.691,0,0,0-.066-.411c-.906-5.158-4.91-9.224-8.8-12.57-1.627-1.4-4.435-3.247-6.669-3.374a2.021,2.021,0,0,0-2.212,1.477,10.327,10.327,0,0,0,.381,1.229,100.091,100.091,0,0,1-.217,21.687" transform="translate(-73.206 -33.612)" fill="#ffad85"/><path d="M124.74,121.859c-1.415-3.527-6.213-2.43-6.357-4.519a31.192,31.192,0,0,1,.134-5.6.377.377,0,0,0-.426-.42c-5.571.728-11.248.691-15.735-2.351a.3.3,0,0,0-.467.212c-.155,1.649-.3,2.785-.363,3.186a7.827,7.827,0,0,1-3,5.715c-1.7,1.6-5.571,2.927-7.685,3.941a.712.712,0,0,0-.247.192.4.4,0,0,0-.325,0c-.978.424-.908,1.1.121,1.377,5.6,1.531,9.043,6.229,11.948,10.921,3.184,5.142,6.3,10.328,9.443,15.492,1.72,2.823,4.1,8.62,8.431,7.7,3.987-.849,4.245-6.883,4.393-10a.617.617,0,0,0-.13-.429c1.8-6.427,2.747-19.233.266-25.415" transform="translate(-54.435 -66.188)" fill="#fff"/><path d="M94,170.35A71.076,71.076,0,0,0,82.35,149.418c-4.641-5.973-10.735-14.973-11.7-17.977a13.633,13.633,0,0,1-.616-3.626c-.033-.86.466-3.05-1.117-2.2-6.538,3.491-13.572,6.029-19.143,10.994a22.211,22.211,0,0,0-5.552,7.266c-.347.764-4.99,11.585-4.841,11.73-.062.31,7.883,3.736,13.717,10.07-.548,9.556,3.673,30.3,7.18,32.893,3.859,2.849,17.5,6.112,20.9,6.037.29.166,11.929-20.763,13.455-33.618A.554.554,0,0,0,94,170.35" transform="translate(-23.932 -76.217)" fill="#f7e0d0"/><path d="M142.07,26.617c-5.484-13.044-21.726-7.135-24.606-2.058-2.951,5.2-2.592,9.831.548,14.774a.714.714,0,0,0,.153.7,23.725,23.725,0,0,1,3.221,5.086,23.678,23.678,0,0,0,1.929,3.009c1.377,2.3,4.007,3.4,6.524,3.955,9.293,2.04,12.678.185,13.089-7.186.182-3.254.368-5.545.609-8.794a19.572,19.572,0,0,0-1.466-9.485" transform="translate(-70.154 -11.376)" fill="#ffad85"/><path d="M126.711,20.637c-4.659-5.046-12.447-5.954-18.482-2.725a17.6,17.6,0,0,0-7.494,7.591,9.6,9.6,0,0,0-.856,2.585c-.208,1.225.119,2.56-.269,3.75a8.464,8.464,0,0,1-1.774,2.588c-.771.926-1.551,1.846-2.312,2.78-1.919,2.357-4.042,6.371-1.448,8.886-.111.2-.219.412-.319.628-.121.26.306.4.426.14.075-.16.155-.315.237-.468.082.066.166.131.255.194.236.166.482-.206.247-.371-.1-.07,8.2,6.746,8.114,6.673,7.629-1.926.8-16.632,4.562-18.965,2.431-1.51,3.846-.991,4.562-3.63a11.493,11.493,0,0,1,4.373-6.844c2.717-2.285,7.364-2.9,10.249-.824.2.219.263-1.811-.07-1.988" transform="translate(-56.437 -9.737)" fill="#b35439"/><path d="M181.492,36.737a20.932,20.932,0,0,0-.968-4.028,9.065,9.065,0,0,0-1.555-3.694c-.448-.491-1.32-1.038-1.938-.454a.707.707,0,0,0,.183,1.191,7.367,7.367,0,0,1,2.675,3.329,20.879,20.879,0,0,1,1.081,3.932,1.826,1.826,0,0,0,.522-.277" transform="translate(-107.43 -17.203)" fill="#b35439"/><path d="M164.607,153.886c-.2-5.079-.785-10.5-4.506-14.121a31.708,31.708,0,0,0-7.682-5.081,57.328,57.328,0,0,0-5.926-2.644,27.349,27.349,0,0,0-2.937-1.027c-.3-.077-1.9-.315-1.339.438,8.372,11.285,5.68,26.69,2.721,39.48-1.59,6.875-3.671,9.9-6.907,16.217-3.162,6.172-6.45,12.283-9.678,18.42a2.631,2.631,0,0,0,1.443,1.239c8.56,2.363,29.123-1.995,29.138-2.459,4.936-10.668,10.995-41.56,5.673-50.461" transform="translate(-77.934 -79.558)" fill="#f7e0d0"/><path d="M122.873,59.12c.056-2.316-1.293-5.133-3.252-5.419-2.57-.375-2.7,3.191-2.224,4.668.4,1.253,2.382,4.687,4.264,3.453a3.194,3.194,0,0,0,1.212-2.7" transform="translate(-71.212 -32.618)" fill="#ffad85"/><path d="M133.939,305.612a1.239,1.239,0,0,0-1.457-.492l-.05.019c-14.591,5.69-31.514,3.646-46.728-.121-2.094-.519-3.8,5.259-1.645,6.074,15.482,5.853,35.3,6.223,50.335,0a1.743,1.743,0,0,0,1-2.129,13.006,13.006,0,0,0-1.453-3.351" transform="translate(-50.476 -185.34)" fill="#f7e0d0"/><path d="M93.129,188.218a226.183,226.183,0,0,1-6.619,36.913,32,32,0,0,0,5.873.59,225.517,225.517,0,0,0,5.571-29.058c.942-7.489,1.431-14.706-.785-22.891a114.8,114.8,0,0,0-8.3-21.817c-3.435-6.442-7.757-9.325-14.659-11.853a1.206,1.206,0,0,0-1.114.163c-1.366.984-2.8,1.892-4.054,2.983a.283.283,0,0,0,.034.453,3.13,3.13,0,0,0,.645.287c7.406,2.4,12.9,9.129,16.082,15.746,3.709,7.717,8.275,18.688,7.33,28.485" transform="translate(-41.896 -85.097)" fill="#ff8578"/><path d="M84.373,129.4a45.706,45.706,0,0,0-4.537,6.576s-.322.717.008.943c1.636,1.122,8.676-1.222,12.64-.985a.262.262,0,0,1,.093.485c-2.966,1.925-7.771,7.3-9.9,10.175a.585.585,0,0,0-.124.335.649.649,0,0,0,.067,1.085c2.654,1.5,4.818,3.338,7.431,4.93,2.918,1.777,5.682,3.827,8.416,5.867,2.872,2.144,18.387,14.115,19.446,15.113.35.33.535-9.986.365-10.281-4.1-7.114-8.662-13.947-13.382-20.67-4.226-6.02-11.47-14.091-9.234-22.24a.607.607,0,0,0-.267-.7c-.146-.2-1.976.186-4.063,1.715a53.789,53.789,0,0,0-6.96,7.657" transform="translate(-48.431 -72.909)" fill="#f7e0d0"/><path d="M114.318,178.4a.2.2,0,0,1-.134-.053,88.169,88.169,0,0,0-10.073-7.507.2.2,0,0,1,.218-.326,88.525,88.525,0,0,1,10.123,7.546.2.2,0,0,1-.134.34M96.143,165.347a.2.2,0,0,1-.117-.038c-2.234-1.651-4.081-2.956-6.382-4.357-1.184-.721-2.289-1.5-3.357-2.258a47.448,47.448,0,0,0-4.069-2.669.8.8,0,0,1-.424-.623.923.923,0,0,1,.265-.724.792.792,0,0,1,.154-.36,62.243,62.243,0,0,1,5.187-6.028.2.2,0,1,1,.28.274,61.868,61.868,0,0,0-5.152,5.987.391.391,0,0,0-.085.224.2.2,0,0,1-.068.142.54.54,0,0,0-.191.445.405.405,0,0,0,.226.32,47.909,47.909,0,0,1,4.1,2.69c1.063.752,2.163,1.529,3.335,2.243,2.314,1.41,4.169,2.72,6.411,4.376a.2.2,0,0,1-.117.354m-15.205-20.1a2.712,2.712,0,0,1-1.51-.329c-.439-.3-.141-1.038-.076-1.184a14.079,14.079,0,0,1,1.109-1.883.2.2,0,1,1,.326.218,13.8,13.8,0,0,0-1.079,1.83c-.1.233-.182.61-.057.7.743.511,2.747.175,4.868-.18a.2.2,0,1,1,.065.387,24.61,24.61,0,0,1-3.645.445m3.238-7.906a.2.2,0,0,1-.154-.318c1.384-1.757,2.389-2.976,3.361-4.074a.2.2,0,1,1,.294.26c-.966,1.093-1.967,2.306-3.347,4.058a.2.2,0,0,1-.154.075" transform="translate(-48.126 -80.754)" fill="#240b0b"/><path d="M175.635,146.763c.09-1.556-6.918-5.581-8.01-6.319a6.132,6.132,0,0,0-1.1-.518.331.331,0,0,1,.057-.631c1.428-.292,4.288.355,5.313-.385.144-.1.107-.334.009-.481-.794-1.194-6.592-9.384-11.6-12.113-2.428-1.323-4.025-3.337-5.048-3.482-.523-.074-.511,2.89-.206,3.4,5.246,8.746,6.107,17.345,4.88,27.346a184.59,184.59,0,0,1-3.387,20.478c-.8,3.309-1.663,6.6-2.568,9.883-.5,1.828-3.087,9.241-4.144,12.712a.252.252,0,0,0,.458.2c4.22-6.95,24.406-33.812,25.348-50.088" transform="translate(-91.044 -74.645)" fill="#f7e0d0"/><path d="M148.907,207.36a.2.2,0,0,1-.168-.3c.749-1.233,2.011-3.106,3.608-5.476,7.565-11.227,21.647-32.124,22.419-45.467.053-.911-1.617-2.028-2.514-2.628-.169-.113-.318-.213-.435-.3a51.872,51.872,0,0,0-5.46-3.447c-.444-.241-.886-.533-.792-.879.072-.266.414-.527,2.39-.458.178.007.372.02.575.034a4.209,4.209,0,0,0,2.577-.327c.026-.019.018-.126-.04-.213-.078-.118-.182-.281-.308-.481a30.141,30.141,0,0,0-7.932-8.819.2.2,0,1,1,.222-.323,30.511,30.511,0,0,1,8.041,8.933c.124.2.226.357.3.473a.549.549,0,0,1-.056.749,4.465,4.465,0,0,1-2.834.4c-.2-.014-.388-.027-.562-.033-1.73-.064-1.977.151-2,.177a1.957,1.957,0,0,0,.6.422,52.331,52.331,0,0,1,5.5,3.472c.115.082.261.179.426.29,1.03.689,2.754,1.842,2.688,2.976-.778,13.451-14.9,34.406-22.486,45.664-1.595,2.366-2.854,4.234-3.6,5.46a.2.2,0,0,1-.168.094" transform="translate(-90.372 -84.013)" fill="#240b0b"/><path d="M157.765,223.018c-1.6,12.228-5.622,24-9.554,35.635-.081.24.3.342.378.1,3.945-11.672,7.963-23.473,9.569-35.739.033-.25-.36-.247-.392,0" transform="translate(-90.061 -135.415)" fill="#240b0b"/><path d="M174.529,333.716a170.181,170.181,0,0,1,3.232,17.046,103.708,103.708,0,0,1,.222,22.132,145.876,145.876,0,0,1-2.593,16.594c-.052.246.326.351.379.1a130.256,130.256,0,0,0,3.1-27.178,104.669,104.669,0,0,0-1.949-19.462c-.6-3.129-1.309-6.235-2.013-9.341-.056-.246-.434-.142-.378.1" transform="translate(-106.058 -202.651)" fill="#240b0b"/><path d="M121.554,57.876c.2-.058.59.223.745.353a3.569,3.569,0,0,1,.293.3,8.345,8.345,0,0,1,.695.851,9.029,9.029,0,0,1,.872,1.542c.1.23.441.031.339-.2a9.083,9.083,0,0,0-1.419-2.239c-.4-.456-.943-1.184-1.628-.986a.2.2,0,0,0,.1.378" transform="translate(-73.721 -34.921)" fill="#bf604d"/><path d="M138.754,276.536c-4.072-3.1-7.561-2.149-10.389.529-2.856-2.658-6.993-2.288-8.907,1.849a14.952,14.952,0,0,0-.821,11.295,4.444,4.444,0,0,0-1.346,3.415,4.268,4.268,0,0,0,1.94,2.807,2.135,2.135,0,0,0,.508.808,2.09,2.09,0,0,0,.209.167c-1.983,7.578-8.767,13.151-13.894,18.755-5.792,6.331-10.62,14.242-8.668,23.1.616,2.793,6.459.535,5.844-2.258-2.026-9.193,3.946-15.63,9.784-21.666,3.582-3.7,7.058-7.606,9.342-12.091.094.643.17,1.288.2,1.938.177,3.546-1.986,6.5-3.623,9.595-3.234,6.109-5.848,11.794-6.1,18.822-.09,2.457,5.388,2.613,5.478.16a31.651,31.651,0,0,1,3.259-11.771c1.376-2.9,3.134-5.611,4.387-8.577,2.658-6.286.92-12.029-1.091-18.217.009-.078.021-.155.03-.233a2.134,2.134,0,0,0,1.366.04c4.877-1.372,9.521-2.291,12.532-6.694,2.5-3.656,4.036-8.667-.038-11.77m-2.365,6.722a11.716,11.716,0,0,1-2.162,3.681c-2.058,2.286-5.517,2.834-8.454,3.587a38.94,38.94,0,0,1,2.663-6.024c1.337-2.427,3.424-6.628,6.887-4.9,1.7.846,1.667,2.076,1.067,3.657" transform="translate(-58.913 -166.874)" fill="#f7e0d0"/><path d="M123.705,132.366a25.439,25.439,0,0,0,13.478.354c.245-.06.141-.439-.1-.378a25.026,25.026,0,0,1-13.269-.354.2.2,0,0,0-.1.378" transform="translate(-75.093 -80.203)" fill="#240b0b"/><path d="M122.354,26.055c-.047.013-.09.031-.137.045a.922.922,0,0,0-.41.009c-8.693,2.1-14.4,8.529-15.175,16.81-.22,2.347.186,6.187-.561,8.445a14.417,14.417,0,0,1-3.444,6.15c-1,1.025-11.791,10.823-8.224,11.223,2.061.231,8.377-3.038,10.172-4.519,4.948-4.085,7.586-11,8.342-16.934.507-3.982.232-8.18,1.636-12,1.368-3.725,4.831-7.327,8.869-7.846,1.144-.147.045-1.7-1.069-1.382" transform="translate(-56.931 -15.808)" fill="#b35439"/><path d="M216.263,355.306A54.1,54.1,0,0,1,221.9,370.8c.049.247.427.143.378-.1a54.426,54.426,0,0,0-5.681-15.589c-.121-.221-.46-.024-.338.2" transform="translate(-131.407 -215.741)" fill="#240b0b"/><path d="M149.3,458.375c-.585,1.318-.631,2.777-1.19,4.1-.6,1.415-1.318,2.8-2,4.174q-2.124,4.313-4.447,8.525A167.462,167.462,0,0,1,131.657,491.2c-.146.206.194.4.339.2a167.448,167.448,0,0,0,10.009-16.034q2.281-4.13,4.367-8.363,1.025-2.076,2-4.175c.632-1.357.655-2.885,1.264-4.256.1-.229-.236-.429-.338-.2" transform="translate(-79.986 -278.493)" fill="#240b0b"/><path d="M240.163,131.687c-2.3-6.083-6.679-11.151-11.09-16.032a65.511,65.511,0,0,0-17.207-13.424,2.234,2.234,0,0,0-1.24-.1c-2.65.1-10.354,8.614-9.194,14.691,1.216,6.374,19.524,27.1,23.3,31.115,3.094,3.293,10.533,5.541,13.462,3.408,5.086-3.7,3.838-11.127,3.343-14.433a25.419,25.419,0,0,0-1.373-5.228" transform="translate(-122.339 -62.044)" fill="#f7e0d0"/><path d="M218.927,184.353c1.648,5.221,2.955,10.734,2.692,16.244-.012.252.38.252.392,0,.264-5.541-1.049-11.1-2.706-16.348-.076-.24-.455-.137-.378.1" transform="translate(-133.036 -111.885)" fill="#240b0b"/><path d="M204.287,147.94a87.471,87.471,0,0,0,8.188,11.6,55.117,55.117,0,0,0,8.589,8.821c.2.154.4-.187.2-.339a54.757,54.757,0,0,1-8.509-8.76,86.721,86.721,0,0,1-8.126-11.52.2.2,0,0,0-.339.2" transform="translate(-124.128 -89.725)" fill="#240b0b"/><path d="M231.346,200.242a27.39,27.39,0,0,1-.524,7.06c-.051.246.327.352.378.1a27.813,27.813,0,0,0,.538-7.164c-.014-.251-.406-.253-.392,0" transform="translate(-140.268 -121.573)" fill="#240b0b"/><path d="M44.111,456.964,43.2,471.5c-.016.252.377.251.392,0l.907-14.538c.016-.252-.377-.251-.392,0" transform="translate(-26.254 -277.583)" fill="#240b0b"/><path d="M148.494,23.012a9.656,9.656,0,0,0-9.464,1,11.125,11.125,0,0,0-4.422,8.494c-.013.252.379.251.392,0a10.717,10.717,0,0,1,4.227-8.155,9.257,9.257,0,0,1,9.068-1c.229.1.429-.236.2-.339" transform="translate(-81.802 -13.497)" fill="#752f21"/><path d="M130.431,24.232a10.125,10.125,0,0,0-1.957,8.5c.055.246.433.142.378-.1a9.7,9.7,0,0,1,1.856-8.117c.155-.2-.121-.475-.277-.277" transform="translate(-77.927 -14.684)" fill="#752f21"/><path d="M172.8,107.272a8.352,8.352,0,0,1-3.212,4.833c-.2.148-.006.488.2.339a8.753,8.753,0,0,0,3.392-5.068c.059-.245-.319-.35-.378-.1" transform="translate(-103.01 -65.104)" fill="#752f21"/><path d="M108.093,33.624a16.407,16.407,0,0,0-4.578,6.174,20.818,20.818,0,0,0-1.278,8.943c.117,3.357.525,6.775-.185,10.1a14.312,14.312,0,0,1-4.029,7.542c-.187.171.091.447.277.277,4.4-4.021,4.713-10.179,4.431-15.718-.166-3.265-.34-6.592.682-9.748a16,16,0,0,1,4.956-7.289c.193-.163-.085-.439-.277-.277" transform="translate(-59.531 -20.404)" fill="#752f21"/><path d="M68.938,80.8a10.839,10.839,0,0,1-1.588,7.112A11.217,11.217,0,0,1,61,92.637c-2.437.777-4.84,1.353-6.883,2.977a12.165,12.165,0,0,0-3.875,5.45c-.085.238.294.341.378.1a11.74,11.74,0,0,1,5.053-6.152C58.137,93.557,61.1,93.36,63.6,92a11.352,11.352,0,0,0,5.727-11.2c-.031-.247-.424-.25-.392,0" transform="translate(-30.522 -48.986)" fill="#752f21"/><path d="M156.13,49.443c-1.693.268-1.458,2.592-.843,3.62.819,1.37,1.742.463,2.09-.632.274-.859.357-3.242-1.247-2.988" transform="translate(-94.089 -30.035)" fill="#1f0404"/><path d="M180.5,54.826c-1.492.125-1.493,2.374-1.051,3.41.589,1.38,1.47.581,1.869-.443.313-.8.6-3.085-.818-2.967" transform="translate(-108.895 -33.315)" fill="#1f0404"/><path d="M175.527,59.127c.214.574.483,1.157.647,1.748.244.882-.294,1.436-.917,1.98-.191.166.088.443.277.277a2.8,2.8,0,0,0,1.107-1.57,5.857,5.857,0,0,0-.737-2.539c-.087-.235-.466-.133-.378.1" transform="translate(-106.465 -35.788)" fill="#bf604d"/><path d="M169.958,65.674a2.342,2.342,0,0,0-1.891.178c-.221.122-.024.461.2.339a1.946,1.946,0,0,1,1.588-.139c.24.08.343-.3.1-.378" transform="translate(-102.076 -39.837)" fill="#bf604d"/><path d="M181.332,45.644c-.37-1.175-1.184-1.981-2.142-1.711a1.969,1.969,0,0,0-.937,2.87.915.915,0,0,0,.872.495,1.543,1.543,0,0,1,1.2.43.772.772,0,0,0,1.244-.429,3.009,3.009,0,0,0-.238-1.655" transform="translate(-108.144 -26.667)" fill="#b35439"/><path d="M156.126,40.532a2.862,2.862,0,0,0-2.632-2.26,3.976,3.976,0,0,0-2.6.578c-.64.383-1.654,1.055-1.572,2.054a.751.751,0,0,0,.289.551,2.339,2.339,0,0,0,1.773.28,8.238,8.238,0,0,1,2.748.624,1.553,1.553,0,0,0,2-1.826" transform="translate(-90.738 -23.236)" fill="#b35439"/><path d="M140.594,97.421a16.287,16.287,0,0,0,7.81,3.546c.247.04.354-.338.1-.378a15.929,15.929,0,0,1-7.637-3.445c-.193-.16-.472.117-.277.277" transform="translate(-85.399 -59.005)" fill="#bf604d"/><path d="M146.938,345.72a19.086,19.086,0,0,1-4.291,7.522,70.982,70.982,0,0,1-5.109,5.422c-.184.174.094.451.277.277a69.471,69.471,0,0,0,5.457-5.833,18.823,18.823,0,0,0,4.043-7.284.2.2,0,0,0-.378-.1" transform="translate(-83.546 -210.01)" fill="#240b0b"/><path d="M144.553,332.278c-.787,4.216-3.54,8.227-6.584,11.159-.182.175.1.453.277.277,3.093-2.98,5.885-7.05,6.685-11.332.046-.247-.332-.353-.378-.1" transform="translate(-83.808 -201.839)" fill="#240b0b"/><path d="M166.732,73.062a4.427,4.427,0,0,0-1.643-.269c-1.111-.163-2.216-.367-3.317-.588-.583-.117-1.73-.553-1.774.353a4.18,4.18,0,0,0,1.18,2.779,5.613,5.613,0,0,0,3.665,1.047,2.013,2.013,0,0,0,1.885-1.75,5.935,5.935,0,0,0,.233-1.162.471.471,0,0,0-.228-.412" transform="translate(-97.229 -43.753)" fill="#802d24"/><path d="M165.2,74.422c.9-.037,1.219-.7,1.354-1.452a6.762,6.762,0,0,0-1.461-.178c-1.111-.163-2.216-.367-3.317-.588-.583-.117-1.73-.553-1.774.353a2.369,2.369,0,0,0,.009.3c.773.845,3.863,1.621,5.189,1.567" transform="translate(-97.23 -43.753)" fill="#fff"/><path d="M56.732,282.026a1.541,1.541,0,0,0-1.364-1.736c-4.142-.275-8.292-.468-12.437-.678Q28.965,278.9,14.986,278.5c-1-.029-4.275-1.2-5.558,4.725-1.755,8.1-10.975,50.754-9.2,60.451.473,2.591,44.439,6.331,50.447,4.006,1.015-.393,1.28-1.195,1.608-2.228.613-1.935,3.48-53.63,4.452-63.427" transform="translate(0 -169.176)" fill="#ff8578"/><path d="M59.031,319.543a12.592,12.592,0,0,0-17.442.766c-4.389,4.744-4.245,13.259.883,17.529a12.3,12.3,0,0,0,15.838.043c5.5-4.775,6.147-13.371.72-18.337" transform="translate(-23.367 -192.276)" fill="#fff"/><path d="M44.678,187.857q-2.636-6.614-5.649-13.071c-.987-2.11-2-5.03-4.431-5.913-1.9-.688-4.85.419-5.095.883-6.133,11.631-9.341,25.187-12.286,37.658-1.5,6.334-3.219,13.14-1.8,19.644.847,3.894,3.3,8.306,7.5,9.395,6.695,1.734,15.813-2.388,17.436-9.283,1.5-6.38,1.436-10.648,2.169-17.144.7-6.218,2.344-22.072,2.162-22.168" transform="translate(-9.046 -102.491)" fill="#f7e0d0"/><path d="M95.982,227.262a4.069,4.069,0,0,0-.794-2.673,1.936,1.936,0,0,0-2.364-.954,13.487,13.487,0,0,0-1.734.507c-.542.177-3.591,1.357-3.423-.077a1.506,1.506,0,0,1,.4-.734c.725-.884,1.486-2.262,2.639-2.666.525-.184,1.084,1.785,3.343.838,1.184-.5-2.962-5.444-4.883-4.53-2.427,1.154-7.819,5.591-8.4,6.175-1.728,1.735-3.968,6.127-5.1,8.467-.787,1.63-12.665,3.747-14.222,4.724-2.359,1.481,5.617,5.879,5.4,9.694-.062,1.106,11.668-2.889,15.046-5.092a.355.355,0,0,0,.1-.133,11.913,11.913,0,0,0,5.81-2.052c1.192-.781,2.823-1.83,3.324-3.013.526-.133,1.473-.681,1.777-.667.954.045.65.487.79,1a1.279,1.279,0,0,0,1.941.716c.888-.523.973-3.064.826-3.962.043-.015.1-.012.128-.051,1.444-1.823.2-5.007-.61-5.513" transform="translate(-37.073 -131.787)" fill="#ffad85"/><path d="M51.454,246.6c-.681-.216-7.931,3.537-10.409,5.313a56.054,56.054,0,0,0-13.284,13.457c-3.036,4.311-3.9,5.19-1.964,9.624,1.323,3.027,3.326,9.476,8.1,8.982,13.612-1.408,27.581-18.5,27.6-18.558a.572.572,0,0,0,.176-.459c-.716-10.581-6.935-17.307-10.218-18.36" transform="translate(-15.05 -149.856)" fill="#f7e0d0"/><path d="M65.384,246.558a2.042,2.042,0,0,0-1.49-.787,8.662,8.662,0,0,0-2.145.492,37.476,37.476,0,0,0-5.709,2.388c-4.6,2.291-9.575,4.451-12.519,8.89-.14.211.2.408.339.2,2.678-4.039,7.138-6.179,11.354-8.245a51.1,51.1,0,0,1,5.442-2.456,23.061,23.061,0,0,1,2.282-.7,1.831,1.831,0,0,1,2.17.5c.184.172.463-.1.277-.277" transform="translate(-26.428 -149.354)" fill="#240b0b"/><path d="M47.694,254.411a24.267,24.267,0,0,0-11.281,5.1c-.2.159.083.435.277.277a23.9,23.9,0,0,1,11.108-5c.248-.042.143-.42-.1-.378" transform="translate(-22.088 -154.604)" fill="#240b0b"/><path d="M57.634,189.51a21.126,21.126,0,0,1,9.255,9.275c2.241,4.045,3.5,8.667,2.5,13.286-.054.246.324.351.378.1,1-4.618-.186-9.25-2.39-13.323-2.193-4.054-5.3-7.708-9.54-9.68-.228-.106-.427.232-.2.339" transform="translate(-34.963 -114.947)" fill="#240b0b"/><path d="M140.363,248.991a10.486,10.486,0,0,0-5.51-.008c-.24.075-.138.453.1.379a10.229,10.229,0,0,1,5.3.007.2.2,0,0,0,.1-.378" transform="translate(-81.867 -151.086)" fill="#bf604d"/><path d="M140.137,259.135c-.437-2.573-3.826-1.986-5.65-1.855-.25.018-.252.41,0,.392,1.645-.118,4.876-.767,5.272,1.567.042.248.42.143.378-.1" transform="translate(-81.613 -156.258)" fill="#bf604d"/><path d="M134.857,282.731a16.762,16.762,0,0,0-3.79-.468.2.2,0,0,0,0,.392,16.321,16.321,0,0,1,3.686.453c.246.059.35-.319.1-.378" transform="translate(-79.534 -171.532)" fill="#240b0b"/><path d="M119.714,313.794a303.361,303.361,0,0,1-9.458,37.627c-.077.241.3.344.379.1a303.309,303.309,0,0,0,9.457-37.627c.046-.247-.332-.353-.378-.1" transform="translate(-66.996 -190.607)" fill="#240b0b"/><path d="M171.134,297.237a23.632,23.632,0,0,1,3.035-7.639,8.342,8.342,0,0,1,3.168-2.866c1.7-.778,3.666-.291,4.009,1.764.425,2.551-1.785,5.144-3.734,6.5a12.354,12.354,0,0,1-6.676,2.135c-.251.007-.253.4,0,.392a12.57,12.57,0,0,0,7.69-2.81c1.872-1.568,4.041-4.626,2.844-7.163-1.342-2.844-4.747-1.284-6.382.342-2.487,2.474-3.451,5.957-4.333,9.244a.2.2,0,0,0,.378.1" transform="translate(-103.764 -173.784)" fill="#240b0b"/><path d="M146.993,290.386c-.5-1.468.153-2.886.7-4.235.489-1.2,1-2.384,1.578-3.539a19.414,19.414,0,0,1,4.094-5.734c1.941-1.769,4.609-2.967,7.23-2.109a8.849,8.849,0,0,1,3.511,2.014,6.677,6.677,0,0,1,1.452,4.036c.344,5.2-3.509,9.395-7.921,11.531A20.219,20.219,0,0,1,152.1,294.1c-.77.129-2.565.2-2.672,1.223a3.645,3.645,0,0,0,.478,1.561c.212.551.4,1.111.573,1.676.38,1.249.68,2.523.954,3.8a16.706,16.706,0,0,1,.14,7.928c-1.284,4.9-4.608,9-6.595,13.6a21.6,21.6,0,0,0-1.922,6.714c-.069.9.321,3.185-.652,3.7a4.32,4.32,0,0,1-1.326.262c-1.4.176-3.162.166-3.147-1.634a26.024,26.024,0,0,1,1.424-7.773,52.038,52.038,0,0,1,3.5-8.008,55.739,55.739,0,0,0,3.581-7.378,14.958,14.958,0,0,0,.956-7.056,32.742,32.742,0,0,0-1.564-5.48c-.081-.238-.46-.136-.379.1A34.151,34.151,0,0,1,147,302.7c.459,2.778-.391,5.747-1.449,8.3-1.125,2.71-2.7,5.207-3.99,7.837a44.637,44.637,0,0,0-2.985,7.549,28.654,28.654,0,0,0-.8,3.728,13.119,13.119,0,0,0-.229,3.393c.162,1.231,1.444,1.511,2.5,1.517a4.931,4.931,0,0,0,2.808-.543c.617-.528.548-1.641.563-2.372a17.581,17.581,0,0,1,.69-4.683c1.559-5.354,5.066-9.719,7.113-14.842a15.223,15.223,0,0,0,1.064-7.711,35.439,35.439,0,0,0-2-8.092c-.228-.591-.838-1.491-.049-1.843a4.869,4.869,0,0,1,.906-.258c.822-.184,1.665-.259,2.487-.438a19.22,19.22,0,0,0,6.463-2.843c3.852-2.6,6.7-7.12,5.68-11.907a5.981,5.981,0,0,0-1.619-3.21,9.635,9.635,0,0,0-3.61-1.938,7.563,7.563,0,0,0-6.714,1.645,18.661,18.661,0,0,0-5.037,6.724c-.583,1.19-1.1,2.413-1.6,3.641-.542,1.342-1.068,2.707-.581,4.142.08.238.46.136.378-.1" transform="translate(-83.56 -166.565)" fill="#240b0b"/><path d="M152.5,314.59c1.923-.65,4.861,1.106,5.565,2.981a3.92,3.92,0,0,1,.243,1.615c-.08.8-.526.969-1.122,1.308a3.292,3.292,0,0,1-3.377.379.2.2,0,0,0-.2.339,3.683,3.683,0,0,0,3.773-.379A3.144,3.144,0,0,0,158.52,320a2.745,2.745,0,0,0,.092-1.778,4.336,4.336,0,0,0-2.03-2.9c-1.239-.892-2.653-1.621-4.189-1.1-.238.08-.136.459.1.378" transform="translate(-92.527 -190.841)" fill="#240b0b"/><path d="M168.839,313.966a4.967,4.967,0,0,1-1.509,2.731c-.185.173.093.45.277.277a5.32,5.32,0,0,0,1.61-2.9c.048-.247-.33-.352-.378-.1" transform="translate(-101.65 -190.712)" fill="#240b0b"/><path d="M167.595,282.41c-1.131-.71-2.4.445-3.043,1.3a7.868,7.868,0,0,0-1.276,6.229c.047.247.426.143.379-.1a7.6,7.6,0,0,1,.862-5.373c.492-.816,1.763-2.415,2.881-1.714.215.135.412-.2.2-.339" transform="translate(-99.124 -171.487)" fill="#240b0b"/><path d="M186.379,319.865A46.642,46.642,0,0,1,169,324.011c-.251.011-.253.4,0,.392a47.156,47.156,0,0,0,17.572-4.2c.23-.1.03-.443-.2-.339" transform="translate(-102.59 -194.37)" fill="#240b0b"/><path d="M146.028,313.514a8.7,8.7,0,0,1-2.945.189c-.251-.026-.249.366,0,.392a9.024,9.024,0,0,0,3.05-.2c.246-.058.142-.437-.1-.378" transform="translate(-86.837 -190.519)" fill="#240b0b"/><path d="M160.554,278.105c-1.513-.844-3.181-1.732-4.973-1.409a5.956,5.956,0,0,0-3.856,2.9,14.859,14.859,0,0,0-1.527,11.576.2.2,0,0,0,.379-.1,14.679,14.679,0,0,1,1.029-10.437,6.272,6.272,0,0,1,3.511-3.42c1.87-.6,3.644.338,5.24,1.228.221.123.419-.215.2-.339" transform="translate(-90.94 -168.107)" fill="#240b0b"/><path d="M146.442,331.825a25.174,25.174,0,0,1-5.282.042c-.252-.018-.251.375,0,.392a25.611,25.611,0,0,0,5.386-.056c.249-.035.143-.413-.1-.378" transform="translate(-85.669 -201.649)" fill="#240b0b"/><path d="M149.552,313.969a3.808,3.808,0,0,0-1.341,4.08,6.387,6.387,0,0,0,2.838,3.092c.22.124.419-.215.2-.339a6.689,6.689,0,0,1-2.535-2.555,3.373,3.373,0,0,1,1.117-4c.2-.156-.081-.432-.277-.277" transform="translate(-89.968 -190.771)" fill="#240b0b"/><path d="M189.081,59.12l9.951,11.594c.164.192.441-.087.277-.278l-9.951-11.593c-.165-.192-.441.087-.277.277" transform="translate(-114.874 -35.72)" fill="#240b0b"/><path d="M179,307.4a46.5,46.5,0,0,1-7.035,1.772c-.248.047-.143.426.1.378a46.415,46.415,0,0,0,7.035-1.772c.236-.085.134-.464-.1-.378" transform="translate(-104.415 -186.799)" fill="#240b0b"/><path d="M207.945,304.349a2.758,2.758,0,0,0-1.547.408c-.215.131-.019.471.2.339a2.373,2.373,0,0,1,1.35-.354c.253.009.252-.384,0-.392" transform="translate(-125.371 -184.952)" fill="#240b0b"/><path d="M197.1,288.257a9.943,9.943,0,0,1,1.812,2.5,4.7,4.7,0,0,1-.151,3.777c-.084.239.3.341.378.1a5.128,5.128,0,0,0,.256-3.76,9.587,9.587,0,0,0-2.018-2.9c-.175-.183-.452.095-.277.277" transform="translate(-119.747 -174.969)" fill="#240b0b"/><path d="M205.6,74.278c-.337-1.093-1.482-2.142-2.151-1.682a3.381,3.381,0,0,0-1.381,2.64c.169,1.055,1.849,1.387,2.618,1,1.069-.537,1.164-1.146.913-1.958" transform="translate(-122.789 -44.049)" fill="#ffad85"/><path d="M198.6,64.579a.228.228,0,0,0-.039-.083c-.463-.617-1.438-1.26-2.273-.758-.777.467-.535,1.492-.051,2.066.526.624,1.753,1.36,2.607.868.723-.417.319-1.571-.243-2.093" transform="translate(-118.979 -38.624)" fill="#ffad85"/><path d="M179,98.346a2.569,2.569,0,0,1-.782,1.186,5.122,5.122,0,0,1-.694.427.2.2,0,0,0,.2.339,5.044,5.044,0,0,0,.83-.536,3.012,3.012,0,0,0,.827-1.312c.083-.239-.3-.342-.378-.1" transform="translate(-107.822 -59.683)" fill="#bf604d"/><path d="M96.38,76.322a30.716,30.716,0,0,1-1.962,8.343,13.6,13.6,0,0,1-6.159,6.326c-4.1,2.3-10.686,4.706-10.685,10.382a.2.2,0,0,0,.392,0c0-3.058,2.362-5.348,4.763-6.912,2.481-1.616,5.292-2.658,7.715-4.37,4.554-3.218,5.6-8.462,6.314-13.664.034-.247-.344-.354-.378-.1" transform="translate(-47.142 -46.295)" fill="#752f21"/></g></g></g></g></g></svg>