<svg xmlns="http://www.w3.org/2000/svg" xmlns:xlink="http://www.w3.org/1999/xlink" width="255" height="255" viewBox="0 0 255 255"><defs><clipPath id="a"><rect width="129.95" height="218.263" fill="#ffefcc"/></clipPath><clipPath id="b"><rect width="147.559" height="175.275" fill="none"/></clipPath></defs><g transform="translate(0.436)"><g transform="translate(49.766 14.042)"><g clip-path="url(#a)"><path d="M129.195,42.725A50.294,50.294,0,0,0,98.224,4.342c-34.755-14-74.152,7.674-90.459,39.242A69.393,69.393,0,0,0,1.971,58.976c-5.321,21.84.43,43.325,13.7,61.045.056.075.112.149.174.23.529.71,1.089,1.431,1.668,2.172.262.336.523.672.8,1.014.332.421.672.848,1.015,1.277l.386.482c3.9,4.851,8.452,10.2,13.173,15.839q.718.858,1.435,1.718l.675.811q.83,1,1.657,2l.562.682q.984,1.2,1.96,2.4l.461.57q.906,1.118,1.8,2.242l.5.627q.954,1.2,1.9,2.406l.5.64q.907,1.166,1.8,2.341l.441.58q.954,1.259,1.893,2.53c2.459,3.331,4.8,6.686,6.941,10.031l.121.19q.338.53.669,1.06l.184.3q.7,1.125,1.366,2.248l.041.069c.177.3.349.6.522.894.125.216.25.432.373.649l.029.051c5.677,10.014,9.2,20.391,6.978,32.288-.451,2.42-1.077,5.085.158,7.215a6.133,6.133,0,0,0,5.558,2.688,11.267,11.267,0,0,0,7.529-3.767,29.121,29.121,0,0,0,4.647-7.238c7.877-15.813,9.25-29.489,2.688-46.005-.6-1.515-1.181-3.081-1.7-4.68a38.138,38.138,0,0,1-2.176-14.85c.023-.265.052-.53.084-.794.006-.054.013-.108.02-.162q.1-.806.264-1.612l.022-.109c.054-.266.111-.531.174-.8l0-.013q.1-.417.211-.834l.022-.082q.1-.386.221-.772l.017-.059q.125-.411.261-.821l.022-.066q.126-.377.262-.752l.034-.093q.147-.405.3-.808l.011-.027q.151-.385.311-.768l.041-.1q.34-.811.715-1.608l.017-.036c.516-1.1,1.077-2.173,1.665-3.221.853-1.531,1.774-3.006,2.695-4.394a.226.226,0,0,1,.031-.05q.53-.8,1.078-1.58l.175-.249c1.129-1.607,2.309-3.175,3.526-4.716l.079-.1q.575-.727,1.16-1.445.514-.631,1.034-1.257l.631-.758q.274-.327.55-.653c.127-.15.252-.3.381-.45,1.394-1.643,2.813-3.268,4.232-4.892.56-.635,1.12-1.276,1.674-1.911a166.423,166.423,0,0,0,11.153-13.761c7.463-10.593,13.1-22.531,14.259-35.57a52.917,52.917,0,0,0-.542-13.674" transform="translate(0 -0.001)" fill="#ffefcc"/><path d="M51.874,270.547c-1.013-5.4-1.971-10.811-3.064-16.2-2.125-10.467-4.486-21.542-9.925-30.873-1.486-2.549-4.237-7.277-7.78-6.909-2.344.243-3.89,2.835-4.594,4.821-1.034,2.915-1.017,6.079-1.018,9.133a.313.313,0,0,1-.611.083c-1.953-5.844-4.045-11.648-6.561-17.277-2.779-6.217-5.921-12.451-10.641-17.4a69.108,69.108,0,0,0-4.917,13.633c-5.321,21.84.43,43.325,13.7,61.045.056.075.112.149.174.23.529.71,1.089,1.431,1.668,2.172.262.336.523.672.8,1.015,3.266,4.143,7.088,8.686,11.129,13.493a68.531,68.531,0,0,0,21.644-16.966" transform="translate(-1.511 -150.583)" fill="#fed981"/><path d="M389.541,158.018a51.308,51.308,0,0,0-2.242-8.542c-.208.1-.41.2-.6.294a50.655,50.655,0,0,0-8.118,5.137c-8.185,6.272-14.985,15.283-17.822,25.264a.311.311,0,0,1-.6-.165c.139-.488.293-.971.45-1.452a30.861,30.861,0,0,0,1.406-10.5c-.166-2.731-1.172-5.8-4.255-6.264-5.34-.805-8.009,5.988-9.928,9.782a81.341,81.341,0,0,0-6.542,17.995,117.346,117.346,0,0,0-2.55,18.767c-.422,5.864-.48,11.99,1.432,17.616,1.99,1.731,3.652,3.794,6.043,5.092a25.009,25.009,0,0,0,7.819,2.6q1.545-2,3.166-3.954c.517-.623,1.033-1.245,1.562-1.861,1.394-1.643,2.813-3.268,4.232-4.892.56-.635,1.121-1.276,1.674-1.911a166.423,166.423,0,0,0,11.153-13.761,96.9,96.9,0,0,0,6.382-10.323,14.067,14.067,0,0,0-2.2.349c-3.426.863-6.422,2.848-9.29,4.836a49.813,49.813,0,0,0-8.045,7.078c-.242.26-1.191,1.535-2.078,2.718a1.092,1.092,0,0,1-1.724-1.342c6.075-7.75,13.42-19.337,18.68-27.531,2.982-4.646,6.227-9.135,8.821-14.02a55.612,55.612,0,0,0,3.094-6.993c.144-.394.307-.829.465-1.288-.108-.915-.233-1.827-.388-2.729" transform="translate(-260.162 -114.883)" fill="#fed981"/></g><g transform="translate(7.704 51.437)"><g transform="translate(0)" clip-path="url(#b)"><path d="M183.54,334.842c-1.107-3.647-9.84-1.805-34.963-2.511-20.7-.582-41.445.209-62.139.944-.007,0-32.343,15.935-30.19,21.661,0,0,93.849,2.658,99.328-.448,3.078-1.745,5.421-4.661,8.209-6.8,5.51-4.228,8.08-5.776,14.445-8.215,1.663-.637,6.057-2.171,5.31-4.632" transform="translate(-36.065 -213.35)" fill="#ebbe53"/><path d="M104.9,386.726c-.191-2.666.352-6.651-2.923-7.074-2.935-.379-7.286.742-8.646,3.764-1.164,2.587,1.031,5.079,3.343,5.834,2.49.812,7.632,1.317,8.368-2.139a.369.369,0,0,0-.142-.385" transform="translate(-59.744 -243.831)" fill="#f7e0d0"/><path d="M56.291,337.14a16.484,16.484,0,0,0-4.264-8.251c-5.527-5.5-13.322-3.032-19.529-.482a.677.677,0,0,0-.232,1c-3.574,2.768-7.732,5.323-10.586,9.069a27.78,27.78,0,0,0-4.62,11.141A130.151,130.151,0,0,0,15.2,363.8c-.52,5.282-1.23,14.212-1.555,19.555a.6.6,0,0,0,.455.642c1.619.291,15.848.159,21.02-.863.879-.174,1-.953,1.179-1.885,2.117-10.966,1.73-17.962,3.646-21.14,1.966-3.261,5.713-6.676,8.38-9.151,2.364-2.193,5.545-4.35,7.144-7.364,1.411-2.66,1.432-3.571.817-6.451" transform="translate(-8.767 -209.147)" fill="#bd5e4b"/><path d="M122.679,270.732a21.553,21.553,0,0,0-6.23-5.6,13.679,13.679,0,0,0-8.1-1.52A27.123,27.123,0,0,0,99,265.831c-1.159.532-.943,1.624-1.088,3.531-.05.029-2.16-2.92-2.645-2.222-.652.943-4.344,4.739-5.4,4.984-10.732,2.517-32.728,13.527-35.012,17.868-.175.332-.794,2.064.278,1.936.212-.025.428-.046.644-.067a22.14,22.14,0,0,1,5.706.22,16.437,16.437,0,0,1,8.734,4.215,22.749,22.749,0,0,1,3.165,3.858,28.978,28.978,0,0,1,1.69,2.937,30.02,30.02,0,0,1,1.342,3.069c.166.428.32.86.457,1.3a29.922,29.922,0,0,1,.831,3.016c.129.582.237,1.163.328,1.74a10.5,10.5,0,0,0,.1,1.919c.121.569.4,1.005,1.026,1.009a7.609,7.609,0,0,0,2.509-1.013c1.03-.478,2.039-1,3.023-1.583,3.3-1.935,4.565-2.675,7.186-5.594,11.613-1.628,20.853-10.3,27.374-20.555,2.741-4.311,7.189-10.57,3.431-15.662" transform="translate(-35.022 -169.295)" fill="#f7e0d0"/><path d="M101.453,287.161a168.8,168.8,0,0,0-37.708,17.971,22.138,22.138,0,0,0-5.707-.22,172.349,172.349,0,0,1,42.534-20.954c2.035-.677,2.9,2.533.88,3.2" transform="translate(-37.282 -182.346)" fill="#a6a5b5"/><path d="M139.472,306.957a178.39,178.39,0,0,0-30.514,22.025,29.01,29.01,0,0,0-1.69-2.936,181.592,181.592,0,0,1,30.527-21.959,1.663,1.663,0,0,1,1.678,2.87" transform="translate(-68.905 -195.186)" fill="#a6a5b5"/><path d="M130.865,370.486a104,104,0,0,1-11.519,8.634c.128.582.236,1.163.328,1.74a10.5,10.5,0,0,0,.1,1.919,89.218,89.218,0,0,0,10.02-7.193c-.124-1.4.678-3.231,1.5-4.762a.276.276,0,0,0-.426-.337" transform="translate(-76.664 -237.943)" fill="#a6a5b5"/><path d="M214.539,396.525a6.9,6.9,0,0,0-10.415-1.093c-2.712,2.519-4.864,8.006-1.611,11.037a14.966,14.966,0,0,0,6.432,3.11,6.583,6.583,0,0,0,4.765-.6c.194.139,2.295-4.52,2.417-6.353a9.262,9.262,0,0,0-1.589-6.1" transform="translate(-129.036 -252.802)" fill="#f7e0d0"/><path d="M172.556,368.057c-.218-2.438-1.754-5.074-3.085-6.933a17.888,17.888,0,0,0-5.882-5.3c-5.063-2.768-16.264,1.151-16.091,1.415-5.22,4.759-10.624,9.913-13.273,17.023-1.5,4.02-1.792,8.387-2.033,12.688-.279,4.987-.662,14.823-.27,15.552.926,1.722,22.065-.175,22.179-.568A48.543,48.543,0,0,0,156.177,391c.425-3.974,2.125-6.031,5.107-8.648,2.923-2.566,7.194-6.1,9.153-8.8,1.4-1.927,2.359-2.8,2.119-5.5" transform="translate(-84.635 -227.937)" fill="#bd5e4b"/><path d="M221.258,274.357c-1.284-5.162-14.454,2.209-19.317,1.313a11.737,11.737,0,0,0-7.231.963,12.286,12.286,0,0,0-1.807,1.084,34.031,34.031,0,0,0-4.581,4.319c-1.179,1.238-2.422,2.455-3.713,3.651-2.895,2.692-6.005,5.292-9.054,7.854-3.489,2.928-6.9,5.81-9.81,8.722a49.023,49.023,0,0,0-3.626,4c-.419.519-1.2,2.754-.6,2.638.2-.038.407-.075.61-.1a25.277,25.277,0,0,1,3.916-.308c.785,0,1.587.029,2.388.1q.673.056,1.346.149a23.492,23.492,0,0,1,6.433,1.769,17.026,17.026,0,0,1,2.928,1.64,13.836,13.836,0,0,1,1.62,1.321c.108.1.216.207.324.32.3.291.586.594.86.906a19.151,19.151,0,0,1,4.1,7.2,17.307,17.307,0,0,1,.694,3.617,16.9,16.9,0,0,1,0,2.787c-.041.511-.1,1.026-.191,1.545-.021.112-.041.228-.062.341a.789.789,0,0,0,.1.581.822.822,0,0,0,1.026.943c10.03-1.616,31.773-19.62,34.472-31.665,2.243-10-.789-25.505-.831-25.68" transform="translate(-103.614 -175.05)" fill="#f7e0d0"/><path d="M234.755,286.929a4.347,4.347,0,0,1-.282,2.268c-1.218,3.355-4.145,5.431-6.224,8.188-4.278,5.673-18.345,18.229-21.992,22.972.117-.152-2.744-1.378-2.749-1.68a.724.724,0,0,1,.253-.468c8.48-9.067,18.127-17.21,25.778-27.029a8.077,8.077,0,0,0,1.807-3.351c.144-.779.11-1.686.7-2.22a1.708,1.708,0,0,1,2.493.684,2.406,2.406,0,0,1,.219.635" transform="translate(-130.728 -183.263)" fill="#a6a5b5"/><path d="M260.441,307.891a24.454,24.454,0,0,1-7.63,12.389A245.017,245.017,0,0,1,231.2,337.458a17.294,17.294,0,0,0-.694-3.618c6.467-4.743,12.8-9.7,18.856-14.939,3.917-3.389,6.754-7.11,7.954-12.223,1.071-4.556.98-9.308.884-13.959-.041-2.143,3.281-2.135,3.323,0,.1,5.063.141,10.221-1.084,15.172" transform="translate(-148.071 -187.003)" fill="#a6a5b5"/><path d="M246.226,301.029c-3.107,7.044-9.4,12.215-14.865,17.4-4.764,4.523-9.524,9.058-13.872,13.972-.274-.312-.561-.615-.86-.906,4.174-4.718,8.726-9.083,13.3-13.423,5.557-5.275,12.065-10.508,15.222-17.668.32-.735,1.4-.1,1.076.627" transform="translate(-139.156 -192.759)" fill="#a6a5b5"/><path d="M265.4,308.671c-.316,5.017-.64,10.155-2.446,14.9a39.432,39.432,0,0,1-7.439,11.654c-6.533,7.472-15.072,12.585-23.6,17.461.087-.519.15-1.034.191-1.545,7.737-4.44,15.459-9.1,21.555-15.716,3.356-3.642,6.5-7.837,8.215-12.526,1.665-4.544,1.969-9.436,2.272-14.225.05-.8,1.3-.8,1.246,0" transform="translate(-148.981 -197.896)" fill="#a6a5b5"/><path d="M196.546,268.352a123.2,123.2,0,0,0-29,35.689,25.277,25.277,0,0,0-3.917.307q1.7-3.321,3.613-6.529A125.2,125.2,0,0,1,194.2,266.005c1.628-1.371,3.987.967,2.351,2.346" transform="translate(-105.109 -170.606)" fill="#a6a5b5"/><path d="M144.736,148.148c-3.946-17.375-9.478-31.448-28.963-46.138-12.952-9.764-28-10.7-43.658-7.891a57.055,57.055,0,0,0-7.4,1.835,75.606,75.606,0,0,0-11.088,4.615c-4.886,2.488-10.362,6.447-12.863,11.583a33.749,33.749,0,0,0-2.359,7.506c-.917,4.118-.709,6.467,3.894,7.336a44.327,44.327,0,0,0,9.16.692q2.254-.033,4.489-.232a53.971,53.971,0,0,0,23.026,21.632c.452.222,2.768,11.66,7.907,14.739,2.462,1.475,5.95,1.345,8.694,1.066,8.481-.863,18.319-3.685,26.319.633,3.781,2.041,7.13,5.533,11.53,6.213,6.253.966,11.324,1.231,13.8-5.453,1.745-4.708-.812-10.738-2.492-18.136" transform="translate(-24.392 -59.572)" fill="#43a99b"/><path d="M97.679,172.345a11.741,11.741,0,0,0-4.332-6.029c-.56-.384-1.689-1.081-2.375-.559-.657.5-.3,2.015-.29,2.694a32.916,32.916,0,0,0,.1,5.16,1.425,1.425,0,0,0,1.3,1.328c1.53.3,4.861-.24,5.287-2.1a.37.37,0,0,0,.315-.495" transform="translate(-58.183 -106.357)" fill="#43a99b"/><path d="M133.839,101.147c-1.275-2.5-5.576-2.835-7.994-2.982-3.327-.2-6.691-.324-10.024-.263-5.4.1-10.94,1.819-10.254,8.257a33.305,33.305,0,0,0,2.4,8.661c.877,2.185,2.029,4.472,4.211,5.607,4.442,2.31,10.792-.472,14.279-3.363a24.3,24.3,0,0,0,5.843-8.032c1.07-2.118,2.284-4.511,1.84-6.97a3.3,3.3,0,0,0-.306-.915" transform="translate(-67.776 -62.879)" fill="#bd5e4b"/><path d="M131.111,81.914a2.142,2.142,0,0,0-.815-1.54c-.54-.377-1.272-.58-1.842-.96a27.167,27.167,0,0,1-4.38-3.921,76.3,76.3,0,0,1-7.406-8.878,2.865,2.865,0,0,0-3.734-1.124c-2.172,1.219-2.643,3.912-3.077,6.132a33.512,33.512,0,0,1-3.087,9.291c-1.159,2.23-1.894,4.471-.742,6.85a.73.73,0,0,0,1.161.235c3.136,2.762,7.256,4.265,8.995,8.16.55,1.233,6.053-.3,6.814-.591a11.807,11.807,0,0,0,6.465-6.643c.615-1.439,1.951-4.854,1.649-7.011" transform="translate(-67.738 -41.859)" fill="#bd5e4b"/><path d="M61.186,88.139c-.517-.88-1.1-1.727-1.57-2.642-.948-1.83-1.742-3.743-2.827-5.5-.445-.721-.948-1.723-1.843-1.981-1.2-.344-1.855.587-2.295,1.572a6.163,6.163,0,0,0-.535,2.672.521.521,0,0,0-.224.04c-.029-.048-.062-.094-.09-.143a20.358,20.358,0,0,1-2.285-5.742c-.39-1.694-.192-3.784-.979-5.374a2.82,2.82,0,0,0-1.849-1.489c-.647-.134-1.579-.353-2.143.078a3.091,3.091,0,0,0-.8,1.13c-2.142,4.309-5.108,8.426-3.891,13.234.689,2.722,3.64,5.907,5.094,8.279q1.775,2.9,3.563,5.783a2.67,2.67,0,0,1,.407,1.5,52.063,52.063,0,0,1-1.886,10.666.628.628,0,0,0,.6.789c2.924-.294,11.145,1.268,11.223,1.019a62.826,62.826,0,0,0,1.9-11.044c.1-.807.117-1.618.163-2.43.075-1.307,1.111-2.28,1.465-3.5a8.406,8.406,0,0,0-.146-4.669,10.75,10.75,0,0,0-1.048-2.25" transform="translate(-25.418 -44.565)" fill="#bd5e4b"/><path d="M83.747,34.455c1.1-6.6.733-15.931-5.1-20.147s-13.135-1.714-18.384,2.114a.726.726,0,0,0-.533.246,22.1,22.1,0,0,0-5.877,12.475c-.644,5.146,1.014,10.171,3.281,14.743,1.13,2.279,2.42,4.476,3.716,6.667,1.184,2,2.218,4.076,4.372,5.234,4.768,2.562,9.681-1,13.04-4.142,2.041-1.906,4.22-3.934,4.917-6.722.81-3.239.481-6.938.591-10.254a.836.836,0,0,0-.021-.212" transform="translate(-34.502 -7.784)" fill="#bd5e4b"/><path d="M118.081,92.207a22.739,22.739,0,0,1-.59,4.641,10.966,10.966,0,0,1-2.218,4.063,22.338,22.338,0,0,1-6.414,5.652c-.2.112-.021.421.18.309a22.893,22.893,0,0,0,6.886-6.211c1.946-2.525,2.334-5.352,2.514-8.454.013-.23-.344-.229-.358,0" transform="translate(-69.871 -59.12)" fill="#751f14"/><path d="M167.589,316.737l-7.316,7.135a70.4,70.4,0,0,0-5.765,6.09c-1.508,1.867-2.97,3.789-4.3,5.788a8.994,8.994,0,0,0-1.318,2.616,12.883,12.883,0,0,0-.267,3.2.179.179,0,0,0,.358,0,11.683,11.683,0,0,1,.3-3.278,10.723,10.723,0,0,1,1.593-2.885c1.379-2,2.851-3.944,4.4-5.816a73.966,73.966,0,0,1,5.5-5.706l7.064-6.889c.165-.161-.088-.414-.253-.253" transform="translate(-95.47 -203.429)" fill="#240b0b"/><path d="M114.72,130.149c2.415,1.783,4.993,3.375,6.977,5.665.151.174.4-.08.253-.253-2-2.313-4.61-3.92-7.05-5.721-.185-.137-.364.173-.181.309" transform="translate(-73.643 -83.384)" fill="#751f14"/><path d="M39.867,186.681c-.094-4.584-.81-9.187-1.292-13.742-.965-9.115-1.507-18.737-6.4-26.761-.028-.535-.833-1.431-1.163-.848-2.034,3.593-3,8.108-3.671,12.152-.769,4.615-1.4,9.256-2.095,13.883-.716,4.78-1.939,9.159-2.644,13.94-.533,3.612-.591,7.863.75,11.37,2.638,6.9,10.46,5.843,14.057.361,2-3.051,2.534-6.776,2.461-10.355" transform="translate(-14.291 -93.234)" fill="#43a99b"/><path d="M154.808,251.236a36.39,36.39,0,0,0,10.089,7.149c.207.1.388-.209.181-.309a36.123,36.123,0,0,1-10.017-7.093.179.179,0,0,0-.253.253" transform="translate(-99.41 -161.19)" fill="#240b0b"/><path d="M236.851,277.308a24.248,24.248,0,0,1,8.854,3.775c.19.131.369-.179.18-.309a24.484,24.484,0,0,0-8.939-3.811c-.225-.046-.321.3-.1.345" transform="translate(-152.063 -177.91)" fill="#240b0b"/><path d="M197.066,316.639a11.966,11.966,0,0,0,.485,4.591c.067.219.412.126.345-.1a11.737,11.737,0,0,1-.472-4.5c.02-.229-.338-.228-.358,0" transform="translate(-126.559 -203.289)" fill="#240b0b"/><path d="M287.563,223.786a15.847,15.847,0,0,1-1.434,10.462c-.105.2.2.385.309.18a16.241,16.241,0,0,0,1.47-10.737c-.046-.225-.391-.13-.345.1" transform="translate(-183.786 -143.61)" fill="#240b0b"/><path d="M299.617,315.5a77.555,77.555,0,0,1,5.893,8.341c.12.2.43.016.309-.181a78.352,78.352,0,0,0-5.95-8.413c-.145-.179-.4.076-.253.253" transform="translate(-192.437 -202.463)" fill="#240b0b"/><path d="M297.874,299.433a7.412,7.412,0,0,0,9.065-.789c.168-.158-.086-.411-.253-.253a7.053,7.053,0,0,1-8.631.733c-.192-.128-.372.182-.181.309" transform="translate(-191.293 -191.645)" fill="#240b0b"/><path d="M53.756,170.338a2.468,2.468,0,0,0-.173-.811c-.006-.014-.011-.028-.017-.04-.022-.053-.041-.107-.067-.159-.35-.707-1.4-.1-1.087.6,0,.012,0,.023.005.035.038.162.071.323.1.485a1.044,1.044,0,0,1-.041.241.55.55,0,0,0-.378.016c-5.271,1.984-12.859-2.074-14.612-7.334a.653.653,0,0,0-1.054-.262c-.2.036-4.255,9.148-6.109,12.255A56.651,56.651,0,0,0,25.7,185.393c-1.979,5.593-3.548,11.54-3.444,17.514.131,7.47,3.751,14.838,11.871,15.742,15.795,1.757,14.954-18.457,16.9-28.613.807-4.21.833-8.491,1.581-12.713.421-2.378.831-4.292,1.146-6.986" transform="translate(-14.294 -104.669)" fill="#43a99b"/><path d="M206.986,280.967q-.635.741-1.263,1.487c-8.369,9.835-16.671,19.828-23.121,31.017q-.673-.093-1.346-.15a167.727,167.727,0,0,1,16.169-22.893c2.849-3.493,5.765-6.923,8.676-10.342.524-.61,1.4.274.885.88" transform="translate(-116.433 -179.787)" fill="#a6a5b5"/><path d="M129.306,349.4q-6.61,6.2-13.1,12.526c-.137-.436-.291-.868-.457-1.3q6.28-6.111,12.68-12.111c.581-.548,1.466.328.88.88" transform="translate(-74.351 -223.77)" fill="#a6a5b5"/><path d="M27.153,290.9c-1.029-5.166-2.494-11.474-3.654-16.613q-.828-3.671-1.7-7.332c-.393-1.649-.945-4.456-1.61-5.092-1-.961-14.169-3.1-18.507-2.588a1,1,0,0,0-.564.261c-.29.271-.578.543-.862.819a.839.839,0,0,0-.255.6,3.006,3.006,0,0,0,.069.615c1.713,7.966,6.687,26.878,7.348,27.682.782.954,5.58,1.345,6.787,1.477,2.845.311,5.691.6,8.536.906,1.174.125,2.349.249,3.522.386.376.044.964-.76.892-1.124" transform="translate(0 -166.502)" fill="#a6a5b5"/><path d="M2.745,261.06c3.857.381,7.7.937,11.53,1.512q2.3.345,4.6.718c.438.072.877.142,1.314.223.418.078.4.151.506.59,1.5,6.12,2.921,12.261,4.377,18.393.691,2.911,1.378,5.824,2.085,8.731.055.224.4.129.345-.1-1.513-6.211-2.964-12.438-4.441-18.658-.659-2.774-1.315-5.55-1.986-8.322-.22-.907-.384-.915-1.216-1.059-1.366-.235-2.736-.447-4.105-.657-4.322-.663-8.656-1.3-13.009-1.735-.229-.023-.227.335,0,.358" transform="translate(-1.653 -167.466)" fill="#240b0b"/><path d="M129.527,348.879c-.123-1.44-2.777-9.578-5.342-6.925-1.044,1.079-.059,3.121.578,4.162a8.089,8.089,0,0,0,4.113,3.339.344.344,0,0,0,.472-.233.332.332,0,0,0,.18-.343" transform="translate(-79.479 -219.321)" fill="#32544b"/><path d="M68.218,319.879a.279.279,0,0,0,.014-.125,16.063,16.063,0,0,0-6.041-10.7.413.413,0,0,0-.646.188l-.624.608a20.3,20.3,0,0,1-5.636,1.251.972.972,0,0,1-.851-.382,12.621,12.621,0,0,0-2.955-3.039c-1.815-1.24-4.008-1.293-6.1-1.9-1.169-.339-2.146-1.012-3.269-1.394a1.758,1.758,0,0,0-1.254-.141c-.507.213,1.325,4.286-.105,5.5-1.027.874-3.874-1.366-4.937-1.98a17.6,17.6,0,0,1-3.413-2.984c-1.179-1.149-3.33-.769-3.272.739.043,1.1-.344.369-.82.223a1.332,1.332,0,0,0-1.433.249c-1.013,1.04.446,3.477,1.095,4.382a13.037,13.037,0,0,0,1.281,1.513.794.794,0,0,1,.186.771,1.586,1.586,0,0,0-.033.16c-.2,1.282,1.432,2.641,2.325,3.405q.385.33.791.631a.819.819,0,0,1,.322.764c-.456,3.811,6.208,6.257,9.512,6.744,5.764.849,17.682-1.525,17.841-1.558a38,38,0,0,0,8.078-2.328.322.322,0,0,0-.057-.6" transform="translate(-17.041 -195.356)" fill="#bd5e4b"/><path d="M173.593,156.14c-.039-8.933,1.361-9.092.554-18-.389-4.292-5.082-8.4-6.711-12.508-1.3-3.287-5.966-9.729-10.446-8.138-4.132,1.472-5.29,6.689-6.813,10.439-2.574,6.337-3.571,13.164-4.22,19.933a154.743,154.743,0,0,1-3.574,20.944c-.89,3.686-3.266,5.183-6.014,7.414a14.034,14.034,0,0,0-2.207,2.248,6.041,6.041,0,0,1-2.327,1.787c-.915.4-1.842.781-2.768,1.148-2.267.9-17.938,6.915-13.48,9.618,3.335,2.022,6.029,12.958,6.952,13.886,1.429,1.434,4.5.248,6.218.041,14.276-1.725,27.212-5.073,36.877-16.488,5.257-6.209,7.993-24.739,7.961-32.327" transform="translate(-73.738 -75.316)" fill="#43a99b"/><path d="M187,141.778a34.609,34.609,0,0,0-3.032,8.475c-1,3.9-1.745,7.867-2.4,11.838-.64,3.856-1.185,7.727-1.673,11.6q-.314,2.5-.595,5a49.78,49.78,0,0,1-.824,5.913,10.291,10.291,0,0,1-1.565,3.688,9.242,9.242,0,0,1-2.894,2.437c-1.783,1.061-3.816,2.008-4.686,4.021-.09.209.217.392.309.181.863-1.994,2.9-2.9,4.661-3.954a8.869,8.869,0,0,0,3.826-4.131,22.109,22.109,0,0,0,1.339-6.419q.248-2.279.52-4.555a216.668,216.668,0,0,1,3.883-23.689,38.7,38.7,0,0,1,3.444-10.222.179.179,0,0,0-.309-.181" transform="translate(-108.763 -91.017)" fill="#240b0b"/><path d="M273.669,232.747a42.464,42.464,0,0,1-3.533,20.679c-.091.209.217.392.309.181a42.839,42.839,0,0,0,3.582-20.86c-.022-.227-.38-.229-.358,0" transform="translate(-173.517 -149.399)" fill="#240b0b"/><path d="M195.682,277.6c3.924-1.128,8.344-2.054,12.029.28.2.123.375-.186.181-.309-3.766-2.385-8.29-1.47-12.3-.316a.179.179,0,0,0,.1.345" transform="translate(-125.558 -177.344)" fill="#240b0b"/><path d="M130.37,311.673c4.291,3.465,6.244,8.79,7.741,13.921a.179.179,0,0,0,.345-.1c-1.513-5.185-3.5-10.579-7.833-14.079-.177-.143-.432.108-.253.253" transform="translate(-83.707 -200.019)" fill="#240b0b"/><path d="M133.448,355.349a4.382,4.382,0,0,1,.866,1.7.179.179,0,0,0,.345-.1,4.8,4.8,0,0,0-.958-1.856c-.147-.177-.4.077-.253.253" transform="translate(-85.695 -228.064)" fill="#240b0b"/><path d="M35.894,313.255a16.656,16.656,0,0,0,12.366,6.4c.23.011.23-.347,0-.358A16.317,16.317,0,0,1,36.147,313c-.141-.182-.392.073-.253.253" transform="translate(-23.031 -201.023)" fill="#751f14"/><path d="M36.023,327.641a16.085,16.085,0,0,0,12.952,4.788c.227-.021.23-.379,0-.358a15.743,15.743,0,0,1-12.7-4.684c-.161-.165-.413.088-.253.253" transform="translate(-23.107 -210.27)" fill="#751f14"/><path d="M46.052,344.6c.359.747,1.348,1.02,2.069,1.309a16.907,16.907,0,0,0,3.387.957A17.368,17.368,0,0,0,58,346.738c.225-.046.13-.391-.1-.345a16.693,16.693,0,0,1-8.537-.42c-.879-.279-2.578-.659-3.01-1.557-.1-.207-.408-.026-.309.181" transform="translate(-29.57 -221.183)" fill="#751f14"/><path d="M55.477,355.511a33.461,33.461,0,0,0,16.19,1.539c.227-.034.131-.379-.095-.345a33.093,33.093,0,0,1-16-1.539c-.217-.077-.311.268-.1.345" transform="translate(-35.558 -228.14)" fill="#751f14"/><path d="M102.134,179.108a3.115,3.115,0,0,1-2.457,1.622c-.227.021-.23.379,0,.358a3.481,3.481,0,0,0,2.765-1.8c.111-.2-.2-.383-.309-.181" transform="translate(-63.919 -114.997)" fill="#240b0b"/><path d="M41.229,166.24A92.739,92.739,0,0,0,30.29,193.546c-.05.224.294.32.345.095a92.4,92.4,0,0,1,10.9-27.22.179.179,0,0,0-.309-.181" transform="translate(-19.454 -106.732)" fill="#240b0b"/><path d="M98.934,157.851a24.466,24.466,0,0,1,3.007,4,8.571,8.571,0,0,1,.625,5.012c-.282,3.359-.794,6.709-1.206,10.053-.028.227.33.226.358,0,.453-3.676,1.1-7.387,1.275-11.088a7.468,7.468,0,0,0-.817-4.286,27.082,27.082,0,0,0-2.989-3.947c-.151-.174-.4.079-.253.253" transform="translate(-63.522 -101.199)" fill="#240b0b"/><path d="M54.867,72.739a16.727,16.727,0,0,0,1.8,7.7c1.222,2.68,2.678,5.261,4.044,7.869,1.166,2.226,2.317,4.622,4.321,6.228A6.126,6.126,0,0,0,71.113,95.7c.21-.087.118-.433-.1-.345-2.367.974-4.914-.114-6.6-1.866-1.714-1.785-2.761-4.137-3.9-6.305-2.328-4.444-5.545-9.228-5.3-14.448.011-.23-.347-.23-.358,0" transform="translate(-35.237 -46.615)" fill="#751f14"/><path d="M48.682,85.506q.965-.421,1.183.49l.066.223a4.254,4.254,0,0,1,.132,1.437,13.492,13.492,0,0,1-.4,2.453,11.6,11.6,0,0,0-.418,3.217,4.43,4.43,0,0,0,3.161,3.93,30.514,30.514,0,0,1,3.077,1.228,9.446,9.446,0,0,1,2.763,2.279,9.732,9.732,0,0,1,2.255,6.629c-.01.23.348.23.358,0a10.072,10.072,0,0,0-2.2-6.679,9.827,9.827,0,0,0-2.773-2.41,24.393,24.393,0,0,0-3.27-1.344,4.188,4.188,0,0,1-2.966-3.135c-.276-1.679.354-3.321.632-4.952.177-1.042.357-2.549-.319-3.467a.947.947,0,0,0-1.592-.079c-.133.189.177.368.309.181" transform="translate(-31.053 -54.553)" fill="#751f14"/><path d="M58.911,94.781c-.5,1.749-.955,3.675.042,5.334a.179.179,0,0,0,.309-.18c-.946-1.574-.479-3.407-.007-5.059a.179.179,0,0,0-.344-.1" transform="translate(-37.489 -60.803)" fill="#751f14"/><path d="M88.412,23.4c-.641-3.03-2.234-2.531-3.281-5.451C83.41,13.155,80.424,7.485,74.9,6.542c-10.426-1.781-22.156,6.685-22.025,17.54a.628.628,0,0,0,1.161.314c1.176-1.919,13.282-6.076,14.547-6.573,2.433-.957,5.667-.552,7.418,1.539,2.043,2.439,1.2,5.094,2.614,7.867.571,1.121,1.325,1.1,2.543,1.505.988.33,1.643.053,2.232.986a46.556,46.556,0,0,0,3.582,5.244c.291.337,1.739.919,1.817.467A44.258,44.258,0,0,0,88.412,23.4" transform="translate(-33.967 -4.05)" fill="#632828"/><path d="M137.471,60.026c-.16-2.369-.931-5.106-3.381-4.117a5.338,5.338,0,0,0-2.439,2.677,9.752,9.752,0,0,0-1.1,4.142c-.006.13.148.219.275.209a2.157,2.157,0,0,0,.519,1.723,3.914,3.914,0,0,0,5.312-.052,4.09,4.09,0,0,0,.733-1.844,12.841,12.841,0,0,0,.082-2.738" transform="translate(-83.861 -35.781)" fill="#bd5e4b"/><path d="M140.213,59.364c-.921.186-1.237,1.224-1.441,2.027a7.625,7.625,0,0,0,.026,3.732.179.179,0,0,0,.345-.1,7.29,7.29,0,0,1-.151-2.942c.129-.8.369-2.185,1.316-2.377.225-.045.13-.39-.1-.345" transform="translate(-89.002 -38.131)" fill="#751f14"/><path d="M88.814,20.31c-.016-.06-.033-.121-.051-.184a5.107,5.107,0,0,1,.026-2.116,21.649,21.649,0,0,0,.124-6.305C87.819,4.447,80.591.954,73.943.172c-6.31-.742-13.3.879-17.927,5.43A23.294,23.294,0,0,0,53.03,9.2c-.694,1.03-1.088,2.926-1.965,3.727a6.758,6.758,0,0,0-1.745,2.393c-.713,1.713-.664,8.5-.261,9.025.211.276,1.408.876,1.478.2.416-3.976,5.475-6.228,8.791-7.476,3.958-1.489,8.275-2.251,12.4-.971a28.392,28.392,0,0,1,12.01,7.569c1.114,1.229,1.416,3.2,2.933,3.924,1.058.5,1.943-3.187,2.077-3.843a5.717,5.717,0,0,0,.066-3.439" transform="translate(-31.327 0)" fill="#ff8578"/><path d="M63.767,26.5a19.571,19.571,0,0,1,16.449-3.618c5.879,1.291,11.182,5.137,15.14,9.559.154.172.406-.082.253-.253C89.27,25.11,79.766,20.1,70.146,22.813a18.285,18.285,0,0,0-6.633,3.437c-.178.146.076.4.253.253" transform="translate(-40.76 -14.174)" fill="#240b0b"/><path d="M99.925,69.343c-1.743-1.031-2.164,1.235-1.742,2.83.373,1.41,2.539,2.9,3.119.984a3.63,3.63,0,0,0-1.377-3.814" transform="translate(-62.972 -44.377)" fill="#1f0404"/><path d="M67.809,83.461c-1.721-.735-1.855,1.649-1.064,3.069.4.711,1.577,1.851,2.467,1.32,1.491-.888-.3-3.916-1.4-4.389" transform="translate(-42.576 -53.524)" fill="#1f0404"/><path d="M81.018,86.708a3.959,3.959,0,0,0,.607,2.865,2.328,2.328,0,0,0,2.213.726c.226-.041.131-.386-.1-.345a1.946,1.946,0,0,1-2.068-.935,4.272,4.272,0,0,1-.3-2.311c.011-.23-.347-.23-.358,0" transform="translate(-52.03 -55.588)" fill="#751f14"/><path d="M90.868,91.839c.067-.524.768-.471,1.139-.421.225.031.322-.314.095-.345-.642-.088-1.49-.041-1.592.765-.029.228.329.226.358,0" transform="translate(-58.14 -58.483)" fill="#751f14"/><path d="M94.088,52.9a8.4,8.4,0,0,0-1.857-.167c-2.257.059-4.672,1.215-5.107,3.637-.442,2.467,1.659,2.189,3.2,1.466,1.456-.682,4.9-1.205,5.525-2.889.454-1.229-.607-1.8-1.762-2.048" transform="translate(-55.927 -33.874)" fill="#632828"/><path d="M60.063,69.021A3.6,3.6,0,0,0,56.591,70.1a3.931,3.931,0,0,0-.8,3.26,1.23,1.23,0,0,0,1.9.919,21.707,21.707,0,0,0,3.851-2.528c.981-.788-.341-2.438-1.483-2.726" transform="translate(-35.797 -44.275)" fill="#632828"/><path d="M91.541,104.4a6.613,6.613,0,0,0-3,.411.7.7,0,0,0-.284.163c-.423.465.816,1.092,1.12,1.194a4.1,4.1,0,0,0,2.02.114c.476-.088,1.907-.469,1.945-1.075.042-.666-1.357-.757-1.8-.808" transform="translate(-56.64 -67.038)" fill="#fff"/><path d="M333.6,253.574a41.237,41.237,0,0,1,.086,9.556c-.024.229.333.227.358,0a41.239,41.239,0,0,0-.085-9.556c-.028-.225-.386-.228-.358,0" transform="translate(-214.296 -162.779)" fill="#240b0b"/><path d="M184.423,184.716c.62-.971.834-2.386-.5-3.124-1.591-.877-3.781-.093-5.045.721-1.145.737-2.159,2.172-1.245,3.384.885,1.173,2.991,1.221,4.343.837a4.393,4.393,0,0,0,2.452-1.818" transform="translate(-113.875 -116.402)" fill="#fff"/></g></g></g><rect width="255" height="255" transform="translate(-0.436)" fill="none"/></g></svg>