<svg xmlns="http://www.w3.org/2000/svg" xmlns:xlink="http://www.w3.org/1999/xlink" width="255" height="255" viewBox="0 0 255 255"><defs><clipPath id="a"><path d="M136.349,87c-.854.627-2.18,2.8-.7,3.4a8.065,8.065,0,0,0,2.162.2l2.381.178,2.38.178a2.72,2.72,0,0,0,1.321-.034.591.591,0,0,0,.3-.842.178.178,0,0,0,.013-.108,4.278,4.278,0,0,0-3.806-3.5,8.316,8.316,0,0,0-1.581-.165,4.121,4.121,0,0,0-2.466.694" transform="translate(-134.982 -86.304)" fill="none"/></clipPath></defs><g transform="translate(-0.176)"><rect width="255" height="255" transform="translate(0.176)" fill="none"/><g transform="translate(66.496 13.949)"><path d="M25.575,166.533C18.464,141.357,2.549,119.77.317,93.208c-1.442-17.161,2.024-34.879,10.862-49.66C20.5,27.962,35.42,16.174,52,8.766,68.2,1.525,86.392-1.756,103.937.932c9.828,1.506,19.54,4.959,27.252,11.236,5.268,4.288,9.745,10.73,8.578,17.422-.772,4.427-3.86,8.065-7.045,11.235C121.059,52.433,105.8,62.02,100.827,77.706c-3.624,11.435-.86,24.029,4.2,34.9s12.308,20.571,18.265,30.984,10.721,22.051,10.058,34.028c-.771,13.91-8.9,26.607-19.39,35.772-9.511,8.307-21.776,14.352-34.369,13.407-10.393-.78-20.033-6.284-27.375-13.682-12.792-12.888-18.9-30.564-26.645-46.587m82.669,32.175c-.007.041-.021.034-.055-.021l.055.021" transform="translate(0 0)" fill="#ffefcc"/><path d="M298.567,164.815c-.351-6.725-.99-16.308,4.9-21.067,6.268-5.063,12.751,1.712,15.87,6.934,16.667,27.905,5.473,61.919,10.692,92.334a39.067,39.067,0,0,1-10.787,1.35c-3.922-.243-5.481-3.3-6.275-6.739-1.76-7.63-2.731-15.423-4.59-23.06-3.991-16.4-8.926-32.8-9.812-49.751" transform="translate(-265.954 -105.858)" fill="#ffde96"/><path d="M97.622,185.969c.41,4.6.1,9.172.86,13.727.37,2.209.65,4.617,1.122,6.949a.8.8,0,0,1,1.108.664c.417,2.941.6,6.723,2.223,9.3,2.5,3.974,8.215-.753,10.731-2.75a132.6,132.6,0,0,0,19.021-18.864c5.54-6.6,10.608-13.584,13.885-21.517-3.995-8.57-6.621-17.674-6.306-27.249.41-12.715,7.038-23.241,15.936-31.66.582-.551-3.213-1.1-3.367-1.092-12.829.425-20.316,12.494-25.551,22.589-1.723,3.324-7.106,15.93-7.934,16.8-.657.677-.137-2.189.075-3.153,2.257-10.287,10.923-35.559,12.646-45.976,1.136-6.833,3.283-16.128.274-22.715-1.566-3.427-6.4-3.625-9.548-2.661a14.043,14.043,0,0,0-6.942,5.424c-15.848,21.579-17.407,52.214-19.144,77.794a155.4,155.4,0,0,0-.089,24.4" transform="translate(-39.769 -58.054)" fill="#ffde96"/><g transform="translate(-17.591 19.799)"><g transform="translate(0)"><path d="M217.719,252.965c-1.109-1.032-2.344-2.157-3.939-2.228-3.228-.144-5.763,3.167-7.2,5.656A15.62,15.62,0,0,0,204.35,262a6.4,6.4,0,0,0,.284,2.769,4.9,4.9,0,0,1-.057,4.077c-.13.247.244.467.375.219.012-.023.022-.046.033-.068a12.444,12.444,0,0,0,4.578-1.728,30.9,30.9,0,0,0,4.473-2.959A28.392,28.392,0,0,0,218,260.534a6.13,6.13,0,0,0,1.82-4.051,5.362,5.362,0,0,0-2.1-3.519" transform="translate(-119.647 -153.745)" fill="#f7e0d0"/><path d="M155.072,89.8c-.577-3.414-1.373-6.786-2.16-10.156a137.9,137.9,0,0,1-3.525-21.469c-.357-4.959-1.139-11.292-5.866-14.305-.223-.142.55.378.443.553-5.131-2.562-10.571,1.123-10.855,6.827a65.181,65.181,0,0,1-.353,6.714c-.31,2.038-.746,4.057-1.1,6.087-.712,4.032-1.305,8.084-1.807,12.148-.53,4.3-.954,8.605-1.3,12.92-.273,3.4-1.214,7.628.314,10.847,1.267,2.669,4.007,4.278,6.593,5.447a35.286,35.286,0,0,0,10.427,2.837c.341.041.458-.288.36-.546a15.213,15.213,0,0,0,8.825-9.557c.871-2.725.474-5.585.007-8.346" transform="translate(-74.966 -32.439)" fill="#612a2a"/><path d="M231.374,256.083a65.3,65.3,0,0,0-7.822-11.4.867.867,0,0,0-1.487.368c-.024.007-.048.009-.073.018-3.175,1.11-7.375.044-9.817,2.907a8,8,0,0,0-1.121,7.179c0,.11-1.316,1.009-1.276,1.133a24.555,24.555,0,0,0,10.729,14.026c5.709,3.709,12.952.645,13.495-6.145.227-2.841-1.337-5.65-2.629-8.083" transform="translate(-122.853 -150.024)" fill="#ffad85"/><path d="M110.9,127.621c-5.345-2.343-11.913-3.782-16.048-8.173-2.5-2.654-2.03-6.268-1.8-9.629a87.979,87.979,0,0,1,1.389-10.569.886.886,0,0,0-.907-1.041.872.872,0,0,0-.081-.263,25.3,25.3,0,0,0-6.941-9.03C84.1,87.071,80.9,85.5,77.9,86.454a.809.809,0,0,0-1.324.635c.366,7.093.456,14.517-.775,21.538-.617,3.518-1.6,6.982-4.934,8.793a47.168,47.168,0,0,1-9.922,3.709.922.922,0,0,0-.181.071.845.845,0,0,0-.411,1.554c3.661,2.147,7.813,2.879,11.847,4.024,4.7,1.336,9.275,3.094,13.986,4.406,7.962,2.217,16.811,3,24.207-1.372a.757.757,0,0,0,.392-.761c.572-.269.834-1.117.117-1.431" transform="translate(-35.107 -57.37)" fill="#ffad85"/><path d="M112.221,344.676c0-.021.006-.039.005-.06-.055-4.683-.032-4.118-1.03-8.693-.209-.96-1.529-.717-1.681.1A203.374,203.374,0,0,1,78.5,338.23q-7.548-.045-15.078-.654c-1.679-.136-4.42-.585-6.113.339-.478-.08-1.076.979-1.079,1.057a3.029,3.029,0,0,0-.333.9,48.908,48.908,0,0,0,.223,5.324,2.919,2.919,0,0,1-.217,1.257c-6.752,18.208-11.956,38-11.047,60.223a.8.8,0,0,0,.219.5.777.777,0,0,0,.6.668c7.394,1.968,15.03,2.262,22.643,2.319,7.82.058,15.644.121,23.463.063,7.993-.059,21.75-.779,29.689-1.767,2.755-.343,2.407-5.852,2.377-7.72-.065-4.016-.2-8.045-.582-12.044a154.507,154.507,0,0,0-6.259-30.514q-1.1-3.589-2.356-7.127c-.582-1.636-2.524-4.7-2.437-6.382" transform="translate(-26.211 -203.271)" fill="#5263e2"/><path d="M169.983,119.528a44.694,44.694,0,0,1,1.908,12.232c.1,4.146-.142,8.557-3.014,11.823-.175.2.117.493.293.293,2.794-3.178,3.188-7.355,3.147-11.415a45.33,45.33,0,0,0-1.935-13.044c-.079-.254-.479-.145-.4.11" transform="translate(-98.869 -76.758)" fill="#240b0b"/><path d="M209.3,204.113c-4.48-8.76-8.463-11.253-16.919-16.727a2.207,2.207,0,0,0-1.847.152,5.338,5.338,0,0,0-5.365,3.378c-1.395,3.192-.531,7.1.512,10.255,1.3,3.946,3.086,7.7,4.277,11.69a102.942,102.942,0,0,1,3.128,16.4.905.905,0,0,0,.583,1.147c1.425-4.672,8.675-14.671,16.558-20.89,1.834-1.447.03-3.535-.926-5.4" transform="translate(-108.017 -116.566)" fill="#f7e0d0"/><path d="M121.505,32.831c-3.6-4.542-10.585-6.021-16.192-5.377a20.031,20.031,0,0,0-8.2,2.824c-3.592,2.215-5,6.065-5.737,9.969a10.45,10.45,0,0,0,.353,5.664c.69,1.881,1.873,3.613,2.369,5.545A.736.736,0,0,0,94,52c.619,3.159,1.335,6.413,3.264,9.16,1.5,2.138,3.9,3.563,6.2,4.8A19.13,19.13,0,0,0,113.745,68c4.1-.218,7.34-2.042,8.847-5.865a33.239,33.239,0,0,0,1.864-12.112c.04-5.492.739-12.106-2.658-16.808q-.142-.2-.293-.387" transform="translate(-53.376 -22.901)" fill="#ffad85"/><path d="M105.571,183.368c-1.384-3.286-2.871-6.72-5.674-9.205-2.917-2.586-6.859-3.661-10.648-4.638-.158-.041-6.936-1.713-7.119-1.505-4.773,5.424-18.357,3.112-26.669.467A41,41,0,0,1,45.454,164.1a8.86,8.86,0,0,1-2.268-1.938c-.138-.182-1.364,1.123-1.66,1.1a17.5,17.5,0,0,0-11.673,3.147c-3.7,2.675-5.488,6.622-6.859,10.667a.677.677,0,0,0,.033.552.811.811,0,0,0,.018.235A57.1,57.1,0,0,0,31.011,196c0,12.284-.17,24.866,5.325,36.03a12.881,12.881,0,0,1,1.158,3.285c.843,4.493,4.144,5.387,8.964,6.15,6.755,1.071,24.571,2.818,41.354-.114,4.329-.756,9.295,1.18,12.977-2,4.006-3.464,2.037-7.872,1.432-12.29-.332-2.423-1.727-12.937-1.488-15.475a39.789,39.789,0,0,0-1.359-16.031c3.094-3.412,5.647-7.265,6.064-11.456a.609.609,0,0,0,.134-.727" transform="translate(-13.441 -101.865)" fill="#f7e0d0"/><path d="M31.9,281.8c-1.829-2.325-5.314-3.24-7.96-4.191A56.833,56.833,0,0,0,12.6,274.685a38.328,38.328,0,0,0-5.019-.385c-1.067-.007-2.135.035-3.2.134-.615.058-3.6-.284-4.2,1.141-.806,1.852,1.216,3.435,2.69,4.581a26.154,26.154,0,0,0,8.635,4.226,83.566,83.566,0,0,0,11.681,2.4c1.718.256,3.442.472,5.174.6,1.191.089,3.266.559,4.346-.132,1.638-1.048.06-4.35-.807-5.452" transform="translate(0 -167.546)" fill="#f7e0d0"/><path d="M34.362,225.058c-4.4-3.227-10.341-4.713-15.353-1.909-4.115,2.3-5.913,6.8-7.234,11.117a.731.731,0,0,0-.815.6A233.659,233.659,0,0,0,6.5,259.722c-.776,6.3-2.424,14.8,3.128,19.521,4.791,4.077,12.273,1.65,14.628-3.433,3.013-6.5,6.167-23.769,7.155-30.825.2-1.447,2.112-18.961,1.971-18.95.672-.053,1.695-.448.975-.976" transform="translate(-3.316 -136.724)" fill="#ffad85"/><path d="M228.418,84.4a.665.665,0,0,0,.463-.741l.1-1.118a.752.752,0,0,0-.067-.389c-.26-.556-.525-1.728-.975-1.588-3.739,1.164-28.268,9.257-31.472,10.314-.257.085-1.3,1.306-1.229,1.567a6.968,6.968,0,0,0,.857,1.751.539.539,0,0,0,.637.266c9.5-3.022,28.258-8.974,31.68-10.063" transform="translate(-114.339 -54.079)" fill="#ba8a6a"/><path d="M198.029,96.238c10.192-3.118,20.41-6.167,30.433-9.8.249-.09.141-.491-.11-.4-10.022,3.637-20.24,6.687-30.433,9.8-.254.077-.146.478.11.4" transform="translate(-115.824 -57.284)" fill="#240b0b"/><path d="M35.013,190.451c-1.292-5.456-3.84-10.757-8.4-14.2-2.965-2.237-10.227-3.4-10.457-3.223-3.743,2.821-5.814,7.746-7.416,11.532A120.991,120.991,0,0,0,1.714,208.44c-.539,2.751-1.047,5.509-1.661,8.245-.156.692.712.692,3.6.62a44.707,44.707,0,0,1,11.336,1.4c6.331,1.745,11.879,4.1,17.279,9.133a.792.792,0,0,0,.876,0c1.944-1.413,2.244-3.541,2.453-5.805.344-3.721.643-7.449.806-11.182.3-6.784.177-13.757-1.395-20.4" transform="translate(-0.021 -108.228)" fill="#f7e0d0"/><path d="M232.329,188.185c-1.492-7.832-5.892-14.886-8.637-22.3-6.963-18.812-6.917-21.2-4.895-25.027.305-.578-4.722-2.245-6.7-2.254-1.8-.008-6.692-.024-7,.678-2.045,4.65-1.527,9.564-.515,14.411,1.266,6.062,2.639,12.082,3.657,18.194,1.023,6.144,1.739,12.313,2.41,18.5.762,7.034,3.16,14.766,10.23,17.732,1.117.468,4.85,1.545,6.731-.056a14.043,14.043,0,0,0,5.221-9.815,35.715,35.715,0,0,0-.506-10.066" transform="translate(-119.292 -88.077)" fill="#ffad85"/><path d="M229.429,77.946c-.493-1.108-1.56-1.871-2.644-.589-.711.84-.913,2.446-1.268,3.446-.376,1.059-.8,2.1-1.251,3.121a.067.067,0,0,1-.127-.039,16.968,16.968,0,0,0-.233-5.435c-.285-1.5-.591-3.266-1.816-4.294-1.147-.962-2.168-.313-2.474,1.017a16.04,16.04,0,0,0-.269,4.012,3.216,3.216,0,0,0-1.226-2.213c-1.141-.731-2.071-.043-2.489,1.074a12.481,12.481,0,0,0-.271,3.612,15.348,15.348,0,0,1-.43,3.41,4.845,4.845,0,0,0-1.054-3.642c-2.06-1.582-2.351,2.5-2.4,3.683-.171,4.171-1.222,5.585-2.8,7.948a49.8,49.8,0,0,0-4.841,7.925,13.89,13.89,0,0,0,.363,11.7.374.374,0,0,0,.527.181.42.42,0,0,0,.471.189c2.189-.53,4.651-.82,6.555-2.124,1.784-1.223,5.251-2.909,5.273-3.329.132-2.578,2.655-5.751,4.3-7.461,4.179-4.333,7.845-10.42,8.134-15.844a28.658,28.658,0,0,0,.227-5.438,3.355,3.355,0,0,0-.259-.908" transform="translate(-118.717 -50.067)" fill="#ffad85"/><path d="M86.872,37.432a.415.415,0,0,0-.491-.293c-2.8-1.487-6.714-.484-9.581.284A31.848,31.848,0,0,0,65.755,42.9a.445.445,0,0,0-.145.521c-.006.023.594-.159.591-.134-.271,2.211-.6,3.542-.763,5.76-.166,2.192-.477,4.84-.833,7.009A149.639,149.639,0,0,1,59.981,76.7a85.08,85.08,0,0,1-3.91,10.184c-1.4,3.02-1.125,4.973,2.5,5.328,3.539.347,10.739-.205,14.058-2.349a20.236,20.236,0,0,0,7.824-9.7q.138-.36.262-.725a20.636,20.636,0,0,0,.783-3.05c1.066-6.027.244-12.627-.347-18.674-.3-3.075-.7-6.137-1.163-9.191-.033-.217-.066-.435-.1-.653A23.167,23.167,0,0,0,86.643,38.2a.433.433,0,0,0,.229-.767" transform="translate(-32.38 -28.208)" fill="#612a2a"/><path d="M125.952,30.6c-.278-2.828-7.773-4.7-10.271-4.91a.665.665,0,0,1-.537-.441c-3-7.592-12.4-9.552-19.031-8.173a30.835,30.835,0,0,0-13.222,6.376c-3.5,3-4.3,7.819-4.255,12.191,0,.323-.048,1.822.73,1.352a59.293,59.293,0,0,1,16.855-7.408,30.388,30.388,0,0,1,12.136-.085,68.269,68.269,0,0,1,10.44,3.39c1.649.761,7.36-.215,7.156-2.293" transform="translate(-46.051 -16.669)" fill="#a4a3ff"/><path d="M128.146,360.245c-6.553,2.5-13.793,3.04-20.719,3.713a107.858,107.858,0,0,1-21.4.024c-3.842-.392-7.972-.745-11.364-2.756a.207.207,0,0,0-.209.358c2.734,1.62,5.876,2.118,8.982,2.515a103.739,103.739,0,0,0,11.2.815,146.779,146.779,0,0,0,22.124-1.616,51.058,51.058,0,0,0,11.493-2.653c.247-.094.14-.495-.11-.4" transform="translate(-43.547 -217.871)" fill="#240b0b"/><path d="M202.877,302.7a45.266,45.266,0,0,1-3.456,11.843c-.108.241.249.452.358.209a45.631,45.631,0,0,0,3.5-11.942c.039-.261-.36-.373-.4-.11" transform="translate(-116.776 -184.093)" fill="#240b0b"/><path d="M67.332,203.722A17.493,17.493,0,0,1,69.24,208a70.159,70.159,0,0,1,2.358,8.192,62.127,62.127,0,0,1,1.071,22.635c-.291,2.042-.615,4.106-1.1,6.112a1.4,1.4,0,0,1-1.195,1.232,9.21,9.21,0,0,1-1.9.17,17.352,17.352,0,0,1-3.91-.357c-.26-.052-.372.347-.11.4a14.834,14.834,0,0,0,6.205.164c1.345-.328,1.379-1.779,1.611-2.929a67.047,67.047,0,0,0,1.464-12.616A68.076,68.076,0,0,0,70.1,209.222a21.539,21.539,0,0,0-2.408-5.709c-.154-.215-.513-.008-.358.209" transform="translate(-37.656 -126.038)" fill="#240b0b"/><path d="M65.443,296.35a17.766,17.766,0,0,1,4.187,2.985c.193.184.486-.108.293-.293a18.142,18.142,0,0,0-4.271-3.05c-.237-.122-.447.235-.209.358" transform="translate(-38.264 -180.236)" fill="#240b0b"/><path d="M6.084,279.856a13.5,13.5,0,0,0-3.952-.084c-.261.033-.264.447,0,.414a13.133,13.133,0,0,1,3.842.069c.261.044.373-.356.11-.4" transform="translate(-1.134 -170.689)" fill="#240b0b"/><path d="M199.133,228.316c3.546,8.336,5.574,17.55,4.436,26.616-.033.264.382.261.414,0,1.148-9.143-.918-18.424-4.493-26.826-.1-.244-.461-.034-.358.209" transform="translate(-116.608 -140.431)" fill="#240b0b"/><path d="M159.185,336.629a8.931,8.931,0,0,1-4.243,5.918.207.207,0,0,0,.209.358,9.338,9.338,0,0,0,4.434-6.165c.055-.26-.345-.371-.4-.11" transform="translate(-90.681 -203.961)" fill="#240b0b"/><path d="M229.418,101.769a10.183,10.183,0,0,1-1.862,7.238c-.156.217.2.424.358.209a10.517,10.517,0,0,0,1.919-7.447c-.032-.261-.446-.265-.414,0" transform="translate(-133.242 -66.391)" fill="#bf604d"/><path d="M239.227,90.475c.627,4.1.309,8.4-2.281,11.809-.162.212.2.419.358.209,2.656-3.491,2.965-7.925,2.323-12.128-.04-.263-.439-.151-.4.11" transform="translate(-138.74 -59.74)" fill="#bf604d"/><path d="M250.139,100.911a18.587,18.587,0,0,1-2.406,7.768.207.207,0,0,0,.358.209,19.084,19.084,0,0,0,2.463-7.977c.022-.266-.393-.264-.414,0" transform="translate(-145.064 -65.888)" fill="#bf604d"/><path d="M161.221,460.508c-1.109,1.87-2.888,3.213-4.309,4.829a14.548,14.548,0,0,0-2.548,4.658,81.8,81.8,0,0,0-3.277,13.384c-.05.261.35.372.4.11a84.845,84.845,0,0,1,3.165-13.081,14.648,14.648,0,0,1,3.086-5.356,25.839,25.839,0,0,0,3.841-4.334.207.207,0,0,0-.358-.209" transform="translate(-88.479 -276.539)" fill="#240b0b"/><path d="M157.281,368.727c.3,6.458.606,13.083-.2,19.52a7.187,7.187,0,0,1-1.18,3.67,3.37,3.37,0,0,1-1.686,1.257,2.17,2.17,0,0,1-2.526-1.584,9.428,9.428,0,0,1-.145-2.349q-.02-1.348-.059-2.694-.076-2.642-.216-5.281c-.211-4.025-.521-8.045-.9-12.058-.025-.263-.44-.266-.414,0,.4,4.143.713,8.294.925,12.451q.158,3.118.231,6.24c.03,1.379-.281,3.274.488,4.512,1.481,2.386,4.208.848,5.177-1.082a10.737,10.737,0,0,0,.794-3.687c.167-1.614.226-3.238.285-4.859.17-4.693.058-9.365-.156-14.056-.012-.266-.426-.267-.414,0" transform="translate(-87.817 -222.73)" fill="#240b0b"/><path d="M66.442,399.492a123.052,123.052,0,0,0-3.341,45.19c.029.262.444.265.414,0a122.725,122.725,0,0,1,3.326-45.08.207.207,0,0,0-.4-.11" transform="translate(-36.508 -240.778)" fill="#240b0b"/><path d="M113.325,51.89a8.144,8.144,0,0,0,.112,4.41c.078.254.478.146.4-.11A7.69,7.69,0,0,1,113.725,52a.207.207,0,0,0-.4-.11" transform="translate(-66.221 -37.209)" fill="#240b0b"/><path d="M77.828,102.824c.176,5.615-.38,11.43-2.922,16.524a19.02,19.02,0,0,1-10.265,9.607c-.249.09-.142.491.11.4a19.354,19.354,0,0,0,10.371-9.52c2.694-5.22,3.3-11.22,3.12-17.011-.008-.266-.423-.267-.414,0" transform="translate(-37.773 -67.008)" fill="#240b0b"/><path d="M87.489,73.919c-1.459-.763-2.787-.034-2.541,1.461a7.452,7.452,0,0,0,1.434,3.3c.367.479,2.218,2.672,2.744,1.644.448-.877-.5-5.807-1.637-6.4" transform="translate(-49.731 -50.018)" fill="#ffad85"/><path d="M137.954,36.217c-4.674-.832-9.756-1.2-14.3.477a15.106,15.106,0,0,0-5.422,3.554c-.191.187.1.48.293.293a14.611,14.611,0,0,1,5.239-3.447c4.472-1.646,9.477-1.3,14.078-.477.261.046.373-.353.11-.4" transform="translate(-69.205 -27.706)" fill="#240b0b"/><path d="M153.368,44.644c.1-1.445-1.623-2.19-2.731-2.634a37.976,37.976,0,0,0-15.574-2.591,14.021,14.021,0,0,0-7.245,2c-.221.147-.014.506.209.358a13.6,13.6,0,0,1,7.036-1.943,37.27,37.27,0,0,1,8.026.5A44.036,44.036,0,0,1,149.2,41.94c1.172.381,3.857,1.091,3.751,2.7-.017.266.4.265.414,0" transform="translate(-74.8 -29.97)" fill="#240b0b"/><path d="M123.848,19.618c-2.214,2.85-2.844,6.312-2.865,9.858a.207.207,0,0,0,.414,0c.021-3.423.6-6.809,2.744-9.565.162-.208-.129-.5-.293-.293" transform="translate(-70.852 -18.354)" fill="#240b0b"/><path d="M122.663,121.114a32.153,32.153,0,0,0,6.941,1.861c.261.04.373-.36.11-.4a32.155,32.155,0,0,1-6.941-1.861c-.249-.1-.356.3-.11.4" transform="translate(-71.754 -77.593)" fill="#bf604d"/><path d="M131.942,62.194c-.168-1.49-1.241-2.292-2.221-1.7-1.149.692-1.2,2.574-.875,3.659a1.848,1.848,0,0,0,.365.716,1.588,1.588,0,0,0,1.8.229c1.042-.457,1.059-1.747.929-2.9" transform="translate(-75.356 -42.22)" fill="#1f0404"/><path d="M161.775,67.727c.028-1.447-.825-2.32-1.76-1.847-1.1.554-1.363,2.356-1.2,3.429a1.829,1.829,0,0,0,.238.723,1.315,1.315,0,0,0,1.563.392c.974-.339,1.141-1.575,1.163-2.7" transform="translate(-92.981 -45.413)" fill="#1f0404"/><path d="M150.906,70.463c1.15,1.29,1.685,3.545-.285,4.348-.244.1-.137.5.11.4,2.269-.924,1.86-3.481.469-5.041-.178-.2-.47.094-.293.293" transform="translate(-88.128 -47.962)" fill="#bf604d"/><path d="M144.716,78.748a2.086,2.086,0,0,0-2.232.288c-.207.169.088.46.293.293a1.651,1.651,0,0,1,1.73-.223c.241.11.452-.247.209-.358" transform="translate(-83.403 -52.908)" fill="#bf604d"/><path d="M128.633,50.018a6.432,6.432,0,0,0-3.806.784c-.993.556-2.155,1.85-.8,2.787a2.236,2.236,0,0,0,1.842.194,7.379,7.379,0,0,1,2.5-.123,12.633,12.633,0,0,0,1.327.18,1.607,1.607,0,0,0,1.643-2.252,3.146,3.146,0,0,0-2.382-1.527c-.107-.017-.214-.031-.321-.043" transform="translate(-72.274 -36.178)" fill="#612a2a"/><path d="M159.342,54.351a1.974,1.974,0,0,0-1.906.9c-.571,1.011-.216,1.963.637,2.189a11.815,11.815,0,0,1,2.916,1.058c.721.423,1.6.266,1.767-.667a2.612,2.612,0,0,0-.683-1.917,4.131,4.131,0,0,0-2.5-1.537q-.114-.019-.23-.029" transform="translate(-92.037 -38.732)" fill="#612a2a"/><path d="M123.765,25.937c-.149-.825-.694-1.851-1.662-1.921-1.018-.074-1.736.928-1.9,1.823a2.24,2.24,0,0,0,2.085,2.683c1.35-.09,1.681-1.441,1.474-2.585" transform="translate(-70.377 -20.969)" fill="#f7e0d0"/><path d="M34.641,234.983c0,1.549-.035,3.1-.056,4.634-.07,4.3.009,7.273-.425,11.543-.009.074-.017.156-.022.247-.117,1.419-.234,4.747-1.267,5.537-2.052,1.566-6.3,2.252-8.782,2.152-1.848-.078-7.594-.269-8.34-2.582a109.884,109.884,0,0,1-4.791-23.71.854.854,0,0,1-.312-1.037,7.774,7.774,0,0,1,1.3-2.356c1.115.022,2.239.121,3.346.052q3.665-.228,7.325-.226c2.369,0,4.738.074,7.108.152,1.567.052,3.15.191,4.717.091.152,1.827.2,3.663.2,5.5" transform="translate(-6.198 -141.157)" fill="#43a99b"/><path d="M33.757,223.056a4.251,4.251,0,0,0-2.627-1.3,12.354,12.354,0,0,1-.357-1.524c-.109-.385-.132-.946-.589-1.037a47,47,0,0,0-10.191-.513,43.208,43.208,0,0,0-10.246,1.657,1.158,1.158,0,0,0-.754.953q-.045.631-.063,1.263c-1.292.376-2.11.763-2.008,2.013.036.442-.077.853.146,1.184,1.564,2.318,9.211,1.981,10.883,1.962a51.428,51.428,0,0,0,13.556-1.894,15.764,15.764,0,0,0,2.042-.744c.549-.245.526-1.552.208-2.025" transform="translate(-4.049 -134.952)" fill="#612a2a"/><path d="M12.293,227.832c.238.474,1.023.707,1.475.873a16.5,16.5,0,0,0,4.075.848,38.149,38.149,0,0,0,15.6-2.2c.252-.084.144-.484-.11-.4a38.633,38.633,0,0,1-14.847,2.243,18.147,18.147,0,0,1-4.146-.732c-.443-.14-1.449-.366-1.686-.838-.12-.238-.477-.029-.358.209" transform="translate(-7.185 -139.811)" fill="#240b0b"/><path d="M13.97,223.066c.869.86,2.628.774,3.76.8,1.734.046,3.48-.034,5.212-.1a41.733,41.733,0,0,0,10.166-1.4.207.207,0,0,0-.11-.4,39.391,39.391,0,0,1-9.281,1.349c-1.481.066-2.964.1-4.447.129-.769.013-1.54.017-2.308-.032-.821-.052-2.075-.031-2.7-.65-.19-.188-.483.105-.293.293" transform="translate(-8.145 -136.9)" fill="#240b0b"/><path d="M7.824,230.81c1.357,1.323,3.3,1.549,5.111,1.73a50.6,50.6,0,0,0,7.733.055,56.089,56.089,0,0,0,7-.769c1.857-.335,4.533-.583,5.891-2.056.181-.2-.112-.489-.293-.293a5.285,5.285,0,0,1-2.688,1.277c-1.059.285-2.131.515-3.211.705a55.776,55.776,0,0,1-6.7.72,57.846,57.846,0,0,1-6.343.054c-2.055-.117-4.641-.19-6.208-1.718-.191-.186-.484.106-.293.293" transform="translate(-4.546 -141.26)" fill="#240b0b"/><path d="M13.187,252.457c-.048-.094.064-.237.411-.39a14.334,14.334,0,0,0,4.1-2.253c.842-.77,1.791-2.562.28-3.318a2.857,2.857,0,0,0-2.221-.508c.011-.036.02-.072.028-.109a.237.237,0,0,0,.212-.2c.263-1.612-1.108-2.55-2.531-2.816a12.978,12.978,0,0,0-6.718,1.05c-1.428.53-3.027,1.377-3.417,2.98a6.2,6.2,0,0,0,.395,3.48A4.823,4.823,0,0,0,4.8,256.054c.244.928.522,1.848.85,2.755a25.942,25.942,0,0,0,2.463,5.086c.448.706,1.241,2.416,2.236,2.551.432.059,1.674-2.6,1.934-2.994,1.551-2.372,3.456-2.289,4.045-4.162a3.988,3.988,0,0,0,.186-1.529,3.068,3.068,0,0,0-.188-.878,1.663,1.663,0,0,0-.149-.33c.9-.528,2.653-1.986,1.824-3.481a2.124,2.124,0,0,0-2.623-.946c-.514.116-1.011.3-1.528.409-.352.072-.608.028-.662-.077" transform="translate(-1.878 -149.061)" fill="#ffad85"/><path d="M221.224,269.551a24.294,24.294,0,0,0,4.229,10.289c.154.215.513.008.358-.209a23.959,23.959,0,0,1-4.188-10.191c-.036-.263-.436-.151-.4.11" transform="translate(-129.555 -164.614)" fill="#bf604d"/><path d="M24.834,275.3a7.819,7.819,0,0,0-5.512,5.033c-.088.252.312.36.4.11a7.393,7.393,0,0,1,5.222-4.744.207.207,0,0,0-.11-.4" transform="translate(-11.308 -168.128)" fill="#bf604d"/><path d="M17.1,249.746a24.958,24.958,0,0,0-5.674,1.3,12.128,12.128,0,0,0-4.537,2.436.207.207,0,0,0,.293.293,12.27,12.27,0,0,1,4.706-2.453A24.536,24.536,0,0,1,17.1,250.16c.262-.029.265-.444,0-.414" transform="translate(-4 -153.166)" fill="#bf604d"/><path d="M41.063,303.713a35.769,35.769,0,0,1,2.716,12.918.207.207,0,0,0,.414,0A36.089,36.089,0,0,0,41.462,303.6c-.1-.243-.5-.136-.4.11" transform="translate(-24.038 -184.628)" fill="#bf604d"/><path d="M17.563,266.791c-2.167.576-4.782,2.181-5.557,4.4-.088.252.312.361.4.11.722-2.066,3.265-3.579,5.268-4.111a.207.207,0,0,0-.11-.4" transform="translate(-7.023 -163.145)" fill="#bf604d"/><path d="M49.3,247.816a7.206,7.206,0,0,0,1.671,10.1,8.182,8.182,0,0,0,5.051,1.61c0-.091.013-.174.022-.247.434-4.27.464-7.086.533-11.382.022-1.536-.052-3.245-.052-4.795a11.009,11.009,0,0,0-7.225,4.713" transform="translate(-28.087 -149.277)" fill="#fff"/><path d="M93.057,61.908a17.149,17.149,0,0,0-.1,5.53c.037.263.437.151.4-.11a16.483,16.483,0,0,1,.1-5.309c.047-.261-.352-.373-.4-.11" transform="translate(-54.335 -43.075)" fill="#240b0b"/><path d="M79.976,123.47a26.023,26.023,0,0,1-2.1,13.048c-.107.242.25.452.358.209A26.425,26.425,0,0,0,80.39,123.47c-.025-.263-.44-.266-.414,0" transform="translate(-45.597 -79.099)" fill="#240b0b"/><path d="M43.93,220.831l-.121.108a.208.208,0,0,0-.033.251,1.456,1.456,0,0,0,1.21.494,6.919,6.919,0,0,0,2.41-.247.207.207,0,0,0-.11-.4,6.736,6.736,0,0,1-1.674.255c-.409.007-1.213.068-1.478-.311l-.032.251.121-.108c.2-.177-.094-.469-.293-.293" transform="translate(-25.62 -136.202)" fill="#240b0b"/><path d="M107.053,219.633c-1.541-1.417-10.1-1-13.83-.764-2.058.132-.776,5.184-.432,6.467a11.55,11.55,0,0,0,4.973,6.279c3.237,1.983,7.132,1.57,9.427-1.761,1.938-2.811,1.253-8.943-.138-10.221" transform="translate(-53.926 -134.94)" fill="#ba7350"/></g><g transform="translate(55.932 28.854)"><g clip-path="url(#a)"><rect width="10.684" height="5.531" transform="translate(-0.828 -0.281)" fill="#802d24"/><path d="M143.967,87.316c-.021-.114-.046-.224-.073-.332a5.015,5.015,0,0,0-1.711-.645,13.237,13.237,0,0,0-2.9-.5,5.2,5.2,0,0,0-2.849.336c-.5.355-.578,1.077-.673,1.667a15.459,15.459,0,0,0,1.805.1l2.381.178,2.38.178a2.719,2.719,0,0,0,1.321-.034.591.591,0,0,0,.3-.842.178.178,0,0,0,.013-.108" transform="translate(-135.442 -86.008)" fill="#fff"/></g></g></g></g></g></svg>