<svg xmlns="http://www.w3.org/2000/svg" width="45" height="36" viewBox="0 0 45 36">
  <path id="Icon_awesome-truck-loading" data-name="Icon awesome-truck-loading" d="M3.53,26.409a1.128,1.128,0,0,0,1.378.795l15.216-4.078a1.128,1.128,0,0,0,.795-1.378L17.423,8.7a1.128,1.128,0,0,0-1.378-.795L10.617,9.373l1.744,6.518-4.345,1.16L6.272,10.533.837,11.988a1.128,1.128,0,0,0-.795,1.378ZM27,0a2.248,2.248,0,0,0-2.25,2.25V25L.415,31.641a.559.559,0,0,0-.394.689l.886,3.255a.559.559,0,0,0,.689.394l27.682-7.552A7.864,7.864,0,0,0,45,28.125V0ZM37.125,31.5A3.375,3.375,0,1,1,40.5,28.125,3.376,3.376,0,0,1,37.125,31.5Z" transform="translate(0)" fill="#ff8578"/>
</svg>
