<svg xmlns="http://www.w3.org/2000/svg" width="45" height="36" viewBox="0 0 45 36">
  <path id="Icon_awesome-luggage-cart" data-name="Icon awesome-luggage-cart" d="M15.75,22.5H18V6.75H15.75A2.25,2.25,0,0,0,13.5,9V20.25A2.25,2.25,0,0,0,15.75,22.5ZM40.5,20.25V9a2.25,2.25,0,0,0-2.25-2.25H36V22.5h2.25A2.25,2.25,0,0,0,40.5,20.25ZM43.875,27H9V1.125A1.125,1.125,0,0,0,7.875,0H1.125A1.125,1.125,0,0,0,0,1.125v2.25A1.125,1.125,0,0,0,1.125,4.5H4.5V30.375A1.125,1.125,0,0,0,5.625,31.5h5.832a3.34,3.34,0,0,0-.207,1.125,3.375,3.375,0,0,0,6.75,0,3.34,3.34,0,0,0-.207-1.125H31.707a3.34,3.34,0,0,0-.207,1.125,3.375,3.375,0,0,0,6.75,0,3.34,3.34,0,0,0-.207-1.125h5.832A1.125,1.125,0,0,0,45,30.375v-2.25A1.125,1.125,0,0,0,43.875,27ZM33.75,6.75V3.375A3.375,3.375,0,0,0,30.375,0h-6.75A3.375,3.375,0,0,0,20.25,3.375V22.5h13.5Zm-3.375,0h-6.75V3.375h6.75Z" fill="#ff8578"/>
</svg>
