<svg xmlns="http://www.w3.org/2000/svg" width="45" height="31.5" viewBox="0 0 45 31.5">
  <path id="Icon_awesome-truck-pickup" data-name="Icon awesome-truck-pickup" d="M43.875,20.25H42.75v-4.5A2.25,2.25,0,0,0,40.5,13.5H37.125L29.476,3.939A4.5,4.5,0,0,0,25.962,2.25H18A2.25,2.25,0,0,0,15.75,4.5v9H4.5a2.25,2.25,0,0,0-2.25,2.25v4.5H1.125A1.125,1.125,0,0,0,0,21.375v2.25A1.125,1.125,0,0,0,1.125,24.75H4.613A7.86,7.86,0,1,0,20.25,25.875a7.808,7.808,0,0,0-.113-1.125h4.727a7.878,7.878,0,1,0,15.524,0h3.488A1.125,1.125,0,0,0,45,23.625v-2.25A1.125,1.125,0,0,0,43.875,20.25ZM20.25,6.75h5.712l5.4,6.75H20.25Zm-7.875,22.5a3.375,3.375,0,1,1,3.375-3.375A3.379,3.379,0,0,1,12.375,29.25Zm20.25,0A3.375,3.375,0,1,1,36,25.875,3.379,3.379,0,0,1,32.625,29.25Z" transform="translate(0 -2.25)" fill="#ff8578"/>
</svg>
