<svg xmlns="http://www.w3.org/2000/svg" width="37" height="48" viewBox="0 0 37 48"><g transform="translate(-860 -3211)"><path d="M60.8,31.68A15.99,15.99,0,1,1,79.228,20.924l-1.9-.616A14,14,0,1,0,61.2,29.72Z" transform="translate(812 3211)" fill="#ff8578"/><path d="M67,21H63V15H61V13h4v6h2Z" transform="translate(812 3211)" fill="#ff8578"/><rect width="3" height="2" transform="translate(873 3230)" fill="#ff8578"/><rect width="2" height="2" transform="translate(875 3221)" fill="#ff8578"/><path d="M84,46H69V42.474a13.408,13.408,0,0,1-3.463-5.094c-.149-.335-.29-.649-.432-.933L63,32.236V32a2.526,2.526,0,0,1,1.729-2.15,2.762,2.762,0,0,1,3.058.438c.445.438.871.871,1.213,1.223V21a3.028,3.028,0,0,1,3.024-3h.025A2.991,2.991,0,0,1,75,21v7.186l6.154,1.274A4.543,4.543,0,0,1,85,34v5a4.312,4.312,0,0,1-.628,2.022A2.5,2.5,0,0,0,84,42ZM71,44H82V42a4.029,4.029,0,0,1,.6-1.9A2.643,2.643,0,0,0,83,39V34a2.6,2.6,0,0,0-2.245-2.58L73,29.814V21a.977.977,0,0,0-.964-1A1.039,1.039,0,0,0,71,21V34H68.611l-.3-.315c0-.005-.914-.972-1.93-1.973a.676.676,0,0,0-.6-.106,1.509,1.509,0,0,0-.7.344l1.8,3.6c.153.307.306.648.468,1.011a11.159,11.159,0,0,0,3.252,4.647l.385.3Z" transform="translate(812 3211)" fill="#ff8578"/><path d="M85,48H83V46H69v2H67V44H85Z" transform="translate(812 3211)" fill="#ff8578"/><path d="M64,28A12,12,0,1,1,76,16H74a9.987,9.987,0,1,0-7.272,9.624l.544,1.924A12.014,12.014,0,0,1,64,28" transform="translate(812 3211)" fill="#ff8578"/></g></svg>