<svg xmlns="http://www.w3.org/2000/svg" xmlns:xlink="http://www.w3.org/1999/xlink" width="810" height="189.409" viewBox="0 0 810 189.409"><defs><clipPath id="a"><rect width="180" height="90" fill="#fed981"/></clipPath><clipPath id="b"><rect width="180" height="90" fill="#ff8578"/></clipPath><clipPath id="c"><rect width="180" height="90" fill="#a4a3ff"/></clipPath><clipPath id="d"><rect width="180" height="90" fill="#43a99b"/></clipPath></defs><g transform="translate(-390 -1516)"><g transform="translate(0 22.409)"><g transform="translate(390 1593)"><g clip-path="url(#a)"><path d="M90,90A90,90,0,0,0,180,0H0A90,90,0,0,0,90,90" fill="#fed981"/></g></g><g transform="translate(599 1493.591)"><g transform="translate(0 0)" clip-path="url(#b)"><path d="M90,0a90,90,0,0,1,90,90H0A90,90,0,0,1,90,0" fill="#ff8578"/></g></g><g transform="translate(810 1593)"><g clip-path="url(#c)"><path d="M90,90A90,90,0,0,0,180,0H0A90,90,0,0,0,90,90" fill="#a4a3ff"/></g></g><g transform="translate(1020 1493.591)"><g transform="translate(0 0)" clip-path="url(#d)"><path d="M90,0a90,90,0,0,1,90,90H0A90,90,0,0,1,90,0" fill="#43a99b"/></g></g><path d="M182.351,133.554A70,70,0,1,1,83.982,144.64a70,70,0,0,1,98.368-11.086" transform="translate(341.791 1404.719)" fill="#f7f7f7"/><path d="M138.664,260.781a72.407,72.407,0,0,1-69.127-50.772,72.7,72.7,0,0,1-.649-41.311,72.046,72.046,0,0,1,13.139-25.616A72.427,72.427,0,0,1,183.909,131.6a72.17,72.17,0,0,1,23.972,34.954,72.7,72.7,0,0,1,.649,41.311,72.046,72.046,0,0,1-13.139,25.616,72.5,72.5,0,0,1-56.727,27.3Zm.09-140a67.5,67.5,0,1,0,42.037,14.727A67.2,67.2,0,0,0,138.754,120.781Z" transform="translate(341.791 1404.719)" fill="#fff"/><path d="M182.351,243.009a70,70,0,1,0-98.368-11.086,70,70,0,0,0,98.368,11.086" transform="translate(550.291 1395.56)" fill="#f7f7f7"/><path d="M138.76,260.781h-.006a72.8,72.8,0,0,1-30.981-6.919,72.4,72.4,0,0,1-41.337-59.795A72.7,72.7,0,0,1,75,153.649a72.419,72.419,0,0,1,63.666-37.868,72.78,72.78,0,0,1,30.982,6.918,72.4,72.4,0,0,1,41.337,59.8,72.7,72.7,0,0,1-8.562,40.419,72.416,72.416,0,0,1-63.66,37.868Zm-.1-140a66.775,66.775,0,0,0-42.037,14.727,67.5,67.5,0,0,0,42.128,120.273h.006a67.5,67.5,0,0,0-.1-135Z" transform="translate(550.291 1395.56)" fill="#fff"/><path d="M182.351,133.554A70,70,0,1,1,83.982,144.64a70,70,0,0,1,98.368-11.086" transform="translate(761.291 1404.719)" fill="#f7f7f7"/><path d="M138.664,260.781a72.407,72.407,0,0,1-69.127-50.772,72.7,72.7,0,0,1-.649-41.311,72.046,72.046,0,0,1,13.139-25.616A72.427,72.427,0,0,1,183.909,131.6a72.17,72.17,0,0,1,23.972,34.954,72.7,72.7,0,0,1,.649,41.311,72.046,72.046,0,0,1-13.139,25.616,72.5,72.5,0,0,1-56.727,27.3Zm.09-140a67.5,67.5,0,1,0,42.037,14.727A67.2,67.2,0,0,0,138.754,120.781Z" transform="translate(761.291 1404.719)" fill="#fff"/><path d="M182.351,243.009a70,70,0,1,0-98.369-11.086,70,70,0,0,0,98.369,11.086" transform="translate(971.291 1395.06)" fill="#f7f7f7"/><path d="M138.76,260.781h-.006a72.795,72.795,0,0,1-30.981-6.919,72.4,72.4,0,0,1-41.337-59.794A72.7,72.7,0,0,1,75,153.649a72.419,72.419,0,0,1,63.666-37.868,72.78,72.78,0,0,1,30.982,6.918,72.4,72.4,0,0,1,41.337,59.8,72.7,72.7,0,0,1-8.562,40.419,72.416,72.416,0,0,1-63.66,37.868Zm-.1-140a66.775,66.775,0,0,0-42.037,14.727,67.5,67.5,0,0,0,42.128,120.273h.006a67.5,67.5,0,0,0-.1-135Z" transform="translate(971.291 1395.06)" fill="#fff"/><path d="M17.118,12.616a3.923,3.923,0,0,1-1.249,2.611,4.093,4.093,0,0,1-2.794.919,3.758,3.758,0,0,1-3.029-1.355,5.451,5.451,0,0,1-1.139-3.625V10.141a6.076,6.076,0,0,1,.531-2.615,3.966,3.966,0,0,1,1.505-1.732,4.191,4.191,0,0,1,2.256-.6,3.853,3.853,0,0,1,2.725.948,3.971,3.971,0,0,1,1.194,2.626H15.7a3.064,3.064,0,0,0-.795-1.851,2.4,2.4,0,0,0-1.71-.573,2.516,2.516,0,0,0-2.113,1,4.577,4.577,0,0,0-.765,2.837v1.034a4.7,4.7,0,0,0,.725,2.764A2.343,2.343,0,0,0,13.075,15a2.706,2.706,0,0,0,1.8-.531,2.947,2.947,0,0,0,.831-1.849Zm1.348-.652a4.681,4.681,0,0,1,.458-2.095A3.415,3.415,0,0,1,20.2,8.434a3.469,3.469,0,0,1,1.864-.505A3.342,3.342,0,0,1,24.68,9.049a4.311,4.311,0,0,1,1,2.981v.1a4.722,4.722,0,0,1-.443,2.076,3.365,3.365,0,0,1-1.267,1.432,3.509,3.509,0,0,1-1.893.513,3.334,3.334,0,0,1-2.611-1.121,4.29,4.29,0,0,1-1-2.966Zm1.362.161a3.39,3.39,0,0,0,.612,2.117,2.072,2.072,0,0,0,3.278-.011,3.707,3.707,0,0,0,.608-2.267,3.384,3.384,0,0,0-.619-2.113,1.968,1.968,0,0,0-1.644-.809,1.946,1.946,0,0,0-1.619.8A3.68,3.68,0,0,0,19.828,12.125Zm8.833-4.05.044,1a2.888,2.888,0,0,1,2.373-1.143q2.512,0,2.534,2.834V16H32.257V10.756a1.824,1.824,0,0,0-.392-1.267,1.57,1.57,0,0,0-1.2-.41,1.956,1.956,0,0,0-1.157.352,2.387,2.387,0,0,0-.776.923V16H27.379V8.075ZM36.109,16V9.123H34.857V8.075h1.252V7.4a2.753,2.753,0,0,1,.758-2.065A2.94,2.94,0,0,1,39.01,4.6a6.451,6.451,0,0,1,2.073.447l-.227,1.143a4.7,4.7,0,0,0-1.743-.366,1.705,1.705,0,0,0-1.256.392,1.615,1.615,0,0,0-.385,1.176v.688H39.09V9.123H37.472V16Zm5.647,0H40.394V8.075h1.362Zm7.1,0a2.846,2.846,0,0,1-.19-.835,3.023,3.023,0,0,1-2.256.981,2.8,2.8,0,0,1-1.923-.663,2.145,2.145,0,0,1-.751-1.681,2.24,2.24,0,0,1,.941-1.923,4.437,4.437,0,0,1,2.648-.685h1.318v-.623a1.522,1.522,0,0,0-.425-1.132,1.707,1.707,0,0,0-1.252-.421,1.976,1.976,0,0,0-1.216.366,1.079,1.079,0,0,0-.491.886H43.9a1.87,1.87,0,0,1,.421-1.146,2.874,2.874,0,0,1,1.143-.875,3.844,3.844,0,0,1,1.586-.322,3.133,3.133,0,0,1,2.146.685A2.47,2.47,0,0,1,50,10.5v3.647a4.459,4.459,0,0,0,.278,1.736V16ZM46.6,14.967a2.381,2.381,0,0,0,1.208-.33,1.994,1.994,0,0,0,.828-.857V12.155H47.579q-2.49,0-2.49,1.458a1.234,1.234,0,0,0,.425,1A1.633,1.633,0,0,0,46.6,14.967Zm6.8-6.892.044,1a2.888,2.888,0,0,1,2.373-1.143q2.512,0,2.534,2.834V16H57V10.756a1.824,1.824,0,0,0-.392-1.267,1.57,1.57,0,0,0-1.2-.41,1.956,1.956,0,0,0-1.157.352,2.387,2.387,0,0,0-.776.923V16H52.12V8.075Zm8.269,6.819h4.636V16H60.016V15L64.388,9.2H60.082V8.075h6.006v.959ZM72.723,16a2.846,2.846,0,0,1-.19-.835,3.023,3.023,0,0,1-2.256.981,2.8,2.8,0,0,1-1.923-.663A2.145,2.145,0,0,1,67.6,13.8a2.24,2.24,0,0,1,.941-1.923,4.437,4.437,0,0,1,2.648-.685h1.318v-.623a1.522,1.522,0,0,0-.425-1.132,1.707,1.707,0,0,0-1.252-.421,1.976,1.976,0,0,0-1.216.366,1.079,1.079,0,0,0-.491.886H67.765a1.87,1.87,0,0,1,.421-1.146,2.874,2.874,0,0,1,1.143-.875,3.844,3.844,0,0,1,1.586-.322,3.133,3.133,0,0,1,2.146.685,2.47,2.47,0,0,1,.806,1.886v3.647a4.459,4.459,0,0,0,.278,1.736V16Zm-2.249-1.033a2.381,2.381,0,0,0,1.208-.33,1.994,1.994,0,0,0,.828-.857V12.155H71.449q-2.49,0-2.49,1.458a1.234,1.234,0,0,0,.425,1A1.633,1.633,0,0,0,70.475,14.967Z" transform="translate(439 1577)" fill="#12263f"/><path d="M9.3,11.825V16H7.89V5.336h3.933a3.952,3.952,0,0,1,2.743.894A3.029,3.029,0,0,1,15.559,8.6a2.989,2.989,0,0,1-.97,2.391,4.128,4.128,0,0,1-2.78.839Zm0-1.15h2.527a2.526,2.526,0,0,0,1.729-.532,1.945,1.945,0,0,0,.6-1.537,2.009,2.009,0,0,0-.6-1.526A2.367,2.367,0,0,0,11.9,6.486H9.3Zm12.737,4.541a2.878,2.878,0,0,1-2.322.93,2.464,2.464,0,0,1-1.93-.736,3.186,3.186,0,0,1-.67-2.179V8.075h1.355v5.12q0,1.8,1.465,1.8A2.028,2.028,0,0,0,22,13.839V8.075h1.355V16H22.063Zm4.658-7.141.044,1a2.888,2.888,0,0,1,2.373-1.143q2.512,0,2.534,2.834V16H30.288V10.756A1.824,1.824,0,0,0,29.9,9.489a1.57,1.57,0,0,0-1.2-.41,1.956,1.956,0,0,0-1.157.352,2.387,2.387,0,0,0-.776.923V16H25.41V8.075Zm8.833-1.919V8.075H37V9.123H35.525v4.921a1.1,1.1,0,0,0,.2.715A.832.832,0,0,0,36.4,15a3.281,3.281,0,0,0,.645-.088V16a3.951,3.951,0,0,1-1.04.146,1.687,1.687,0,0,1-1.37-.549,2.36,2.36,0,0,1-.461-1.56V9.123H32.727V8.075H34.17V6.156Zm7.954,9.06a2.878,2.878,0,0,1-2.322.93,2.464,2.464,0,0,1-1.93-.736,3.186,3.186,0,0,1-.67-2.179V8.075h1.355v5.12q0,1.8,1.465,1.8a2.028,2.028,0,0,0,2.065-1.157V8.075H44.8V16H43.508ZM51.748,16a2.846,2.846,0,0,1-.19-.835,3.023,3.023,0,0,1-2.256.981,2.8,2.8,0,0,1-1.923-.663,2.145,2.145,0,0,1-.751-1.681,2.24,2.24,0,0,1,.941-1.923,4.437,4.437,0,0,1,2.648-.685h1.318v-.623a1.522,1.522,0,0,0-.425-1.132,1.707,1.707,0,0,0-1.252-.421,1.976,1.976,0,0,0-1.216.366,1.079,1.079,0,0,0-.491.886H46.789a1.87,1.87,0,0,1,.421-1.146,2.874,2.874,0,0,1,1.143-.875,3.844,3.844,0,0,1,1.586-.322,3.133,3.133,0,0,1,2.146.685A2.47,2.47,0,0,1,52.89,10.5v3.647a4.459,4.459,0,0,0,.278,1.736V16ZM49.5,14.967a2.381,2.381,0,0,0,1.208-.33,1.994,1.994,0,0,0,.828-.857V12.155H50.473q-2.49,0-2.49,1.458a1.234,1.234,0,0,0,.425,1A1.633,1.633,0,0,0,49.5,14.967ZM56.487,16H55.132V4.75h1.355Zm3.64,0H58.772V8.075h1.355ZM58.662,5.973a.809.809,0,0,1,.2-.557.756.756,0,0,1,.6-.227.768.768,0,0,1,.6.227.8.8,0,0,1,.205.557.774.774,0,0,1-.205.549.782.782,0,0,1-.6.22.77.77,0,0,1-.6-.22A.782.782,0,0,1,58.662,5.973Zm3.3,6a4.642,4.642,0,0,1,.864-2.933A2.941,2.941,0,0,1,67.3,8.881V4.75h1.355V16H67.407l-.066-.85a2.759,2.759,0,0,1-2.263,1,2.707,2.707,0,0,1-2.245-1.128,4.7,4.7,0,0,1-.868-2.944Zm1.355.154a3.515,3.515,0,0,0,.557,2.109A1.8,1.8,0,0,0,65.415,15,1.977,1.977,0,0,0,67.3,13.839V10.2a1.992,1.992,0,0,0-1.868-1.121,1.808,1.808,0,0,0-1.553.769A3.87,3.87,0,0,0,63.32,12.125ZM75.647,16a2.846,2.846,0,0,1-.19-.835,3.023,3.023,0,0,1-2.256.981,2.8,2.8,0,0,1-1.923-.663,2.145,2.145,0,0,1-.751-1.681,2.24,2.24,0,0,1,.941-1.923,4.437,4.437,0,0,1,2.648-.685h1.318v-.623a1.522,1.522,0,0,0-.425-1.132,1.707,1.707,0,0,0-1.252-.421,1.976,1.976,0,0,0-1.216.366,1.079,1.079,0,0,0-.491.886H70.688a1.87,1.87,0,0,1,.421-1.146,2.874,2.874,0,0,1,1.143-.875,3.844,3.844,0,0,1,1.586-.322,3.133,3.133,0,0,1,2.146.685,2.47,2.47,0,0,1,.806,1.886v3.647a4.459,4.459,0,0,0,.278,1.736V16ZM73.4,14.967a2.381,2.381,0,0,0,1.208-.33,1.994,1.994,0,0,0,.828-.857V12.155H74.372q-2.49,0-2.49,1.458a1.234,1.234,0,0,0,.425,1A1.633,1.633,0,0,0,73.4,14.967Zm5.186-3a4.642,4.642,0,0,1,.864-2.933,2.941,2.941,0,0,1,4.468-.157V4.75h1.355V16H84.026l-.066-.85a2.759,2.759,0,0,1-2.263,1,2.707,2.707,0,0,1-2.245-1.128,4.7,4.7,0,0,1-.868-2.944Zm1.355.154a3.515,3.515,0,0,0,.557,2.109A1.8,1.8,0,0,0,82.033,15a1.977,1.977,0,0,0,1.882-1.157V10.2a1.992,1.992,0,0,0-1.868-1.121,1.808,1.808,0,0,0-1.553.769A3.87,3.87,0,0,0,79.939,12.125Z" transform="translate(642.5 1577)" fill="#12263f"/><path d="M14.431,6.486H11V16H9.6V6.486H6.184V5.336h8.247Zm4.651,2.805a4.06,4.06,0,0,0-.667-.051,1.786,1.786,0,0,0-1.809,1.135V16H15.251V8.075H16.57l.022.916a2.11,2.11,0,0,1,1.89-1.062,1.384,1.384,0,0,1,.6.1ZM24.927,16a2.846,2.846,0,0,1-.19-.835,3.023,3.023,0,0,1-2.256.981,2.8,2.8,0,0,1-1.923-.663,2.145,2.145,0,0,1-.751-1.681,2.24,2.24,0,0,1,.941-1.923A4.437,4.437,0,0,1,23.4,11.2h1.318v-.623a1.522,1.522,0,0,0-.425-1.132,1.707,1.707,0,0,0-1.252-.421,1.976,1.976,0,0,0-1.216.366,1.079,1.079,0,0,0-.491.886H19.968a1.87,1.87,0,0,1,.421-1.146,2.874,2.874,0,0,1,1.143-.875,3.844,3.844,0,0,1,1.586-.322,3.133,3.133,0,0,1,2.146.685,2.47,2.47,0,0,1,.806,1.886v3.647a4.459,4.459,0,0,0,.278,1.736V16Zm-2.249-1.033a2.381,2.381,0,0,0,1.208-.33,1.994,1.994,0,0,0,.828-.857V12.155H23.652q-2.49,0-2.49,1.458a1.234,1.234,0,0,0,.425,1A1.633,1.633,0,0,0,22.678,14.967Zm6.79-.073H34.1V16H27.812V15L32.185,9.2H27.878V8.075h6.006v.959ZM40.52,16a2.846,2.846,0,0,1-.19-.835,3.023,3.023,0,0,1-2.256.981,2.8,2.8,0,0,1-1.923-.663A2.145,2.145,0,0,1,35.4,13.8a2.24,2.24,0,0,1,.941-1.923,4.437,4.437,0,0,1,2.648-.685h1.318v-.623a1.522,1.522,0,0,0-.425-1.132A1.707,1.707,0,0,0,38.63,9.02a1.976,1.976,0,0,0-1.216.366,1.079,1.079,0,0,0-.491.886H35.561a1.87,1.87,0,0,1,.421-1.146,2.874,2.874,0,0,1,1.143-.875,3.844,3.844,0,0,1,1.586-.322,3.133,3.133,0,0,1,2.146.685,2.47,2.47,0,0,1,.806,1.886v3.647a4.459,4.459,0,0,0,.278,1.736V16Zm-2.249-1.033a2.381,2.381,0,0,0,1.208-.33,1.994,1.994,0,0,0,.828-.857V12.155H39.245q-2.49,0-2.49,1.458a1.234,1.234,0,0,0,.425,1A1.633,1.633,0,0,0,38.271,14.967ZM50.5,12.125a4.712,4.712,0,0,1-.835,2.919,2.668,2.668,0,0,1-2.241,1.1A2.763,2.763,0,0,1,45.1,15.084L45.031,16H43.786V4.75h1.355v4.2A2.747,2.747,0,0,1,47.4,7.929,2.684,2.684,0,0,1,49.671,9.02a4.853,4.853,0,0,1,.824,2.988Zm-1.355-.154a3.662,3.662,0,0,0-.535-2.139,1.77,1.77,0,0,0-1.538-.754,1.989,1.989,0,0,0-1.926,1.245v3.428A2.045,2.045,0,0,0,47.082,15a1.76,1.76,0,0,0,1.516-.754A3.894,3.894,0,0,0,49.14,11.972ZM53.674,16H52.319V8.075h1.355ZM52.209,5.973a.809.809,0,0,1,.2-.557.756.756,0,0,1,.6-.227.768.768,0,0,1,.6.227.8.8,0,0,1,.205.557.774.774,0,0,1-.205.549.782.782,0,0,1-.6.22.77.77,0,0,1-.6-.22A.782.782,0,0,1,52.209,5.973ZM57.314,16H55.959V4.75h1.355Zm3.64,0H59.6V8.075h1.355ZM59.49,5.973a.809.809,0,0,1,.2-.557.756.756,0,0,1,.6-.227.768.768,0,0,1,.6.227.8.8,0,0,1,.205.557.774.774,0,0,1-.205.549.782.782,0,0,1-.6.22.77.77,0,0,1-.6-.22A.782.782,0,0,1,59.49,5.973Zm3.3,6a4.642,4.642,0,0,1,.864-2.933,2.941,2.941,0,0,1,4.468-.157V4.75H69.48V16H68.235l-.066-.85a2.759,2.759,0,0,1-2.263,1,2.707,2.707,0,0,1-2.245-1.128,4.7,4.7,0,0,1-.868-2.944Zm1.355.154a3.515,3.515,0,0,0,.557,2.109A1.8,1.8,0,0,0,66.242,15a1.977,1.977,0,0,0,1.882-1.157V10.2a1.992,1.992,0,0,0-1.868-1.121,1.808,1.808,0,0,0-1.553.769A3.87,3.87,0,0,0,64.148,12.125ZM76.474,16a2.846,2.846,0,0,1-.19-.835,3.023,3.023,0,0,1-2.256.981,2.8,2.8,0,0,1-1.923-.663,2.145,2.145,0,0,1-.751-1.681A2.24,2.24,0,0,1,72.3,11.88a4.437,4.437,0,0,1,2.648-.685h1.318v-.623a1.522,1.522,0,0,0-.425-1.132,1.707,1.707,0,0,0-1.252-.421,1.976,1.976,0,0,0-1.216.366,1.079,1.079,0,0,0-.491.886H71.516a1.87,1.87,0,0,1,.421-1.146,2.874,2.874,0,0,1,1.143-.875,3.844,3.844,0,0,1,1.586-.322,3.133,3.133,0,0,1,2.146.685,2.47,2.47,0,0,1,.806,1.886v3.647a4.459,4.459,0,0,0,.278,1.736V16Zm-2.249-1.033a2.381,2.381,0,0,0,1.208-.33,1.994,1.994,0,0,0,.828-.857V12.155H75.2q-2.49,0-2.49,1.458a1.234,1.234,0,0,0,.425,1A1.633,1.633,0,0,0,74.226,14.967Zm5.186-3a4.642,4.642,0,0,1,.864-2.933,2.941,2.941,0,0,1,4.468-.157V4.75H86.1V16H84.853l-.066-.85a2.759,2.759,0,0,1-2.263,1,2.707,2.707,0,0,1-2.245-1.128,4.7,4.7,0,0,1-.868-2.944Zm1.355.154a3.515,3.515,0,0,0,.557,2.109A1.8,1.8,0,0,0,82.861,15a1.977,1.977,0,0,0,1.882-1.157V10.2a1.992,1.992,0,0,0-1.868-1.121,1.808,1.808,0,0,0-1.553.769A3.87,3.87,0,0,0,80.766,12.125Z" transform="translate(1063.5 1577)" fill="#12263f"/><path d="M18.778,16H17.371V5.336h1.406Zm3.49-7.925.044,1a2.888,2.888,0,0,1,2.373-1.143q2.512,0,2.534,2.834V16H25.864V10.756a1.824,1.824,0,0,0-.392-1.267,1.57,1.57,0,0,0-1.2-.41,1.956,1.956,0,0,0-1.157.352,2.387,2.387,0,0,0-.776.923V16H20.986V8.075Zm8.683-1.919V8.075H32.43V9.123H30.951v4.921a1.1,1.1,0,0,0,.2.715.832.832,0,0,0,.674.238,3.281,3.281,0,0,0,.645-.088V16a3.951,3.951,0,0,1-1.04.146,1.687,1.687,0,0,1-1.37-.549,2.36,2.36,0,0,1-.461-1.56V9.123H28.153V8.075H29.6V6.156Zm6.2,9.99a3.463,3.463,0,0,1-2.622-1.058,3.928,3.928,0,0,1-1.011-2.831v-.249a4.756,4.756,0,0,1,.45-2.106,3.514,3.514,0,0,1,1.26-1.45,3.167,3.167,0,0,1,1.754-.524,2.968,2.968,0,0,1,2.4,1.018,4.408,4.408,0,0,1,.857,2.915v.564H34.873a2.817,2.817,0,0,0,.685,1.893,2.153,2.153,0,0,0,1.666.721,2.36,2.36,0,0,0,1.216-.293,3.055,3.055,0,0,0,.872-.776l.828.645A3.328,3.328,0,0,1,37.151,16.146Zm-.168-7.1a1.807,1.807,0,0,0-1.377.6,2.9,2.9,0,0,0-.688,1.674h3.97v-.1a2.581,2.581,0,0,0-.557-1.6A1.7,1.7,0,0,0,36.982,9.042Zm4.354,2.93a4.658,4.658,0,0,1,.857-2.948,2.954,2.954,0,0,1,4.534-.07l.066-.879h1.238V15.81a3.224,3.224,0,0,1-.912,2.424,3.365,3.365,0,0,1-2.45.886,4.076,4.076,0,0,1-1.677-.366,2.887,2.887,0,0,1-1.252-1l.7-.813a2.65,2.65,0,0,0,2.131,1.077,2.076,2.076,0,0,0,1.542-.557,2.128,2.128,0,0,0,.553-1.567v-.681a2.785,2.785,0,0,1-2.219.938A2.707,2.707,0,0,1,42.2,15.026,4.9,4.9,0,0,1,41.337,11.972Zm1.362.154a3.553,3.553,0,0,0,.549,2.106A1.785,1.785,0,0,0,44.786,15a1.985,1.985,0,0,0,1.882-1.165V10.214A2.008,2.008,0,0,0,44.8,9.079a1.8,1.8,0,0,0-1.545.769A3.87,3.87,0,0,0,42.7,12.125ZM53.755,9.291a4.06,4.06,0,0,0-.667-.051,1.786,1.786,0,0,0-1.809,1.135V16H49.925V8.075h1.318l.022.916a2.11,2.11,0,0,1,1.89-1.062,1.384,1.384,0,0,1,.6.1ZM59.45,16a2.846,2.846,0,0,1-.19-.835A3.023,3.023,0,0,1,57,16.146a2.8,2.8,0,0,1-1.923-.663A2.145,2.145,0,0,1,54.33,13.8a2.24,2.24,0,0,1,.941-1.923,4.437,4.437,0,0,1,2.648-.685h1.318v-.623a1.522,1.522,0,0,0-.425-1.132A1.707,1.707,0,0,0,57.56,9.02a1.976,1.976,0,0,0-1.216.366,1.079,1.079,0,0,0-.491.886H54.491a1.87,1.87,0,0,1,.421-1.146,2.874,2.874,0,0,1,1.143-.875,3.844,3.844,0,0,1,1.586-.322,3.133,3.133,0,0,1,2.146.685,2.47,2.47,0,0,1,.806,1.886v3.647a4.459,4.459,0,0,0,.278,1.736V16ZM57.2,14.967a2.381,2.381,0,0,0,1.208-.33,1.994,1.994,0,0,0,.828-.857V12.155H58.175q-2.49,0-2.49,1.458a1.234,1.234,0,0,0,.425,1A1.633,1.633,0,0,0,57.2,14.967ZM64.039,16H62.684V4.75h1.355Zm3.49,0H66.174V8.075h1.355ZM66.064,5.973a.809.809,0,0,1,.2-.557.756.756,0,0,1,.6-.227.768.768,0,0,1,.6.227.8.8,0,0,1,.205.557.774.774,0,0,1-.205.549.782.782,0,0,1-.6.22.77.77,0,0,1-.6-.22A.782.782,0,0,1,66.064,5.973Zm3.153,6a4.642,4.642,0,0,1,.864-2.933,2.941,2.941,0,0,1,4.468-.157V4.75H75.9V16H74.659l-.066-.85a2.759,2.759,0,0,1-2.263,1,2.707,2.707,0,0,1-2.245-1.128,4.7,4.7,0,0,1-.868-2.944Zm1.355.154a3.515,3.515,0,0,0,.557,2.109A1.8,1.8,0,0,0,72.667,15a1.977,1.977,0,0,0,1.882-1.157V10.2a1.992,1.992,0,0,0-1.868-1.121,1.808,1.808,0,0,0-1.553.769A3.87,3.87,0,0,0,70.572,12.125ZM82.749,16a2.846,2.846,0,0,1-.19-.835,3.023,3.023,0,0,1-2.256.981,2.8,2.8,0,0,1-1.923-.663,2.145,2.145,0,0,1-.751-1.681,2.24,2.24,0,0,1,.941-1.923,4.437,4.437,0,0,1,2.648-.685h1.318v-.623a1.522,1.522,0,0,0-.425-1.132,1.707,1.707,0,0,0-1.252-.421,1.976,1.976,0,0,0-1.216.366,1.079,1.079,0,0,0-.491.886H77.79a1.87,1.87,0,0,1,.421-1.146,2.874,2.874,0,0,1,1.143-.875,3.844,3.844,0,0,1,1.586-.322,3.133,3.133,0,0,1,2.146.685,2.47,2.47,0,0,1,.806,1.886v3.647a4.459,4.459,0,0,0,.278,1.736V16ZM80.5,14.967a2.381,2.381,0,0,0,1.208-.33,1.994,1.994,0,0,0,.828-.857V12.155H81.474q-2.49,0-2.49,1.458a1.234,1.234,0,0,0,.425,1A1.633,1.633,0,0,0,80.5,14.967Zm5.036-3A4.642,4.642,0,0,1,86.4,9.038a2.941,2.941,0,0,1,4.468-.157V4.75h1.355V16H90.978l-.066-.85a2.759,2.759,0,0,1-2.263,1A2.707,2.707,0,0,1,86.4,15.019a4.7,4.7,0,0,1-.868-2.944Zm1.355.154a3.515,3.515,0,0,0,.557,2.109A1.8,1.8,0,0,0,88.985,15a1.977,1.977,0,0,0,1.882-1.157V10.2A1.992,1.992,0,0,0,89,9.079a1.808,1.808,0,0,0-1.553.769A3.87,3.87,0,0,0,86.891,12.125Zm10.518-.154a4.642,4.642,0,0,1,.864-2.933,2.941,2.941,0,0,1,4.468-.157V4.75H104.1V16H102.85l-.066-.85a2.759,2.759,0,0,1-2.263,1,2.707,2.707,0,0,1-2.245-1.128,4.7,4.7,0,0,1-.868-2.944Zm1.355.154a3.515,3.515,0,0,0,.557,2.109,1.8,1.8,0,0,0,1.538.762,1.977,1.977,0,0,0,1.882-1.157V10.2a1.992,1.992,0,0,0-1.868-1.121,1.808,1.808,0,0,0-1.553.769A3.87,3.87,0,0,0,98.764,12.125Zm10.573,4.021a3.463,3.463,0,0,1-2.622-1.058,3.928,3.928,0,0,1-1.011-2.831v-.249a4.756,4.756,0,0,1,.45-2.106,3.514,3.514,0,0,1,1.26-1.45,3.167,3.167,0,0,1,1.754-.524,2.968,2.968,0,0,1,2.4,1.018,4.408,4.408,0,0,1,.857,2.915v.564h-5.369a2.817,2.817,0,0,0,.685,1.893,2.153,2.153,0,0,0,1.666.721,2.36,2.36,0,0,0,1.216-.293,3.055,3.055,0,0,0,.872-.776l.828.645A3.328,3.328,0,0,1,109.336,16.146Zm-.168-7.1a1.807,1.807,0,0,0-1.377.6,2.9,2.9,0,0,0-.688,1.674h3.97v-.1a2.581,2.581,0,0,0-.557-1.6A1.7,1.7,0,0,0,109.168,9.042ZM29.374,36H28.019V24.75h1.355Zm1.659-4.036a4.681,4.681,0,0,1,.458-2.095,3.415,3.415,0,0,1,1.274-1.436,3.469,3.469,0,0,1,1.864-.505,3.342,3.342,0,0,1,2.618,1.121,4.311,4.311,0,0,1,1,2.981v.1A4.722,4.722,0,0,1,37.8,34.2a3.365,3.365,0,0,1-1.267,1.432,3.509,3.509,0,0,1-1.893.513,3.334,3.334,0,0,1-2.611-1.121,4.29,4.29,0,0,1-1-2.966Zm1.362.161a3.39,3.39,0,0,0,.612,2.117,2.072,2.072,0,0,0,3.278-.011,3.707,3.707,0,0,0,.608-2.267,3.384,3.384,0,0,0-.619-2.113,1.968,1.968,0,0,0-1.644-.809,1.946,1.946,0,0,0-1.619.8A3.68,3.68,0,0,0,32.4,32.125ZM44.411,33.9A1,1,0,0,0,44,33.045a3.983,3.983,0,0,0-1.443-.524,6.822,6.822,0,0,1-1.633-.527,2.324,2.324,0,0,1-.894-.732,1.752,1.752,0,0,1-.289-1.011,2.056,2.056,0,0,1,.824-1.648,3.218,3.218,0,0,1,2.106-.674,3.311,3.311,0,0,1,2.186.7,2.21,2.21,0,0,1,.839,1.78H44.33a1.223,1.223,0,0,0-.472-.959,1.77,1.77,0,0,0-1.19-.4,1.852,1.852,0,0,0-1.157.322,1.014,1.014,0,0,0-.417.842.822.822,0,0,0,.388.74,4.776,4.776,0,0,0,1.4.476,7.308,7.308,0,0,1,1.644.542,2.4,2.4,0,0,1,.934.758,1.864,1.864,0,0,1,.3,1.08,2.028,2.028,0,0,1-.85,1.7,3.564,3.564,0,0,1-2.2.641,3.991,3.991,0,0,1-1.685-.337,2.74,2.74,0,0,1-1.146-.941,2.268,2.268,0,0,1-.414-1.307h1.355a1.4,1.4,0,0,0,.546,1.08,2.117,2.117,0,0,0,1.344.4,2.185,2.185,0,0,0,1.234-.311A.956.956,0,0,0,44.411,33.9Zm6.175-1.934a4.681,4.681,0,0,1,.458-2.095,3.415,3.415,0,0,1,1.274-1.436,3.469,3.469,0,0,1,1.864-.505A3.342,3.342,0,0,1,56.8,29.049a4.311,4.311,0,0,1,1,2.981v.1a4.722,4.722,0,0,1-.443,2.076,3.365,3.365,0,0,1-1.267,1.432,3.509,3.509,0,0,1-1.893.513,3.334,3.334,0,0,1-2.611-1.121,4.29,4.29,0,0,1-1-2.966Zm1.362.161a3.39,3.39,0,0,0,.612,2.117,2.072,2.072,0,0,0,3.278-.011,3.707,3.707,0,0,0,.608-2.267,3.384,3.384,0,0,0-.619-2.113,1.968,1.968,0,0,0-1.644-.809,1.946,1.946,0,0,0-1.619.8A3.68,3.68,0,0,0,51.948,32.125Zm14.11,0a4.712,4.712,0,0,1-.835,2.919,2.668,2.668,0,0,1-2.241,1.1,2.763,2.763,0,0,1-2.322-1.062L60.594,36H59.349V24.75H60.7v4.2a2.747,2.747,0,0,1,2.263-1.018,2.684,2.684,0,0,1,2.267,1.091,4.853,4.853,0,0,1,.824,2.988ZM64.7,31.972a3.662,3.662,0,0,0-.535-2.139,1.77,1.77,0,0,0-1.538-.754A1.989,1.989,0,0,0,60.7,30.324v3.428A2.045,2.045,0,0,0,62.645,35a1.76,1.76,0,0,0,1.516-.754A3.894,3.894,0,0,0,64.7,31.972Zm4.31-3.9v8.84q0,2.285-2.073,2.285a2.528,2.528,0,0,1-.828-.131V37.992a2.62,2.62,0,0,0,.615.059.921.921,0,0,0,.692-.246,1.214,1.214,0,0,0,.238-.854V28.075Zm-1.494-2.1a.812.812,0,0,1,.2-.553.741.741,0,0,1,.59-.231.768.768,0,0,1,.6.227.8.8,0,0,1,.205.557.774.774,0,0,1-.205.549.782.782,0,0,1-.6.22.758.758,0,0,1-.593-.22A.791.791,0,0,1,67.519,25.973Zm6.815,10.173a3.463,3.463,0,0,1-2.622-1.058A3.928,3.928,0,0,1,70.7,32.257v-.249a4.756,4.756,0,0,1,.45-2.106,3.514,3.514,0,0,1,1.26-1.45,3.167,3.167,0,0,1,1.754-.524,2.968,2.968,0,0,1,2.4,1.018,4.408,4.408,0,0,1,.857,2.915v.564H72.057a2.817,2.817,0,0,0,.685,1.893,2.153,2.153,0,0,0,1.666.721,2.36,2.36,0,0,0,1.216-.293,3.055,3.055,0,0,0,.872-.776l.828.645A3.328,3.328,0,0,1,74.335,36.146Zm-.168-7.1a1.807,1.807,0,0,0-1.377.6,2.9,2.9,0,0,0-.688,1.674h3.97v-.1a2.581,2.581,0,0,0-.557-1.6A1.7,1.7,0,0,0,74.166,29.042Zm6.515-2.886v1.919h1.479v1.047H80.681v4.921a1.1,1.1,0,0,0,.2.715.832.832,0,0,0,.674.238,3.281,3.281,0,0,0,.645-.088V36a3.951,3.951,0,0,1-1.04.146,1.687,1.687,0,0,1-1.37-.549,2.36,2.36,0,0,1-.461-1.56V29.123H77.884V28.075h1.443V26.156Zm2.406,5.808a4.681,4.681,0,0,1,.458-2.095,3.415,3.415,0,0,1,1.274-1.436,3.469,3.469,0,0,1,1.864-.505A3.342,3.342,0,0,1,89.3,29.049a4.311,4.311,0,0,1,1,2.981v.1a4.722,4.722,0,0,1-.443,2.076,3.365,3.365,0,0,1-1.267,1.432,3.509,3.509,0,0,1-1.893.513,3.334,3.334,0,0,1-2.611-1.121,4.29,4.29,0,0,1-1-2.966Zm1.362.161a3.39,3.39,0,0,0,.612,2.117,2.072,2.072,0,0,0,3.278-.011,3.707,3.707,0,0,0,.608-2.267,3.384,3.384,0,0,0-.619-2.113,1.968,1.968,0,0,0-1.644-.809,1.946,1.946,0,0,0-1.619.8A3.68,3.68,0,0,0,84.45,32.125ZM96.465,33.9a1,1,0,0,0-.414-.853,3.983,3.983,0,0,0-1.443-.524,6.822,6.822,0,0,1-1.633-.527,2.324,2.324,0,0,1-.894-.732,1.752,1.752,0,0,1-.289-1.011,2.056,2.056,0,0,1,.824-1.648,3.218,3.218,0,0,1,2.106-.674,3.311,3.311,0,0,1,2.186.7,2.21,2.21,0,0,1,.839,1.78H96.385a1.223,1.223,0,0,0-.472-.959,1.77,1.77,0,0,0-1.19-.4,1.852,1.852,0,0,0-1.157.322,1.014,1.014,0,0,0-.417.842.822.822,0,0,0,.388.74,4.776,4.776,0,0,0,1.4.476,7.308,7.308,0,0,1,1.644.542,2.4,2.4,0,0,1,.934.758,1.864,1.864,0,0,1,.3,1.08,2.028,2.028,0,0,1-.85,1.7,3.564,3.564,0,0,1-2.2.641,3.991,3.991,0,0,1-1.685-.337,2.74,2.74,0,0,1-1.146-.941,2.268,2.268,0,0,1-.414-1.307h1.355a1.4,1.4,0,0,0,.546,1.08,2.117,2.117,0,0,0,1.344.4A2.185,2.185,0,0,0,96,34.729.956.956,0,0,0,96.465,33.9ZM10.3,52.125a4.745,4.745,0,0,1-.828,2.915,2.653,2.653,0,0,1-2.241,1.106,2.906,2.906,0,0,1-2.271-.916v3.816H3.605V48.075H4.843l.066.879a2.791,2.791,0,0,1,2.3-1.025,2.7,2.7,0,0,1,2.26,1.077,4.8,4.8,0,0,1,.831,3Zm-1.355-.154a3.5,3.5,0,0,0-.571-2.117,1.84,1.84,0,0,0-1.567-.776A1.992,1.992,0,0,0,4.96,50.17v3.787a2,2,0,0,0,1.86,1.084,1.832,1.832,0,0,0,1.549-.773A3.822,3.822,0,0,0,8.944,51.972Zm2.567-.007a4.681,4.681,0,0,1,.458-2.095,3.415,3.415,0,0,1,1.274-1.436,3.469,3.469,0,0,1,1.864-.505,3.342,3.342,0,0,1,2.618,1.121,4.311,4.311,0,0,1,1,2.981v.1a4.722,4.722,0,0,1-.443,2.076,3.365,3.365,0,0,1-1.267,1.432,3.509,3.509,0,0,1-1.893.513,3.334,3.334,0,0,1-2.611-1.121,4.29,4.29,0,0,1-1-2.966Zm1.362.161a3.39,3.39,0,0,0,.612,2.117,2.072,2.072,0,0,0,3.278-.011,3.707,3.707,0,0,0,.608-2.267,3.384,3.384,0,0,0-.619-2.113,1.968,1.968,0,0,0-1.644-.809,1.946,1.946,0,0,0-1.619.8A3.68,3.68,0,0,0,12.874,52.125ZM24.89,53.9a1,1,0,0,0-.414-.853,3.983,3.983,0,0,0-1.443-.524,6.822,6.822,0,0,1-1.633-.527,2.324,2.324,0,0,1-.894-.732,1.752,1.752,0,0,1-.289-1.011,2.056,2.056,0,0,1,.824-1.648,3.218,3.218,0,0,1,2.106-.674,3.311,3.311,0,0,1,2.186.7,2.21,2.21,0,0,1,.839,1.78H24.809a1.223,1.223,0,0,0-.472-.959,1.77,1.77,0,0,0-1.19-.4,1.852,1.852,0,0,0-1.157.322,1.014,1.014,0,0,0-.417.842.822.822,0,0,0,.388.74,4.776,4.776,0,0,0,1.4.476,7.308,7.308,0,0,1,1.644.542,2.4,2.4,0,0,1,.934.758,1.864,1.864,0,0,1,.3,1.08,2.028,2.028,0,0,1-.85,1.7,3.564,3.564,0,0,1-2.2.641,3.991,3.991,0,0,1-1.685-.337,2.74,2.74,0,0,1-1.146-.941,2.268,2.268,0,0,1-.414-1.307H21.3a1.4,1.4,0,0,0,.546,1.08,2.117,2.117,0,0,0,1.344.4,2.185,2.185,0,0,0,1.234-.311A.956.956,0,0,0,24.89,53.9ZM29.7,46.156v1.919h1.479v1.047H29.7v4.921a1.1,1.1,0,0,0,.2.715A.832.832,0,0,0,30.57,55a3.281,3.281,0,0,0,.645-.088V56a3.951,3.951,0,0,1-1.04.146A1.687,1.687,0,0,1,28.8,55.6a2.36,2.36,0,0,1-.461-1.56V49.123H26.9V48.075h1.443V46.156ZM37.5,56a2.846,2.846,0,0,1-.19-.835,3.023,3.023,0,0,1-2.256.981,2.8,2.8,0,0,1-1.923-.663,2.145,2.145,0,0,1-.751-1.681,2.24,2.24,0,0,1,.941-1.923,4.437,4.437,0,0,1,2.648-.685H37.29v-.623a1.522,1.522,0,0,0-.425-1.132,1.707,1.707,0,0,0-1.252-.421,1.976,1.976,0,0,0-1.216.366,1.079,1.079,0,0,0-.491.886H32.544a1.87,1.87,0,0,1,.421-1.146,2.874,2.874,0,0,1,1.143-.875,3.844,3.844,0,0,1,1.586-.322,3.133,3.133,0,0,1,2.146.685,2.47,2.47,0,0,1,.806,1.886v3.647a4.459,4.459,0,0,0,.278,1.736V56Zm-2.249-1.033a2.381,2.381,0,0,0,1.208-.33,1.994,1.994,0,0,0,.828-.857V52.155H36.228q-2.49,0-2.49,1.458a1.234,1.234,0,0,0,.425,1A1.633,1.633,0,0,0,35.254,54.967ZM42.091,56H40.736V44.75h1.355Zm5.307.146a3.463,3.463,0,0,1-2.622-1.058,3.928,3.928,0,0,1-1.011-2.831v-.249a4.756,4.756,0,0,1,.45-2.106,3.514,3.514,0,0,1,1.26-1.45,3.167,3.167,0,0,1,1.754-.524,2.968,2.968,0,0,1,2.4,1.018,4.408,4.408,0,0,1,.857,2.915v.564H45.12a2.817,2.817,0,0,0,.685,1.893,2.153,2.153,0,0,0,1.666.721,2.36,2.36,0,0,0,1.216-.293,3.055,3.055,0,0,0,.872-.776l.828.645A3.328,3.328,0,0,1,47.4,56.146Zm-.168-7.1a1.807,1.807,0,0,0-1.377.6,2.9,2.9,0,0,0-.688,1.674h3.97v-.1a2.581,2.581,0,0,0-.557-1.6A1.7,1.7,0,0,0,47.229,49.042ZM56.52,53.9a1,1,0,0,0-.414-.853,3.983,3.983,0,0,0-1.443-.524,6.822,6.822,0,0,1-1.633-.527,2.324,2.324,0,0,1-.894-.732,1.752,1.752,0,0,1-.289-1.011,2.056,2.056,0,0,1,.824-1.648,3.218,3.218,0,0,1,2.106-.674,3.311,3.311,0,0,1,2.186.7A2.21,2.21,0,0,1,57.8,50.4H56.439a1.223,1.223,0,0,0-.472-.959,1.77,1.77,0,0,0-1.19-.4,1.852,1.852,0,0,0-1.157.322,1.014,1.014,0,0,0-.417.842.822.822,0,0,0,.388.74,4.776,4.776,0,0,0,1.4.476,7.308,7.308,0,0,1,1.644.542,2.4,2.4,0,0,1,.934.758,1.864,1.864,0,0,1,.3,1.08,2.028,2.028,0,0,1-.85,1.7,3.564,3.564,0,0,1-2.2.641,3.991,3.991,0,0,1-1.685-.337,2.74,2.74,0,0,1-1.146-.941,2.268,2.268,0,0,1-.414-1.307h1.355a1.4,1.4,0,0,0,.546,1.08,2.117,2.117,0,0,0,1.344.4,2.185,2.185,0,0,0,1.234-.311A.956.956,0,0,0,56.52,53.9Zm6.2-1.926a4.642,4.642,0,0,1,.864-2.933,2.941,2.941,0,0,1,4.468-.157V44.75h1.355V56H68.166l-.066-.85a2.759,2.759,0,0,1-2.263,1,2.707,2.707,0,0,1-2.245-1.128,4.7,4.7,0,0,1-.868-2.944Zm1.355.154a3.515,3.515,0,0,0,.557,2.109A1.8,1.8,0,0,0,66.174,55a1.977,1.977,0,0,0,1.882-1.157V50.2a1.992,1.992,0,0,0-1.868-1.121,1.808,1.808,0,0,0-1.553.769A3.87,3.87,0,0,0,64.079,52.125Zm10.573,4.021a3.463,3.463,0,0,1-2.622-1.058,3.928,3.928,0,0,1-1.011-2.831v-.249a4.756,4.756,0,0,1,.45-2.106,3.514,3.514,0,0,1,1.26-1.45,3.167,3.167,0,0,1,1.754-.524,2.968,2.968,0,0,1,2.4,1.018,4.408,4.408,0,0,1,.857,2.915v.564H72.374a2.817,2.817,0,0,0,.685,1.893,2.153,2.153,0,0,0,1.666.721,2.36,2.36,0,0,0,1.216-.293,3.055,3.055,0,0,0,.872-.776l.828.645A3.328,3.328,0,0,1,74.652,56.146Zm-.168-7.1a1.807,1.807,0,0,0-1.377.6,2.9,2.9,0,0,0-.688,1.674h3.97v-.1a2.581,2.581,0,0,0-.557-1.6A1.7,1.7,0,0,0,74.483,49.042Zm7.881,2.922a4.681,4.681,0,0,1,.458-2.095A3.415,3.415,0,0,1,84.1,48.434a3.469,3.469,0,0,1,1.864-.505,3.342,3.342,0,0,1,2.618,1.121,4.311,4.311,0,0,1,1,2.981v.1a4.722,4.722,0,0,1-.443,2.076,3.365,3.365,0,0,1-1.267,1.432,3.509,3.509,0,0,1-1.893.513,3.334,3.334,0,0,1-2.611-1.121,4.29,4.29,0,0,1-1-2.966Zm1.362.161a3.39,3.39,0,0,0,.612,2.117,2.072,2.072,0,0,0,3.278-.011,3.707,3.707,0,0,0,.608-2.267,3.384,3.384,0,0,0-.619-2.113,1.968,1.968,0,0,0-1.644-.809,1.946,1.946,0,0,0-1.619.8A3.68,3.68,0,0,0,83.727,52.125Zm11.232-2.834a4.06,4.06,0,0,0-.667-.051,1.786,1.786,0,0,0-1.809,1.135V56H91.128V48.075h1.318l.022.916a2.11,2.11,0,0,1,1.89-1.062,1.384,1.384,0,0,1,.6.1ZM97.526,56H96.171V48.075h1.355ZM96.061,45.973a.809.809,0,0,1,.2-.557.756.756,0,0,1,.6-.227.768.768,0,0,1,.6.227.8.8,0,0,1,.205.557.774.774,0,0,1-.205.549.782.782,0,0,1-.6.22.77.77,0,0,1-.6-.22A.782.782,0,0,1,96.061,45.973Zm3.161,6a4.658,4.658,0,0,1,.857-2.948,2.954,2.954,0,0,1,4.534-.07l.066-.879h1.238V55.81A3.224,3.224,0,0,1,105,58.234a3.365,3.365,0,0,1-2.45.886,4.076,4.076,0,0,1-1.677-.366,2.887,2.887,0,0,1-1.252-1l.7-.813a2.65,2.65,0,0,0,2.131,1.077A2.076,2.076,0,0,0,104,57.458a2.128,2.128,0,0,0,.553-1.567v-.681a2.785,2.785,0,0,1-2.219.938,2.707,2.707,0,0,1-2.252-1.121A4.9,4.9,0,0,1,99.221,51.972Zm1.362.154a3.553,3.553,0,0,0,.549,2.106,1.785,1.785,0,0,0,1.538.765,1.985,1.985,0,0,0,1.882-1.165V50.214a2.008,2.008,0,0,0-1.868-1.135,1.8,1.8,0,0,0-1.545.769A3.87,3.87,0,0,0,100.584,52.125ZM111.1,56.146a3.463,3.463,0,0,1-2.622-1.058,3.928,3.928,0,0,1-1.011-2.831v-.249a4.756,4.756,0,0,1,.45-2.106,3.514,3.514,0,0,1,1.26-1.45,3.167,3.167,0,0,1,1.754-.524,2.968,2.968,0,0,1,2.4,1.018,4.408,4.408,0,0,1,.857,2.915v.564H108.82a2.817,2.817,0,0,0,.685,1.893,2.153,2.153,0,0,0,1.666.721,2.36,2.36,0,0,0,1.216-.293,3.055,3.055,0,0,0,.872-.776l.828.645A3.328,3.328,0,0,1,111.1,56.146Zm-.168-7.1a1.807,1.807,0,0,0-1.377.6,2.9,2.9,0,0,0-.688,1.674h3.97v-.1a2.581,2.581,0,0,0-.557-1.6A1.7,1.7,0,0,0,110.929,49.042Zm5.958-.967.044,1a2.888,2.888,0,0,1,2.373-1.143q2.512,0,2.534,2.834V56h-1.355V50.756a1.824,1.824,0,0,0-.392-1.267,1.57,1.57,0,0,0-1.2-.41,1.956,1.956,0,0,0-1.157.352,2.387,2.387,0,0,0-.776.923V56h-1.355V48.075ZM40.326,76a2.846,2.846,0,0,1-.19-.835,3.023,3.023,0,0,1-2.256.981,2.8,2.8,0,0,1-1.923-.663,2.145,2.145,0,0,1-.751-1.681,2.24,2.24,0,0,1,.941-1.923A4.437,4.437,0,0,1,38.8,71.2h1.318v-.623a1.522,1.522,0,0,0-.425-1.132,1.707,1.707,0,0,0-1.252-.421,1.976,1.976,0,0,0-1.216.366,1.079,1.079,0,0,0-.491.886H35.367a1.87,1.87,0,0,1,.421-1.146,2.874,2.874,0,0,1,1.143-.875,3.844,3.844,0,0,1,1.586-.322,3.133,3.133,0,0,1,2.146.685,2.47,2.47,0,0,1,.806,1.886v3.647a4.459,4.459,0,0,0,.278,1.736V76Zm-2.249-1.033a2.381,2.381,0,0,0,1.208-.33,1.994,1.994,0,0,0,.828-.857V72.155H39.051q-2.49,0-2.49,1.458a1.234,1.234,0,0,0,.425,1A1.633,1.633,0,0,0,38.077,74.967Zm8.6-3a4.642,4.642,0,0,1,.864-2.933,2.941,2.941,0,0,1,4.468-.157V64.75h1.355V76H52.118l-.066-.85a2.759,2.759,0,0,1-2.263,1,2.707,2.707,0,0,1-2.245-1.128,4.7,4.7,0,0,1-.868-2.944Zm1.355.154a3.515,3.515,0,0,0,.557,2.109A1.8,1.8,0,0,0,50.126,75a1.977,1.977,0,0,0,1.882-1.157V70.2a1.992,1.992,0,0,0-1.868-1.121,1.808,1.808,0,0,0-1.553.769A3.87,3.87,0,0,0,48.031,72.125ZM58.6,76.146a3.463,3.463,0,0,1-2.622-1.058,3.928,3.928,0,0,1-1.011-2.831v-.249a4.756,4.756,0,0,1,.45-2.106,3.514,3.514,0,0,1,1.26-1.45,3.167,3.167,0,0,1,1.754-.524,2.968,2.968,0,0,1,2.4,1.018,4.408,4.408,0,0,1,.857,2.915v.564H56.326a2.817,2.817,0,0,0,.685,1.893,2.153,2.153,0,0,0,1.666.721,2.36,2.36,0,0,0,1.216-.293,3.055,3.055,0,0,0,.872-.776l.828.645A3.328,3.328,0,0,1,58.6,76.146Zm-.168-7.1a1.807,1.807,0,0,0-1.377.6,2.9,2.9,0,0,0-.688,1.674h3.97v-.1a2.581,2.581,0,0,0-.557-1.6A1.7,1.7,0,0,0,58.435,69.042ZM67.726,73.9a1,1,0,0,0-.414-.853,3.983,3.983,0,0,0-1.443-.524,6.822,6.822,0,0,1-1.633-.527,2.324,2.324,0,0,1-.894-.732,1.752,1.752,0,0,1-.289-1.011,2.056,2.056,0,0,1,.824-1.648,3.218,3.218,0,0,1,2.106-.674,3.311,3.311,0,0,1,2.186.7,2.21,2.21,0,0,1,.839,1.78H67.646a1.223,1.223,0,0,0-.472-.959,1.77,1.77,0,0,0-1.19-.4,1.852,1.852,0,0,0-1.157.322,1.014,1.014,0,0,0-.417.842.822.822,0,0,0,.388.74,4.776,4.776,0,0,0,1.4.476,7.308,7.308,0,0,1,1.644.542,2.4,2.4,0,0,1,.934.758,1.864,1.864,0,0,1,.3,1.08,2.028,2.028,0,0,1-.85,1.7,3.564,3.564,0,0,1-2.2.641,3.991,3.991,0,0,1-1.685-.337,2.74,2.74,0,0,1-1.146-.941,2.268,2.268,0,0,1-.414-1.307h1.355a1.4,1.4,0,0,0,.546,1.08,2.117,2.117,0,0,0,1.344.4,2.185,2.185,0,0,0,1.234-.311A.956.956,0,0,0,67.726,73.9Zm4.809-7.742v1.919h1.479v1.047H72.535v4.921a1.1,1.1,0,0,0,.2.715.832.832,0,0,0,.674.238,3.281,3.281,0,0,0,.645-.088V76a3.951,3.951,0,0,1-1.04.146,1.687,1.687,0,0,1-1.37-.549,2.36,2.36,0,0,1-.461-1.56V69.123H69.737V68.075H71.18V66.156ZM76.919,76H75.564V68.075h1.355ZM75.454,65.973a.809.809,0,0,1,.2-.557.756.756,0,0,1,.6-.227.768.768,0,0,1,.6.227.8.8,0,0,1,.205.557.774.774,0,0,1-.205.549.782.782,0,0,1-.6.22.77.77,0,0,1-.6-.22A.782.782,0,0,1,75.454,65.973Zm4.765,2.1.044,1a2.888,2.888,0,0,1,2.373-1.143q2.512,0,2.534,2.834V76H83.814V70.756a1.824,1.824,0,0,0-.392-1.267,1.57,1.57,0,0,0-1.2-.41,1.956,1.956,0,0,0-1.157.352,2.387,2.387,0,0,0-.776.923V76H78.936V68.075ZM86.7,71.964a4.681,4.681,0,0,1,.458-2.095,3.415,3.415,0,0,1,1.274-1.436,3.469,3.469,0,0,1,1.864-.505,3.342,3.342,0,0,1,2.618,1.121,4.311,4.311,0,0,1,1,2.981v.1a4.722,4.722,0,0,1-.443,2.076,3.365,3.365,0,0,1-1.267,1.432,3.509,3.509,0,0,1-1.893.513A3.334,3.334,0,0,1,87.7,75.026a4.29,4.29,0,0,1-1-2.966Zm1.362.161a3.39,3.39,0,0,0,.612,2.117,2.072,2.072,0,0,0,3.278-.011,3.707,3.707,0,0,0,.608-2.267,3.384,3.384,0,0,0-.619-2.113,1.968,1.968,0,0,0-1.644-.809,1.946,1.946,0,0,0-1.619.8A3.68,3.68,0,0,0,88.066,72.125Z" transform="translate(835.5 1553)" fill="#12263f"/></g></g></svg>