<svg xmlns="http://www.w3.org/2000/svg" xmlns:xlink="http://www.w3.org/1999/xlink" width="710.117" height="696.887" viewBox="0 0 710.117 696.887"><defs><clipPath id="a"><rect width="255.383" height="230.656" fill="none"/></clipPath></defs><g transform="translate(-445 -2582.113)"><path d="M624.846,291.561l-45.278,26.112-51.385-.49a178.61,178.61,0,0,1-30.324,152.129l31.7,40.538,48.68,19.133a283.26,283.26,0,0,0,17.995-27.259,276.967,276.967,0,0,0,28.614-210.163" transform="translate(445 2582.113)" fill="#a4a3ff"/><path d="M497.86,469.312A178.656,178.656,0,0,1,360.028,540.6l-11.91,49.964,15.41,50.05a281.016,281.016,0,0,0,63.148-9.317A276.7,276.7,0,0,0,578.237,528.983l-48.68-19.134Z" transform="translate(445 2582.113)" fill="#5263e2"/><path d="M360.028,540.6a179.557,179.557,0,0,1-141.616-63.427l-46.528,21.858-29.55,43.29a280.085,280.085,0,0,0,221.193,98.293l-15.409-50.05Z" transform="translate(445 2582.113)" fill="#ff8578"/><path d="M179.685,326.932a179.509,179.509,0,0,1,93.31-124.005l-10.948-50.2-35.583-38.4A280.015,280.015,0,0,0,81.327,308.061l52.248-3.885Z" transform="translate(445 2582.113)" fill="#a4a3ff"/><path d="M428.064,198.7a178.552,178.552,0,0,1,99.8,117.195c.115.429.214.858.324,1.286l51.385.491,45.277-26.112c-.118-.452-.223-.906-.342-1.358a277,277,0,0,0-129.58-169.557,283.723,283.723,0,0,0-26.544-13.57l-7.823,51.681Z" transform="translate(445 2582.113)" fill="#fed981"/><path d="M272.995,202.927A178.728,178.728,0,0,1,428.064,198.7l32.493-39.944,7.823-51.681A276.7,276.7,0,0,0,283.4,92.377a281.154,281.154,0,0,0-56.939,21.955l35.583,38.4Z" transform="translate(445 2582.113)" fill="#ff8578"/><path d="M218.412,477.178a178.583,178.583,0,0,1-38.727-150.246l-46.11-22.756-52.248,3.885a280.151,280.151,0,0,0,61.007,234.265l29.55-43.29Z" transform="translate(445 2582.113)" fill="#43a99b"/><path d="M446.553,91.5A91.5,91.5,0,1,1,355.053,0a91.5,91.5,0,0,1,91.5,91.5" transform="translate(445 2582.113)" fill="#fda096"/><path d="M200.757,121.742A91.5,91.5,0,1,1,72.171,136.234a91.5,91.5,0,0,1,128.586-14.492" transform="translate(445 2582.113)" fill="#c4c3fb"/><path d="M71.155,332.772a91.5,91.5,0,1,1-68.84,109.57,91.5,91.5,0,0,1,68.84-109.57" transform="translate(445 2582.113)" fill="#60ccbd"/><path d="M155.345,565.672a91.5,91.5,0,1,1,42.747,122.136,91.5,91.5,0,0,1-42.747-122.136" transform="translate(445 2582.113)" fill="#fda096"/><path d="M389.927,645.054A91.5,91.5,0,1,1,512.07,687.78a91.5,91.5,0,0,1-122.143-42.726" transform="translate(445 2582.113)" fill="#8b99ff"/><path d="M598.247,511.139A91.5,91.5,0,1,1,707.8,442.28a91.5,91.5,0,0,1-109.558,68.859" transform="translate(445 2582.113)" fill="#c4c3fb"/><path d="M623.427,264.773A91.5,91.5,0,1,1,637.9,136.184a91.5,91.5,0,0,1-14.469,128.589" transform="translate(445 2582.113)" fill="#ffedc6"/><rect width="710.117" height="696.887" transform="translate(445 2582.113)" fill="none"/><path d="M15.361,13.211A4.025,4.025,0,0,1,14.006,16.1a4.76,4.76,0,0,1-3.223,1.055,4.28,4.28,0,0,1-3.441-1.473,6.038,6.038,0,0,1-1.254-4.043v-.7a6.819,6.819,0,0,1,.578-2.891A4.332,4.332,0,0,1,8.318,6.137a4.629,4.629,0,0,1,2.5-.668,4.637,4.637,0,0,1,3.172,1.055,4.326,4.326,0,0,1,1.391,2.961H13.033a2.376,2.376,0,0,0-.613-1.6,2.271,2.271,0,0,0-1.605-.5,1.991,1.991,0,0,0-1.754.84,4.707,4.707,0,0,0-.6,2.605V11.7a5.038,5.038,0,0,0,.559,2.7,1.954,1.954,0,0,0,1.762.852,2.314,2.314,0,0,0,1.621-.5,2.241,2.241,0,0,0,.613-1.535ZM19.135,17H16.869V8.547h2.266Zm-2.4-10.641a1.112,1.112,0,0,1,.34-.836,1.465,1.465,0,0,1,1.848,0,1.105,1.105,0,0,1,.344.836,1.108,1.108,0,0,1-.348.844,1.448,1.448,0,0,1-1.836,0A1.108,1.108,0,0,1,16.736,6.359Zm7.773,8.977a1.481,1.481,0,0,0,1.016-.344,1.2,1.2,0,0,0,.406-.914h2.117a2.9,2.9,0,0,1-.469,1.574,3.093,3.093,0,0,1-1.262,1.109,3.949,3.949,0,0,1-1.77.395A3.67,3.67,0,0,1,21.69,16a4.56,4.56,0,0,1-1.047-3.184v-.148a4.508,4.508,0,0,1,1.039-3.117,3.627,3.627,0,0,1,2.852-1.164,3.555,3.555,0,0,1,2.543.9,3.2,3.2,0,0,1,.973,2.4H25.932a1.551,1.551,0,0,0-.406-1.072,1.51,1.51,0,0,0-2.223.163,3.333,3.333,0,0,0-.4,1.866v.235a3.375,3.375,0,0,0,.4,1.878A1.377,1.377,0,0,0,24.51,15.336ZM31.721,17H29.455V5h2.266Zm1.508-4.3a5.013,5.013,0,0,1,.484-2.242A3.546,3.546,0,0,1,35.108,8.93a4.069,4.069,0,0,1,2.113-.539,3.849,3.849,0,0,1,2.793,1.047,4.2,4.2,0,0,1,1.207,2.844l.016.578a4.418,4.418,0,0,1-1.086,3.121,4.209,4.209,0,0,1-5.832,0,4.5,4.5,0,0,1-1.09-3.187Zm2.258.16A3.16,3.16,0,0,0,35.94,14.7a1.628,1.628,0,0,0,2.578.008,3.457,3.457,0,0,0,.461-2.015,3.128,3.128,0,0,0-.461-1.831,1.5,1.5,0,0,0-1.3-.649,1.474,1.474,0,0,0-1.281.646A3.516,3.516,0,0,0,35.486,12.856Zm10.773-.145a5.094,5.094,0,0,1,.887-3.148,2.877,2.877,0,0,1,2.426-1.172,2.589,2.589,0,0,1,2.039.922V5h2.266V17H51.838l-.109-.9a2.657,2.657,0,0,1-2.172,1.055,2.869,2.869,0,0,1-2.395-1.176A5.258,5.258,0,0,1,46.26,12.711Zm2.258.168a3.337,3.337,0,0,0,.414,1.823,1.349,1.349,0,0,0,1.2.634,1.511,1.511,0,0,0,1.477-.884V11.111a1.489,1.489,0,0,0-1.461-.884Q48.518,10.227,48.518,12.879Zm11,4.277a4.15,4.15,0,0,1-3.027-1.141,4.054,4.054,0,0,1-1.168-3.039v-.219a5.106,5.106,0,0,1,.492-2.277,3.612,3.612,0,0,1,1.395-1.547,3.914,3.914,0,0,1,2.059-.543A3.508,3.508,0,0,1,62,9.484a4.444,4.444,0,0,1,1,3.1v.922H57.611a2.1,2.1,0,0,0,.66,1.328,2,2,0,0,0,1.395.5,2.437,2.437,0,0,0,2.039-.945l1.109,1.242a3.389,3.389,0,0,1-1.375,1.121A4.511,4.511,0,0,1,59.518,17.156Zm-.258-6.945a1.411,1.411,0,0,0-1.09.455,2.357,2.357,0,0,0-.535,1.3h3.141v-.181a1.681,1.681,0,0,0-.406-1.165A1.456,1.456,0,0,0,59.26,10.211ZM66.658,17H64.393V5h2.266Zm11.891-2.984A1.2,1.2,0,0,0,78.08,13a6.148,6.148,0,0,0-1.687-.75,11.963,11.963,0,0,1-1.93-.777,3.153,3.153,0,0,1-1.937-2.82A2.747,2.747,0,0,1,73.045,7a3.389,3.389,0,0,1,1.492-1.129,5.616,5.616,0,0,1,2.184-.406,5.112,5.112,0,0,1,2.172.441,3.458,3.458,0,0,1,1.48,1.246A3.261,3.261,0,0,1,80.9,8.984H78.557a1.534,1.534,0,0,0-.492-1.215,2.023,2.023,0,0,0-1.383-.434,2.162,2.162,0,0,0-1.336.363,1.146,1.146,0,0,0-.477.957,1.1,1.1,0,0,0,.559.93,6.311,6.311,0,0,0,1.645.7,7.106,7.106,0,0,1,2.914,1.492A2.972,2.972,0,0,1,80.9,14a2.737,2.737,0,0,1-1.117,2.316,4.891,4.891,0,0,1-3.008.84,5.808,5.808,0,0,1-2.391-.48,3.783,3.783,0,0,1-1.645-1.316,3.371,3.371,0,0,1-.566-1.937h2.352q0,1.883,2.25,1.883a2.189,2.189,0,0,0,1.3-.34A1.106,1.106,0,0,0,78.549,14.016ZM84.721,17H82.455V8.547h2.266Zm-2.4-10.641a1.112,1.112,0,0,1,.34-.836,1.465,1.465,0,0,1,1.848,0,1.105,1.105,0,0,1,.344.836,1.108,1.108,0,0,1-.348.844,1.448,1.448,0,0,1-1.836,0A1.108,1.108,0,0,1,82.322,6.359Zm8.836,8.3a.727.727,0,0,0-.41-.652,4.659,4.659,0,0,0-1.316-.426q-3.016-.633-3.016-2.562a2.323,2.323,0,0,1,.934-1.879,3.766,3.766,0,0,1,2.441-.754,4.053,4.053,0,0,1,2.574.758,2.388,2.388,0,0,1,.965,1.969H91.072a1.092,1.092,0,0,0-.312-.8A1.322,1.322,0,0,0,89.783,10a1.351,1.351,0,0,0-.883.258.814.814,0,0,0-.312.656.7.7,0,0,0,.355.605,3.657,3.657,0,0,0,1.2.4,9.8,9.8,0,0,1,1.422.379,2.336,2.336,0,0,1,1.789,2.273,2.2,2.2,0,0,1-.992,1.871,4.28,4.28,0,0,1-2.562.715,4.47,4.47,0,0,1-1.887-.379,3.166,3.166,0,0,1-1.293-1.039,2.414,2.414,0,0,1-.469-1.426h2.141a1.179,1.179,0,0,0,.445.922,1.766,1.766,0,0,0,1.109.32,1.635,1.635,0,0,0,.98-.246A.766.766,0,0,0,91.158,14.664Zm6.352-8.2V8.547h1.445V10.2H97.51v4.219a1.007,1.007,0,0,0,.18.672.9.9,0,0,0,.688.2,3.6,3.6,0,0,0,.664-.055v1.711a4.648,4.648,0,0,1-1.367.2,2.156,2.156,0,0,1-2.422-2.4V10.2H94.018V8.547h1.234V6.469ZM104.1,17.156a4.15,4.15,0,0,1-3.027-1.141,4.054,4.054,0,0,1-1.168-3.039v-.219a5.106,5.106,0,0,1,.492-2.277A3.612,3.612,0,0,1,101.8,8.934a3.914,3.914,0,0,1,2.059-.543,3.508,3.508,0,0,1,2.73,1.094,4.444,4.444,0,0,1,1,3.1v.922H102.2a2.1,2.1,0,0,0,.66,1.328,2,2,0,0,0,1.395.5,2.437,2.437,0,0,0,2.039-.945l1.109,1.242a3.389,3.389,0,0,1-1.375,1.121A4.511,4.511,0,0,1,104.1,17.156Zm-.258-6.945a1.411,1.411,0,0,0-1.09.455,2.357,2.357,0,0,0-.535,1.3h3.141v-.181a1.681,1.681,0,0,0-.406-1.165A1.456,1.456,0,0,0,103.846,10.211Zm7.133-1.664.07.945a2.971,2.971,0,0,1,2.43-1.1,2.255,2.255,0,0,1,2.242,1.289,2.9,2.9,0,0,1,2.539-1.289,2.521,2.521,0,0,1,2.047.8,3.681,3.681,0,0,1,.672,2.41V17h-2.266V11.609a1.61,1.61,0,0,0-.281-1.051,1.246,1.246,0,0,0-.992-.332,1.409,1.409,0,0,0-1.406.969l.008,5.8h-2.258V11.617a1.59,1.59,0,0,0-.289-1.062,1.259,1.259,0,0,0-.984-.328,1.463,1.463,0,0,0-1.391.8V17h-2.258V8.547ZM127.611,17a2.507,2.507,0,0,1-.227-.758,2.732,2.732,0,0,1-2.133.914,3,3,0,0,1-2.059-.719,2.312,2.312,0,0,1-.816-1.812,2.389,2.389,0,0,1,1-2.062,4.915,4.915,0,0,1,2.879-.727h1.039v-.484a1.393,1.393,0,0,0-.3-.937,1.183,1.183,0,0,0-.949-.352,1.345,1.345,0,0,0-.895.273.929.929,0,0,0-.324.75h-2.258a2.268,2.268,0,0,1,.453-1.359,3,3,0,0,1,1.281-.98,4.669,4.669,0,0,1,1.859-.355,3.689,3.689,0,0,1,2.48.785,2.747,2.747,0,0,1,.918,2.207v3.664a4.041,4.041,0,0,0,.336,1.82V17Zm-1.867-1.57a1.945,1.945,0,0,0,.922-.223,1.462,1.462,0,0,0,.625-.6V13.156h-.844q-1.7,0-1.8,1.172l-.008.133a.9.9,0,0,0,.3.7A1.153,1.153,0,0,0,125.744,15.43ZM50.572,32.992V37H48.229V25.625h4.438a5.134,5.134,0,0,1,2.254.469,3.454,3.454,0,0,1,1.5,1.332,3.714,3.714,0,0,1,.523,1.965A3.266,3.266,0,0,1,55.8,32.027a4.767,4.767,0,0,1-3.168.965Zm0-1.9h2.094a2.059,2.059,0,0,0,1.418-.437,1.591,1.591,0,0,0,.488-1.25,1.876,1.876,0,0,0-.492-1.352,1.839,1.839,0,0,0-1.359-.531H50.572Zm17.3.477a6.853,6.853,0,0,1-.516,2.77,4.754,4.754,0,0,1-1.43,1.887l1.891,1.484-1.492,1.32-2.422-1.945a5.126,5.126,0,0,1-.859.07,4.732,4.732,0,0,1-2.523-.68,4.515,4.515,0,0,1-1.719-1.941,6.67,6.67,0,0,1-.617-2.9V31.07a6.831,6.831,0,0,1,.605-2.957,4.508,4.508,0,0,1,1.711-1.961,5.014,5.014,0,0,1,5.055,0,4.508,4.508,0,0,1,1.711,1.961,6.811,6.811,0,0,1,.605,2.949ZM65.5,31.055a4.787,4.787,0,0,0-.641-2.719,2.263,2.263,0,0,0-3.648-.012,4.732,4.732,0,0,0-.648,2.691v.555a4.847,4.847,0,0,0,.641,2.7,2.243,2.243,0,0,0,3.656.035,4.819,4.819,0,0,0,.641-2.7Zm8.3,1.781H71.94V37H69.6V25.625h4.227a4.778,4.778,0,0,1,3.109.9,3.1,3.1,0,0,1,1.094,2.539,3.5,3.5,0,0,1-.5,1.941,3.437,3.437,0,0,1-1.527,1.238l2.461,4.648V37H75.94Zm-1.867-1.9H73.83a1.936,1.936,0,0,0,1.367-.449,1.606,1.606,0,0,0,.484-1.238,1.719,1.719,0,0,0-.457-1.266,1.9,1.9,0,0,0-1.4-.461H71.94Zm13.766,3.078A1.2,1.2,0,0,0,85.236,33a6.148,6.148,0,0,0-1.687-.75,11.963,11.963,0,0,1-1.93-.777,3.153,3.153,0,0,1-1.937-2.82A2.747,2.747,0,0,1,80.2,27a3.389,3.389,0,0,1,1.492-1.129,5.616,5.616,0,0,1,2.184-.406,5.112,5.112,0,0,1,2.172.441,3.458,3.458,0,0,1,1.48,1.246,3.261,3.261,0,0,1,.527,1.828H85.713a1.534,1.534,0,0,0-.492-1.215,2.023,2.023,0,0,0-1.383-.434A2.162,2.162,0,0,0,82.5,27.7a1.146,1.146,0,0,0-.477.957,1.1,1.1,0,0,0,.559.93,6.311,6.311,0,0,0,1.645.7,7.106,7.106,0,0,1,2.914,1.492A2.972,2.972,0,0,1,88.057,34a2.737,2.737,0,0,1-1.117,2.316,4.891,4.891,0,0,1-3.008.84,5.808,5.808,0,0,1-2.391-.48A3.783,3.783,0,0,1,79.9,35.359a3.371,3.371,0,0,1-.566-1.937h2.352q0,1.883,2.25,1.883a2.189,2.189,0,0,0,1.3-.34A1.106,1.106,0,0,0,85.705,34.016Z" transform="translate(732.059 3016.045)" fill="#12263f"/><g transform="translate(172.059 1855.811)"><circle cx="2.5" cy="2.5" r="2.5" transform="translate(615 1213)" fill="#12263f"/><circle cx="2.5" cy="2.5" r="2.5" transform="translate(625 1213)" fill="#12263f"/><circle cx="2.5" cy="2.5" r="2.5" transform="translate(635 1213)" fill="#12263f"/></g><path d="M184.638,133.861A71.406,71.406,0,1,1,84.289,145.171a71.406,71.406,0,0,1,100.349-11.309" transform="translate(448.44 2585.923)" fill="#f7f7f7"/><path d="M140.072,263.6A73.814,73.814,0,0,1,69.6,211.84a74.114,74.114,0,0,1-.661-42.114,73.446,73.446,0,0,1,13.395-26.114A73.835,73.835,0,0,1,186.2,131.907a73.573,73.573,0,0,1,24.438,35.634,74.114,74.114,0,0,1,.661,42.114A73.446,73.446,0,0,1,197.9,235.769a73.907,73.907,0,0,1-57.83,27.831Zm.092-142.818a68.912,68.912,0,1,0,42.915,15.035A68.606,68.606,0,0,0,140.164,120.781Z" transform="translate(448.44 2585.923)" fill="#fff"/><path d="M184.638,133.861A71.406,71.406,0,1,1,84.289,145.171a71.406,71.406,0,0,1,100.349-11.309" transform="translate(659.94 2483.923)" fill="#f7f7f7"/><path d="M140.072,263.6A73.814,73.814,0,0,1,69.6,211.84a74.114,74.114,0,0,1-.661-42.114,73.446,73.446,0,0,1,13.395-26.114A73.835,73.835,0,0,1,186.2,131.907a73.573,73.573,0,0,1,24.438,35.634,74.114,74.114,0,0,1,.661,42.114A73.446,73.446,0,0,1,197.9,235.769a73.907,73.907,0,0,1-57.83,27.831Zm.092-142.818a68.912,68.912,0,1,0,42.915,15.035A68.606,68.606,0,0,0,140.164,120.781Z" transform="translate(659.94 2483.923)" fill="#fff"/><path d="M184.638,133.861A71.406,71.406,0,1,1,84.289,145.171a71.406,71.406,0,0,1,100.349-11.309" transform="translate(871.249 2586.262)" fill="#f7f7f7"/><path d="M140.072,263.6A73.814,73.814,0,0,1,69.6,211.84a74.114,74.114,0,0,1-.661-42.114,73.446,73.446,0,0,1,13.395-26.114A73.835,73.835,0,0,1,186.2,131.907a73.573,73.573,0,0,1,24.438,35.634,74.114,74.114,0,0,1,.661,42.114A73.446,73.446,0,0,1,197.9,235.769a73.907,73.907,0,0,1-57.83,27.831Zm.092-142.818a68.912,68.912,0,1,0,42.915,15.035A68.606,68.606,0,0,0,140.164,120.781Z" transform="translate(871.249 2586.262)" fill="#fff"/><path d="M184.638,133.861A71.406,71.406,0,1,1,84.289,145.171a71.406,71.406,0,0,1,100.349-11.309" transform="translate(923.44 2815.674)" fill="#f7f7f7"/><path d="M140.072,263.6A73.814,73.814,0,0,1,69.6,211.84a74.114,74.114,0,0,1-.661-42.114,73.446,73.446,0,0,1,13.395-26.114A73.835,73.835,0,0,1,186.2,131.907a73.573,73.573,0,0,1,24.438,35.634,74.114,74.114,0,0,1,.661,42.114A73.446,73.446,0,0,1,197.9,235.769a73.907,73.907,0,0,1-57.83,27.831Zm.092-142.818a68.912,68.912,0,1,0,42.915,15.035A68.606,68.606,0,0,0,140.164,120.781Z" transform="translate(923.44 2815.674)" fill="#fff"/><path d="M184.638,133.861A71.406,71.406,0,1,1,84.289,145.171a71.406,71.406,0,0,1,100.349-11.309" transform="translate(777.243 2997.923)" fill="#f7f7f7"/><path d="M140.072,263.6A73.814,73.814,0,0,1,69.6,211.84a74.114,74.114,0,0,1-.661-42.114,73.446,73.446,0,0,1,13.395-26.114A73.835,73.835,0,0,1,186.2,131.907a73.573,73.573,0,0,1,24.438,35.634,74.114,74.114,0,0,1,.661,42.114A73.446,73.446,0,0,1,197.9,235.769a73.907,73.907,0,0,1-57.83,27.831Zm.092-142.818a68.912,68.912,0,1,0,42.915,15.035A68.606,68.606,0,0,0,140.164,120.781Z" transform="translate(777.243 2997.923)" fill="#fff"/><path d="M184.638,133.861A71.406,71.406,0,1,1,84.289,145.171a71.406,71.406,0,0,1,100.349-11.309" transform="translate(540.44 2997.923)" fill="#f7f7f7"/><path d="M140.072,263.6A73.814,73.814,0,0,1,69.6,211.84a74.114,74.114,0,0,1-.661-42.114,73.446,73.446,0,0,1,13.395-26.114A73.835,73.835,0,0,1,186.2,131.907a73.573,73.573,0,0,1,24.438,35.634,74.114,74.114,0,0,1,.661,42.114A73.446,73.446,0,0,1,197.9,235.769a73.907,73.907,0,0,1-57.83,27.831Zm.092-142.818a68.912,68.912,0,1,0,42.915,15.035A68.606,68.606,0,0,0,140.164,120.781Z" transform="translate(540.44 2997.923)" fill="#fff"/><path d="M184.638,133.861A71.406,71.406,0,1,1,84.289,145.171a71.406,71.406,0,0,1,100.349-11.309" transform="translate(396.401 2815.923)" fill="#f7f7f7"/><path d="M140.072,263.6A73.814,73.814,0,0,1,69.6,211.84a74.114,74.114,0,0,1-.661-42.114,73.446,73.446,0,0,1,13.395-26.114A73.835,73.835,0,0,1,186.2,131.907a73.573,73.573,0,0,1,24.438,35.634,74.114,74.114,0,0,1,.661,42.114A73.446,73.446,0,0,1,197.9,235.769a73.907,73.907,0,0,1-57.83,27.831Zm.092-142.818a68.912,68.912,0,1,0,42.915,15.035A68.606,68.606,0,0,0,140.164,120.781Z" transform="translate(396.401 2815.923)" fill="#fff"/><g transform="translate(702.841 2824.883)"><path d="M263.759,156.384c3.162-7.163,12.062-4.221,16.56-.2a52.148,52.148,0,0,1,10.315,13.1c1.5,2.617,7.384,11.589,5.379,14.494-.729,1.057-2.832,1.265-3.927,1.59q-3.89,1.153-7.874,1.943c-2.772.55-8.174,2.344-10.691.525a13.024,13.024,0,0,1-2.615-3.417,50.743,50.743,0,0,1-3.6-6.448c-2.756-5.9-6.41-15.1-3.545-21.586" transform="translate(-206.323 -129.928)" fill="#f6f6f6"/><path d="M45.632,246.144c-.329-.555-.712-1.083-1.09-1.6-7.619-10.476-17.378-23.583-31.748-23.816-3.654-.059-8.447.792-11.177,3.48-3.2,3.15-1.112,6.815,1.641,9.317,5.3,4.819,12.159,7.026,18.867,8.989,5.939,1.738,12.221,3.337,17.131,7.272.073.145.151.287.223.433a2.914,2.914,0,0,0,2.813,1.78c2.612-.114,5.043-1.129,4.034-4.344a7.227,7.227,0,0,0-.692-1.506" transform="translate(14.451 -83.422)" fill="#f6f6f6"/><path d="M16.061,124.721q8.058-26.138,16.733-52.1a175.291,175.291,0,0,1,21.283-43.1C61.3,18.963,73.7-1.453,89.573.082c7.744.749,12.751,7.111,15.62,13.343A40.824,40.824,0,0,1,108.341,35.5a67.68,67.68,0,0,1-7.087,22.072,27.225,27.225,0,0,1,3.468-1.02c7.316-1.61,15.675-.273,20.621,5.415,9.876,11.357,2.341,27.079-7.614,36.269a3.208,3.208,0,0,0-.837,3.432,16.536,16.536,0,0,1-.8,11.829c-7.152,16.962-24.76,16.073-39.76,15.616-16.765-.511-33.558-1.525-50.261-3.073-.548-.051-10.077-1.1-10.01-1.322" transform="translate(71.041 45)" fill="#f6f6f6"/></g><g transform="translate(645 2792.458)" clip-path="url(#a)"><path d="M239.615,21.885c-.5-2.771-4.014-6.817-5.869-8.933-3.62-4.13-9.914-5.064-15.143-5.024-5.257.04-10.838,1.309-15.058,4.585-4.485,3.48-7.963,11.188-7.587,16.95.33,5.045,1.556,8.3,3.078,13.123.943,2.983,5.092,10.08,9.04,12.679.451.3,3.588-.457,3.85-.778,1.491.345,18.984-2.535,19.2-2.476.264.377,6.286-14.839,6.693-15.292,1.325-1.477,3.257-6.752,1.792-14.833" transform="translate(-64.838 -2.623)" fill="#12263f"/><path d="M208.556,104.1c1.135,1.464,26.284,3.159,30.286-1.7-1.033-2.908-1.359-9.8-1.488-12.3-.308-5.957.022-11.882.2-17.835.1-3.146-21.322-.709-24.582-1.117-.427-.054-.608.286-.563.62a.622.622,0,0,0-.321.649,83.488,83.488,0,0,1,.762,15.526c-.069,3.322-.9,11.859-4.3,16.157" transform="translate(-69.017 -23.374)" fill="#b05a3e"/><path d="M241.155,102.513c-.229-1.1-.3-2.373-1.588-2.47-1.337-.1-3.218,2.143-4.324,2.842a36.2,36.2,0,0,1-7.992,3.722.576.576,0,0,0-.294.224.592.592,0,0,0-.226.435c-.151,2.007-1.322,6.477-1.911,9.079a.179.179,0,0,1-.345.017,33.948,33.948,0,0,1-1.48-8.485,1.462,1.462,0,0,0-.942-1.415,25.978,25.978,0,0,1-10.444-7.2.819.819,0,0,0-1.244.1c-1.265,1.572-3.647,9.724-2.794,10.632,1.03,1.1,3.373,2.2,4.675,2.928a37.036,37.036,0,0,0,9.324,3.575.565.565,0,0,0,.64-.263,21.208,21.208,0,0,1,2.374.926c-.006.058-.014.118-.019.174a1.792,1.792,0,0,1,.31-.062c.311.114.515.166.486.088-.017-.05-.035-.1-.053-.149,3.017-.406,14.032-1.74,16.811-6.679a.581.581,0,0,0,.073-.3.607.607,0,0,0,.051-.337c-.351-2.451-.582-4.959-1.089-7.383" transform="translate(-68.631 -32.769)" fill="#d3d6e8"/><path d="M141.624,139.986c-.693-4.171-1.54-8.658-4.059-12.153a1.537,1.537,0,0,0-.668-.533c-.3-.2-.228-.785-.685-.589-12.937,5.536-20.381,19.551-26.57,31.419-7.261,13.925-14.742,32.712-20.353,47.385-1,2.616-1.667,5.407-.549,8.1a19.7,19.7,0,0,0,7.231,7.979c5.847,3.24,14.4,6.187,19.388,1.957,11.726-9.94,19.429-26.148,22.708-40.229,2.28-9.791,4.257-20.621,4.477-30.771a67.748,67.748,0,0,0-.921-12.561" transform="translate(-29.174 -41.919)" fill="#a4a3ff"/><path d="M352.577,159.319c.194-4.607-26.6-21.1-33.149-26.036-4.913-3.7-10.839-6.6-18.595-9.047-2.557-.807-5.69,26.4-7,34.879-.252,1.625,8.976,15.879,9.172,14.247.569-4.76,3.024-2.286,8.935.347,7.3,3.254,15.765,6.09,23.988,5.9,10.456-.245,16.192-9.4,16.651-20.288" transform="translate(-97.235 -41.107)" fill="#a4a3ff"/><path d="M202.025,46.921c-.937-1.653-2.195-2.921-3.8-3.07-2.154-.2-2.414,2.662-2.195,4.206a10.988,10.988,0,0,0,4.238,7.215c1.6,1.154,4,1.76,3.863-1.018a18.58,18.58,0,0,0-2.11-7.332" transform="translate(-64.852 -14.508)" fill="#b05a3e"/><path d="M240.883,47.729a55.551,55.551,0,0,0,.4-9.2c-.209-6.071-1.61-14-5.282-19.162-3.151-4.433-9.827-5.446-15.065-5.368a22,22,0,0,0-5.323.753c-16.165,4.3-16.606,22.259-10.711,35.179,1.349,2.957,2.819,6.817,5.306,9.079,3.065,2.789,8,2.719,11.913,2.67,3.523-.043,6.715.139,10.1-.926,5.336-1.678,8.114-8.279,8.66-13.031" transform="translate(-66.661 -4.633)" fill="#b05a3e"/><path d="M337.178,65.029c.009-.073.116-.111.051-.177-1.058-1.088-2.017-.6-3.051-.36-1.834.431-3.656.913-5.458,1.467a55.616,55.616,0,0,0-9.78,4.014c-1.236.533-3.307,1.691-3.091,3.454a26.231,26.231,0,0,0,6.186.772,19,19,0,0,0,6.393-2.057,39.5,39.5,0,0,0,5.543-3.341c1.311-.937,2.983-1.879,3.241-3.6a.247.247,0,0,0-.035-.173" transform="translate(-104.518 -21.236)" fill="#d3d6e8"/><path d="M271.906,135.3c-7.025-8.339-12.956-12.6-19.453-15.3-17.879-7.426-32.74-9.055-34.483-9.646-.925-.314-.7-.312-3.548,2.35a22.079,22.079,0,0,1-11.244,5.148,22.566,22.566,0,0,1-20.71-7.043c-.639-.616-.745-.314-1.588-.035-5.66,1.874-21.765,6.372-29.7,10.153a39.065,39.065,0,0,0-11.718,8.151c-3.28,3.474-8.434,12.645-8.161,13.319.022.055.048.108.07.163.019.285,8.472,14.672,12.29,22.179,4.55,8.946,5.971,18.193,6.34,28.127.349,9.389.887,23.982,1.943,34.321.286,2.811,1.006,13.728,1.361,15.893.411,2.494,34.406,4.922,48.655,4.01,7.712-.493,42.445-1.445,43.2-6.409.746-4.9.8-12.334.884-18.546.09-6.628.832-18.672,1.159-25.288.541-10.925.666-17.656,2.58-32.878a4.023,4.023,0,0,1,1.079-2.27c2.145-2.251,17.375-15.355,20.528-21.211a1.215,1.215,0,0,0,.15-.533c.332-.337.762-4.179.363-4.653" transform="translate(-43.449 -36.473)" fill="#a4a3ff"/><path d="M355.195,9.58c-.221-.347-.523-.78-.556-.652a31.4,31.4,0,0,0,.839-4.322c.119-1.046.476-2.785-.139-3.786-.917-1.49-2.684-.684-3.642.317-.024.026-.046.054-.07.08-1.289-.431-2.5,1.1-3.517,3.145-2.62-1.2-4.63,3.788-5.242,5.674-1.14,3.511-2.052,4.648-3.689,7.982-1.809,3.685-3.979,5.669-5.35,6.012-1.349.337-1.833-.018-1.72-1.471.149-1.918,2.7-4.364,4.4-7.849.586-1.2,1.141-3.183.125-4.384-3.575-4.23-14.018,13.181-15.4,15.5-2.648,4.457-4.521,8-4.376,13.329.094,3.428,1.082,6.635,1.839,9.946.668,2.925,2.732,9.756,3.017,9.76,3.813,3.731,16.706-6.224,16.527-6.542,0-.013,0-.025,0-.039-.552-2.4-1.115-4.79-1.657-7.189-.929-4.122,2.038-6.531,5.206-8.619,8.709-5.739,10.286-11.481,11.3-14.408.606-1.758,1.114-3.549,1.6-5.343a17.215,17.215,0,0,0,1.059-5.1,5.158,5.158,0,0,0-.31-1.656c-.007-.016-.108-.187-.236-.388" transform="translate(-104.854 0)" fill="#b05a3e"/><path d="M276.553,180.761c-.68-.183-14.574-.051-19.1-.175a.55.55,0,0,0-.5.6c0,1.99.014,3.981.023,5.971,0,.8.355.811,1.022.814l.944,0,2.6.014,6.7.036,6.083.032,2.352.013a.364.364,0,0,0,.327-.389c.038-1.859.065-4.218.056-6,0-.425-.152-.824-.518-.922" transform="translate(-85.034 -59.761)" fill="#d3d6e8"/><path d="M339.018,73.565c-3.038.327-5.9,1.9-8.525,3.319-3.242,1.746-6.378,3.676-9.508,5.614a.829.829,0,0,0-.735.062c-2.61,1.473-6.4,3.571-6.03,6.619.064.527.306.811.713.853a.939.939,0,0,0,.91.049.772.772,0,0,0,.573-.013,19.247,19.247,0,0,0,4.341-2.37.947.947,0,0,0,.434-.083A70.567,70.567,0,0,0,332.433,81.1c2.253-1.556,6.438-3.624,7.832-6.082,0,0-.46-1.542-1.247-1.457" transform="translate(-103.976 -24.344)" fill="#a4a3ff"/><path d="M340.874,76.222c-.379-1.482-2.86-8.908-3.548-10.959a.418.418,0,0,0-.717-.139,21.216,21.216,0,0,1-5.828,4.826c-5.314,3.255-12.88,2.848-13.92,2.741a.777.777,0,0,0-.417.078.731.731,0,0,0-.569.615c-.135,2.252,3.622,13.494,3.622,13.494.074.025.147.043.221.067a.99.99,0,0,0,1.11.311,15.628,15.628,0,0,0,12.593-2.142c3.668-2.317,7.508-8.679,7.453-8.893" transform="translate(-104.53 -21.502)" fill="#d3d6e8"/><path d="M339.772,74.093a.784.784,0,0,0-.972-.4c-6.2,10.213-24.1,14.544-24.2,14.679a.74.74,0,0,0-.391.757c.676,8.768,2.884,18.833,4.035,27.55q.893,6.773,1.787,13.545c.506,3.833.785,7.834,2.318,11.428,2.469,5.787,7.807,9.8,13.492,12.119,3.709,1.515,16.675,5.386,17.071,5.031,5.052-4.523,6.451-10.47,6.451-18.416,0-14.793-12.554-53.083-19.59-66.29" transform="translate(-103.979 -24.372)" fill="#a4a3ff"/><path d="M313.281,169.353c-2.29,4.658-3.347,9.84-4.528,14.859-.1.419.547.6.646.178,1.167-4.959,2.2-10.1,4.46-14.7.189-.385-.387-.725-.577-.338" transform="translate(-102.171 -55.987)" fill="#401321"/><path d="M141.45,175.881a47.759,47.759,0,0,1,7.427,12.914,76.532,76.532,0,0,1,3.2,12.358c.081.422.726.244.645-.178a72.572,72.572,0,0,0-3.564-13.309,49.176,49.176,0,0,0-7.233-12.259c-.266-.338-.737.139-.473.473" transform="translate(-46.784 -58.009)" fill="#401321"/><path d="M318.367,128.7q1.237,9.591,2.476,19.184c.664,5.141,1.1,10.545,4.038,14.981.237.357.816.023.577-.338-3.1-4.682-3.416-10.531-4.114-15.943q-1.154-8.942-2.308-17.884c-.054-.421-.724-.426-.669,0" transform="translate(-105.355 -42.485)" fill="#401321"/><path d="M315.672,94.975a4.562,4.562,0,0,0,2.683-.489c.383-.2.045-.774-.338-.577a3.951,3.951,0,0,1-2.345.4c-.426-.054-.422.616,0,.669" transform="translate(-104.359 -31.063)" fill="#401321"/><path d="M316.659,76.626a3.378,3.378,0,0,0,1.966.032.335.335,0,0,0-.178-.646,2.72,2.72,0,0,1-1.61-.031c-.411-.132-.587.514-.178.645" transform="translate(-104.714 -25.138)" fill="#401321"/><path d="M99.969,233.179A48.372,48.372,0,0,0,89.7,232.4c-2.352.078-5.788-.084-7.842,1.345-2.033,1.415-3.066,4.358-4.12,6.483-1.346,2.715-2.7,5.606-5.026,7.635-2.356,2.053-12.231,8.616-16.843,11.909-.553.114-1.107.229-1.663.352-.6.132-.739,1.654-.567,1.959,1.6,2.871,2.585,5.787,7.283,8.776a7.584,7.584,0,0,0,3.08.565,60.142,60.142,0,0,0,6.4.221,59.515,59.515,0,0,0,16.832-2.372,32.089,32.089,0,0,0,7.362-3.453,40.017,40.017,0,0,0,6.821-4.947c5.089-4.914,10.229-13.211,14.22-19.007,0,0-9.946-7.646-15.671-8.692" transform="translate(-17.729 -76.901)" fill="#a4a3ff"/><path d="M138.3,268.871a1.1,1.1,0,0,0-1.079-.966c-7.755-.062-61.636-.482-60.758-.231.106.031-.2.035-.278.079-.69-.094-.725-.484,0-.3,5.986,1.525,12.279,2.147,18.366,3.2,6.232,1.082,19.1,3.265,19.347,3.256,7.937-.294,16.028-.642,23.925-1.493a.6.6,0,0,0,.6-.6,13.129,13.129,0,0,0-.12-2.949" transform="translate(-25.037 -88.491)" fill="#d3d6e8"/><path d="M89.881,247.742a26.068,26.068,0,0,1,16.972-2.668c.421.076.6-.569.178-.645a26.815,26.815,0,0,0-17.488,2.735c-.38.2-.042.78.338.577" transform="translate(-29.577 -80.744)" fill="#401321"/><path d="M124.376,236.465c-4.183-6.135-7.45-12.856-11.784-18.888-3.409-4.746-7.842-9.081-13.432-10-3.6,8.512-6.982,17.157-9.872,24.713-1,2.616-1.667,5.407-.549,8.1a19.7,19.7,0,0,0,7.231,7.979c5.847,3.24,14.4,6.187,19.388,1.957a58.65,58.65,0,0,0,10.351-11.7c-.411-.741-.86-1.461-1.335-2.158" transform="translate(-29.174 -68.692)" fill="#521427"/><path d="M90.342,249.444a1.223,1.223,0,0,0-.052-.377c-4.312-14.01-11.071-38.258-13.319-46.135a3.409,3.409,0,0,0-3.05-2.47c-17.627-1.169-59.91-1.489-70.948-1.263a1.025,1.025,0,0,0-.59.2c-.667.487-1.322.991-1.976,1.5a1.031,1.031,0,0,0-.373,1.074c4.384,17.065,14.772,47.061,14.924,47.194a1.278,1.278,0,0,0,1.141,1.392c6.225.612,70.7,1.5,73.567.656a1.192,1.192,0,0,0,.676-1.766" transform="translate(0 -65.898)" fill="#d3d6e8"/><path d="M360.1,14.431c-2.048,1.938-3.006,5-3.937,7.592-1.138,3.166-1.827,6.581-4.963,8.4-2.342,1.358-5.091,1.776-7.561,2.835a11.329,11.329,0,0,0-5.507,5.292.335.335,0,0,0,.578.338,11.3,11.3,0,0,1,3.413-4.083,15.883,15.883,0,0,1,3.833-1.688c2.283-.747,4.745-1.332,6.669-2.85,4.694-3.7,3.645-11.289,7.949-15.363.313-.3-.161-.769-.473-.473" transform="translate(-111.882 -4.744)" fill="#611f19"/><path d="M238.411,81.978a31.646,31.646,0,0,1-11.806,2.009c-3.5-.015-8.214-.185-11.123-2.419-.341-.262-.674.318-.337.577,2.856,2.195,7.435,2.434,10.876,2.5a32.424,32.424,0,0,0,12.567-2.027c.4-.157.223-.8-.178-.645" transform="translate(-71.151 -26.971)" fill="#611f19"/><path d="M74.817,266.731a13.018,13.018,0,0,0-1.956-1.17,4.569,4.569,0,0,1-2.623-2.479c-.624-1.859-.264-5.011-3.285-5.676-1.214-.268-1.821.079-2.094.693a4.117,4.117,0,0,0-2.119-2.453,2.433,2.433,0,0,0-3.007.376c-.575-1.781-2.482-4.589-5.256-3.829a2.178,2.178,0,0,0-1.662,2.219c.033-.357-.931-1.03-1.2-1.186a2.048,2.048,0,0,0-1.54-.284c-1.716.446-2.158,3.141-2.732,4.54-.9,2.2-1.97,4.746-1.469,7.176.464,2.246,2.592,3.629,4.409,4.68a22.351,22.351,0,0,0,3.327,1.622c.949,1.065,2.723,1.96,4.081,1.506a6.117,6.117,0,0,0,6.026.018.15.15,0,0,1,.17.012,4.619,4.619,0,0,0,5.353-.08.436.436,0,0,1,.422-.063,8.76,8.76,0,0,0,3.879.079c1.018-.11,3.086-2.353,3.481-3.41.054-.143-.675-.849-.781-.97a8.839,8.839,0,0,0-1.429-1.32m-22.571-3.913a11.559,11.559,0,0,1,.681-4.276c.086.9-.057,2.911.034,3.787a20.492,20.492,0,0,0,.753,3.256,5.1,5.1,0,0,1-1.469-2.767" transform="translate(-15.14 -83.415)" fill="#b05a3e"/><path d="M55.746,256.447a23.3,23.3,0,0,1,.137,2.4.335.335,0,0,0,.669,0,23.292,23.292,0,0,0-.137-2.4c-.046-.423-.716-.428-.669,0" transform="translate(-18.447 -84.76)" fill="#401321"/><path d="M57.084,272.791A13.421,13.421,0,0,0,60.9,277.1c.347.256.681-.324.338-.577a12.652,12.652,0,0,1-3.576-4.074c-.209-.376-.787-.039-.577.338" transform="translate(-18.876 -90.108)" fill="#401321"/><path d="M65.558,260.368c-.648,5.264-.129,10.353,4.4,13.717.346.257.68-.323.338-.577-4.3-3.2-4.673-8.19-4.064-13.14.052-.426-.617-.423-.669,0" transform="translate(-21.619 -86.057)" fill="#401321"/><path d="M73.467,262.269c-.566,4.879,1,10,5.585,12.379.381.2.72-.379.338-.577-4.392-2.282-5.794-7.151-5.254-11.8.05-.427-.62-.423-.669,0" transform="translate(-24.276 -86.686)" fill="#401321"/><path d="M362.108,4.506c-1.546,3.535-2.147,7.468-3.357,11.124-1.443,4.362-3.539,9.278-7.953,11.34-.39.183-.05.759.338.578,8.452-3.95,8.309-15.29,11.55-22.7.171-.391-.405-.732-.577-.338" transform="translate(-116.031 -1.433)" fill="#611f19"/><path d="M357.157,9.214c-1.212,3.438-2.472,6.853-3.583,10.322a13.476,13.476,0,0,1-6.188,8.058.335.335,0,0,0,.337.579,13.73,13.73,0,0,0,6.185-7.541c1.355-3.718,2.577-7.5,3.893-11.239.144-.407-.5-.582-.645-.179" transform="translate(-114.905 -2.973)" fill="#611f19"/><path d="M133,268.488c.228.881.575,1.71.84,2.577.126.411.771.236.645-.177-.265-.868-.612-1.7-.84-2.577a.335.335,0,0,0-.645.178" transform="translate(-44.009 -88.712)" fill="#401321"/><path d="M155.841,269.052c-7.094.521-14.178,1.21-21.255,1.913-.425.042-.429.711,0,.669,7.077-.7,14.162-1.392,21.255-1.913.427-.031.43-.7,0-.669" transform="translate(-44.432 -89.036)" fill="#401321"/><path d="M5.047,202.257c6.129-.14,12.283.163,18.409.329,9.681.264,19.363.539,29.047.713,4.847.087,9.694.151,14.541.163q3.373.008,6.747-.024c1.4-.015,2.6.209,2.988,1.6,1.658,5.98,3.109,12.022,4.679,18.026,2.343,8.963,4.665,17.955,7.465,26.789.129.409.775.234.645-.178-4.629-14.606-8.041-29.568-12.019-44.356a6.243,6.243,0,0,0-.386-1.331c-.811-1.485-3.024-1.226-4.419-1.214-4.8.039-9.591.005-14.386-.058-10.195-.134-20.387-.407-30.578-.686-7.563-.207-15.166-.62-22.733-.448a.335.335,0,0,0,0,.669" transform="translate(-1.563 -66.697)" fill="#401321"/><path d="M89.689,278.5a12.29,12.29,0,0,1-6.267,4.768c-.4.138-.231.785.178.646a13.047,13.047,0,0,0,6.666-5.076c.243-.357-.337-.693-.577-.338" transform="translate(-27.531 -92.114)" fill="#401321"/><path d="M62.239,233.817c-.664-2.742-2.768-5.276-5.655-4.363a3.937,3.937,0,0,0-2.625,3.2,5.7,5.7,0,0,0,.455,3.049c.863,2,3.186,3.853,5.226,3.707,2.555-.183,3.232-2.984,2.6-5.6" transform="translate(-17.84 -75.87)" fill="#fff"/><path d="M247.075,31.942c-1.4-.706-2.292.642-2.294,1.75a4.92,4.92,0,0,0,.955,3.161,1.348,1.348,0,0,0,2.276-.222c.594-1.266.492-3.971-.937-4.689" transform="translate(-81.005 -10.506)" fill="#12263f"/><path d="M220.193,31.963c-1.575-.781-2.573.711-2.575,1.938a4.274,4.274,0,0,0,.994,3.09,1.524,1.524,0,0,0,2.554-.246c.667-1.4.63-3.987-.973-4.783" transform="translate(-72.016 -10.506)" fill="#12263f"/><path d="M237.813,35.737a11.6,11.6,0,0,1,1.618,2.188,2.672,2.672,0,0,1-.537,3.283c-.274.329.2.8.474.473a3.389,3.389,0,0,0,1.063-2.954,8.2,8.2,0,0,0-2.145-3.462c-.279-.329-.75.147-.473.472" transform="translate(-78.671 -11.633)" fill="#611f19"/><path d="M233.245,42.557c-1.085-.365-2.708-.53-3.4.6-.225.368.353.7.578.337.512-.832,1.893-.547,2.648-.293.409.138.585-.508.178-.645" transform="translate(-76.044 -13.993)" fill="#611f19"/><path d="M239.115,51.705a.533.533,0,0,0-.286-.092c-5.5.012-11.105-.017-13.262.374a.471.471,0,0,0-.385.523,6.4,6.4,0,0,0,3.869,5.454,11.923,11.923,0,0,0,5.106.5c4.061-.249,4.988-2.534,5.323-6.242a.456.456,0,0,0-.365-.518" transform="translate(-74.518 -17.08)" fill="#12263f"/><path d="M236.378,54.457c1.625-.314,1.887-1.321,2.069-2.844-5.372.011-10.773-.008-12.88.373a.473.473,0,0,0-.386.523,8.514,8.514,0,0,0,.147.84c2.178,1.351,9.879,1.333,11.05,1.107" transform="translate(-74.517 -17.08)" fill="#fff"/><path d="M217.824,22.083a9.777,9.777,0,0,0-4.413,1.705c-1.052.738-3.25,2.785-2.336,4.461.582,1.067,2.056.567,2.888.227a25.662,25.662,0,0,1,3.154-1.182c1.189-.315,2.684-.131,3.861-.381,1.195-.254,1.786-2.065,1.2-3.175a3.284,3.284,0,0,0-2.7-1.675,7.781,7.781,0,0,0-1.655.019" transform="translate(-69.779 -7.29)" fill="#12263f"/><path d="M242.894,22.059a2.61,2.61,0,0,0-2.155,1.43c-.47.946,0,2.492.957,2.708.94.214,2.134.057,3.084.325a19.61,19.61,0,0,1,2.52,1.01c.664.289,1.843.715,2.308-.195.73-1.43-1.027-3.177-1.867-3.807a7.527,7.527,0,0,0-3.525-1.455,5.832,5.832,0,0,0-1.322-.017" transform="translate(-79.606 -7.29)" fill="#12263f"/><path d="M234.149,15.221c-3.862-4.4-9.637-4.547-15.066-3.84-5.535.721-11.023,2.425-15.213,6.232-4.576,4.158-5.464,8.762-4.938,14.779a.617.617,0,0,0,.593.565c.748,1.592,1.962,3.359,3.751,2.713,3.09-1.114,2.484-7.116,2.457-9.549-.039-3.457-.25-6.7,3.028-8.848a13.548,13.548,0,0,1,8.211-1.951c3.454.089,6.884.6,10.208-.107,2.664-.57,5.763,1.655,7.307,3.53a29.2,29.2,0,0,1,5.432,13.3c.028.211.305-.017.441-.18.32-.385.013-1.2.064-1.337a10.789,10.789,0,0,0,.555-1.861c.06-.652-1.073-1.5-1.119-2.149-.31-4.31-2.823-8.008-5.711-11.3" transform="translate(-65.787 -3.661)" fill="#12263f"/><path d="M234.443,11.361c-3.3-4.455-7.535-7.441-15.8-7.377-5.826.046-12.51,1.078-17.341,4.736-4.231,3.2-8.733,8.094-9.6,15.066-.43.779-1.752,3.016-1.662,3.727.14,1.107,6.78.524,6.835-.092.51-5.721,2.182-10.492,5.884-14.542,4.661-5.1,11.022-5.088,16.394-5.1,2.745,0,5.614-.05,8.076,1.346,8.376,4.749,10.9,15.545,11.889,20.75.214,1.125,2.134.533,2.118.284a38.461,38.461,0,0,0-6.8-18.8" transform="translate(-62.89 -1.318)" fill="#d3d6e8"/><path d="M197.358,32.313a6.7,6.7,0,0,0-8.788,2.923c-1.279,2.2-1.182,7.2-.62,10.6.422,2.549,2.12,5.69,5.013,6.939a48.027,48.027,0,0,0,5.179.16c4.439-1.353,2.8-19.181-.786-20.623" transform="translate(-62.067 -10.49)" fill="#d3d6e8"/><path d="M263.06,33.745c-.375-.834-1.385-.957-2.191-1-.763-.045-1.6-.244-1.9.7-.217.68.946,7.134,1.075,8.789a41.956,41.956,0,0,1,.155,8.883.593.593,0,0,0,.616.658,3.049,3.049,0,0,0,2.747-1.073c2.569-2.512.636-14.419-.5-16.957" transform="translate(-85.692 -10.819)" fill="#d3d6e8"/><path d="M190.529,36.569c1.279-2.3,3.865-3.222,5.534-.707a13.712,13.712,0,0,1,1.83,5.827,23.561,23.561,0,0,1,.064,5.274,6.809,6.809,0,0,1-3.646,5.723.335.335,0,0,0,.337.577,7.318,7.318,0,0,0,3.923-5.822,22.845,22.845,0,0,0-.461-8.264c-.473-1.9-1.314-4.486-3.29-5.318-2.065-.87-3.912.646-4.87,2.373-.209.377.368.715.577.338" transform="translate(-62.845 -11.121)" fill="#401321"/><path d="M261.353,32.711a45.1,45.1,0,0,1,1.659,18.581c-.051.426.618.423.669,0A45.532,45.532,0,0,0,262,32.533c-.125-.411-.771-.236-.645.178" transform="translate(-86.483 -10.689)" fill="#401321"/><path d="M210.8,9.02a19.963,19.963,0,0,0-11.916,13.737c-.1.418.543.6.645.177A19.272,19.272,0,0,1,210.978,9.665c.394-.159.222-.806-.178-.645" transform="translate(-65.813 -2.977)" fill="#401321"/><path d="M216.763,9.08a27.55,27.55,0,0,1,7.1-1.014,36.63,36.63,0,0,1,8.265.147,17.671,17.671,0,0,1,8.865,4.989,24.116,24.116,0,0,1,5.651,10.489.335.335,0,0,0,.646-.178c-1.82-7.11-7.018-14.1-14.487-15.851a30.426,30.426,0,0,0-8.317-.3,29.773,29.773,0,0,0-7.9,1.073c-.405.137-.232.783.178.645" transform="translate(-71.598 -2.391)" fill="#401321"/><path d="M219.184,66.08a2.089,2.089,0,0,0-2.521-1.543c-1.511.266-2.223,1.848-3.645,2.263a22.769,22.769,0,0,1-10.763-.189,5.131,5.131,0,0,1-2.629-2.187c-1.051-1.56-1.358-3.6-1.794-5.424-.108-.454-.207-1.038-.341-1.622a2.07,2.07,0,0,0-2.259-.673,3.609,3.609,0,0,0-2.018,1.885c1.107,4.074,2.244,9.6,6.662,10.954a17.656,17.656,0,0,0,4.407.475c2,.078,4.006.284,6.008.229a18.571,18.571,0,0,0,6.249-.9c1.341-.531,2.982-1.6,2.644-3.275" transform="translate(-63.939 -18.729)" fill="#d3d6e8"/><path d="M195.906,55.091c2.161-.856,2.608,3.372,2.683,4.584.027.428.7.43.669,0a8.589,8.589,0,0,0-.963-4.024,2.213,2.213,0,0,0-2.567-1.206c-.4.157-.223.8.178.645" transform="translate(-64.698 -17.979)" fill="#401321"/><path d="M196.578,31.221a5.57,5.57,0,0,0-3.735.692c-.364.228-.028.807.338.578a4.9,4.9,0,0,1,3.219-.625c.42.092.6-.553.178-.645" transform="translate(-63.765 -10.303)" fill="#401321"/></g><path d="M20.375,17.945a8.644,8.644,0,0,1-1.465,5.414,5.113,5.113,0,0,1-4.289,1.875,5.149,5.149,0,0,1-4.266-1.84,8.391,8.391,0,0,1-1.512-5.273V14.98a8.53,8.53,0,0,1,1.482-5.426A5.151,5.151,0,0,1,14.6,7.7a5.156,5.156,0,0,1,4.266,1.834A8.365,8.365,0,0,1,20.375,14.8Zm-3.387-3.453a6.248,6.248,0,0,0-.58-3.091,1.96,1.96,0,0,0-1.811-.968,1.926,1.926,0,0,0-1.764.921,5.847,5.847,0,0,0-.6,2.88v4.152a6.559,6.559,0,0,0,.568,3.1A1.934,1.934,0,0,0,14.621,22.5a1.9,1.9,0,0,0,1.793-.974,6.4,6.4,0,0,0,.574-2.979ZM34.355,25H22.66V22.68L28.18,16.8a13.617,13.617,0,0,0,1.682-2.168,3.483,3.483,0,0,0,.545-1.758,2.606,2.606,0,0,0-.574-1.787,2.073,2.073,0,0,0-1.641-.65,2.236,2.236,0,0,0-1.811.791,3.133,3.133,0,0,0-.662,2.08h-3.4a5.594,5.594,0,0,1,.744-2.848,5.245,5.245,0,0,1,2.1-2.021A6.394,6.394,0,0,1,28.25,7.7a6.054,6.054,0,0,1,4.1,1.266A4.478,4.478,0,0,1,33.8,12.543a5.737,5.737,0,0,1-.656,2.578A14.327,14.327,0,0,1,30.9,18.18L27.02,22.27h7.336Z" transform="translate(990 2743.04)" fill="#ffde96"/><path d="M20.375,17.945a8.644,8.644,0,0,1-1.465,5.414,5.113,5.113,0,0,1-4.289,1.875,5.149,5.149,0,0,1-4.266-1.84,8.391,8.391,0,0,1-1.512-5.273V14.98a8.53,8.53,0,0,1,1.482-5.426A5.151,5.151,0,0,1,14.6,7.7a5.156,5.156,0,0,1,4.266,1.834A8.365,8.365,0,0,1,20.375,14.8Zm-3.387-3.453a6.248,6.248,0,0,0-.58-3.091,1.96,1.96,0,0,0-1.811-.968,1.926,1.926,0,0,0-1.764.921,5.847,5.847,0,0,0-.6,2.88v4.152a6.559,6.559,0,0,0,.568,3.1A1.934,1.934,0,0,0,14.621,22.5a1.9,1.9,0,0,0,1.793-.974,6.4,6.4,0,0,0,.574-2.979Zm9.117.476h1.8a2.543,2.543,0,0,0,1.91-.645,2.362,2.362,0,0,0,.621-1.711,2.088,2.088,0,0,0-.615-1.605,2.384,2.384,0,0,0-1.693-.574,2.5,2.5,0,0,0-1.629.533,1.7,1.7,0,0,0-.656,1.389H22.461a4.165,4.165,0,0,1,.721-2.4A4.8,4.8,0,0,1,25.2,8.3a6.727,6.727,0,0,1,2.854-.6A6.38,6.38,0,0,1,32.293,9a4.418,4.418,0,0,1,1.535,3.568,3.59,3.59,0,0,1-.715,2.156,4.644,4.644,0,0,1-1.875,1.512,4.239,4.239,0,0,1,2.15,1.547,4.2,4.2,0,0,1,.709,2.438,4.491,4.491,0,0,1-1.658,3.645,6.667,6.667,0,0,1-4.389,1.371,6.322,6.322,0,0,1-4.178-1.348,4.4,4.4,0,0,1-1.623-3.562h3.387a1.962,1.962,0,0,0,.721,1.57,3.006,3.006,0,0,0,3.668-.029,2.2,2.2,0,0,0,.686-1.693q0-2.555-2.812-2.555H26.105Z" transform="translate(1043 2968.443)" fill="#a4a3ff"/><path d="M20.375,17.945a8.644,8.644,0,0,1-1.465,5.414,5.113,5.113,0,0,1-4.289,1.875,5.149,5.149,0,0,1-4.266-1.84,8.391,8.391,0,0,1-1.512-5.273V14.98a8.53,8.53,0,0,1,1.482-5.426A5.151,5.151,0,0,1,14.6,7.7a5.156,5.156,0,0,1,4.266,1.834A8.365,8.365,0,0,1,20.375,14.8Zm-3.387-3.453a6.248,6.248,0,0,0-.58-3.091,1.96,1.96,0,0,0-1.811-.968,1.926,1.926,0,0,0-1.764.921,5.847,5.847,0,0,0-.6,2.88v4.152a6.559,6.559,0,0,0,.568,3.1A1.934,1.934,0,0,0,14.621,22.5a1.9,1.9,0,0,0,1.793-.974,6.4,6.4,0,0,0,.574-2.979ZM32.68,18.578h1.934v2.73H32.68V25H29.293V21.309h-7l-.152-2.133L29.258,7.938H32.68Zm-7.16,0h3.773V12.555l-.223.387Z" transform="translate(894.059 3159.613)" fill="#5263e2"/><path d="M20.375,17.945a8.644,8.644,0,0,1-1.465,5.414,5.113,5.113,0,0,1-4.289,1.875,5.149,5.149,0,0,1-4.266-1.84,8.391,8.391,0,0,1-1.512-5.273V14.98a8.53,8.53,0,0,1,1.482-5.426A5.151,5.151,0,0,1,14.6,7.7a5.156,5.156,0,0,1,4.266,1.834A8.365,8.365,0,0,1,20.375,14.8Zm-3.387-3.453a6.248,6.248,0,0,0-.58-3.091,1.96,1.96,0,0,0-1.811-.968,1.926,1.926,0,0,0-1.764.921,5.847,5.847,0,0,0-.6,2.88v4.152a6.559,6.559,0,0,0,.568,3.1A1.934,1.934,0,0,0,14.621,22.5a1.9,1.9,0,0,0,1.793-.974,6.4,6.4,0,0,0,.574-2.979Zm6.176,2.117.984-8.672h9.563v2.824H26.926L26.5,14.43a5.369,5.369,0,0,1,2.566-.645,4.918,4.918,0,0,1,3.82,1.512,6.038,6.038,0,0,1,1.383,4.23,6.186,6.186,0,0,1-.7,2.959,4.921,4.921,0,0,1-2,2.027,6.237,6.237,0,0,1-3.07.721,6.624,6.624,0,0,1-2.871-.627,5.093,5.093,0,0,1-2.092-1.764,4.807,4.807,0,0,1-.814-2.59h3.352a2.5,2.5,0,0,0,.744,1.658,2.359,2.359,0,0,0,1.67.592,2.082,2.082,0,0,0,1.77-.826,3.827,3.827,0,0,0,.621-2.338,3.165,3.165,0,0,0-.715-2.227,2.623,2.623,0,0,0-2.027-.773,2.932,2.932,0,0,0-1.957.633l-.328.3Z" transform="translate(658.059 3159.613)" fill="#ff8578"/><path d="M20.375,17.945a8.644,8.644,0,0,1-1.465,5.414,5.113,5.113,0,0,1-4.289,1.875,5.149,5.149,0,0,1-4.266-1.84,8.391,8.391,0,0,1-1.512-5.273V14.98a8.53,8.53,0,0,1,1.482-5.426A5.151,5.151,0,0,1,14.6,7.7a5.156,5.156,0,0,1,4.266,1.834A8.365,8.365,0,0,1,20.375,14.8Zm-3.387-3.453a6.248,6.248,0,0,0-.58-3.091,1.96,1.96,0,0,0-1.811-.968,1.926,1.926,0,0,0-1.764.921,5.847,5.847,0,0,0-.6,2.88v4.152a6.559,6.559,0,0,0,.568,3.1A1.934,1.934,0,0,0,14.621,22.5a1.9,1.9,0,0,0,1.793-.974,6.4,6.4,0,0,0,.574-2.979ZM31.848,7.762v2.789H31.52a5.754,5.754,0,0,0-3.7,1.2,4.857,4.857,0,0,0-1.682,3.223,4.613,4.613,0,0,1,3.434-1.383,4.346,4.346,0,0,1,3.539,1.594,6.389,6.389,0,0,1,1.313,4.2,6.284,6.284,0,0,1-.721,3.012,5.169,5.169,0,0,1-2.039,2.1,5.924,5.924,0,0,1-2.982.75,5.533,5.533,0,0,1-4.354-1.875,7.278,7.278,0,0,1-1.658-5V17.137a10.953,10.953,0,0,1,1.049-4.9,7.691,7.691,0,0,1,3.012-3.293,8.825,8.825,0,0,1,4.553-1.178Zm-3.3,8.555a2.706,2.706,0,0,0-1.488.427,2.572,2.572,0,0,0-.984,1.129V18.9a4.56,4.56,0,0,0,.668,2.649,2.159,2.159,0,0,0,1.875.953,2.135,2.135,0,0,0,1.764-.86,3.506,3.506,0,0,0,.674-2.228,3.5,3.5,0,0,0-.68-2.246A2.215,2.215,0,0,0,28.543,16.316Z" transform="translate(515.02 2971.58)" fill="#43a99b"/><path d="M20.375,17.945a8.644,8.644,0,0,1-1.465,5.414,5.113,5.113,0,0,1-4.289,1.875,5.149,5.149,0,0,1-4.266-1.84,8.391,8.391,0,0,1-1.512-5.273V14.98a8.53,8.53,0,0,1,1.482-5.426A5.151,5.151,0,0,1,14.6,7.7a5.156,5.156,0,0,1,4.266,1.834A8.365,8.365,0,0,1,20.375,14.8Zm-3.387-3.453a6.248,6.248,0,0,0-.58-3.091,1.96,1.96,0,0,0-1.811-.968,1.926,1.926,0,0,0-1.764.921,5.847,5.847,0,0,0-.6,2.88v4.152a6.559,6.559,0,0,0,.568,3.1A1.934,1.934,0,0,0,14.621,22.5a1.9,1.9,0,0,0,1.793-.974,6.4,6.4,0,0,0,.574-2.979ZM34.262,9.828,27.664,25H24.09L30.7,10.668H22.215V7.938H34.262Z" transform="translate(565.834 2743.04)" fill="#a4a3ff"/><path d="M20.375,17.945a8.644,8.644,0,0,1-1.465,5.414,5.113,5.113,0,0,1-4.289,1.875,5.149,5.149,0,0,1-4.266-1.84,8.391,8.391,0,0,1-1.512-5.273V14.98a8.53,8.53,0,0,1,1.482-5.426A5.151,5.151,0,0,1,14.6,7.7a5.156,5.156,0,0,1,4.266,1.834A8.365,8.365,0,0,1,20.375,14.8Zm-3.387-3.453a6.248,6.248,0,0,0-.58-3.091,1.96,1.96,0,0,0-1.811-.968,1.926,1.926,0,0,0-1.764.921,5.847,5.847,0,0,0-.6,2.88v4.152a6.559,6.559,0,0,0,.568,3.1A1.934,1.934,0,0,0,14.621,22.5a1.9,1.9,0,0,0,1.793-.974,6.4,6.4,0,0,0,.574-2.979ZM30.887,25H27.5V11.945L23.457,13.2V10.445l7.066-2.531h.363Z" transform="translate(778.5 2636.892)" fill="#ff8578"/><path d="M23.493,12.836H21.626V17H19.282V5.625h4.227a4.778,4.778,0,0,1,3.109.9,3.1,3.1,0,0,1,1.094,2.539,3.5,3.5,0,0,1-.5,1.941,3.437,3.437,0,0,1-1.527,1.238l2.461,4.648V17H25.626Zm-1.867-1.9h1.891a1.936,1.936,0,0,0,1.367-.449,1.606,1.606,0,0,0,.484-1.238,1.719,1.719,0,0,0-.457-1.266,1.9,1.9,0,0,0-1.4-.461H21.626Zm11.609,6.219a4.15,4.15,0,0,1-3.027-1.141,4.054,4.054,0,0,1-1.168-3.039v-.219a5.106,5.106,0,0,1,.492-2.277,3.612,3.612,0,0,1,1.395-1.547,3.914,3.914,0,0,1,2.059-.543,3.508,3.508,0,0,1,2.73,1.094,4.444,4.444,0,0,1,1,3.1v.922H31.329a2.1,2.1,0,0,0,.66,1.328,2,2,0,0,0,1.395.5,2.437,2.437,0,0,0,2.039-.945l1.109,1.242a3.389,3.389,0,0,1-1.375,1.121A4.511,4.511,0,0,1,33.235,17.156Zm-.258-6.945a1.411,1.411,0,0,0-1.09.455,2.357,2.357,0,0,0-.535,1.3h3.141v-.181a1.681,1.681,0,0,0-.406-1.165A1.456,1.456,0,0,0,32.978,10.211Zm8.531,5.125a1.481,1.481,0,0,0,1.016-.344,1.2,1.2,0,0,0,.406-.914h2.117a2.9,2.9,0,0,1-.469,1.574,3.093,3.093,0,0,1-1.262,1.109,3.949,3.949,0,0,1-1.77.395A3.67,3.67,0,0,1,38.688,16a4.56,4.56,0,0,1-1.047-3.184v-.148a4.508,4.508,0,0,1,1.039-3.117,3.627,3.627,0,0,1,2.852-1.164,3.555,3.555,0,0,1,2.543.9,3.2,3.2,0,0,1,.973,2.4H42.931a1.551,1.551,0,0,0-.406-1.072,1.51,1.51,0,0,0-2.223.163,3.333,3.333,0,0,0-.4,1.866v.235a3.375,3.375,0,0,0,.4,1.878A1.377,1.377,0,0,0,41.509,15.336Zm8.719,1.82A4.15,4.15,0,0,1,47.2,16.016a4.054,4.054,0,0,1-1.168-3.039v-.219a5.106,5.106,0,0,1,.492-2.277,3.612,3.612,0,0,1,1.395-1.547,3.914,3.914,0,0,1,2.059-.543,3.508,3.508,0,0,1,2.73,1.094,4.444,4.444,0,0,1,1,3.1v.922H48.321a2.1,2.1,0,0,0,.66,1.328,2,2,0,0,0,1.395.5,2.437,2.437,0,0,0,2.039-.945l1.109,1.242a3.389,3.389,0,0,1-1.375,1.121A4.511,4.511,0,0,1,50.228,17.156Zm-.258-6.945a1.411,1.411,0,0,0-1.09.455,2.357,2.357,0,0,0-.535,1.3h3.141v-.181a1.681,1.681,0,0,0-.406-1.165A1.456,1.456,0,0,0,49.97,10.211Zm12.625,2.641a5.07,5.07,0,0,1-.887,3.129,2.843,2.843,0,0,1-2.395,1.176,2.633,2.633,0,0,1-2.07-.891V20.25H54.985V8.547h2.094l.078.828A2.654,2.654,0,0,1,59.3,8.391a2.862,2.862,0,0,1,2.43,1.156,5.207,5.207,0,0,1,.867,3.188Zm-2.258-.164a3.327,3.327,0,0,0-.418-1.82,1.361,1.361,0,0,0-1.215-.641,1.479,1.479,0,0,0-1.461.813V14.5a1.5,1.5,0,0,0,1.477.836Q60.337,15.336,60.337,12.688Zm7.172,2.648a1.481,1.481,0,0,0,1.016-.344,1.2,1.2,0,0,0,.406-.914h2.117a2.9,2.9,0,0,1-.469,1.574,3.093,3.093,0,0,1-1.262,1.109,3.949,3.949,0,0,1-1.77.395A3.67,3.67,0,0,1,64.688,16a4.56,4.56,0,0,1-1.047-3.184v-.148a4.508,4.508,0,0,1,1.039-3.117,3.627,3.627,0,0,1,2.852-1.164,3.555,3.555,0,0,1,2.543.9,3.2,3.2,0,0,1,.973,2.4H68.931a1.551,1.551,0,0,0-.406-1.072,1.51,1.51,0,0,0-2.223.163,3.333,3.333,0,0,0-.4,1.866v.235a3.375,3.375,0,0,0,.4,1.878A1.377,1.377,0,0,0,67.509,15.336ZM74.72,17H72.454V8.547H74.72Zm-2.4-10.641a1.112,1.112,0,0,1,.34-.836,1.465,1.465,0,0,1,1.848,0,1.105,1.105,0,0,1,.344.836A1.108,1.108,0,0,1,74.5,7.2a1.448,1.448,0,0,1-1.836,0A1.108,1.108,0,0,1,72.321,6.359ZM76.228,12.7a5.013,5.013,0,0,1,.484-2.242A3.546,3.546,0,0,1,78.106,8.93a4.069,4.069,0,0,1,2.113-.539,3.849,3.849,0,0,1,2.793,1.047,4.2,4.2,0,0,1,1.207,2.844l.016.578a4.418,4.418,0,0,1-1.086,3.121,4.209,4.209,0,0,1-5.832,0,4.5,4.5,0,0,1-1.09-3.187Zm2.258.16a3.16,3.16,0,0,0,.453,1.843,1.628,1.628,0,0,0,2.578.008,3.457,3.457,0,0,0,.461-2.015,3.128,3.128,0,0,0-.461-1.831,1.5,1.5,0,0,0-1.3-.649,1.474,1.474,0,0,0-1.281.646A3.516,3.516,0,0,0,78.485,12.856ZM80.665,5h2.461L80.962,7.422H79.126ZM87.7,8.547l.07.977A2.951,2.951,0,0,1,90.2,8.391a2.453,2.453,0,0,1,2,.789,3.682,3.682,0,0,1,.672,2.359V17H90.618V11.594a1.465,1.465,0,0,0-.312-1.043,1.4,1.4,0,0,0-1.039-.324,1.553,1.553,0,0,0-1.43.813V17H85.579V8.547Z" transform="translate(744.053 2668.892)" fill="#12263f"/><path d="M31.774,14.656H27.665L26.883,17H24.391L28.626,5.625H30.8L35.055,17H32.563Zm-3.477-1.9h2.844L29.712,8.5Zm9.375-4.211.07.977a2.951,2.951,0,0,1,2.43-1.133,2.453,2.453,0,0,1,2,.789,3.682,3.682,0,0,1,.672,2.359V17H40.587V11.594a1.465,1.465,0,0,0-.312-1.043,1.4,1.4,0,0,0-1.039-.324,1.553,1.553,0,0,0-1.43.813V17H35.547V8.547ZM49.454,17a2.507,2.507,0,0,1-.227-.758,2.732,2.732,0,0,1-2.133.914,3,3,0,0,1-2.059-.719,2.312,2.312,0,0,1-.816-1.812,2.389,2.389,0,0,1,1-2.062,4.915,4.915,0,0,1,2.879-.727h1.039v-.484a1.393,1.393,0,0,0-.3-.937,1.183,1.183,0,0,0-.949-.352,1.345,1.345,0,0,0-.895.273.929.929,0,0,0-.324.75H44.407a2.268,2.268,0,0,1,.453-1.359,3,3,0,0,1,1.281-.98A4.669,4.669,0,0,1,48,8.391a3.689,3.689,0,0,1,2.48.785,2.747,2.747,0,0,1,.918,2.207v3.664a4.041,4.041,0,0,0,.336,1.82V17Zm-1.867-1.57a1.945,1.945,0,0,0,.922-.223,1.462,1.462,0,0,0,.625-.6V13.156H48.29q-1.7,0-1.8,1.172l-.008.133a.9.9,0,0,0,.3.7A1.153,1.153,0,0,0,47.587,15.43ZM48.446,5h2.461L48.743,7.422H46.907Zm7.07,12H53.251V5h2.266Zm4.242,0H57.493V8.547h2.266ZM57.36,6.359a1.112,1.112,0,0,1,.34-.836,1.465,1.465,0,0,1,1.848,0,1.105,1.105,0,0,1,.344.836,1.108,1.108,0,0,1-.348.844,1.448,1.448,0,0,1-1.836,0A1.108,1.108,0,0,1,57.36,6.359Zm8.836,8.3a.727.727,0,0,0-.41-.652,4.659,4.659,0,0,0-1.316-.426q-3.016-.633-3.016-2.562a2.323,2.323,0,0,1,.934-1.879,3.766,3.766,0,0,1,2.441-.754,4.053,4.053,0,0,1,2.574.758,2.388,2.388,0,0,1,.965,1.969H66.11a1.092,1.092,0,0,0-.312-.8A1.322,1.322,0,0,0,64.821,10a1.351,1.351,0,0,0-.883.258.814.814,0,0,0-.312.656.7.7,0,0,0,.355.605,3.657,3.657,0,0,0,1.2.4A9.8,9.8,0,0,1,66.6,12.3a2.336,2.336,0,0,1,1.789,2.273,2.2,2.2,0,0,1-.992,1.871,4.28,4.28,0,0,1-2.562.715,4.47,4.47,0,0,1-1.887-.379,3.166,3.166,0,0,1-1.293-1.039,2.414,2.414,0,0,1-.469-1.426h2.141a1.179,1.179,0,0,0,.445.922,1.766,1.766,0,0,0,1.109.32,1.635,1.635,0,0,0,.98-.246A.766.766,0,0,0,66.2,14.664ZM72.227,17H69.962V8.547h2.266Zm-2.4-10.641a1.112,1.112,0,0,1,.34-.836,1.465,1.465,0,0,1,1.848,0,1.105,1.105,0,0,1,.344.836,1.108,1.108,0,0,1-.348.844,1.448,1.448,0,0,1-1.836,0A1.108,1.108,0,0,1,69.829,6.359Zm8.836,8.3a.727.727,0,0,0-.41-.652,4.659,4.659,0,0,0-1.316-.426q-3.016-.633-3.016-2.562a2.323,2.323,0,0,1,.934-1.879A3.766,3.766,0,0,1,77.3,8.391a4.053,4.053,0,0,1,2.574.758,2.388,2.388,0,0,1,.965,1.969H78.579a1.092,1.092,0,0,0-.312-.8A1.322,1.322,0,0,0,77.29,10a1.351,1.351,0,0,0-.883.258.814.814,0,0,0-.312.656.7.7,0,0,0,.355.605,3.657,3.657,0,0,0,1.2.4,9.8,9.8,0,0,1,1.422.379A2.336,2.336,0,0,1,80.86,14.57a2.2,2.2,0,0,1-.992,1.871,4.28,4.28,0,0,1-2.562.715,4.47,4.47,0,0,1-1.887-.379,3.166,3.166,0,0,1-1.293-1.039,2.414,2.414,0,0,1-.469-1.426H75.8a1.179,1.179,0,0,0,.445.922,1.766,1.766,0,0,0,1.109.32,1.635,1.635,0,0,0,.98-.246A.766.766,0,0,0,78.665,14.664Z" transform="translate(958.5 2775)" fill="#12263f"/><path d="M20.063,17V5.625h3.5a5.315,5.315,0,0,1,2.684.676,4.712,4.712,0,0,1,1.848,1.922,5.928,5.928,0,0,1,.664,2.832v.523a5.945,5.945,0,0,1-.652,2.82,4.672,4.672,0,0,1-1.84,1.914,5.355,5.355,0,0,1-2.68.688Zm2.344-9.477v7.594h1.133a2.545,2.545,0,0,0,2.1-.9,4.06,4.06,0,0,0,.742-2.57v-.6a4.124,4.124,0,0,0-.719-2.629,2.537,2.537,0,0,0-2.1-.895ZM32.7,17H30.43V8.547H32.7ZM30.3,6.359a1.112,1.112,0,0,1,.34-.836,1.465,1.465,0,0,1,1.848,0,1.105,1.105,0,0,1,.344.836,1.108,1.108,0,0,1-.348.844,1.448,1.448,0,0,1-1.836,0A1.108,1.108,0,0,1,30.3,6.359Zm8.836,8.3a.727.727,0,0,0-.41-.652,4.659,4.659,0,0,0-1.316-.426q-3.016-.633-3.016-2.562a2.323,2.323,0,0,1,.934-1.879,3.766,3.766,0,0,1,2.441-.754,4.053,4.053,0,0,1,2.574.758,2.388,2.388,0,0,1,.965,1.969H39.047a1.092,1.092,0,0,0-.312-.8A1.322,1.322,0,0,0,37.758,10a1.351,1.351,0,0,0-.883.258.814.814,0,0,0-.312.656.7.7,0,0,0,.355.605,3.657,3.657,0,0,0,1.2.4,9.8,9.8,0,0,1,1.422.379,2.336,2.336,0,0,1,1.789,2.273,2.2,2.2,0,0,1-.992,1.871,4.28,4.28,0,0,1-2.562.715,4.47,4.47,0,0,1-1.887-.379,3.166,3.166,0,0,1-1.293-1.039,2.414,2.414,0,0,1-.469-1.426h2.141a1.179,1.179,0,0,0,.445.922,1.766,1.766,0,0,0,1.109.32,1.635,1.635,0,0,0,.98-.246A.766.766,0,0,0,39.133,14.664Zm6.352-8.2V8.547H46.93V10.2H45.484v4.219a1.007,1.007,0,0,0,.18.672.9.9,0,0,0,.688.2,3.6,3.6,0,0,0,.664-.055v1.711a4.648,4.648,0,0,1-1.367.2,2.156,2.156,0,0,1-2.422-2.4V10.2H41.992V8.547h1.234V6.469Zm7.453,4.2a6.134,6.134,0,0,0-.812-.062,1.654,1.654,0,0,0-1.68.867V17H48.188V8.547H50.32l.063,1.008a2.092,2.092,0,0,1,1.883-1.164,2.366,2.366,0,0,1,.7.1ZM56.406,17H54.141V8.547h2.266Zm-2.4-10.641a1.112,1.112,0,0,1,.34-.836,1.465,1.465,0,0,1,1.848,0,1.105,1.105,0,0,1,.344.836,1.108,1.108,0,0,1-.348.844,1.448,1.448,0,0,1-1.836,0A1.108,1.108,0,0,1,54.008,6.359Zm11.875,6.492a5.119,5.119,0,0,1-.867,3.168,2.872,2.872,0,0,1-2.422,1.137A2.639,2.639,0,0,1,60.4,16.1l-.1.9H58.266V5h2.258V9.3a2.571,2.571,0,0,1,2.055-.914A2.9,2.9,0,0,1,65,9.527a5.126,5.126,0,0,1,.879,3.2Zm-2.258-.164a3.363,3.363,0,0,0-.406-1.871,1.374,1.374,0,0,0-1.211-.59,1.489,1.489,0,0,0-1.484.883v3.336a1.509,1.509,0,0,0,1.5.891,1.394,1.394,0,0,0,1.438-1.078A5.562,5.562,0,0,0,63.625,12.688Zm8.711,3.453a2.831,2.831,0,0,1-2.312,1.016,2.67,2.67,0,0,1-2.074-.781,3.335,3.335,0,0,1-.73-2.289V8.547h2.258v5.467q0,1.322,1.2,1.322a1.63,1.63,0,0,0,1.578-.8V8.547h2.266V17H72.4Zm7.406-.8a1.481,1.481,0,0,0,1.016-.344,1.2,1.2,0,0,0,.406-.914h2.117a2.9,2.9,0,0,1-.469,1.574,3.093,3.093,0,0,1-1.262,1.109,3.949,3.949,0,0,1-1.77.395A3.67,3.67,0,0,1,76.922,16a4.56,4.56,0,0,1-1.047-3.184v-.148a4.508,4.508,0,0,1,1.039-3.117,3.627,3.627,0,0,1,2.852-1.164,3.555,3.555,0,0,1,2.543.9,3.2,3.2,0,0,1,.973,2.4H81.164a1.551,1.551,0,0,0-.406-1.072,1.51,1.51,0,0,0-2.223.163,3.333,3.333,0,0,0-.4,1.866v.235a3.375,3.375,0,0,0,.4,1.878A1.377,1.377,0,0,0,79.742,15.336ZM86.953,17H84.688V8.547h2.266Zm-2.4-10.641a1.112,1.112,0,0,1,.34-.836,1.465,1.465,0,0,1,1.848,0,1.105,1.105,0,0,1,.344.836,1.108,1.108,0,0,1-.348.844,1.448,1.448,0,0,1-1.836,0A1.108,1.108,0,0,1,84.555,6.359ZM88.461,12.7a5.013,5.013,0,0,1,.484-2.242A3.546,3.546,0,0,1,90.34,8.93a4.069,4.069,0,0,1,2.113-.539,3.849,3.849,0,0,1,2.793,1.047,4.2,4.2,0,0,1,1.207,2.844l.016.578a4.418,4.418,0,0,1-1.086,3.121,4.209,4.209,0,0,1-5.832,0,4.5,4.5,0,0,1-1.09-3.187Zm2.258.16a3.16,3.16,0,0,0,.453,1.843,1.628,1.628,0,0,0,2.578.008,3.457,3.457,0,0,0,.461-2.015,3.128,3.128,0,0,0-.461-1.831,1.5,1.5,0,0,0-1.3-.649,1.474,1.474,0,0,0-1.281.646A3.516,3.516,0,0,0,90.719,12.856ZM92.9,5h2.461L93.2,7.422H91.359Zm7.039,3.547.07.977a2.951,2.951,0,0,1,2.43-1.133,2.453,2.453,0,0,1,2,.789,3.682,3.682,0,0,1,.672,2.359V17h-2.258V11.594a1.465,1.465,0,0,0-.312-1.043,1.4,1.4,0,0,0-1.039-.324,1.553,1.553,0,0,0-1.43.813V17H97.813V8.547Z" transform="translate(1002 3001.012)" fill="#12263f"/><path d="M44.8,15.563a4.068,4.068,0,0,1-1.789,1.176,7.492,7.492,0,0,1-2.562.418,5.076,5.076,0,0,1-2.59-.645,4.3,4.3,0,0,1-1.719-1.871,6.585,6.585,0,0,1-.621-2.883v-.773a6.994,6.994,0,0,1,.574-2.949A4.248,4.248,0,0,1,37.75,6.129a5.453,5.453,0,0,1,5.7.3A4.123,4.123,0,0,1,44.8,9.242H42.52a2.268,2.268,0,0,0-.691-1.43,2.208,2.208,0,0,0-1.473-.453,2.078,2.078,0,0,0-1.82.9A4.724,4.724,0,0,0,37.9,10.93v.727a4.5,4.5,0,0,0,.68,2.7,2.327,2.327,0,0,0,1.992.914,2.6,2.6,0,0,0,1.883-.562V12.75H40.324V11.023H44.8Zm5.641,1.594a4.15,4.15,0,0,1-3.027-1.141,4.054,4.054,0,0,1-1.168-3.039v-.219a5.106,5.106,0,0,1,.492-2.277,3.612,3.612,0,0,1,1.395-1.547,3.914,3.914,0,0,1,2.059-.543,3.508,3.508,0,0,1,2.73,1.094,4.444,4.444,0,0,1,1,3.1v.922H48.535a2.1,2.1,0,0,0,.66,1.328,2,2,0,0,0,1.395.5,2.437,2.437,0,0,0,2.039-.945l1.109,1.242a3.389,3.389,0,0,1-1.375,1.121A4.511,4.511,0,0,1,50.441,17.156Zm-.258-6.945a1.411,1.411,0,0,0-1.09.455,2.357,2.357,0,0,0-.535,1.3H51.7v-.181a1.681,1.681,0,0,0-.406-1.165A1.456,1.456,0,0,0,50.184,10.211Zm9.594,4.453a.727.727,0,0,0-.41-.652,4.659,4.659,0,0,0-1.316-.426q-3.016-.633-3.016-2.562a2.323,2.323,0,0,1,.934-1.879,3.766,3.766,0,0,1,2.441-.754,4.053,4.053,0,0,1,2.574.758,2.388,2.388,0,0,1,.965,1.969H59.691a1.092,1.092,0,0,0-.312-.8A1.322,1.322,0,0,0,58.4,10a1.351,1.351,0,0,0-.883.258.814.814,0,0,0-.312.656.7.7,0,0,0,.355.605,3.657,3.657,0,0,0,1.2.4,9.8,9.8,0,0,1,1.422.379,2.336,2.336,0,0,1,1.789,2.273,2.2,2.2,0,0,1-.992,1.871,4.28,4.28,0,0,1-2.562.715,4.47,4.47,0,0,1-1.887-.379,3.166,3.166,0,0,1-1.293-1.039,2.414,2.414,0,0,1-.469-1.426H56.91a1.179,1.179,0,0,0,.445.922,1.766,1.766,0,0,0,1.109.32,1.635,1.635,0,0,0,.98-.246A.766.766,0,0,0,59.777,14.664Zm6.352-8.2V8.547h1.445V10.2H66.129v4.219a1.007,1.007,0,0,0,.18.672.9.9,0,0,0,.688.2,3.6,3.6,0,0,0,.664-.055v1.711a4.648,4.648,0,0,1-1.367.2,2.156,2.156,0,0,1-2.422-2.4V10.2H62.637V8.547h1.234V6.469ZM71.215,17H68.949V8.547h2.266Zm-2.4-10.641a1.112,1.112,0,0,1,.34-.836,1.465,1.465,0,0,1,1.848,0,1.105,1.105,0,0,1,.344.836A1.108,1.108,0,0,1,71,7.2a1.448,1.448,0,0,1-1.836,0A1.108,1.108,0,0,1,68.816,6.359ZM72.723,12.7a5.013,5.013,0,0,1,.484-2.242A3.546,3.546,0,0,1,74.6,8.93a4.069,4.069,0,0,1,2.113-.539,3.849,3.849,0,0,1,2.793,1.047,4.2,4.2,0,0,1,1.207,2.844l.016.578a4.418,4.418,0,0,1-1.086,3.121,4.209,4.209,0,0,1-5.832,0,4.5,4.5,0,0,1-1.09-3.187Zm2.258.16a3.16,3.16,0,0,0,.453,1.843,1.628,1.628,0,0,0,2.578.008,3.457,3.457,0,0,0,.461-2.015,3.128,3.128,0,0,0-.461-1.831,1.5,1.5,0,0,0-1.3-.649,1.474,1.474,0,0,0-1.281.646A3.516,3.516,0,0,0,74.98,12.856ZM77.16,5h2.461L77.457,7.422H75.621ZM84.2,8.547l.07.977A2.951,2.951,0,0,1,86.7,8.391a2.453,2.453,0,0,1,2,.789,3.682,3.682,0,0,1,.672,2.359V17H87.113V11.594a1.465,1.465,0,0,0-.312-1.043,1.4,1.4,0,0,0-1.039-.324,1.553,1.553,0,0,0-1.43.813V17H82.074V8.547Z" transform="translate(853.059 3190.613)" fill="#12263f"/><path d="M29.773,12.836H27.906V17H25.563V5.625h4.227a4.778,4.778,0,0,1,3.109.9,3.1,3.1,0,0,1,1.094,2.539,3.5,3.5,0,0,1-.5,1.941,3.437,3.437,0,0,1-1.527,1.238l2.461,4.648V17H31.906Zm-1.867-1.9H29.8a1.936,1.936,0,0,0,1.367-.449,1.606,1.606,0,0,0,.484-1.238,1.719,1.719,0,0,0-.457-1.266,1.9,1.9,0,0,0-1.4-.461H27.906Zm11.609,6.219a4.15,4.15,0,0,1-3.027-1.141,4.054,4.054,0,0,1-1.168-3.039v-.219a5.106,5.106,0,0,1,.492-2.277,3.612,3.612,0,0,1,1.395-1.547,3.914,3.914,0,0,1,2.059-.543A3.508,3.508,0,0,1,42,9.484a4.444,4.444,0,0,1,1,3.1v.922H37.609a2.1,2.1,0,0,0,.66,1.328,2,2,0,0,0,1.395.5,2.437,2.437,0,0,0,2.039-.945l1.109,1.242a3.389,3.389,0,0,1-1.375,1.121A4.511,4.511,0,0,1,39.516,17.156Zm-.258-6.945a1.411,1.411,0,0,0-1.09.455,2.357,2.357,0,0,0-.535,1.3h3.141v-.181a1.681,1.681,0,0,0-.406-1.165A1.456,1.456,0,0,0,39.258,10.211Zm9.594,4.453a.727.727,0,0,0-.41-.652,4.659,4.659,0,0,0-1.316-.426q-3.016-.633-3.016-2.562a2.323,2.323,0,0,1,.934-1.879,3.766,3.766,0,0,1,2.441-.754,4.053,4.053,0,0,1,2.574.758,2.388,2.388,0,0,1,.965,1.969H48.766a1.092,1.092,0,0,0-.312-.8A1.322,1.322,0,0,0,47.477,10a1.351,1.351,0,0,0-.883.258.814.814,0,0,0-.312.656.7.7,0,0,0,.355.605,3.657,3.657,0,0,0,1.2.4,9.8,9.8,0,0,1,1.422.379,2.336,2.336,0,0,1,1.789,2.273,2.2,2.2,0,0,1-.992,1.871,4.28,4.28,0,0,1-2.562.715,4.47,4.47,0,0,1-1.887-.379,3.166,3.166,0,0,1-1.293-1.039,2.414,2.414,0,0,1-.469-1.426h2.141a1.179,1.179,0,0,0,.445.922,1.766,1.766,0,0,0,1.109.32,1.635,1.635,0,0,0,.98-.246A.766.766,0,0,0,48.852,14.664Zm11.258-1.812a5.07,5.07,0,0,1-.887,3.129,2.843,2.843,0,0,1-2.395,1.176,2.633,2.633,0,0,1-2.07-.891V20.25H52.5V8.547h2.094l.078.828a2.654,2.654,0,0,1,2.141-.984,2.862,2.862,0,0,1,2.43,1.156,5.207,5.207,0,0,1,.867,3.188Zm-2.258-.164a3.327,3.327,0,0,0-.418-1.82,1.361,1.361,0,0,0-1.215-.641,1.479,1.479,0,0,0-1.461.813V14.5a1.5,1.5,0,0,0,1.477.836Q57.852,15.336,57.852,12.688Zm8.719,3.453a2.831,2.831,0,0,1-2.312,1.016,2.67,2.67,0,0,1-2.074-.781,3.335,3.335,0,0,1-.73-2.289V8.547h2.258v5.467q0,1.322,1.2,1.322a1.63,1.63,0,0,0,1.578-.8V8.547h2.266V17H66.633Zm7.781,1.016a4.15,4.15,0,0,1-3.027-1.141,4.054,4.054,0,0,1-1.168-3.039v-.219a5.106,5.106,0,0,1,.492-2.277,3.612,3.612,0,0,1,1.395-1.547A3.914,3.914,0,0,1,74.1,8.391a3.508,3.508,0,0,1,2.73,1.094,4.444,4.444,0,0,1,1,3.1v.922H72.445a2.1,2.1,0,0,0,.66,1.328,2,2,0,0,0,1.395.5,2.437,2.437,0,0,0,2.039-.945l1.109,1.242a3.389,3.389,0,0,1-1.375,1.121A4.511,4.511,0,0,1,74.352,17.156Zm-.258-6.945a1.411,1.411,0,0,0-1.09.455,2.357,2.357,0,0,0-.535,1.3h3.141v-.181a1.681,1.681,0,0,0-.406-1.165A1.456,1.456,0,0,0,74.094,10.211Zm9.594,4.453a.727.727,0,0,0-.41-.652,4.659,4.659,0,0,0-1.316-.426q-3.016-.633-3.016-2.562a2.323,2.323,0,0,1,.934-1.879,3.766,3.766,0,0,1,2.441-.754,4.053,4.053,0,0,1,2.574.758,2.388,2.388,0,0,1,.965,1.969H83.6a1.092,1.092,0,0,0-.312-.8A1.322,1.322,0,0,0,82.313,10a1.351,1.351,0,0,0-.883.258.814.814,0,0,0-.312.656.7.7,0,0,0,.355.605,3.657,3.657,0,0,0,1.2.4,9.8,9.8,0,0,1,1.422.379,2.336,2.336,0,0,1,1.789,2.273,2.2,2.2,0,0,1-.992,1.871,4.28,4.28,0,0,1-2.562.715,4.47,4.47,0,0,1-1.887-.379,3.166,3.166,0,0,1-1.293-1.039,2.414,2.414,0,0,1-.469-1.426H80.82a1.179,1.179,0,0,0,.445.922,1.766,1.766,0,0,0,1.109.32,1.635,1.635,0,0,0,.98-.246A.766.766,0,0,0,83.688,14.664Zm6.352-8.2V8.547h1.445V10.2H90.039v4.219a1.007,1.007,0,0,0,.18.672.9.9,0,0,0,.688.2,3.6,3.6,0,0,0,.664-.055v1.711a4.648,4.648,0,0,1-1.367.2,2.156,2.156,0,0,1-2.422-2.4V10.2H86.547V8.547h1.234V6.469ZM97.641,17a2.507,2.507,0,0,1-.227-.758,2.732,2.732,0,0,1-2.133.914,3,3,0,0,1-2.059-.719,2.312,2.312,0,0,1-.816-1.812,2.389,2.389,0,0,1,1-2.062,4.915,4.915,0,0,1,2.879-.727H97.32v-.484a1.393,1.393,0,0,0-.3-.937,1.183,1.183,0,0,0-.949-.352,1.345,1.345,0,0,0-.895.273.929.929,0,0,0-.324.75H92.594a2.268,2.268,0,0,1,.453-1.359,3,3,0,0,1,1.281-.98,4.669,4.669,0,0,1,1.859-.355,3.689,3.689,0,0,1,2.48.785,2.747,2.747,0,0,1,.918,2.207v3.664a4.041,4.041,0,0,0,.336,1.82V17Zm-1.867-1.57a1.945,1.945,0,0,0,.922-.223,1.462,1.462,0,0,0,.625-.6V13.156h-.844q-1.7,0-1.8,1.172l-.008.133a.9.9,0,0,0,.3.7A1.153,1.153,0,0,0,95.773,15.43Z" transform="translate(617.059 3189.113)" fill="#12263f"/><path d="M24.047,14.016A1.2,1.2,0,0,0,23.578,13a6.148,6.148,0,0,0-1.687-.75,11.963,11.963,0,0,1-1.93-.777,3.153,3.153,0,0,1-1.937-2.82A2.747,2.747,0,0,1,18.543,7a3.389,3.389,0,0,1,1.492-1.129,5.616,5.616,0,0,1,2.184-.406,5.112,5.112,0,0,1,2.172.441,3.458,3.458,0,0,1,1.48,1.246A3.261,3.261,0,0,1,26.4,8.984H24.055a1.534,1.534,0,0,0-.492-1.215,2.023,2.023,0,0,0-1.383-.434,2.162,2.162,0,0,0-1.336.363,1.146,1.146,0,0,0-.477.957,1.1,1.1,0,0,0,.559.93,6.311,6.311,0,0,0,1.645.7,7.106,7.106,0,0,1,2.914,1.492A2.972,2.972,0,0,1,26.4,14a2.737,2.737,0,0,1-1.117,2.316,4.891,4.891,0,0,1-3.008.84,5.808,5.808,0,0,1-2.391-.48,3.783,3.783,0,0,1-1.645-1.316,3.371,3.371,0,0,1-.566-1.937h2.352q0,1.883,2.25,1.883a2.189,2.189,0,0,0,1.3-.34A1.106,1.106,0,0,0,24.047,14.016Zm7.68,3.141A4.15,4.15,0,0,1,28.7,16.016a4.054,4.054,0,0,1-1.168-3.039v-.219a5.106,5.106,0,0,1,.492-2.277,3.612,3.612,0,0,1,1.395-1.547,3.914,3.914,0,0,1,2.059-.543,3.508,3.508,0,0,1,2.73,1.094,4.444,4.444,0,0,1,1,3.1v.922H29.82a2.1,2.1,0,0,0,.66,1.328,2,2,0,0,0,1.395.5,2.437,2.437,0,0,0,2.039-.945l1.109,1.242a3.389,3.389,0,0,1-1.375,1.121A4.511,4.511,0,0,1,31.727,17.156Zm-.258-6.945a1.411,1.411,0,0,0-1.09.455,2.357,2.357,0,0,0-.535,1.3h3.141v-.181a1.681,1.681,0,0,0-.406-1.165A1.456,1.456,0,0,0,31.469,10.211Zm4.688,2.5a4.954,4.954,0,0,1,.926-3.133,3,3,0,0,1,2.5-1.187,2.631,2.631,0,0,1,2.164.953l.094-.8h2.047v8.172a3.613,3.613,0,0,1-.5,1.93,3.236,3.236,0,0,1-1.418,1.25,4.985,4.985,0,0,1-2.141.43,4.635,4.635,0,0,1-1.812-.371A3.217,3.217,0,0,1,36.672,19l1-1.375a2.645,2.645,0,0,0,2.047.945,1.936,1.936,0,0,0,1.4-.48,1.8,1.8,0,0,0,.5-1.363v-.453a2.612,2.612,0,0,1-2.055.883A2.992,2.992,0,0,1,37.1,15.965a4.953,4.953,0,0,1-.941-3.16Zm2.258.168a3.085,3.085,0,0,0,.461,1.8,1.466,1.466,0,0,0,1.266.653,1.568,1.568,0,0,0,1.477-.775V11a1.564,1.564,0,0,0-1.461-.775,1.476,1.476,0,0,0-1.277.665A3.477,3.477,0,0,0,38.414,12.879ZM50.68,16.141a2.831,2.831,0,0,1-2.312,1.016,2.67,2.67,0,0,1-2.074-.781,3.335,3.335,0,0,1-.73-2.289V8.547H47.82v5.467q0,1.322,1.2,1.322a1.63,1.63,0,0,0,1.578-.8V8.547h2.266V17H50.742ZM56.953,17H54.688V8.547h2.266Zm-2.4-10.641a1.112,1.112,0,0,1,.34-.836,1.465,1.465,0,0,1,1.848,0,1.105,1.105,0,0,1,.344.836,1.108,1.108,0,0,1-.348.844,1.448,1.448,0,0,1-1.836,0A1.108,1.108,0,0,1,54.555,6.359ZM60.93,8.547l.07.945a2.971,2.971,0,0,1,2.43-1.1A2.255,2.255,0,0,1,65.672,9.68a2.9,2.9,0,0,1,2.539-1.289,2.521,2.521,0,0,1,2.047.8,3.681,3.681,0,0,1,.672,2.41V17H68.664V11.609a1.61,1.61,0,0,0-.281-1.051,1.246,1.246,0,0,0-.992-.332,1.409,1.409,0,0,0-1.406.969l.008,5.8H63.734V11.617a1.59,1.59,0,0,0-.289-1.062,1.259,1.259,0,0,0-.984-.328,1.463,1.463,0,0,0-1.391.8V17H58.813V8.547ZM75.047,17H72.781V8.547h2.266Zm-2.4-10.641a1.112,1.112,0,0,1,.34-.836,1.465,1.465,0,0,1,1.848,0,1.105,1.105,0,0,1,.344.836,1.108,1.108,0,0,1-.348.844A1.448,1.448,0,0,1,73,7.2,1.108,1.108,0,0,1,72.648,6.359Zm8.148,10.8a4.15,4.15,0,0,1-3.027-1.141A4.054,4.054,0,0,1,76.6,12.977v-.219a5.106,5.106,0,0,1,.492-2.277,3.612,3.612,0,0,1,1.395-1.547,3.914,3.914,0,0,1,2.059-.543,3.508,3.508,0,0,1,2.73,1.094,4.444,4.444,0,0,1,1,3.1v.922H78.891a2.1,2.1,0,0,0,.66,1.328,2,2,0,0,0,1.395.5,2.437,2.437,0,0,0,2.039-.945l1.109,1.242a3.389,3.389,0,0,1-1.375,1.121A4.511,4.511,0,0,1,80.8,17.156Zm-.258-6.945a1.411,1.411,0,0,0-1.09.455,2.357,2.357,0,0,0-.535,1.3h3.141v-.181a1.681,1.681,0,0,0-.406-1.165A1.456,1.456,0,0,0,80.539,10.211Zm7.094-1.664.07.977a2.951,2.951,0,0,1,2.43-1.133,2.453,2.453,0,0,1,2,.789,3.682,3.682,0,0,1,.672,2.359V17H90.547V11.594a1.465,1.465,0,0,0-.312-1.043,1.4,1.4,0,0,0-1.039-.324,1.553,1.553,0,0,0-1.43.813V17H85.508V8.547Zm9.586-2.078V8.547h1.445V10.2H97.219v4.219a1.007,1.007,0,0,0,.18.672.9.9,0,0,0,.688.2,3.6,3.6,0,0,0,.664-.055v1.711a4.648,4.648,0,0,1-1.367.2,2.156,2.156,0,0,1-2.422-2.4V10.2H93.727V8.547h1.234V6.469ZM99.336,12.7a5.013,5.013,0,0,1,.484-2.242,3.546,3.546,0,0,1,1.395-1.523,4.069,4.069,0,0,1,2.113-.539,3.849,3.849,0,0,1,2.793,1.047,4.2,4.2,0,0,1,1.207,2.844l.016.578a4.418,4.418,0,0,1-1.086,3.121,4.209,4.209,0,0,1-5.832,0,4.5,4.5,0,0,1-1.09-3.187Zm2.258.16a3.16,3.16,0,0,0,.453,1.843,1.628,1.628,0,0,0,2.578.008,3.457,3.457,0,0,0,.461-2.015,3.128,3.128,0,0,0-.461-1.831,1.5,1.5,0,0,0-1.3-.649,1.474,1.474,0,0,0-1.281.646A3.516,3.516,0,0,0,101.594,12.856Z" transform="translate(474.02 3001.012)" fill="#12263f"/><path d="M23.719,17H21.375V5.625h2.344Zm4.1-8.453.07.977a2.951,2.951,0,0,1,2.43-1.133,2.453,2.453,0,0,1,2,.789,3.682,3.682,0,0,1,.672,2.359V17H30.734V11.594a1.465,1.465,0,0,0-.312-1.043,1.4,1.4,0,0,0-1.039-.324,1.553,1.553,0,0,0-1.43.813V17H25.7V8.547Zm6.531,4.164a5.094,5.094,0,0,1,.887-3.148,2.877,2.877,0,0,1,2.426-1.172,2.589,2.589,0,0,1,2.039.922V5h2.266V17H39.93l-.109-.9a2.657,2.657,0,0,1-2.172,1.055,2.869,2.869,0,0,1-2.395-1.176A5.258,5.258,0,0,1,34.352,12.711Zm2.258.168a3.337,3.337,0,0,0,.414,1.823,1.349,1.349,0,0,0,1.2.634,1.511,1.511,0,0,0,1.477-.884V11.111a1.489,1.489,0,0,0-1.461-.884Q36.609,10.227,36.609,12.879ZM46.1,17H43.836V8.547H46.1ZM43.7,6.359a1.112,1.112,0,0,1,.34-.836,1.465,1.465,0,0,1,1.848,0,1.105,1.105,0,0,1,.344.836,1.108,1.108,0,0,1-.348.844,1.448,1.448,0,0,1-1.836,0A1.108,1.108,0,0,1,43.7,6.359Zm7.773,8.977a1.481,1.481,0,0,0,1.016-.344,1.2,1.2,0,0,0,.406-.914h2.117a2.9,2.9,0,0,1-.469,1.574,3.093,3.093,0,0,1-1.262,1.109,3.949,3.949,0,0,1-1.77.395A3.67,3.67,0,0,1,48.656,16a4.56,4.56,0,0,1-1.047-3.184v-.148a4.508,4.508,0,0,1,1.039-3.117A3.627,3.627,0,0,1,51.5,8.391a3.555,3.555,0,0,1,2.543.9,3.2,3.2,0,0,1,.973,2.4H52.9a1.551,1.551,0,0,0-.406-1.072,1.51,1.51,0,0,0-2.223.163,3.333,3.333,0,0,0-.4,1.866v.235a3.375,3.375,0,0,0,.4,1.878A1.377,1.377,0,0,0,51.477,15.336ZM61.2,17a2.507,2.507,0,0,1-.227-.758,2.732,2.732,0,0,1-2.133.914,3,3,0,0,1-2.059-.719,2.312,2.312,0,0,1-.816-1.812,2.389,2.389,0,0,1,1-2.062,4.915,4.915,0,0,1,2.879-.727h1.039v-.484a1.393,1.393,0,0,0-.3-.937,1.183,1.183,0,0,0-.949-.352,1.345,1.345,0,0,0-.895.273.929.929,0,0,0-.324.75H56.156a2.268,2.268,0,0,1,.453-1.359,3,3,0,0,1,1.281-.98,4.669,4.669,0,0,1,1.859-.355,3.689,3.689,0,0,1,2.48.785,2.747,2.747,0,0,1,.918,2.207v3.664a4.041,4.041,0,0,0,.336,1.82V17Zm-1.867-1.57a1.945,1.945,0,0,0,.922-.223,1.462,1.462,0,0,0,.625-.6V13.156h-.844q-1.7,0-1.8,1.172l-.008.133a.9.9,0,0,0,.3.7A1.153,1.153,0,0,0,59.336,15.43Zm5.2-2.719a5.094,5.094,0,0,1,.887-3.148,2.877,2.877,0,0,1,2.426-1.172,2.589,2.589,0,0,1,2.039.922V5h2.266V17H70.109L70,16.1a2.657,2.657,0,0,1-2.172,1.055,2.869,2.869,0,0,1-2.395-1.176A5.258,5.258,0,0,1,64.531,12.711Zm2.258.168A3.337,3.337,0,0,0,67.2,14.7a1.349,1.349,0,0,0,1.2.634,1.511,1.511,0,0,0,1.477-.884V11.111a1.489,1.489,0,0,0-1.461-.884Q66.789,10.227,66.789,12.879Zm6.758-.184a5.013,5.013,0,0,1,.484-2.242A3.546,3.546,0,0,1,75.426,8.93a4.069,4.069,0,0,1,2.113-.539,3.849,3.849,0,0,1,2.793,1.047,4.2,4.2,0,0,1,1.207,2.844l.016.578a4.418,4.418,0,0,1-1.086,3.121,4.209,4.209,0,0,1-5.832,0,4.5,4.5,0,0,1-1.09-3.187Zm2.258.16a3.16,3.16,0,0,0,.453,1.843,1.628,1.628,0,0,0,2.578.008,3.457,3.457,0,0,0,.461-2.015,3.128,3.128,0,0,0-.461-1.831,1.5,1.5,0,0,0-1.3-.649,1.474,1.474,0,0,0-1.281.646A3.516,3.516,0,0,0,75.8,12.856ZM87.7,10.664a6.134,6.134,0,0,0-.812-.062,1.654,1.654,0,0,0-1.68.867V17H82.945V8.547h2.133l.063,1.008a2.092,2.092,0,0,1,1.883-1.164,2.366,2.366,0,0,1,.7.1Zm4.977,6.492a4.15,4.15,0,0,1-3.027-1.141,4.054,4.054,0,0,1-1.168-3.039v-.219a5.106,5.106,0,0,1,.492-2.277,3.612,3.612,0,0,1,1.395-1.547,3.914,3.914,0,0,1,2.059-.543,3.508,3.508,0,0,1,2.73,1.094,4.444,4.444,0,0,1,1,3.1v.922H90.766a2.1,2.1,0,0,0,.66,1.328,2,2,0,0,0,1.395.5,2.437,2.437,0,0,0,2.039-.945l1.109,1.242a3.389,3.389,0,0,1-1.375,1.121A4.511,4.511,0,0,1,92.672,17.156Zm-.258-6.945a1.411,1.411,0,0,0-1.09.455,2.357,2.357,0,0,0-.535,1.3H93.93v-.181a1.681,1.681,0,0,0-.406-1.165A1.456,1.456,0,0,0,92.414,10.211Zm9.594,4.453a.727.727,0,0,0-.41-.652,4.659,4.659,0,0,0-1.316-.426q-3.016-.633-3.016-2.562A2.323,2.323,0,0,1,98.2,9.145a3.766,3.766,0,0,1,2.441-.754,4.053,4.053,0,0,1,2.574.758,2.388,2.388,0,0,1,.965,1.969h-2.258a1.092,1.092,0,0,0-.312-.8,1.322,1.322,0,0,0-.977-.316,1.351,1.351,0,0,0-.883.258.814.814,0,0,0-.312.656.7.7,0,0,0,.355.605,3.657,3.657,0,0,0,1.2.4,9.8,9.8,0,0,1,1.422.379A2.336,2.336,0,0,1,104.2,14.57a2.2,2.2,0,0,1-.992,1.871,4.28,4.28,0,0,1-2.562.715,4.47,4.47,0,0,1-1.887-.379,3.166,3.166,0,0,1-1.293-1.039A2.414,2.414,0,0,1,97,14.313h2.141a1.179,1.179,0,0,0,.445.922,1.766,1.766,0,0,0,1.109.32,1.635,1.635,0,0,0,.98-.246A.766.766,0,0,0,102.008,14.664Z" transform="translate(524.834 2775)" fill="#12263f"/></g></svg>