<svg xmlns="http://www.w3.org/2000/svg" xmlns:xlink="http://www.w3.org/1999/xlink" width="1198.999" height="451.001" viewBox="0 0 1198.999 451.001">
  <defs>
    <clipPath id="clip-path">
      <path id="Path_149789" data-name="Path 149789" d="M239.135,86.812a20,20,0,0,0-20,20v411a20,20,0,0,0,20,20h1159a20,20,0,0,0,20-20V306.446c-48.615-7.277-96.906,17.133-142.03,42.09-103.1,57.02-194.763,73.659-274.41-39.055-37.95-53.7-69.656-117.827-120.876-151.05-97.282-63.1-231.92,5.754-321.344-71.619Z" fill="none"/>
    </clipPath>
    <linearGradient id="linear-gradient" x1="-0.183" y1="1.147" x2="-0.182" y2="1.147" gradientUnits="objectBoundingBox">
      <stop offset="0" stop-color="#fed981"/>
      <stop offset="1" stop-color="#ffd061"/>
    </linearGradient>
  </defs>
  <g id="Group_145714" data-name="Group 145714" transform="translate(11761.645 12493.444)">
    <path id="Path_149788" data-name="Path 149788" d="M233.523,86.811h833.767c7.946,0,14.387,6.013,14.387,13.432V376.266c0,7.418-6.441,13.432-14.387,13.432H233.523c-7.946,0-14.388-6.013-14.388-13.432V100.243c0-7.418,6.441-13.432,14.388-13.432" transform="translate(-11644.322 -12579.765)" fill="#fff"/>
    <g id="Group_144919" data-name="Group 144919" transform="translate(-11980.78 -12580.256)">
      <g id="Group_144918" data-name="Group 144918" clip-path="url(#clip-path)">
        <rect id="Rectangle_38455" data-name="Rectangle 38455" width="1198.999" height="451" transform="translate(219.136 86.812)" fill="url(#linear-gradient)"/>
      </g>
    </g>
  </g>
</svg>
