<svg xmlns="http://www.w3.org/2000/svg" width="36" height="48" viewBox="0 0 36 48"><g transform="translate(-812 -3211)"><path d="M2,37H0V6A6.006,6.006,0,0,1,6,0H36V34H33V32h1V2H6A4,4,0,0,0,2,6Z" transform="translate(812 3211)" fill="#ffb2aa"/><path d="M20,41H4.353a4.5,4.5,0,0,1,0-9H35v2H4.353A2.448,2.448,0,0,0,2,36.475,2.507,2.507,0,0,0,4.353,39H20Z" transform="translate(812 3211)" fill="#ffb2aa"/><path d="M36,41H32V39h2V36h2Z" transform="translate(812 3211)" fill="#ffb2aa"/><path d="M31,48l-5-3.75L21,48V36H31Zm-5-6.25L29,44V38H23v6Z" transform="translate(812 3211)" fill="#ffb2aa"/><path d="M15.265,28.278l-1.414-1.414,6.75-6.749a1,1,0,0,1,1.234-.144,4.086,4.086,0,0,0,4.666-.847l.643-.643A5.149,5.149,0,0,0,28.4,13.744l-2.967,2.967a1,1,0,0,1-1.414,0l-3.155-3.156a1,1,0,0,1,0-1.414L23.83,9.174a5.153,5.153,0,0,0-4.738,1.255l-.642.643a4.092,4.092,0,0,0-.849,4.666,1,1,0,0,1-.143,1.233L10.707,23.72,9.293,22.306,15.54,16.06a6.309,6.309,0,0,1,1.5-6.4l.642-.643c2.107-2.107,6.257-2.885,8.447-.735A1,1,0,0,1,26.132,9.7l-3.148,3.147,1.741,1.742,3.148-3.148a1,1,0,0,1,.707-.293h0a1,1,0,0,1,.709.3c2.152,2.191,1.372,6.34-.735,8.447l-.643.643a6.3,6.3,0,0,1-6.4,1.494Z" transform="translate(812 3211)" fill="#ffb2aa"/><rect width="2" height="25" transform="translate(816 3216)" fill="#ffb2aa"/></g></svg>